%TF.GenerationSoftware,KiCad,Pcbnew,9.0.7-9.0.7~ubuntu22.04.1*%
%TF.CreationDate,2026-01-21T12:36:38+05:30*%
%TF.ProjectId,HV_POWER_SUPPLY_NEWSHAPE,48565f50-4f57-4455-925f-535550504c59,V1.0*%
%TF.SameCoordinates,Original*%
%TF.FileFunction,Copper,L1,Top*%
%TF.FilePolarity,Positive*%
%FSLAX46Y46*%
G04 Gerber Fmt 4.6, Leading zero omitted, Abs format (unit mm)*
G04 Created by KiCad (PCBNEW 9.0.7-9.0.7~ubuntu22.04.1) date 2026-01-21 12:36:38*
%MOMM*%
%LPD*%
G01*
G04 APERTURE LIST*
G04 Aperture macros list*
%AMRoundRect*
0 Rectangle with rounded corners*
0 $1 Rounding radius*
0 $2 $3 $4 $5 $6 $7 $8 $9 X,Y pos of 4 corners*
0 Add a 4 corners polygon primitive as box body*
4,1,4,$2,$3,$4,$5,$6,$7,$8,$9,$2,$3,0*
0 Add four circle primitives for the rounded corners*
1,1,$1+$1,$2,$3*
1,1,$1+$1,$4,$5*
1,1,$1+$1,$6,$7*
1,1,$1+$1,$8,$9*
0 Add four rect primitives between the rounded corners*
20,1,$1+$1,$2,$3,$4,$5,0*
20,1,$1+$1,$4,$5,$6,$7,0*
20,1,$1+$1,$6,$7,$8,$9,0*
20,1,$1+$1,$8,$9,$2,$3,0*%
G04 Aperture macros list end*
%TA.AperFunction,Conductor*%
%ADD10C,0.050000*%
%TD*%
%TA.AperFunction,Conductor*%
%ADD11C,0.100000*%
%TD*%
%TA.AperFunction,Conductor*%
%ADD12C,0.000000*%
%TD*%
%ADD13C,0.200000*%
%TA.AperFunction,Conductor*%
%ADD14C,0.200000*%
%TD*%
%TA.AperFunction,SMDPad,CuDef*%
%ADD15R,0.600000X1.070003*%
%TD*%
%TA.AperFunction,SMDPad,CuDef*%
%ADD16RoundRect,0.225000X-0.250000X0.225000X-0.250000X-0.225000X0.250000X-0.225000X0.250000X0.225000X0*%
%TD*%
%TA.AperFunction,ComponentPad*%
%ADD17R,1.700000X1.700000*%
%TD*%
%TA.AperFunction,ComponentPad*%
%ADD18C,1.700000*%
%TD*%
%TA.AperFunction,SMDPad,CuDef*%
%ADD19RoundRect,0.200000X0.200000X0.275000X-0.200000X0.275000X-0.200000X-0.275000X0.200000X-0.275000X0*%
%TD*%
%TA.AperFunction,SMDPad,CuDef*%
%ADD20RoundRect,0.250000X-0.262500X-0.450000X0.262500X-0.450000X0.262500X0.450000X-0.262500X0.450000X0*%
%TD*%
%TA.AperFunction,SMDPad,CuDef*%
%ADD21RoundRect,0.250000X-0.325000X-0.650000X0.325000X-0.650000X0.325000X0.650000X-0.325000X0.650000X0*%
%TD*%
%TA.AperFunction,SMDPad,CuDef*%
%ADD22O,2.045009X0.588011*%
%TD*%
%TA.AperFunction,SMDPad,CuDef*%
%ADD23RoundRect,0.225000X0.225000X0.250000X-0.225000X0.250000X-0.225000X-0.250000X0.225000X-0.250000X0*%
%TD*%
%TA.AperFunction,SMDPad,CuDef*%
%ADD24RoundRect,0.250000X-0.475000X0.250000X-0.475000X-0.250000X0.475000X-0.250000X0.475000X0.250000X0*%
%TD*%
%TA.AperFunction,SMDPad,CuDef*%
%ADD25RoundRect,0.200000X-0.200000X-0.275000X0.200000X-0.275000X0.200000X0.275000X-0.200000X0.275000X0*%
%TD*%
%TA.AperFunction,SMDPad,CuDef*%
%ADD26R,6.600000X2.300000*%
%TD*%
%TA.AperFunction,SMDPad,CuDef*%
%ADD27R,0.950013X1.150013*%
%TD*%
%TA.AperFunction,SMDPad,CuDef*%
%ADD28RoundRect,0.250000X-0.450000X0.262500X-0.450000X-0.262500X0.450000X-0.262500X0.450000X0.262500X0*%
%TD*%
%TA.AperFunction,SMDPad,CuDef*%
%ADD29RoundRect,0.200000X-0.275000X0.200000X-0.275000X-0.200000X0.275000X-0.200000X0.275000X0.200000X0*%
%TD*%
%TA.AperFunction,SMDPad,CuDef*%
%ADD30RoundRect,0.225000X-0.225000X-0.250000X0.225000X-0.250000X0.225000X0.250000X-0.225000X0.250000X0*%
%TD*%
%TA.AperFunction,SMDPad,CuDef*%
%ADD31R,1.397003X0.405994*%
%TD*%
%TA.AperFunction,SMDPad,CuDef*%
%ADD32RoundRect,0.218750X-0.256250X0.218750X-0.256250X-0.218750X0.256250X-0.218750X0.256250X0.218750X0*%
%TD*%
%TA.AperFunction,SMDPad,CuDef*%
%ADD33RoundRect,0.250000X0.450000X-0.262500X0.450000X0.262500X-0.450000X0.262500X-0.450000X-0.262500X0*%
%TD*%
%TA.AperFunction,SMDPad,CuDef*%
%ADD34R,0.876300X0.508000*%
%TD*%
%TA.AperFunction,SMDPad,CuDef*%
%ADD35R,0.350013X0.850013*%
%TD*%
%TA.AperFunction,ComponentPad*%
%ADD36C,1.524003*%
%TD*%
%TA.AperFunction,SMDPad,CuDef*%
%ADD37RoundRect,0.225000X0.250000X-0.225000X0.250000X0.225000X-0.250000X0.225000X-0.250000X-0.225000X0*%
%TD*%
%TA.AperFunction,SMDPad,CuDef*%
%ADD38RoundRect,0.250000X-0.650000X0.325000X-0.650000X-0.325000X0.650000X-0.325000X0.650000X0.325000X0*%
%TD*%
%TA.AperFunction,SMDPad,CuDef*%
%ADD39R,1.000000X1.000000*%
%TD*%
%TA.AperFunction,SMDPad,CuDef*%
%ADD40RoundRect,0.250000X0.650000X-0.325000X0.650000X0.325000X-0.650000X0.325000X-0.650000X-0.325000X0*%
%TD*%
%TA.AperFunction,SMDPad,CuDef*%
%ADD41R,0.532004X0.800000*%
%TD*%
%TA.AperFunction,ViaPad*%
%ADD42C,0.600000*%
%TD*%
%TA.AperFunction,Conductor*%
%ADD43C,0.508000*%
%TD*%
%TA.AperFunction,Conductor*%
%ADD44C,0.304800*%
%TD*%
%TA.AperFunction,Conductor*%
%ADD45C,0.355600*%
%TD*%
%TA.AperFunction,Conductor*%
%ADD46C,0.635000*%
%TD*%
%TA.AperFunction,Conductor*%
%ADD47C,0.406400*%
%TD*%
G04 APERTURE END LIST*
D10*
%TO.N,Net-(C17-Pad2)*%
X181120000Y-94476056D02*
X177170000Y-94476056D01*
X177170000Y-91430000D01*
X181120000Y-91430000D01*
X181120000Y-94476056D01*
%TA.AperFunction,Conductor*%
G36*
X181120000Y-94476056D02*
G01*
X177170000Y-94476056D01*
X177170000Y-91430000D01*
X181120000Y-91430000D01*
X181120000Y-94476056D01*
G37*
%TD.AperFunction*%
%TO.N,Net-(C21-Pad2)*%
X186830000Y-94466056D02*
X182880000Y-94466056D01*
X182880000Y-91420000D01*
X186830000Y-91420000D01*
X186830000Y-94466056D01*
%TA.AperFunction,Conductor*%
G36*
X186830000Y-94466056D02*
G01*
X182880000Y-94466056D01*
X182880000Y-91420000D01*
X186830000Y-91420000D01*
X186830000Y-94466056D01*
G37*
%TD.AperFunction*%
%TO.N,Net-(U1-A)*%
X160730000Y-109140000D02*
X159540000Y-110210000D01*
X158960000Y-110210000D01*
X158960000Y-109370000D01*
X159470000Y-109370000D01*
X160360000Y-108300000D01*
X160730000Y-108300000D01*
X160730000Y-109140000D01*
%TA.AperFunction,Conductor*%
G36*
X160730000Y-109140000D02*
G01*
X159540000Y-110210000D01*
X158960000Y-110210000D01*
X158960000Y-109370000D01*
X159470000Y-109370000D01*
X160360000Y-108300000D01*
X160730000Y-108300000D01*
X160730000Y-109140000D01*
G37*
%TD.AperFunction*%
D11*
%TO.N,Net-(U4-OUT)*%
X189200000Y-120350000D02*
X188375000Y-120350000D01*
X188375000Y-117775000D01*
X189200000Y-117775000D01*
X189200000Y-120350000D01*
%TA.AperFunction,Conductor*%
G36*
X189200000Y-120350000D02*
G01*
X188375000Y-120350000D01*
X188375000Y-117775000D01*
X189200000Y-117775000D01*
X189200000Y-120350000D01*
G37*
%TD.AperFunction*%
D10*
%TO.N,Net-(R4-Pad2)*%
X169860000Y-106580000D02*
X166390000Y-106580000D01*
X166390000Y-105600000D01*
X169860000Y-105600000D01*
X169860000Y-106580000D01*
%TA.AperFunction,Conductor*%
G36*
X169860000Y-106580000D02*
G01*
X166390000Y-106580000D01*
X166390000Y-105600000D01*
X169860000Y-105600000D01*
X169860000Y-106580000D01*
G37*
%TD.AperFunction*%
D12*
%TA.AperFunction,Conductor*%
%TO.N,GEIGER_DETECTB*%
G36*
X203300000Y-96743724D02*
G01*
X203300000Y-100680724D01*
X203173000Y-100807724D01*
X200887000Y-100807724D01*
X200760000Y-100680724D01*
X200760000Y-96108724D01*
X200887000Y-95981724D01*
X202538000Y-95981724D01*
X203300000Y-96743724D01*
G37*
%TD.AperFunction*%
D13*
X195450000Y-96000000D02*
X195450000Y-96000000D01*
D10*
%TO.N,Net-(C19-Pad2)*%
X183942342Y-88650000D02*
X182812342Y-88650000D01*
X182322342Y-88940000D01*
X181722342Y-88940000D01*
X181082342Y-88650000D01*
X180052342Y-88650000D01*
X180052342Y-86930000D01*
X180082342Y-86930000D01*
X183942342Y-86930000D01*
X183942342Y-88650000D01*
%TA.AperFunction,Conductor*%
G36*
X183942342Y-88650000D02*
G01*
X182812342Y-88650000D01*
X182322342Y-88940000D01*
X181722342Y-88940000D01*
X181082342Y-88650000D01*
X180052342Y-88650000D01*
X180052342Y-86930000D01*
X180082342Y-86930000D01*
X183942342Y-86930000D01*
X183942342Y-88650000D01*
G37*
%TD.AperFunction*%
%TO.N,/SW_NODE*%
X151500000Y-97900000D02*
X161000000Y-97900000D01*
X161000000Y-100400000D01*
X149700000Y-100400000D01*
X149700000Y-94700000D01*
X151500000Y-94700000D01*
X151500000Y-97900000D01*
%TA.AperFunction,Conductor*%
G36*
X151500000Y-97900000D02*
G01*
X161000000Y-97900000D01*
X161000000Y-100400000D01*
X149700000Y-100400000D01*
X149700000Y-94700000D01*
X151500000Y-94700000D01*
X151500000Y-97900000D01*
G37*
%TD.AperFunction*%
%TO.N,Net-(C12-Pad2)*%
X169800000Y-94496056D02*
X165850000Y-94496056D01*
X165850000Y-91450000D01*
X169800000Y-91450000D01*
X169800000Y-94496056D01*
%TA.AperFunction,Conductor*%
G36*
X169800000Y-94496056D02*
G01*
X165850000Y-94496056D01*
X165850000Y-91450000D01*
X169800000Y-91450000D01*
X169800000Y-94496056D01*
G37*
%TD.AperFunction*%
%TO.N,Net-(C25-Pad2)*%
X193680000Y-89420000D02*
X193100000Y-89420000D01*
X193100000Y-88680000D01*
X191530000Y-88680000D01*
X191530000Y-86900000D01*
X193680000Y-86900000D01*
X193680000Y-89420000D01*
%TA.AperFunction,Conductor*%
G36*
X193680000Y-89420000D02*
G01*
X193100000Y-89420000D01*
X193100000Y-88680000D01*
X191530000Y-88680000D01*
X191530000Y-86900000D01*
X193680000Y-86900000D01*
X193680000Y-89420000D01*
G37*
%TD.AperFunction*%
%TO.N,Net-(C11-Pad2)*%
X166793390Y-88650000D02*
X165663390Y-88650000D01*
X165173390Y-88940000D01*
X164573390Y-88940000D01*
X163933390Y-88650000D01*
X162903390Y-88650000D01*
X162903390Y-86930000D01*
X162933390Y-86930000D01*
X166793390Y-86930000D01*
X166793390Y-88650000D01*
%TA.AperFunction,Conductor*%
G36*
X166793390Y-88650000D02*
G01*
X165663390Y-88650000D01*
X165173390Y-88940000D01*
X164573390Y-88940000D01*
X163933390Y-88650000D01*
X162903390Y-88650000D01*
X162903390Y-86930000D01*
X162933390Y-86930000D01*
X166793390Y-86930000D01*
X166793390Y-88650000D01*
G37*
%TD.AperFunction*%
%TO.N,Net-(C27-Pad2)*%
X197400000Y-92670000D02*
X197400000Y-94420000D01*
X194060000Y-94420000D01*
X194060000Y-90840000D01*
X197400000Y-92670000D01*
%TA.AperFunction,Conductor*%
G36*
X197400000Y-92670000D02*
G01*
X197400000Y-94420000D01*
X194060000Y-94420000D01*
X194060000Y-90840000D01*
X197400000Y-92670000D01*
G37*
%TD.AperFunction*%
%TO.N,Net-(C24-Pad2)*%
X192470000Y-94436056D02*
X188520000Y-94436056D01*
X188520000Y-91390000D01*
X192470000Y-91390000D01*
X192470000Y-94436056D01*
%TA.AperFunction,Conductor*%
G36*
X192470000Y-94436056D02*
G01*
X188520000Y-94436056D01*
X188520000Y-91390000D01*
X192470000Y-91390000D01*
X192470000Y-94436056D01*
G37*
%TD.AperFunction*%
%TO.N,Net-(C16-Pad2)*%
X178221672Y-88652480D02*
X177091672Y-88652480D01*
X176601672Y-88942480D01*
X176001672Y-88942480D01*
X175361672Y-88652480D01*
X174331672Y-88652480D01*
X174331672Y-86932480D01*
X174361672Y-86932480D01*
X178221672Y-86932480D01*
X178221672Y-88652480D01*
%TA.AperFunction,Conductor*%
G36*
X178221672Y-88652480D02*
G01*
X177091672Y-88652480D01*
X176601672Y-88942480D01*
X176001672Y-88942480D01*
X175361672Y-88652480D01*
X174331672Y-88652480D01*
X174331672Y-86932480D01*
X174361672Y-86932480D01*
X178221672Y-86932480D01*
X178221672Y-88652480D01*
G37*
%TD.AperFunction*%
%TO.N,Net-(R10-Pad1)*%
X175890000Y-111690000D02*
X176750000Y-111690000D01*
X176750000Y-113290000D01*
X175000000Y-113290000D01*
X175000000Y-108780000D01*
X172460000Y-108780000D01*
X172460000Y-107400000D01*
X174860000Y-107400000D01*
X174860000Y-107130000D01*
X175890000Y-107130000D01*
X175890000Y-111690000D01*
%TA.AperFunction,Conductor*%
G36*
X175890000Y-111690000D02*
G01*
X176750000Y-111690000D01*
X176750000Y-113290000D01*
X175000000Y-113290000D01*
X175000000Y-108780000D01*
X172460000Y-108780000D01*
X172460000Y-107400000D01*
X174860000Y-107400000D01*
X174860000Y-107130000D01*
X175890000Y-107130000D01*
X175890000Y-111690000D01*
G37*
%TD.AperFunction*%
D14*
%TO.N,Net-(C5-Pad1)*%
X153100000Y-95200000D02*
X165700000Y-95200000D01*
X165700000Y-106600000D01*
X164500000Y-106600000D01*
X162400000Y-98800000D01*
X162400000Y-96500000D01*
X152000000Y-96500000D01*
X152000000Y-94500000D01*
X152000000Y-91000000D01*
X153100000Y-91000000D01*
X153100000Y-95200000D01*
%TA.AperFunction,Conductor*%
G36*
X153100000Y-95200000D02*
G01*
X165700000Y-95200000D01*
X165700000Y-106600000D01*
X164500000Y-106600000D01*
X162400000Y-98800000D01*
X162400000Y-96500000D01*
X152000000Y-96500000D01*
X152000000Y-94500000D01*
X152000000Y-91000000D01*
X153100000Y-91000000D01*
X153100000Y-95200000D01*
G37*
%TD.AperFunction*%
D10*
%TO.N,Net-(C6-Pad2)*%
X155350000Y-88670000D02*
X153800000Y-88670000D01*
X153800000Y-89580000D01*
X151890000Y-89580000D01*
X151400000Y-91750000D01*
X151400000Y-92880000D01*
X149690000Y-92880000D01*
X149690000Y-91790000D01*
X152100000Y-86930000D01*
X155350000Y-86930000D01*
X155350000Y-88670000D01*
%TA.AperFunction,Conductor*%
G36*
X155350000Y-88670000D02*
G01*
X153800000Y-88670000D01*
X153800000Y-89580000D01*
X151890000Y-89580000D01*
X151400000Y-91750000D01*
X151400000Y-92880000D01*
X149690000Y-92880000D01*
X149690000Y-91790000D01*
X152100000Y-86930000D01*
X155350000Y-86930000D01*
X155350000Y-88670000D01*
G37*
%TD.AperFunction*%
D14*
%TO.N,Net-(R11-Pad2)*%
X184820000Y-108170000D02*
X182275000Y-113200000D01*
X180200000Y-113200000D01*
X180200000Y-111800000D01*
X182150000Y-108650000D01*
X182175000Y-107075000D01*
X184825000Y-107075000D01*
X184820000Y-108170000D01*
%TA.AperFunction,Conductor*%
G36*
X184820000Y-108170000D02*
G01*
X182275000Y-113200000D01*
X180200000Y-113200000D01*
X180200000Y-111800000D01*
X182150000Y-108650000D01*
X182175000Y-107075000D01*
X184825000Y-107075000D01*
X184820000Y-108170000D01*
G37*
%TD.AperFunction*%
D10*
%TO.N,Net-(C23-Pad2)*%
X189681672Y-88642480D02*
X188551672Y-88642480D01*
X188061672Y-88932480D01*
X187461672Y-88932480D01*
X186821672Y-88642480D01*
X185791672Y-88642480D01*
X185791672Y-86922480D01*
X185821672Y-86922480D01*
X189681672Y-86922480D01*
X189681672Y-88642480D01*
%TA.AperFunction,Conductor*%
G36*
X189681672Y-88642480D02*
G01*
X188551672Y-88642480D01*
X188061672Y-88932480D01*
X187461672Y-88932480D01*
X186821672Y-88642480D01*
X185791672Y-88642480D01*
X185791672Y-86922480D01*
X185821672Y-86922480D01*
X189681672Y-86922480D01*
X189681672Y-88642480D01*
G37*
%TD.AperFunction*%
%TO.N,Net-(U3-V+)*%
X161520000Y-114020000D02*
X158960000Y-114020000D01*
X158960000Y-111800000D01*
X161520000Y-111800000D01*
X161520000Y-114020000D01*
%TA.AperFunction,Conductor*%
G36*
X161520000Y-114020000D02*
G01*
X158960000Y-114020000D01*
X158960000Y-111800000D01*
X161520000Y-111800000D01*
X161520000Y-114020000D01*
G37*
%TD.AperFunction*%
%TO.N,Net-(R20-Pad2)*%
X173929184Y-106600000D02*
X170459184Y-106600000D01*
X170459184Y-105620000D01*
X173929184Y-105620000D01*
X173929184Y-106600000D01*
%TA.AperFunction,Conductor*%
G36*
X173929184Y-106600000D02*
G01*
X170459184Y-106600000D01*
X170459184Y-105620000D01*
X173929184Y-105620000D01*
X173929184Y-106600000D01*
G37*
%TD.AperFunction*%
%TO.N,Net-(C10-Pad2)*%
X164152376Y-94520000D02*
X160202376Y-94520000D01*
X160202376Y-91473944D01*
X164152376Y-91473944D01*
X164152376Y-94520000D01*
%TA.AperFunction,Conductor*%
G36*
X164152376Y-94520000D02*
G01*
X160202376Y-94520000D01*
X160202376Y-91473944D01*
X164152376Y-91473944D01*
X164152376Y-94520000D01*
G37*
%TD.AperFunction*%
%TO.N,Net-(C14-Pad2)*%
X172511672Y-88652480D02*
X171381672Y-88652480D01*
X170891672Y-88942480D01*
X170291672Y-88942480D01*
X169651672Y-88652480D01*
X168621672Y-88652480D01*
X168621672Y-86932480D01*
X168651672Y-86932480D01*
X172511672Y-86932480D01*
X172511672Y-88652480D01*
%TA.AperFunction,Conductor*%
G36*
X172511672Y-88652480D02*
G01*
X171381672Y-88652480D01*
X170891672Y-88942480D01*
X170291672Y-88942480D01*
X169651672Y-88652480D01*
X168621672Y-88652480D01*
X168621672Y-86932480D01*
X168651672Y-86932480D01*
X172511672Y-86932480D01*
X172511672Y-88652480D01*
G37*
%TD.AperFunction*%
%TO.N,Net-(C11-Pad1)*%
X161100000Y-88650000D02*
X159970000Y-88650000D01*
X159480000Y-88940000D01*
X158880000Y-88940000D01*
X158240000Y-88650000D01*
X157210000Y-88650000D01*
X157210000Y-86930000D01*
X157240000Y-86930000D01*
X161100000Y-86930000D01*
X161100000Y-88650000D01*
%TA.AperFunction,Conductor*%
G36*
X161100000Y-88650000D02*
G01*
X159970000Y-88650000D01*
X159480000Y-88940000D01*
X158880000Y-88940000D01*
X158240000Y-88650000D01*
X157210000Y-88650000D01*
X157210000Y-86930000D01*
X157240000Y-86930000D01*
X161100000Y-86930000D01*
X161100000Y-88650000D01*
G37*
%TD.AperFunction*%
%TO.N,SYS_5V*%
X160740000Y-106080000D02*
X160740000Y-106930000D01*
X152380000Y-106930000D01*
X152380000Y-108220000D01*
X150660000Y-108220000D01*
X150660000Y-102190000D01*
X150810000Y-102190000D01*
X157380000Y-102190000D01*
X160740000Y-106080000D01*
%TA.AperFunction,Conductor*%
G36*
X160740000Y-106080000D02*
G01*
X160740000Y-106930000D01*
X152380000Y-106930000D01*
X152380000Y-108220000D01*
X150660000Y-108220000D01*
X150660000Y-102190000D01*
X150810000Y-102190000D01*
X157380000Y-102190000D01*
X160740000Y-106080000D01*
G37*
%TD.AperFunction*%
%TO.N,Net-(C15-Pad2)*%
X175450000Y-94486056D02*
X171500000Y-94486056D01*
X171500000Y-91440000D01*
X175450000Y-91440000D01*
X175450000Y-94486056D01*
%TA.AperFunction,Conductor*%
G36*
X175450000Y-94486056D02*
G01*
X171500000Y-94486056D01*
X171500000Y-91440000D01*
X175450000Y-91440000D01*
X175450000Y-94486056D01*
G37*
%TD.AperFunction*%
%TO.N,Net-(R3-Pad2)*%
X167810000Y-108420000D02*
X164340000Y-108420000D01*
X164340000Y-107440000D01*
X167810000Y-107440000D01*
X167810000Y-108420000D01*
%TA.AperFunction,Conductor*%
G36*
X167810000Y-108420000D02*
G01*
X164340000Y-108420000D01*
X164340000Y-107440000D01*
X167810000Y-107440000D01*
X167810000Y-108420000D01*
G37*
%TD.AperFunction*%
%TO.N,Net-(J5-Pin_1)*%
X200400000Y-93080000D02*
X202540000Y-93080000D01*
X202540000Y-94270000D01*
X198250000Y-94270000D01*
X198250000Y-92980000D01*
X198760000Y-92980000D01*
X198750000Y-89030000D01*
X200410000Y-89030000D01*
X200400000Y-93080000D01*
%TA.AperFunction,Conductor*%
G36*
X200400000Y-93080000D02*
G01*
X202540000Y-93080000D01*
X202540000Y-94270000D01*
X198250000Y-94270000D01*
X198250000Y-92980000D01*
X198760000Y-92980000D01*
X198750000Y-89030000D01*
X200410000Y-89030000D01*
X200400000Y-93080000D01*
G37*
%TD.AperFunction*%
%TO.N,Net-(C10-Pad1)*%
X158400000Y-94520000D02*
X154450000Y-94520000D01*
X154450000Y-91473944D01*
X158400000Y-91473944D01*
X158400000Y-94520000D01*
%TA.AperFunction,Conductor*%
G36*
X158400000Y-94520000D02*
G01*
X154450000Y-94520000D01*
X154450000Y-91473944D01*
X158400000Y-91473944D01*
X158400000Y-94520000D01*
G37*
%TD.AperFunction*%
%TO.N,POT_METER*%
X181280000Y-108410000D02*
X179280000Y-108420000D01*
X179290000Y-119610000D01*
X177870000Y-119610000D01*
X177880000Y-110900000D01*
X176740000Y-110900000D01*
X176740000Y-107120000D01*
X180250000Y-107120000D01*
X180250000Y-105290000D01*
X181280000Y-105290000D01*
X181280000Y-108410000D01*
%TA.AperFunction,Conductor*%
G36*
X181280000Y-108410000D02*
G01*
X179280000Y-108420000D01*
X179290000Y-119610000D01*
X177870000Y-119610000D01*
X177880000Y-110900000D01*
X176740000Y-110900000D01*
X176740000Y-107120000D01*
X180250000Y-107120000D01*
X180250000Y-105290000D01*
X181280000Y-105290000D01*
X181280000Y-108410000D01*
G37*
%TD.AperFunction*%
%TO.N,Net-(R20-Pad1)*%
X171870000Y-108410000D02*
X168400000Y-108410000D01*
X168400000Y-107430000D01*
X171870000Y-107430000D01*
X171870000Y-108410000D01*
%TA.AperFunction,Conductor*%
G36*
X171870000Y-108410000D02*
G01*
X168400000Y-108410000D01*
X168400000Y-107430000D01*
X171870000Y-107430000D01*
X171870000Y-108410000D01*
G37*
%TD.AperFunction*%
%TD*%
D15*
%TO.P,D2,1,1*%
%TO.N,Net-(C5-Pad1)*%
X152560038Y-91514513D03*
%TO.P,D2,2,2*%
%TO.N,Net-(C10-Pad1)*%
X154459962Y-91514513D03*
%TO.P,D2,3,3*%
%TO.N,Net-(C6-Pad2)*%
X153510000Y-89044359D03*
%TD*%
D16*
%TO.P,C1,1*%
%TO.N,Net-(U3-V+)*%
X159460653Y-113585000D03*
%TO.P,C1,2*%
%TO.N,GND*%
X159460653Y-115135000D03*
%TD*%
D17*
%TO.P,J1,1,Pin_1*%
%TO.N,IO_VREF*%
X154500000Y-116250000D03*
D18*
%TO.P,J1,2,Pin_2*%
%TO.N,GND*%
X154500000Y-113710000D03*
%TD*%
D15*
%TO.P,D7,1,1*%
%TO.N,Net-(C17-Pad2)*%
X181050000Y-91364513D03*
%TO.P,D7,2,2*%
%TO.N,Net-(C21-Pad2)*%
X182949924Y-91364513D03*
%TO.P,D7,3,3*%
%TO.N,Net-(C19-Pad2)*%
X181999962Y-88894359D03*
%TD*%
%TO.P,D3,1,1*%
%TO.N,Net-(C10-Pad1)*%
X158230038Y-91364513D03*
%TO.P,D3,2,2*%
%TO.N,Net-(C10-Pad2)*%
X160129962Y-91364513D03*
%TO.P,D3,3,3*%
%TO.N,Net-(C11-Pad1)*%
X159180000Y-88894359D03*
%TD*%
D19*
%TO.P,R22,1*%
%TO.N,Net-(U4-OUT)*%
X188785000Y-118220000D03*
%TO.P,R22,2*%
%TO.N,Net-(DS1-Pad2)*%
X187135000Y-118220000D03*
%TD*%
%TO.P,R27,1*%
%TO.N,Net-(U5B-IN+)*%
X167325000Y-123350000D03*
%TO.P,R27,2*%
%TO.N,GND*%
X165675000Y-123350000D03*
%TD*%
D20*
%TO.P,R2,1*%
%TO.N,Net-(U3-V+)*%
X161037500Y-112450000D03*
%TO.P,R2,2*%
%TO.N,BOOST_EN*%
X162862500Y-112450000D03*
%TD*%
D21*
%TO.P,C8,1*%
%TO.N,Net-(C6-Pad2)*%
X154825000Y-87800000D03*
%TO.P,C8,2*%
%TO.N,Net-(C11-Pad1)*%
X157775000Y-87800000D03*
%TD*%
D22*
%TO.P,U5,1,OUT*%
%TO.N,/Page 2/HV_PG*%
X175262416Y-126745004D03*
%TO.P,U5,2,V-*%
%TO.N,GND*%
X175262416Y-125475001D03*
%TO.P,U5,3,IN+*%
%TO.N,POT_METER*%
X175262416Y-124204999D03*
%TO.P,U5,4,IN-*%
%TO.N,Net-(U5A-IN-)*%
X175262416Y-122934996D03*
%TO.P,U5,5,IN-*%
%TO.N,GEIGER_DETECTB*%
X169717584Y-122934996D03*
%TO.P,U5,6,IN+*%
%TO.N,Net-(U5B-IN+)*%
X169717584Y-124204999D03*
%TO.P,U5,7,V+*%
%TO.N,IO_VREF*%
X169717584Y-125475001D03*
%TO.P,U5,8,OUT*%
%TO.N,/Page 2/DETECT_OUTPUT*%
X169717584Y-126745004D03*
%TD*%
D23*
%TO.P,C18,1*%
%TO.N,Net-(C18-Pad1)*%
X182005000Y-118394619D03*
%TO.P,C18,2*%
%TO.N,GND*%
X180455000Y-118394619D03*
%TD*%
D24*
%TO.P,C2,1*%
%TO.N,SYS_5V*%
X154430000Y-106360000D03*
%TO.P,C2,2*%
%TO.N,GND*%
X154430000Y-108260000D03*
%TD*%
D21*
%TO.P,C19,1*%
%TO.N,Net-(C16-Pad2)*%
X177655000Y-87800000D03*
%TO.P,C19,2*%
%TO.N,Net-(C19-Pad2)*%
X180605000Y-87800000D03*
%TD*%
D25*
%TO.P,R16,1*%
%TO.N,Net-(U2-IN+)*%
X180365000Y-120290000D03*
%TO.P,R16,2*%
%TO.N,Net-(C18-Pad1)*%
X182015000Y-120290000D03*
%TD*%
D15*
%TO.P,Q2,1,G*%
%TO.N,Net-(Q2-G)*%
X159330038Y-102425077D03*
%TO.P,Q2,2,S*%
%TO.N,GND*%
X161229962Y-102425077D03*
%TO.P,Q2,3,D*%
%TO.N,/SW_NODE*%
X160280000Y-99954923D03*
%TD*%
D21*
%TO.P,C23,1*%
%TO.N,Net-(C19-Pad2)*%
X183435000Y-87800000D03*
%TO.P,C23,2*%
%TO.N,Net-(C23-Pad2)*%
X186385000Y-87800000D03*
%TD*%
D15*
%TO.P,D5,1,1*%
%TO.N,Net-(C12-Pad2)*%
X169660038Y-91364513D03*
%TO.P,D5,2,2*%
%TO.N,Net-(C15-Pad2)*%
X171559962Y-91364513D03*
%TO.P,D5,3,3*%
%TO.N,Net-(C14-Pad2)*%
X170610000Y-88894359D03*
%TD*%
%TO.P,D8,1,1*%
%TO.N,Net-(C21-Pad2)*%
X186780038Y-91364513D03*
%TO.P,D8,2,2*%
%TO.N,Net-(C24-Pad2)*%
X188679962Y-91364513D03*
%TO.P,D8,3,3*%
%TO.N,Net-(C23-Pad2)*%
X187730000Y-88894359D03*
%TD*%
D21*
%TO.P,C21,1*%
%TO.N,Net-(C17-Pad2)*%
X180525000Y-93590000D03*
%TO.P,C21,2*%
%TO.N,Net-(C21-Pad2)*%
X183475000Y-93590000D03*
%TD*%
%TO.P,C25,1*%
%TO.N,Net-(C23-Pad2)*%
X189115000Y-87800000D03*
%TO.P,C25,2*%
%TO.N,Net-(C25-Pad2)*%
X192065000Y-87800000D03*
%TD*%
D26*
%TO.P,L1,1,1*%
%TO.N,/SW_NODE*%
X154070000Y-99030000D03*
%TO.P,L1,2,2*%
%TO.N,SYS_5V*%
X154070000Y-103330000D03*
%TD*%
D21*
%TO.P,C10,1*%
%TO.N,Net-(C10-Pad1)*%
X157895000Y-93650000D03*
%TO.P,C10,2*%
%TO.N,Net-(C10-Pad2)*%
X160845000Y-93650000D03*
%TD*%
D15*
%TO.P,D6,1,1*%
%TO.N,Net-(C15-Pad2)*%
X175360038Y-91364513D03*
%TO.P,D6,2,2*%
%TO.N,Net-(C17-Pad2)*%
X177259962Y-91364513D03*
%TO.P,D6,3,3*%
%TO.N,Net-(C16-Pad2)*%
X176310000Y-88894359D03*
%TD*%
D23*
%TO.P,C22,1*%
%TO.N,IO_VREF*%
X167550000Y-127325000D03*
%TO.P,C22,2*%
%TO.N,GND*%
X166000000Y-127325000D03*
%TD*%
D27*
%TO.P,D1,1,1*%
%TO.N,Net-(C5-Pad1)*%
X163992405Y-98490000D03*
%TO.P,D1,2,2*%
%TO.N,/SW_NODE*%
X160607595Y-98490000D03*
%TD*%
D28*
%TO.P,R3,1*%
%TO.N,Net-(C5-Pad1)*%
X165100000Y-106107500D03*
%TO.P,R3,2*%
%TO.N,Net-(R3-Pad2)*%
X165100000Y-107932500D03*
%TD*%
D29*
%TO.P,R1,1*%
%TO.N,Net-(U3-SET)*%
X157060653Y-113530000D03*
%TO.P,R1,2*%
%TO.N,GND*%
X157060653Y-115180000D03*
%TD*%
D25*
%TO.P,R14,1*%
%TO.N,Net-(U4-DIV)*%
X192875000Y-121250000D03*
%TO.P,R14,2*%
%TO.N,GND*%
X194525000Y-121250000D03*
%TD*%
D30*
%TO.P,C9,1*%
%TO.N,POT_METER*%
X180850000Y-105750000D03*
%TO.P,C9,2*%
%TO.N,GND*%
X182400000Y-105750000D03*
%TD*%
D31*
%TO.P,U2,1,GND*%
%TO.N,GND*%
X178549975Y-121402292D03*
%TO.P,U2,2,V-*%
X178549975Y-120752305D03*
%TO.P,U2,3,IN+*%
%TO.N,Net-(U2-IN+)*%
X178549975Y-120102063D03*
%TO.P,U2,4,IN-*%
%TO.N,POT_METER*%
X178549975Y-119452076D03*
%TO.P,U2,5,HYST*%
%TO.N,Net-(U2-HYST)*%
X173950025Y-119452076D03*
%TO.P,U2,6,REF*%
%TO.N,Net-(U2-IN+)*%
X173950025Y-120102063D03*
%TO.P,U2,7,V+*%
%TO.N,SYS_5V*%
X173950025Y-120752305D03*
%TO.P,U2,8,OUT*%
%TO.N,BOOST_EN*%
X173950025Y-121402292D03*
%TD*%
D21*
%TO.P,C14,1*%
%TO.N,Net-(C11-Pad2)*%
X166245000Y-87800000D03*
%TO.P,C14,2*%
%TO.N,Net-(C14-Pad2)*%
X169195000Y-87800000D03*
%TD*%
D25*
%TO.P,R12,1*%
%TO.N,Net-(U2-IN+)*%
X171275000Y-116700000D03*
%TO.P,R12,2*%
%TO.N,Net-(U2-HYST)*%
X172925000Y-116700000D03*
%TD*%
D17*
%TO.P,J5,1,Pin_1*%
%TO.N,Net-(J5-Pin_1)*%
X199565000Y-89860000D03*
D18*
%TO.P,J5,2,Pin_2*%
%TO.N,GND*%
X197025000Y-89860000D03*
%TD*%
D25*
%TO.P,R28,1*%
%TO.N,IO_VREF*%
X165825000Y-125600000D03*
%TO.P,R28,2*%
%TO.N,Net-(U5B-IN+)*%
X167475000Y-125600000D03*
%TD*%
D21*
%TO.P,C7,1*%
%TO.N,Net-(C5-Pad1)*%
X152575000Y-93670000D03*
%TO.P,C7,2*%
%TO.N,Net-(C10-Pad1)*%
X155525000Y-93670000D03*
%TD*%
%TO.P,C24,1*%
%TO.N,Net-(C21-Pad2)*%
X186175000Y-93570000D03*
%TO.P,C24,2*%
%TO.N,Net-(C24-Pad2)*%
X189125000Y-93570000D03*
%TD*%
%TO.P,C17,1*%
%TO.N,Net-(C15-Pad2)*%
X174865000Y-93620000D03*
%TO.P,C17,2*%
%TO.N,Net-(C17-Pad2)*%
X177815000Y-93620000D03*
%TD*%
D23*
%TO.P,C20,1*%
%TO.N,SYS_5V*%
X171125000Y-119100000D03*
%TO.P,C20,2*%
%TO.N,GND*%
X169575000Y-119100000D03*
%TD*%
D32*
%TO.P,DS1,1*%
%TO.N,GND*%
X185370000Y-116872500D03*
%TO.P,DS1,2*%
%TO.N,Net-(DS1-Pad2)*%
X185370000Y-118447500D03*
%TD*%
D33*
%TO.P,R4,1*%
%TO.N,Net-(R3-Pad2)*%
X167130000Y-107932500D03*
%TO.P,R4,2*%
%TO.N,Net-(R4-Pad2)*%
X167130000Y-106107500D03*
%TD*%
D27*
%TO.P,D12,1,1*%
%TO.N,GEIGER_DETECTB*%
X163892405Y-121500000D03*
%TO.P,D12,2,2*%
%TO.N,GND*%
X160507595Y-121500000D03*
%TD*%
D17*
%TO.P,J4,1,Pin_1*%
%TO.N,/Page 2/HV_PG*%
X179475000Y-127400000D03*
D18*
%TO.P,J4,2,Pin_2*%
%TO.N,GND*%
X182015000Y-127400000D03*
%TD*%
D28*
%TO.P,R5,1*%
%TO.N,Net-(R4-Pad2)*%
X169160000Y-106107500D03*
%TO.P,R5,2*%
%TO.N,Net-(R20-Pad1)*%
X169160000Y-107932500D03*
%TD*%
D15*
%TO.P,D4,1,1*%
%TO.N,Net-(C10-Pad2)*%
X163920038Y-91364513D03*
%TO.P,D4,2,2*%
%TO.N,Net-(C12-Pad2)*%
X165819962Y-91364513D03*
%TO.P,D4,3,3*%
%TO.N,Net-(C11-Pad2)*%
X164870000Y-88894359D03*
%TD*%
D21*
%TO.P,C16,1*%
%TO.N,Net-(C14-Pad2)*%
X171965000Y-87800000D03*
%TO.P,C16,2*%
%TO.N,Net-(C16-Pad2)*%
X174915000Y-87800000D03*
%TD*%
D34*
%TO.P,U4,1,IN*%
%TO.N,/Page 2/DETECT_OUTPUT*%
X186165550Y-120129999D03*
%TO.P,U4,2,GND*%
%TO.N,GND*%
X186165550Y-121080000D03*
%TO.P,U4,3,SET*%
%TO.N,Net-(U4-SET)*%
X186165550Y-122030001D03*
%TO.P,U4,4,DIV*%
%TO.N,Net-(U4-DIV)*%
X188794450Y-122030001D03*
%TO.P,U4,5,V+*%
%TO.N,IO_VREF*%
X188794450Y-121080000D03*
%TO.P,U4,6,OUT*%
%TO.N,Net-(U4-OUT)*%
X188794450Y-120129999D03*
%TD*%
D19*
%TO.P,R21,1*%
%TO.N,GEIGER_DETECTB*%
X201175000Y-100060000D03*
%TO.P,R21,2*%
%TO.N,IO_VREF*%
X199525000Y-100060000D03*
%TD*%
D21*
%TO.P,C15,1*%
%TO.N,Net-(C12-Pad2)*%
X169205000Y-93580000D03*
%TO.P,C15,2*%
%TO.N,Net-(C15-Pad2)*%
X172155000Y-93580000D03*
%TD*%
%TO.P,C11,1*%
%TO.N,Net-(C11-Pad1)*%
X160545000Y-87800000D03*
%TO.P,C11,2*%
%TO.N,Net-(C11-Pad2)*%
X163495000Y-87800000D03*
%TD*%
D35*
%TO.P,U1,1,A*%
%TO.N,Net-(U1-A)*%
X160570013Y-108710076D03*
%TO.P,U1,2,B*%
%TO.N,BOOST_EN*%
X161220000Y-108710076D03*
%TO.P,U1,3,GND*%
%TO.N,GND*%
X161869987Y-108710076D03*
%TO.P,U1,4,Y*%
%TO.N,Net-(Q2-G)*%
X161869987Y-106509924D03*
%TO.P,U1,5,VCC*%
%TO.N,SYS_5V*%
X160570013Y-106509924D03*
%TD*%
D16*
%TO.P,C4,1*%
%TO.N,SYS_5V*%
X159130000Y-106480000D03*
%TO.P,C4,2*%
%TO.N,GND*%
X159130000Y-108030000D03*
%TD*%
D25*
%TO.P,R11,1*%
%TO.N,POT_METER*%
X180847500Y-107680000D03*
%TO.P,R11,2*%
%TO.N,Net-(R11-Pad2)*%
X182497500Y-107680000D03*
%TD*%
D24*
%TO.P,C3,1*%
%TO.N,SYS_5V*%
X156480000Y-106380000D03*
%TO.P,C3,2*%
%TO.N,GND*%
X156480000Y-108280000D03*
%TD*%
D23*
%TO.P,C28,1*%
%TO.N,GEIGER_DETECTB*%
X201150000Y-98230000D03*
%TO.P,C28,2*%
%TO.N,IO_VREF*%
X199600000Y-98230000D03*
%TD*%
D19*
%TO.P,R13,1*%
%TO.N,Net-(U2-HYST)*%
X173025000Y-114600000D03*
%TO.P,R13,2*%
%TO.N,Net-(U5A-IN-)*%
X171375000Y-114600000D03*
%TD*%
D33*
%TO.P,R20,1*%
%TO.N,Net-(R20-Pad1)*%
X171190000Y-107932500D03*
%TO.P,R20,2*%
%TO.N,Net-(R20-Pad2)*%
X171190000Y-106107500D03*
%TD*%
D19*
%TO.P,R6,1*%
%TO.N,Net-(U4-SET)*%
X184225000Y-123300000D03*
%TO.P,R6,2*%
%TO.N,GND*%
X182575000Y-123300000D03*
%TD*%
D36*
%TO.P,R9,1,1*%
%TO.N,Net-(R11-Pad2)*%
X181100000Y-112529997D03*
%TO.P,R9,2,2*%
%TO.N,POT_METER*%
X178559995Y-115070003D03*
%TO.P,R9,3,3*%
%TO.N,Net-(R10-Pad1)*%
X176019990Y-112529997D03*
%TD*%
D29*
%TO.P,R7,1*%
%TO.N,Net-(R20-Pad2)*%
X173220000Y-106195000D03*
%TO.P,R7,2*%
%TO.N,Net-(R10-Pad1)*%
X173220000Y-107845000D03*
%TD*%
D19*
%TO.P,R15,1*%
%TO.N,IO_VREF*%
X194775000Y-119300000D03*
%TO.P,R15,2*%
%TO.N,Net-(U4-DIV)*%
X193125000Y-119300000D03*
%TD*%
D21*
%TO.P,C27,1*%
%TO.N,Net-(C24-Pad2)*%
X191705000Y-93520000D03*
%TO.P,C27,2*%
%TO.N,Net-(C27-Pad2)*%
X194655000Y-93520000D03*
%TD*%
D37*
%TO.P,C29,1*%
%TO.N,IO_VREF*%
X190430000Y-121780000D03*
%TO.P,C29,2*%
%TO.N,GND*%
X190430000Y-120230000D03*
%TD*%
D15*
%TO.P,D9,1,1*%
%TO.N,Net-(C24-Pad2)*%
X192440038Y-91364513D03*
%TO.P,D9,2,2*%
%TO.N,Net-(C27-Pad2)*%
X194339962Y-91364513D03*
%TO.P,D9,3,3*%
%TO.N,Net-(C25-Pad2)*%
X193390000Y-88894359D03*
%TD*%
D38*
%TO.P,C26,1*%
%TO.N,Net-(J5-Pin_1)*%
X201660000Y-93635000D03*
%TO.P,C26,2*%
%TO.N,GEIGER_DETECTB*%
X201660000Y-96585000D03*
%TD*%
D39*
%TO.P,TP1,1,1*%
%TO.N,Net-(C27-Pad2)*%
X195450000Y-96000000D03*
%TD*%
D40*
%TO.P,C6,1*%
%TO.N,/SW_NODE*%
X150525000Y-95275000D03*
%TO.P,C6,2*%
%TO.N,Net-(C6-Pad2)*%
X150525000Y-92325000D03*
%TD*%
D41*
%TO.P,U3,1,OUT*%
%TO.N,Net-(U1-A)*%
X159210000Y-109779950D03*
%TO.P,U3,2,GND*%
%TO.N,GND*%
X158260038Y-109779950D03*
%TO.P,U3,3,DIV*%
X157310076Y-109779950D03*
%TO.P,U3,4,SET*%
%TO.N,Net-(U3-SET)*%
X157310076Y-112180000D03*
%TO.P,U3,5,GRD*%
%TO.N,unconnected-(U3-GRD-Pad5)*%
X158260038Y-112180000D03*
%TO.P,U3,6,V+*%
%TO.N,Net-(U3-V+)*%
X159210000Y-112180000D03*
%TD*%
D17*
%TO.P,J2,1,Pin_1*%
%TO.N,SYS_5V*%
X151540000Y-107390000D03*
D18*
%TO.P,J2,2,Pin_2*%
%TO.N,GND*%
X151540000Y-109930000D03*
%TD*%
D25*
%TO.P,R10,1*%
%TO.N,Net-(R10-Pad1)*%
X175497500Y-107782500D03*
%TO.P,R10,2*%
%TO.N,POT_METER*%
X177147500Y-107782500D03*
%TD*%
D16*
%TO.P,C13,1*%
%TO.N,Net-(U5A-IN-)*%
X177450000Y-123225000D03*
%TO.P,C13,2*%
%TO.N,GND*%
X177450000Y-124775000D03*
%TD*%
D17*
%TO.P,J3,1,Pin_1*%
%TO.N,/Page 2/DETECT_OUTPUT*%
X185675000Y-112100000D03*
D18*
%TO.P,J3,2,Pin_2*%
%TO.N,GND*%
X188215000Y-112100000D03*
%TD*%
D21*
%TO.P,C5,1*%
%TO.N,Net-(C5-Pad1)*%
X165235000Y-103670000D03*
%TO.P,C5,2*%
%TO.N,GND*%
X168185000Y-103670000D03*
%TD*%
D20*
%TO.P,R19,1*%
%TO.N,Net-(C27-Pad2)*%
X196915000Y-93620000D03*
%TO.P,R19,2*%
%TO.N,Net-(J5-Pin_1)*%
X198740000Y-93620000D03*
%TD*%
D25*
%TO.P,R8,1*%
%TO.N,Net-(R11-Pad2)*%
X184500000Y-107675000D03*
%TO.P,R8,2*%
%TO.N,GND*%
X186150000Y-107675000D03*
%TD*%
D21*
%TO.P,C12,1*%
%TO.N,Net-(C10-Pad2)*%
X163525000Y-93620000D03*
%TO.P,C12,2*%
%TO.N,Net-(C12-Pad2)*%
X166475000Y-93620000D03*
%TD*%
D27*
%TO.P,D11,1,1*%
%TO.N,IO_VREF*%
X160515190Y-123500000D03*
%TO.P,D11,2,2*%
%TO.N,Net-(U5B-IN+)*%
X163900000Y-123500000D03*
%TD*%
D42*
%TO.N,GND*%
X166623438Y-79225000D03*
X195350000Y-81600000D03*
X164351471Y-76300000D03*
X198405000Y-88075000D03*
X170300000Y-74350000D03*
X167526562Y-78425000D03*
X160225000Y-79225000D03*
X199750000Y-87275000D03*
X193425000Y-80775000D03*
X168675000Y-74800000D03*
X177581250Y-78425000D03*
X196837500Y-84775000D03*
X199125000Y-86325000D03*
X184800000Y-75325000D03*
X184000000Y-75075000D03*
X195800000Y-84775000D03*
X164414200Y-126619000D03*
X162053125Y-79225000D03*
X186817000Y-105867200D03*
X156083000Y-110236000D03*
X178495312Y-78425000D03*
X186732813Y-79225000D03*
X165537500Y-77500000D03*
X161139063Y-79225000D03*
X184581800Y-115747800D03*
X193356250Y-82450000D03*
X162956250Y-78425000D03*
X200075000Y-88075000D03*
X185818750Y-79225000D03*
X180350000Y-74175000D03*
X165450000Y-122100000D03*
X185500000Y-75600000D03*
X175592187Y-77500000D03*
X160045400Y-116814600D03*
X168451563Y-79225000D03*
X182918100Y-124752100D03*
X192706250Y-81600000D03*
X180162500Y-77500000D03*
X163881250Y-79225000D03*
X164623437Y-77500000D03*
X186975000Y-76150000D03*
X189475000Y-79225000D03*
X177592188Y-79225000D03*
X180334375Y-79225000D03*
X189450000Y-77550000D03*
X193300000Y-84025000D03*
X165709375Y-79225000D03*
X187475000Y-77500000D03*
X162967188Y-79225000D03*
X194262500Y-82450000D03*
X175191176Y-73825000D03*
X195350000Y-84025000D03*
X183076563Y-79225000D03*
X184632600Y-121310400D03*
X176667187Y-78425000D03*
X163709375Y-77500000D03*
X176858824Y-73900000D03*
X166950000Y-75325000D03*
X176025000Y-73900000D03*
X182151562Y-78425000D03*
X173151800Y-125552200D03*
X194800000Y-86325000D03*
X198450000Y-85450000D03*
X167537500Y-79225000D03*
X181825000Y-74525000D03*
X173010937Y-78425000D03*
X168440625Y-78425000D03*
X179420313Y-79225000D03*
X190250000Y-78325000D03*
X192925000Y-83200000D03*
X192569261Y-79860741D03*
X166612500Y-78425000D03*
X183818750Y-77500000D03*
X162450000Y-102850000D03*
X196530000Y-86325000D03*
X172850000Y-77500000D03*
X173764062Y-77500000D03*
X188500000Y-76875000D03*
X174357353Y-73900000D03*
X155194000Y-109829600D03*
X189464062Y-78425000D03*
X175753125Y-78425000D03*
X193868750Y-83200000D03*
X190881000Y-118922800D03*
X172107813Y-79225000D03*
X186225000Y-75850000D03*
X193391391Y-79860741D03*
X181100000Y-74300000D03*
X169365625Y-79225000D03*
X194350000Y-80725000D03*
X183990625Y-79225000D03*
X195625000Y-87250000D03*
X199240000Y-88075000D03*
X192450000Y-82450000D03*
X170107812Y-77500000D03*
X183388000Y-104013000D03*
X194468750Y-81600000D03*
X164795313Y-79225000D03*
X171125000Y-74175000D03*
X188560938Y-79225000D03*
X173925000Y-78425000D03*
X164784375Y-78425000D03*
X167825000Y-75025000D03*
X196700000Y-83200000D03*
X196735000Y-88075000D03*
X191825000Y-81600000D03*
X163870312Y-78425000D03*
X196075000Y-82450000D03*
X174678125Y-77500000D03*
X178334375Y-77500000D03*
X172096875Y-78425000D03*
X198260000Y-86325000D03*
X169392600Y-104038400D03*
X171021875Y-77500000D03*
X169525000Y-74500000D03*
X157403800Y-116992400D03*
X179654200Y-121793000D03*
X166150000Y-75575000D03*
X190350000Y-79225000D03*
X170268750Y-78425000D03*
X165698437Y-78425000D03*
X165250000Y-75900000D03*
X162026600Y-77495400D03*
X196350000Y-85450000D03*
X174839062Y-78425000D03*
X197875000Y-84775000D03*
X171182812Y-78425000D03*
X191747130Y-79860741D03*
X171193750Y-79225000D03*
X169354687Y-78425000D03*
X175764063Y-79225000D03*
X181990625Y-77500000D03*
X161250000Y-77975000D03*
X193725000Y-84775000D03*
X173523529Y-73925000D03*
X188675000Y-109325000D03*
X183065625Y-78425000D03*
X198718750Y-87225000D03*
X170279688Y-79225000D03*
X178506250Y-79225000D03*
X184904688Y-79225000D03*
X176678125Y-79225000D03*
X172000000Y-74050000D03*
X187635937Y-78425000D03*
X160350000Y-78525000D03*
X168279687Y-77500000D03*
X191300000Y-79075000D03*
X197687500Y-87225000D03*
X184893750Y-78425000D03*
X195168750Y-82450000D03*
X183979687Y-78425000D03*
X167365625Y-77500000D03*
X191575000Y-80875000D03*
X192500000Y-80800000D03*
X186721875Y-78425000D03*
X196375000Y-84025000D03*
X177420312Y-77500000D03*
X188450000Y-77600000D03*
X180323437Y-78425000D03*
X179350000Y-74050000D03*
X152000000Y-113000000D03*
X187646875Y-79225000D03*
X187700000Y-76525000D03*
X179409375Y-78425000D03*
X166451562Y-77500000D03*
X197395000Y-86325000D03*
X173935938Y-79225000D03*
X193587500Y-81600000D03*
X171935937Y-77500000D03*
X191125000Y-78275000D03*
X154203400Y-110617000D03*
X183250000Y-74825000D03*
X182904687Y-77500000D03*
X169193750Y-77500000D03*
X197400000Y-85450000D03*
X163600000Y-109600000D03*
X185807812Y-78425000D03*
X195756250Y-83200000D03*
X174850000Y-79225000D03*
X162683824Y-77175000D03*
X193649600Y-122986800D03*
X178550000Y-73950000D03*
X194325000Y-84025000D03*
X173021875Y-79225000D03*
X186560937Y-77500000D03*
X192225000Y-79075000D03*
X194762500Y-84775000D03*
X167767000Y-117729000D03*
X177725000Y-73900000D03*
X190925000Y-79860741D03*
X181248438Y-79225000D03*
X182162500Y-79225000D03*
X194812500Y-83200000D03*
X195665000Y-86325000D03*
X188550000Y-78425000D03*
X185646875Y-77500000D03*
X181076562Y-77500000D03*
X160400000Y-120100000D03*
X194250000Y-85450000D03*
X180441600Y-117348000D03*
X196656250Y-87225000D03*
X182525000Y-74675000D03*
X184732812Y-77500000D03*
X197400000Y-84025000D03*
X181237500Y-78425000D03*
X179248437Y-77500000D03*
X162042187Y-78425000D03*
X176506250Y-77500000D03*
X172775000Y-73950000D03*
X197570000Y-88075000D03*
X163517647Y-76700000D03*
X195900000Y-88100000D03*
X195300000Y-85450000D03*
%TO.N,SYS_5V*%
X164000000Y-111200000D03*
%TO.N,GEIGER_DETECTB*%
X201200000Y-101800000D03*
X169800000Y-122300000D03*
%TO.N,IO_VREF*%
X191600000Y-121450000D03*
X197400000Y-99200000D03*
X197500000Y-101300000D03*
X159100000Y-123500000D03*
X196500000Y-118750000D03*
X164400000Y-125600000D03*
%TO.N,POT_METER*%
X172800000Y-123700000D03*
X176900000Y-118300000D03*
%TO.N,/Page 2/DETECT_OUTPUT*%
X172000000Y-126500000D03*
X184550000Y-120200000D03*
%TO.N,Net-(U5A-IN-)*%
X169500000Y-115500000D03*
X181200000Y-125000000D03*
%TD*%
D43*
%TO.N,GND*%
X160400000Y-120100000D02*
X160400000Y-121392405D01*
X188215000Y-109785000D02*
X188675000Y-109325000D01*
X157060653Y-116649253D02*
X157403800Y-116992400D01*
X159460653Y-116229853D02*
X160045400Y-116814600D01*
X162025077Y-102425077D02*
X161229962Y-102425077D01*
X154500000Y-113710000D02*
X152710000Y-113710000D01*
X194612500Y-122023900D02*
X193649600Y-122986800D01*
X184581800Y-116255800D02*
X185198500Y-116872500D01*
X151540000Y-109930000D02*
X153516400Y-109930000D01*
X176749999Y-125475001D02*
X177450000Y-124775000D01*
X182400000Y-105750000D02*
X182400000Y-105001000D01*
X157060653Y-115180000D02*
X157060653Y-116649253D01*
X184863000Y-121080000D02*
X184632600Y-121310400D01*
X186165550Y-121080000D02*
X184863000Y-121080000D01*
X152710000Y-113710000D02*
X152000000Y-113000000D01*
X182400000Y-105001000D02*
X183388000Y-104013000D01*
X188215000Y-112100000D02*
X188215000Y-109785000D01*
X175262416Y-125475001D02*
X173228999Y-125475001D01*
X173228999Y-125475001D02*
X173151800Y-125552200D01*
X159130000Y-108030000D02*
X154660000Y-108030000D01*
X168229000Y-117729000D02*
X169575000Y-119075000D01*
X165587500Y-123350000D02*
X165587500Y-122237500D01*
X186237500Y-106446700D02*
X186817000Y-105867200D01*
X156539050Y-109779950D02*
X156083000Y-110236000D01*
D44*
X178549975Y-120752305D02*
X178549975Y-121402292D01*
D43*
X154660000Y-108030000D02*
X154430000Y-108260000D01*
X159460653Y-115135000D02*
X159460653Y-116229853D01*
X163210076Y-108710076D02*
X161869987Y-108710076D01*
X190430000Y-119373800D02*
X190881000Y-118922800D01*
X165120200Y-127325000D02*
X164414200Y-126619000D01*
X185198500Y-116872500D02*
X185370000Y-116872500D01*
X175262416Y-125475001D02*
X176749999Y-125475001D01*
X180441600Y-117348000D02*
X180441600Y-118381219D01*
X153516400Y-109930000D02*
X154203400Y-110617000D01*
X186237500Y-107675000D02*
X186237500Y-106446700D01*
X182487500Y-124321500D02*
X182487500Y-123300000D01*
X166000000Y-127325000D02*
X165120200Y-127325000D01*
X165587500Y-122237500D02*
X165450000Y-122100000D01*
X169024200Y-103670000D02*
X168185000Y-103670000D01*
D44*
X179263492Y-121402292D02*
X179654200Y-121793000D01*
D43*
X194612500Y-121250000D02*
X194612500Y-122023900D01*
X154430000Y-109065600D02*
X155194000Y-109829600D01*
X197035000Y-88375000D02*
X196735000Y-88075000D01*
X180441600Y-118381219D02*
X180455000Y-118394619D01*
X167767000Y-117729000D02*
X168229000Y-117729000D01*
X163600000Y-109100000D02*
X163210076Y-108710076D01*
X197035000Y-89850000D02*
X197035000Y-88375000D01*
X190430000Y-120230000D02*
X190430000Y-119373800D01*
X158260038Y-109779950D02*
X156539050Y-109779950D01*
X169575000Y-119075000D02*
X169575000Y-119100000D01*
X162450000Y-102850000D02*
X162025077Y-102425077D01*
D14*
X160400000Y-121392405D02*
X160507595Y-121500000D01*
D43*
X163600000Y-109600000D02*
X163600000Y-109100000D01*
X154430000Y-108260000D02*
X154430000Y-109065600D01*
X184581800Y-115747800D02*
X184581800Y-116255800D01*
X169392600Y-104038400D02*
X169024200Y-103670000D01*
X182918100Y-124752100D02*
X182487500Y-124321500D01*
D44*
X178549975Y-121402292D02*
X179263492Y-121402292D01*
D45*
%TO.N,SYS_5V*%
X171375000Y-119875000D02*
X171375000Y-119200000D01*
D43*
X171125000Y-118725000D02*
X171125000Y-119100000D01*
X164000000Y-111200000D02*
X164000000Y-111600000D01*
D45*
X172252305Y-120752305D02*
X171375000Y-119875000D01*
D43*
X164000000Y-111600000D02*
X171125000Y-118725000D01*
D45*
X173950025Y-120752305D02*
X172252305Y-120752305D01*
D44*
%TO.N,GEIGER_DETECTB*%
X201200000Y-99224724D02*
X202030000Y-98394724D01*
X169717584Y-122382416D02*
X169800000Y-122300000D01*
X166250000Y-120250000D02*
X168934996Y-122934996D01*
X163937593Y-121162407D02*
X164850000Y-120250000D01*
X201200000Y-101800000D02*
X201200000Y-99224724D01*
X163937593Y-121564619D02*
X163937593Y-121162407D01*
X164850000Y-120250000D02*
X166250000Y-120250000D01*
X168934996Y-122934996D02*
X169717584Y-122934996D01*
X169717584Y-122934996D02*
X169717584Y-122382416D01*
D45*
%TO.N,IO_VREF*%
X195950000Y-119300000D02*
X196500000Y-118750000D01*
X189730000Y-121080000D02*
X190430000Y-121780000D01*
X159300000Y-121422212D02*
X154500000Y-116622212D01*
X194862500Y-119300000D02*
X195950000Y-119300000D01*
X159707595Y-122692405D02*
X160515190Y-123500000D01*
X159707595Y-122892405D02*
X159100000Y-123500000D01*
X191270000Y-121780000D02*
X191600000Y-121450000D01*
X165737500Y-125600000D02*
X164400000Y-125600000D01*
X199600000Y-98230000D02*
X198370000Y-98230000D01*
D44*
X169343518Y-125475001D02*
X167550000Y-127268519D01*
X169717584Y-125475001D02*
X169343518Y-125475001D01*
D45*
X154500000Y-116622212D02*
X154500000Y-116250000D01*
D43*
X167550000Y-127325000D02*
X167462500Y-127325000D01*
D45*
X198370000Y-98230000D02*
X197400000Y-99200000D01*
X198740000Y-100060000D02*
X197500000Y-101300000D01*
X188794450Y-121080000D02*
X189730000Y-121080000D01*
X190430000Y-121780000D02*
X191270000Y-121780000D01*
D43*
X167462500Y-127325000D02*
X165737500Y-125600000D01*
D45*
X199437500Y-100060000D02*
X198740000Y-100060000D01*
X159300000Y-121422212D02*
X159300000Y-122284810D01*
X159300000Y-122284810D02*
X159707595Y-122692405D01*
X159707595Y-122692405D02*
X159707595Y-122892405D01*
D43*
%TO.N,POT_METER*%
X173704999Y-124204999D02*
X175262416Y-124204999D01*
X172800000Y-123700000D02*
X173200000Y-123700000D01*
D45*
X176900000Y-118300000D02*
X177500000Y-118300000D01*
D43*
X173200000Y-123700000D02*
X173704999Y-124204999D01*
D45*
X177500000Y-118300000D02*
X178549975Y-119349975D01*
X178549975Y-119349975D02*
X178549975Y-119452076D01*
D44*
%TO.N,/Page 2/HV_PG*%
X175262416Y-126745004D02*
X175917412Y-127400000D01*
X175917412Y-127400000D02*
X179475000Y-127400000D01*
D43*
%TO.N,BOOST_EN*%
X162803153Y-111253153D02*
X162803153Y-114303153D01*
X161500000Y-109950000D02*
X162803153Y-111253153D01*
X162803153Y-114303153D02*
X169910302Y-121410302D01*
D44*
X161500000Y-109950000D02*
X161220000Y-109670000D01*
D43*
X169910302Y-121410302D02*
X173950025Y-121410302D01*
D44*
X161220000Y-109670000D02*
X161220000Y-108710076D01*
D45*
%TO.N,Net-(C18-Pad1)*%
X182102500Y-120290000D02*
X182102500Y-118492119D01*
X182102500Y-118492119D02*
X182005000Y-118394619D01*
D43*
%TO.N,/Page 2/DETECT_OUTPUT*%
X184650000Y-120100000D02*
X186135551Y-120100000D01*
X172000000Y-126500000D02*
X169962588Y-126500000D01*
X169962588Y-126500000D02*
X169717584Y-126745004D01*
X186135551Y-120100000D02*
X186165550Y-120129999D01*
X184550000Y-120200000D02*
X184650000Y-120100000D01*
D46*
%TO.N,Net-(C27-Pad2)*%
X195450000Y-94315000D02*
X195450000Y-96160000D01*
X194655000Y-93520000D02*
X195450000Y-94315000D01*
D43*
%TO.N,Net-(DS1-Pad2)*%
X186820000Y-118447500D02*
X187047500Y-118220000D01*
X185370000Y-118447500D02*
X186820000Y-118447500D01*
%TO.N,Net-(Q2-G)*%
X159330038Y-102425077D02*
X159330038Y-103030038D01*
D47*
X161869987Y-105769987D02*
X161869987Y-106509924D01*
D43*
X161850000Y-104000000D02*
X161850000Y-105750000D01*
X161500000Y-103650000D02*
X161850000Y-104000000D01*
X159950000Y-103650000D02*
X161500000Y-103650000D01*
X161850000Y-105750000D02*
X161869987Y-105769987D01*
X159330038Y-103030038D02*
X159950000Y-103650000D01*
D44*
%TO.N,Net-(U3-SET)*%
X157060653Y-113530000D02*
X157060653Y-112429423D01*
X157060653Y-112429423D02*
X157310076Y-112180000D01*
D43*
%TO.N,Net-(U4-SET)*%
X184422500Y-123310000D02*
X184885551Y-123310000D01*
X184885551Y-123310000D02*
X186165550Y-122030001D01*
D45*
%TO.N,Net-(U4-DIV)*%
X189550000Y-123150000D02*
X191550000Y-123150000D01*
X192787500Y-121912500D02*
X192787500Y-121250000D01*
X188794450Y-122030001D02*
X188794450Y-122394450D01*
D43*
X193000000Y-119337500D02*
X193000000Y-121237500D01*
X193037500Y-119300000D02*
X193000000Y-119337500D01*
D45*
X191550000Y-123150000D02*
X192787500Y-121912500D01*
X188794450Y-122394450D02*
X189550000Y-123150000D01*
D43*
X192987500Y-121250000D02*
X192787500Y-121250000D01*
X193000000Y-121237500D02*
X192987500Y-121250000D01*
D45*
%TO.N,Net-(U2-HYST)*%
X173012500Y-114700000D02*
X173112500Y-114600000D01*
X173950025Y-117637525D02*
X173012500Y-116700000D01*
X173012500Y-116700000D02*
X173012500Y-114700000D01*
X173950025Y-119452076D02*
X173950025Y-117637525D01*
%TO.N,Net-(U2-IN+)*%
X178549975Y-120102063D02*
X180089563Y-120102063D01*
X171953800Y-119159939D02*
X171953800Y-117466300D01*
X172895924Y-120102063D02*
X171953800Y-119159939D01*
X171953800Y-117466300D02*
X171187500Y-116700000D01*
X173950025Y-120102063D02*
X178549975Y-120102063D01*
X173950025Y-120102063D02*
X172895924Y-120102063D01*
X180089563Y-120102063D02*
X180277500Y-120290000D01*
D43*
%TO.N,Net-(U5A-IN-)*%
X177159996Y-122934996D02*
X177450000Y-123225000D01*
X177450000Y-123225000D02*
X179425000Y-123225000D01*
X169500000Y-115500000D02*
X170400000Y-114600000D01*
X175262416Y-122934996D02*
X177159996Y-122934996D01*
X170400000Y-114600000D02*
X171287500Y-114600000D01*
X179425000Y-123225000D02*
X181200000Y-125000000D01*
D44*
%TO.N,Net-(U5B-IN+)*%
X167562500Y-125600000D02*
X167562500Y-124665900D01*
X167300000Y-124403400D02*
X164626374Y-124403400D01*
X167562500Y-124140900D02*
X167562500Y-123500000D01*
X167562500Y-123500000D02*
X167412500Y-123350000D01*
X168267499Y-124204999D02*
X167412500Y-123350000D01*
X167300000Y-124403400D02*
X167562500Y-124140900D01*
X169717584Y-124204999D02*
X168267499Y-124204999D01*
X164626374Y-124403400D02*
X163997593Y-123774619D01*
X167562500Y-124665900D02*
X167300000Y-124403400D01*
%TD*%
%TA.AperFunction,Conductor*%
%TO.N,GND*%
G36*
X203980356Y-102633463D02*
G01*
X204047321Y-102653393D01*
X204092882Y-102706364D01*
X204103813Y-102762098D01*
X204087903Y-103187304D01*
X204087643Y-103191935D01*
X204009256Y-104237940D01*
X204008823Y-104242557D01*
X203891380Y-105284892D01*
X203890775Y-105289489D01*
X203734437Y-106326719D01*
X203733660Y-106331291D01*
X203538654Y-107361929D01*
X203537707Y-107366469D01*
X203304296Y-108389106D01*
X203303180Y-108393607D01*
X203031692Y-109406814D01*
X203030408Y-109411270D01*
X202721235Y-110413586D01*
X202719786Y-110417991D01*
X202373332Y-111408102D01*
X202371718Y-111412449D01*
X201988516Y-112388830D01*
X201986742Y-112393115D01*
X201567268Y-113354559D01*
X201565334Y-113358774D01*
X201110216Y-114303836D01*
X201108126Y-114307975D01*
X200618001Y-115235337D01*
X200615758Y-115239396D01*
X200091290Y-116147801D01*
X200088897Y-116151773D01*
X199530830Y-117039932D01*
X199528290Y-117043812D01*
X198937392Y-117910500D01*
X198934708Y-117914282D01*
X198311836Y-118758244D01*
X198309013Y-118761923D01*
X197655008Y-119582019D01*
X197652058Y-119585579D01*
X196967818Y-120380680D01*
X196964747Y-120384116D01*
X196251303Y-121153026D01*
X196248086Y-121156366D01*
X195623244Y-121781208D01*
X195561921Y-121814693D01*
X195492229Y-121809709D01*
X195436296Y-121767837D01*
X195411879Y-121702373D01*
X195417180Y-121656628D01*
X195418591Y-121652100D01*
X195425000Y-121581572D01*
X195425000Y-121500000D01*
X194775000Y-121500000D01*
X194775000Y-122224999D01*
X194781581Y-122224999D01*
X194832535Y-122220369D01*
X194901080Y-122233906D01*
X194951426Y-122282353D01*
X194967587Y-122350328D01*
X194944433Y-122416249D01*
X194928098Y-122434758D01*
X194858562Y-122499278D01*
X194734097Y-122614763D01*
X194730680Y-122617818D01*
X193935590Y-123302050D01*
X193932019Y-123305008D01*
X193111923Y-123959013D01*
X193108244Y-123961836D01*
X192264282Y-124584708D01*
X192260500Y-124587392D01*
X191393812Y-125178290D01*
X191389932Y-125180830D01*
X190501773Y-125738897D01*
X190497801Y-125741290D01*
X189589396Y-126265758D01*
X189585337Y-126268001D01*
X188657975Y-126758126D01*
X188653836Y-126760216D01*
X187708774Y-127215334D01*
X187704559Y-127217268D01*
X186743115Y-127636742D01*
X186738830Y-127638516D01*
X185762449Y-128021718D01*
X185758102Y-128023332D01*
X184767991Y-128369786D01*
X184763586Y-128371235D01*
X183761270Y-128680408D01*
X183756814Y-128681692D01*
X182743607Y-128953180D01*
X182739106Y-128954296D01*
X181716469Y-129187707D01*
X181711929Y-129188654D01*
X180681291Y-129383660D01*
X180676719Y-129384437D01*
X179639489Y-129540775D01*
X179634892Y-129541380D01*
X178592557Y-129658823D01*
X178587940Y-129659256D01*
X177541935Y-129737643D01*
X177537305Y-129737903D01*
X176530856Y-129775562D01*
X176489111Y-129777124D01*
X176484476Y-129777211D01*
X175435524Y-129777211D01*
X175430888Y-129777124D01*
X175387100Y-129775485D01*
X174382694Y-129737903D01*
X174378064Y-129737643D01*
X173332059Y-129659256D01*
X173327442Y-129658823D01*
X172285107Y-129541380D01*
X172280510Y-129540775D01*
X171243280Y-129384437D01*
X171238708Y-129383660D01*
X170208070Y-129188654D01*
X170203530Y-129187707D01*
X169180893Y-128954296D01*
X169176392Y-128953180D01*
X168163185Y-128681692D01*
X168158729Y-128680408D01*
X167156413Y-128371235D01*
X167152009Y-128369786D01*
X166822328Y-128254426D01*
X166765551Y-128213704D01*
X166739804Y-128148751D01*
X166753260Y-128080190D01*
X166763472Y-128063804D01*
X166839077Y-127961247D01*
X166862981Y-127943077D01*
X166885296Y-127923006D01*
X166890501Y-127922158D01*
X166894702Y-127918966D01*
X166924627Y-127916605D01*
X166954258Y-127911783D01*
X166959409Y-127913861D01*
X166964355Y-127913471D01*
X166982269Y-127923083D01*
X167013194Y-127935558D01*
X167094774Y-127996628D01*
X167222886Y-128044412D01*
X167279515Y-128050500D01*
X167820484Y-128050499D01*
X167877114Y-128044412D01*
X168005226Y-127996628D01*
X168114687Y-127914687D01*
X168196628Y-127805226D01*
X168244412Y-127677114D01*
X168247608Y-127647387D01*
X168250499Y-127620501D01*
X168250499Y-127620494D01*
X168250500Y-127620485D01*
X168250499Y-127189166D01*
X168259143Y-127159724D01*
X168265666Y-127129741D01*
X168269420Y-127124725D01*
X168270183Y-127122128D01*
X168286809Y-127101495D01*
X168349648Y-127038655D01*
X168410966Y-127005174D01*
X168480658Y-127010158D01*
X168536592Y-127052029D01*
X168544711Y-127064338D01*
X168553369Y-127079334D01*
X168553371Y-127079337D01*
X168553372Y-127079338D01*
X168654751Y-127180717D01*
X168654753Y-127180718D01*
X168654757Y-127180721D01*
X168778907Y-127252398D01*
X168778914Y-127252402D01*
X168917399Y-127289509D01*
X168917401Y-127289509D01*
X170517766Y-127289509D01*
X170517769Y-127289509D01*
X170656254Y-127252402D01*
X170780417Y-127180717D01*
X170881796Y-127079338D01*
X170889207Y-127066502D01*
X170939773Y-127018285D01*
X170996595Y-127004500D01*
X171742368Y-127004500D01*
X171779400Y-127011865D01*
X171779665Y-127010880D01*
X171787513Y-127012982D01*
X171787515Y-127012984D01*
X171927525Y-127050500D01*
X171927528Y-127050500D01*
X172072472Y-127050500D01*
X172072475Y-127050500D01*
X172212485Y-127012984D01*
X172338015Y-126940509D01*
X172440509Y-126838015D01*
X172512984Y-126712485D01*
X172550500Y-126572475D01*
X172550500Y-126427525D01*
X172512984Y-126287515D01*
X172512509Y-126286693D01*
X172440511Y-126161988D01*
X172440506Y-126161982D01*
X172338017Y-126059493D01*
X172338011Y-126059488D01*
X172212488Y-125987017D01*
X172212489Y-125987017D01*
X172195254Y-125982399D01*
X172072475Y-125949500D01*
X171927525Y-125949500D01*
X171787515Y-125987016D01*
X171787513Y-125987017D01*
X171779665Y-125989120D01*
X171779400Y-125988134D01*
X171742368Y-125995500D01*
X170989088Y-125995500D01*
X170922049Y-125975815D01*
X170876294Y-125923011D01*
X170866350Y-125853853D01*
X170881701Y-125809500D01*
X170915798Y-125750441D01*
X170953481Y-125685172D01*
X170990588Y-125546687D01*
X170990588Y-125403315D01*
X170953481Y-125264830D01*
X170951840Y-125261988D01*
X170881800Y-125140673D01*
X170881794Y-125140665D01*
X170780418Y-125039289D01*
X170780410Y-125039283D01*
X170656260Y-124967606D01*
X170656256Y-124967604D01*
X170656254Y-124967603D01*
X170627036Y-124959774D01*
X170567377Y-124923410D01*
X170536848Y-124860563D01*
X170545143Y-124791188D01*
X170589628Y-124737310D01*
X170627035Y-124720226D01*
X170656254Y-124712397D01*
X170780417Y-124640712D01*
X170881796Y-124539333D01*
X170953481Y-124415170D01*
X170990588Y-124276685D01*
X170990588Y-124133313D01*
X170953481Y-123994828D01*
X170932818Y-123959038D01*
X170881800Y-123870671D01*
X170881794Y-123870663D01*
X170780418Y-123769287D01*
X170780413Y-123769283D01*
X170712199Y-123729900D01*
X170712194Y-123729897D01*
X170656254Y-123697601D01*
X170617347Y-123687176D01*
X170608203Y-123683057D01*
X170588987Y-123666580D01*
X170567374Y-123653406D01*
X170562912Y-123644222D01*
X170555162Y-123637576D01*
X170552154Y-123627525D01*
X172249500Y-123627525D01*
X172249500Y-123772475D01*
X172285706Y-123907597D01*
X172287017Y-123912488D01*
X172359488Y-124038011D01*
X172359490Y-124038013D01*
X172359491Y-124038015D01*
X172461985Y-124140509D01*
X172461986Y-124140510D01*
X172461988Y-124140511D01*
X172587511Y-124212982D01*
X172587512Y-124212982D01*
X172587515Y-124212984D01*
X172727525Y-124250500D01*
X172727528Y-124250500D01*
X172872472Y-124250500D01*
X172872475Y-124250500D01*
X172933104Y-124234254D01*
X173002951Y-124235917D01*
X173052877Y-124266348D01*
X173188922Y-124402392D01*
X173301299Y-124514769D01*
X173395229Y-124608699D01*
X173510269Y-124675118D01*
X173638580Y-124709499D01*
X173877163Y-124709499D01*
X173944202Y-124729184D01*
X173989957Y-124781988D01*
X173999901Y-124851146D01*
X173970876Y-124914702D01*
X173964844Y-124921180D01*
X173917175Y-124968848D01*
X173917174Y-124968849D01*
X173830277Y-125098900D01*
X173778045Y-125225001D01*
X175138416Y-125225001D01*
X175205455Y-125244686D01*
X175251210Y-125297490D01*
X175262416Y-125349001D01*
X175262416Y-125601001D01*
X175242731Y-125668040D01*
X175189927Y-125713795D01*
X175138416Y-125725001D01*
X173778045Y-125725001D01*
X173830277Y-125851101D01*
X173917174Y-125981152D01*
X174027765Y-126091743D01*
X174135542Y-126163756D01*
X174180347Y-126217368D01*
X174189055Y-126286693D01*
X174158901Y-126349721D01*
X174154334Y-126354540D01*
X174098202Y-126410672D01*
X174098199Y-126410676D01*
X174026522Y-126534826D01*
X174026519Y-126534831D01*
X174026519Y-126534833D01*
X173989412Y-126673318D01*
X173989412Y-126816690D01*
X174026519Y-126955175D01*
X174026520Y-126955176D01*
X174026522Y-126955181D01*
X174098199Y-127079331D01*
X174098203Y-127079336D01*
X174098204Y-127079338D01*
X174199583Y-127180717D01*
X174199585Y-127180718D01*
X174199589Y-127180721D01*
X174323739Y-127252398D01*
X174323746Y-127252402D01*
X174462231Y-127289509D01*
X175185773Y-127289509D01*
X175252812Y-127309194D01*
X175273454Y-127325828D01*
X175589623Y-127641997D01*
X175589638Y-127642014D01*
X175595010Y-127647386D01*
X175595011Y-127647387D01*
X175670025Y-127722401D01*
X175761898Y-127775443D01*
X175783553Y-127781245D01*
X175864369Y-127802901D01*
X175970455Y-127802901D01*
X175970459Y-127802900D01*
X178250500Y-127802900D01*
X178317539Y-127822585D01*
X178363294Y-127875389D01*
X178374500Y-127926900D01*
X178374500Y-128274678D01*
X178389032Y-128347735D01*
X178389033Y-128347739D01*
X178389034Y-128347740D01*
X178444399Y-128430601D01*
X178527260Y-128485966D01*
X178527264Y-128485967D01*
X178600321Y-128500499D01*
X178600324Y-128500500D01*
X178600326Y-128500500D01*
X180349676Y-128500500D01*
X180349677Y-128500499D01*
X180422740Y-128485966D01*
X180505601Y-128430601D01*
X180560966Y-128347740D01*
X180575500Y-128274674D01*
X180575500Y-128064949D01*
X180595185Y-127997910D01*
X180647989Y-127952155D01*
X180717147Y-127942211D01*
X180780703Y-127971236D01*
X180809985Y-128008654D01*
X180860375Y-128107550D01*
X180899728Y-128161716D01*
X181532037Y-127529408D01*
X181549075Y-127592993D01*
X181614901Y-127707007D01*
X181707993Y-127800099D01*
X181822007Y-127865925D01*
X181885590Y-127882962D01*
X181253282Y-128515269D01*
X181253282Y-128515270D01*
X181307449Y-128554624D01*
X181496782Y-128651095D01*
X181698870Y-128716757D01*
X181908754Y-128750000D01*
X182121246Y-128750000D01*
X182331127Y-128716757D01*
X182331130Y-128716757D01*
X182533217Y-128651095D01*
X182722554Y-128554622D01*
X182776716Y-128515270D01*
X182776717Y-128515270D01*
X182144408Y-127882962D01*
X182207993Y-127865925D01*
X182322007Y-127800099D01*
X182415099Y-127707007D01*
X182480925Y-127592993D01*
X182497962Y-127529408D01*
X183130270Y-128161717D01*
X183130270Y-128161716D01*
X183169622Y-128107554D01*
X183266095Y-127918217D01*
X183331757Y-127716130D01*
X183331757Y-127716127D01*
X183365000Y-127506246D01*
X183365000Y-127293753D01*
X183331757Y-127083872D01*
X183331757Y-127083869D01*
X183266095Y-126881782D01*
X183169624Y-126692449D01*
X183130270Y-126638282D01*
X183130269Y-126638282D01*
X182497962Y-127270590D01*
X182480925Y-127207007D01*
X182415099Y-127092993D01*
X182322007Y-126999901D01*
X182207993Y-126934075D01*
X182144409Y-126917037D01*
X182776716Y-126284728D01*
X182722550Y-126245375D01*
X182533217Y-126148904D01*
X182331129Y-126083242D01*
X182121246Y-126050000D01*
X181908754Y-126050000D01*
X181698872Y-126083242D01*
X181698869Y-126083242D01*
X181496782Y-126148904D01*
X181307439Y-126245380D01*
X181253282Y-126284727D01*
X181253282Y-126284728D01*
X181885591Y-126917037D01*
X181822007Y-126934075D01*
X181707993Y-126999901D01*
X181614901Y-127092993D01*
X181549075Y-127207007D01*
X181532037Y-127270591D01*
X180899728Y-126638282D01*
X180899727Y-126638282D01*
X180860380Y-126692440D01*
X180860378Y-126692443D01*
X180809984Y-126791346D01*
X180762010Y-126842141D01*
X180694188Y-126858936D01*
X180628054Y-126836398D01*
X180584603Y-126781683D01*
X180575500Y-126735050D01*
X180575500Y-126525323D01*
X180575499Y-126525321D01*
X180560967Y-126452264D01*
X180560966Y-126452260D01*
X180544439Y-126427525D01*
X180505601Y-126369399D01*
X180450235Y-126332405D01*
X180422739Y-126314033D01*
X180422735Y-126314032D01*
X180349677Y-126299500D01*
X180349674Y-126299500D01*
X178600326Y-126299500D01*
X178600323Y-126299500D01*
X178527264Y-126314032D01*
X178527260Y-126314033D01*
X178444399Y-126369399D01*
X178389033Y-126452260D01*
X178389032Y-126452264D01*
X178374500Y-126525321D01*
X178374500Y-126873100D01*
X178354815Y-126940139D01*
X178302011Y-126985894D01*
X178250500Y-126997100D01*
X176648679Y-126997100D01*
X176581640Y-126977415D01*
X176535885Y-126924611D01*
X176525941Y-126855453D01*
X176528904Y-126841007D01*
X176530139Y-126836398D01*
X176535420Y-126816690D01*
X176535420Y-126673318D01*
X176498313Y-126534833D01*
X176492824Y-126525326D01*
X176426632Y-126410676D01*
X176426626Y-126410668D01*
X176370498Y-126354540D01*
X176337013Y-126293217D01*
X176341997Y-126223525D01*
X176383869Y-126167592D01*
X176389290Y-126163756D01*
X176497062Y-126091746D01*
X176497067Y-126091742D01*
X176607657Y-125981152D01*
X176694554Y-125851099D01*
X176743243Y-125733554D01*
X176787083Y-125679150D01*
X176853377Y-125657085D01*
X176896808Y-125663300D01*
X177052393Y-125714855D01*
X177151683Y-125724999D01*
X177700000Y-125724999D01*
X177748308Y-125724999D01*
X177748322Y-125724998D01*
X177847607Y-125714855D01*
X178008481Y-125661547D01*
X178008492Y-125661542D01*
X178152728Y-125572575D01*
X178152732Y-125572572D01*
X178272572Y-125452732D01*
X178272575Y-125452728D01*
X178361542Y-125308492D01*
X178361547Y-125308481D01*
X178414855Y-125147606D01*
X178424999Y-125048322D01*
X178425000Y-125048309D01*
X178425000Y-125025000D01*
X177700000Y-125025000D01*
X177700000Y-125724999D01*
X177151683Y-125724999D01*
X177199999Y-125724998D01*
X177200000Y-125724998D01*
X177200000Y-124899000D01*
X177219685Y-124831961D01*
X177272489Y-124786206D01*
X177324000Y-124775000D01*
X177450000Y-124775000D01*
X177450000Y-124649000D01*
X177469685Y-124581961D01*
X177522489Y-124536206D01*
X177574000Y-124525000D01*
X178424999Y-124525000D01*
X178424999Y-124501692D01*
X178424998Y-124501677D01*
X178414855Y-124402392D01*
X178361547Y-124241518D01*
X178361542Y-124241507D01*
X178272575Y-124097271D01*
X178272572Y-124097267D01*
X178152732Y-123977427D01*
X178152728Y-123977424D01*
X178122920Y-123959038D01*
X178076195Y-123907090D01*
X178064974Y-123838127D01*
X178092817Y-123774046D01*
X178150886Y-123735190D01*
X178188017Y-123729500D01*
X179164667Y-123729500D01*
X179231706Y-123749185D01*
X179252348Y-123765819D01*
X180661089Y-125174560D01*
X180682069Y-125205956D01*
X180682952Y-125205447D01*
X180759488Y-125338011D01*
X180759490Y-125338013D01*
X180759491Y-125338015D01*
X180861985Y-125440509D01*
X180861986Y-125440510D01*
X180861988Y-125440511D01*
X180987511Y-125512982D01*
X180987512Y-125512982D01*
X180987515Y-125512984D01*
X181127525Y-125550500D01*
X181127528Y-125550500D01*
X181272472Y-125550500D01*
X181272475Y-125550500D01*
X181412485Y-125512984D01*
X181538015Y-125440509D01*
X181640509Y-125338015D01*
X181712984Y-125212485D01*
X181750500Y-125072475D01*
X181750500Y-124927525D01*
X181712984Y-124787515D01*
X181712228Y-124786206D01*
X181640511Y-124661988D01*
X181640506Y-124661982D01*
X181538017Y-124559493D01*
X181538011Y-124559488D01*
X181405447Y-124482952D01*
X181405956Y-124482069D01*
X181374560Y-124461089D01*
X180545053Y-123631582D01*
X181675001Y-123631582D01*
X181681408Y-123702102D01*
X181681409Y-123702107D01*
X181731981Y-123864396D01*
X181819927Y-124009877D01*
X181940122Y-124130072D01*
X182085604Y-124218019D01*
X182085603Y-124218019D01*
X182247894Y-124268590D01*
X182247893Y-124268590D01*
X182318408Y-124274998D01*
X182318426Y-124274999D01*
X182324999Y-124274998D01*
X182325000Y-124274998D01*
X182325000Y-123550000D01*
X181675001Y-123550000D01*
X181675001Y-123631582D01*
X180545053Y-123631582D01*
X179881898Y-122968427D01*
X181675000Y-122968427D01*
X181675000Y-123050000D01*
X182325000Y-123050000D01*
X182325000Y-122325000D01*
X182825000Y-122325000D01*
X182825000Y-124274999D01*
X182831581Y-124274999D01*
X182902102Y-124268591D01*
X182902107Y-124268590D01*
X183064396Y-124218018D01*
X183209877Y-124130072D01*
X183330072Y-124009877D01*
X183418018Y-123864396D01*
X183422585Y-123849742D01*
X183461321Y-123791593D01*
X183525345Y-123763618D01*
X183594331Y-123774697D01*
X183640741Y-123812995D01*
X183702850Y-123897150D01*
X183812118Y-123977793D01*
X183854845Y-123992744D01*
X183940299Y-124022646D01*
X183970730Y-124025500D01*
X183970734Y-124025500D01*
X184479270Y-124025500D01*
X184509699Y-124022646D01*
X184509701Y-124022646D01*
X184573790Y-124000219D01*
X184637882Y-123977793D01*
X184747150Y-123897150D01*
X184770976Y-123864867D01*
X184826623Y-123822616D01*
X184870746Y-123814500D01*
X184951967Y-123814500D01*
X184951970Y-123814500D01*
X185080281Y-123780119D01*
X185139527Y-123745913D01*
X185195321Y-123713701D01*
X186338202Y-122570820D01*
X186399525Y-122537335D01*
X186425883Y-122534501D01*
X186628376Y-122534501D01*
X186628377Y-122534500D01*
X186701440Y-122519967D01*
X186784301Y-122464602D01*
X186839666Y-122381741D01*
X186854200Y-122308675D01*
X186854200Y-121833125D01*
X186873885Y-121766086D01*
X186903889Y-121733858D01*
X186960889Y-121691187D01*
X186960890Y-121691186D01*
X187047052Y-121576088D01*
X187047054Y-121576086D01*
X187097296Y-121441379D01*
X187097298Y-121441372D01*
X187103699Y-121381844D01*
X187103700Y-121381827D01*
X187103700Y-121330000D01*
X185227400Y-121330000D01*
X185227400Y-121381844D01*
X185233801Y-121441372D01*
X185233803Y-121441379D01*
X185284045Y-121576086D01*
X185284047Y-121576088D01*
X185370209Y-121691186D01*
X185370210Y-121691187D01*
X185427211Y-121733858D01*
X185429948Y-121737514D01*
X185434103Y-121739412D01*
X185450693Y-121765226D01*
X185469082Y-121789792D01*
X185470097Y-121795421D01*
X185471877Y-121798190D01*
X185476900Y-121833125D01*
X185476900Y-121953817D01*
X185457215Y-122020856D01*
X185440581Y-122041498D01*
X184841062Y-122641016D01*
X184779739Y-122674501D01*
X184710047Y-122669517D01*
X184679749Y-122653106D01*
X184637882Y-122622207D01*
X184637880Y-122622206D01*
X184509700Y-122577353D01*
X184479270Y-122574500D01*
X184479266Y-122574500D01*
X183970734Y-122574500D01*
X183970730Y-122574500D01*
X183940300Y-122577353D01*
X183940298Y-122577353D01*
X183812119Y-122622206D01*
X183812117Y-122622207D01*
X183702850Y-122702850D01*
X183640741Y-122787004D01*
X183585093Y-122829255D01*
X183515437Y-122834712D01*
X183453887Y-122801645D01*
X183422585Y-122750258D01*
X183418018Y-122735602D01*
X183330072Y-122590122D01*
X183209877Y-122469927D01*
X183064395Y-122381980D01*
X183064396Y-122381980D01*
X182902105Y-122331409D01*
X182902106Y-122331409D01*
X182831572Y-122325000D01*
X182825000Y-122325000D01*
X182325000Y-122325000D01*
X182324999Y-122324999D01*
X182318436Y-122325000D01*
X182318417Y-122325001D01*
X182247897Y-122331408D01*
X182247892Y-122331409D01*
X182085603Y-122381981D01*
X181940122Y-122469927D01*
X181819927Y-122590122D01*
X181731980Y-122735604D01*
X181681409Y-122897893D01*
X181675000Y-122968427D01*
X179881898Y-122968427D01*
X179734771Y-122821300D01*
X179734770Y-122821299D01*
X179645525Y-122769774D01*
X179619730Y-122754881D01*
X179491419Y-122720500D01*
X179491416Y-122720500D01*
X178146813Y-122720500D01*
X178079774Y-122700815D01*
X178047546Y-122670811D01*
X178039689Y-122660316D01*
X178039687Y-122660313D01*
X177960002Y-122600662D01*
X177930228Y-122578373D01*
X177930226Y-122578372D01*
X177802114Y-122530588D01*
X177802112Y-122530587D01*
X177802110Y-122530587D01*
X177745501Y-122524500D01*
X177745485Y-122524500D01*
X177491222Y-122524500D01*
X177475733Y-122520350D01*
X177461989Y-122521005D01*
X177429226Y-122507889D01*
X177396833Y-122489187D01*
X177354728Y-122464878D01*
X177354727Y-122464877D01*
X177322648Y-122456281D01*
X177226415Y-122430496D01*
X177226412Y-122430496D01*
X176228228Y-122430496D01*
X176196135Y-122426271D01*
X176117690Y-122405252D01*
X176062601Y-122390491D01*
X174462231Y-122390491D01*
X174323746Y-122427598D01*
X174323744Y-122427598D01*
X174323744Y-122427599D01*
X174323739Y-122427601D01*
X174199589Y-122499278D01*
X174199581Y-122499284D01*
X174098205Y-122600660D01*
X174098199Y-122600668D01*
X174026522Y-122724818D01*
X174026519Y-122724823D01*
X174026519Y-122724825D01*
X173989412Y-122863310D01*
X173989412Y-123006682D01*
X174026519Y-123145167D01*
X174026520Y-123145168D01*
X174026522Y-123145173D01*
X174098199Y-123269323D01*
X174098203Y-123269328D01*
X174098204Y-123269330D01*
X174199583Y-123370709D01*
X174199585Y-123370710D01*
X174199589Y-123370713D01*
X174272799Y-123412980D01*
X174323746Y-123442394D01*
X174352963Y-123450222D01*
X174355571Y-123451812D01*
X174358624Y-123451885D01*
X174385202Y-123469873D01*
X174412623Y-123486587D01*
X174413958Y-123489335D01*
X174416487Y-123491047D01*
X174429123Y-123520554D01*
X174443152Y-123549434D01*
X174442789Y-123552466D01*
X174443992Y-123555275D01*
X174438667Y-123586939D01*
X174434857Y-123618809D01*
X174432912Y-123621163D01*
X174432406Y-123624177D01*
X174410805Y-123647939D01*
X174390372Y-123672687D01*
X174386843Y-123674298D01*
X174385408Y-123675878D01*
X174352963Y-123689772D01*
X174328697Y-123696274D01*
X174296604Y-123700499D01*
X173965331Y-123700499D01*
X173898292Y-123680814D01*
X173877650Y-123664180D01*
X173708954Y-123495484D01*
X173509770Y-123296299D01*
X173509768Y-123296298D01*
X173509763Y-123296294D01*
X173420511Y-123244765D01*
X173420511Y-123244766D01*
X173394730Y-123229881D01*
X173266419Y-123195500D01*
X173266416Y-123195500D01*
X173057632Y-123195500D01*
X173020599Y-123188134D01*
X173020335Y-123189120D01*
X173012486Y-123187017D01*
X173012485Y-123187016D01*
X172872475Y-123149500D01*
X172727525Y-123149500D01*
X172598993Y-123183940D01*
X172587511Y-123187017D01*
X172461988Y-123259488D01*
X172461982Y-123259493D01*
X172359493Y-123361982D01*
X172359488Y-123361988D01*
X172287017Y-123487511D01*
X172287016Y-123487515D01*
X172249500Y-123627525D01*
X170552154Y-123627525D01*
X170547904Y-123613325D01*
X170536846Y-123590559D01*
X170538058Y-123580421D01*
X170535131Y-123570640D01*
X170542135Y-123546316D01*
X170545141Y-123521183D01*
X170551641Y-123513310D01*
X170554467Y-123503499D01*
X170573511Y-123486823D01*
X170589627Y-123467306D01*
X170602532Y-123461412D01*
X170607034Y-123457471D01*
X170613164Y-123456557D01*
X170627033Y-123450223D01*
X170656254Y-123442394D01*
X170780417Y-123370709D01*
X170881796Y-123269330D01*
X170953481Y-123145167D01*
X170990588Y-123006682D01*
X170990588Y-122863310D01*
X170953481Y-122724825D01*
X170916236Y-122660314D01*
X170881800Y-122600668D01*
X170881794Y-122600660D01*
X170780418Y-122499284D01*
X170780410Y-122499278D01*
X170656260Y-122427601D01*
X170656257Y-122427599D01*
X170656254Y-122427598D01*
X170517769Y-122390491D01*
X170517767Y-122390491D01*
X170474500Y-122390491D01*
X170407461Y-122370806D01*
X170361706Y-122318002D01*
X170353111Y-122291803D01*
X170350500Y-122279281D01*
X170350500Y-122227525D01*
X170312984Y-122087515D01*
X170309116Y-122080816D01*
X170305634Y-122064114D01*
X170307534Y-122040416D01*
X170304994Y-122016783D01*
X170310275Y-122006232D01*
X170311219Y-121994468D01*
X170325629Y-121975560D01*
X170336270Y-121954304D01*
X170346418Y-121948282D01*
X170353572Y-121938897D01*
X170375917Y-121930781D01*
X170396360Y-121918653D01*
X170416158Y-121916166D01*
X170419244Y-121915046D01*
X170421325Y-121915517D01*
X170427023Y-121914802D01*
X174016441Y-121914802D01*
X174016444Y-121914802D01*
X174144755Y-121880421D01*
X174158646Y-121872400D01*
X174220644Y-121855789D01*
X174673203Y-121855789D01*
X174673204Y-121855788D01*
X174746267Y-121841255D01*
X174829128Y-121785890D01*
X174884493Y-121703029D01*
X174894418Y-121653133D01*
X177351473Y-121653133D01*
X177357874Y-121712661D01*
X177357876Y-121712668D01*
X177408118Y-121847375D01*
X177408122Y-121847382D01*
X177494282Y-121962476D01*
X177494285Y-121962479D01*
X177609379Y-122048639D01*
X177609386Y-122048643D01*
X177744093Y-122098885D01*
X177744100Y-122098887D01*
X177803628Y-122105288D01*
X177803645Y-122105289D01*
X178346978Y-122105289D01*
X178752972Y-122105289D01*
X179296305Y-122105289D01*
X179296321Y-122105288D01*
X179355849Y-122098887D01*
X179355856Y-122098885D01*
X179490563Y-122048643D01*
X179490570Y-122048639D01*
X179605664Y-121962479D01*
X179605667Y-121962476D01*
X179691827Y-121847382D01*
X179691831Y-121847375D01*
X179742073Y-121712668D01*
X179742075Y-121712661D01*
X179748476Y-121653133D01*
X179748477Y-121653116D01*
X179748477Y-121605289D01*
X178752972Y-121605289D01*
X178752972Y-122105289D01*
X178346978Y-122105289D01*
X178346978Y-121605289D01*
X177351473Y-121605289D01*
X177351473Y-121653133D01*
X174894418Y-121653133D01*
X174899027Y-121629963D01*
X174899027Y-121174621D01*
X174899027Y-121174618D01*
X174884480Y-121101490D01*
X174884480Y-121053105D01*
X174887844Y-121036197D01*
X174899027Y-120979976D01*
X174899027Y-120654363D01*
X174918712Y-120587324D01*
X174971516Y-120541569D01*
X175023027Y-120530363D01*
X177281166Y-120530363D01*
X177345685Y-120549308D01*
X177783156Y-120549308D01*
X177807348Y-120551690D01*
X177813068Y-120552828D01*
X177826798Y-120555560D01*
X178425975Y-120555560D01*
X178434660Y-120558110D01*
X178443622Y-120556822D01*
X178467662Y-120567800D01*
X178493014Y-120575245D01*
X178498941Y-120582085D01*
X178507178Y-120585847D01*
X178521467Y-120608081D01*
X178538769Y-120628049D01*
X178541056Y-120638563D01*
X178544952Y-120644625D01*
X178549975Y-120679560D01*
X178549975Y-120831302D01*
X178530290Y-120898341D01*
X178477486Y-120944096D01*
X178425975Y-120955302D01*
X177351473Y-120955302D01*
X177351473Y-121003129D01*
X177351474Y-121003148D01*
X177358021Y-121064043D01*
X177358022Y-121090553D01*
X177351473Y-121151466D01*
X177351473Y-121199295D01*
X179748477Y-121199295D01*
X179748477Y-121151467D01*
X179748476Y-121151453D01*
X179741928Y-121090555D01*
X179741927Y-121064043D01*
X179743872Y-121045952D01*
X179770611Y-120981401D01*
X179828003Y-120941553D01*
X179897828Y-120939059D01*
X179940793Y-120959435D01*
X179952118Y-120967793D01*
X179986935Y-120979976D01*
X180080299Y-121012646D01*
X180110730Y-121015500D01*
X180110734Y-121015500D01*
X180619270Y-121015500D01*
X180649699Y-121012646D01*
X180649701Y-121012646D01*
X180738992Y-120981401D01*
X180777882Y-120967793D01*
X180887150Y-120887150D01*
X180967793Y-120777882D01*
X180997102Y-120694121D01*
X181012646Y-120649701D01*
X181012646Y-120649699D01*
X181015500Y-120619269D01*
X181015500Y-119960730D01*
X181012646Y-119930300D01*
X181012646Y-119930298D01*
X180967793Y-119802119D01*
X180967792Y-119802117D01*
X180936334Y-119759493D01*
X180887150Y-119692850D01*
X180777882Y-119612207D01*
X180755426Y-119604349D01*
X180698652Y-119563627D01*
X180672906Y-119498674D01*
X180686363Y-119430113D01*
X180734751Y-119379711D01*
X180783784Y-119363951D01*
X180827606Y-119359475D01*
X180988481Y-119306166D01*
X180988492Y-119306161D01*
X181132728Y-119217194D01*
X181132732Y-119217191D01*
X181252573Y-119097350D01*
X181288348Y-119039350D01*
X181294623Y-119033705D01*
X181297910Y-119025933D01*
X181320211Y-119010689D01*
X181340296Y-118992625D01*
X181348625Y-118991269D01*
X181355593Y-118986507D01*
X181382595Y-118985741D01*
X181409258Y-118981402D01*
X181418815Y-118984713D01*
X181425435Y-118984526D01*
X181443623Y-118993310D01*
X181457942Y-118998272D01*
X181463236Y-119001466D01*
X181549774Y-119066247D01*
X181604361Y-119086607D01*
X181614255Y-119092576D01*
X181630377Y-119110149D01*
X181649467Y-119124440D01*
X181653562Y-119135421D01*
X181661489Y-119144061D01*
X181665551Y-119167562D01*
X181673884Y-119189904D01*
X181674200Y-119198750D01*
X181674200Y-119499393D01*
X181654515Y-119566432D01*
X181608144Y-119609022D01*
X181602119Y-119612206D01*
X181492850Y-119692850D01*
X181412207Y-119802117D01*
X181412206Y-119802119D01*
X181367353Y-119930298D01*
X181367353Y-119930300D01*
X181364500Y-119960730D01*
X181364500Y-120619269D01*
X181367353Y-120649699D01*
X181367353Y-120649701D01*
X181406691Y-120762119D01*
X181412207Y-120777882D01*
X181492850Y-120887150D01*
X181602118Y-120967793D01*
X181636935Y-120979976D01*
X181730299Y-121012646D01*
X181760730Y-121015500D01*
X181760734Y-121015500D01*
X182269270Y-121015500D01*
X182299699Y-121012646D01*
X182299701Y-121012646D01*
X182388992Y-120981401D01*
X182427882Y-120967793D01*
X182537150Y-120887150D01*
X182617793Y-120777882D01*
X182647102Y-120694121D01*
X182662646Y-120649701D01*
X182662646Y-120649699D01*
X182665500Y-120619269D01*
X182665500Y-120127525D01*
X183999500Y-120127525D01*
X183999500Y-120272475D01*
X184035683Y-120407511D01*
X184037017Y-120412488D01*
X184109488Y-120538011D01*
X184109490Y-120538013D01*
X184109491Y-120538015D01*
X184211985Y-120640509D01*
X184211986Y-120640510D01*
X184211988Y-120640511D01*
X184337511Y-120712982D01*
X184337512Y-120712982D01*
X184337515Y-120712984D01*
X184477525Y-120750500D01*
X184477528Y-120750500D01*
X184622472Y-120750500D01*
X184622475Y-120750500D01*
X184762485Y-120712984D01*
X184888015Y-120640509D01*
X184888019Y-120640504D01*
X184894461Y-120635562D01*
X184895308Y-120636666D01*
X184914632Y-120626115D01*
X184940451Y-120609523D01*
X184946651Y-120608631D01*
X184949028Y-120607334D01*
X184975386Y-120604500D01*
X185108026Y-120604500D01*
X185175065Y-120624185D01*
X185220820Y-120676989D01*
X185231315Y-120741757D01*
X185227400Y-120778158D01*
X185227400Y-120830000D01*
X187103700Y-120830000D01*
X187103700Y-120778172D01*
X187103699Y-120778155D01*
X187097298Y-120718627D01*
X187097296Y-120718620D01*
X187047054Y-120583913D01*
X187047050Y-120583906D01*
X186960891Y-120468814D01*
X186960885Y-120468807D01*
X186903888Y-120426139D01*
X186862018Y-120370205D01*
X186854200Y-120326873D01*
X186854200Y-119851322D01*
X186854199Y-119851320D01*
X186839667Y-119778263D01*
X186839666Y-119778259D01*
X186827124Y-119759488D01*
X186784301Y-119695398D01*
X186705469Y-119642725D01*
X186701439Y-119640032D01*
X186701435Y-119640031D01*
X186628377Y-119625499D01*
X186628374Y-119625499D01*
X186330253Y-119625499D01*
X186298160Y-119621274D01*
X186224190Y-119601454D01*
X186201970Y-119595500D01*
X184583581Y-119595500D01*
X184471623Y-119625499D01*
X184471622Y-119625498D01*
X184455272Y-119629880D01*
X184455269Y-119629881D01*
X184386722Y-119669457D01*
X184356818Y-119681843D01*
X184337518Y-119687014D01*
X184337511Y-119687017D01*
X184211988Y-119759488D01*
X184211982Y-119759493D01*
X184109493Y-119861982D01*
X184109488Y-119861988D01*
X184037017Y-119987511D01*
X184037016Y-119987515D01*
X183999500Y-120127525D01*
X182665500Y-120127525D01*
X182665500Y-119960730D01*
X182662646Y-119930300D01*
X182662646Y-119930298D01*
X182617793Y-119802119D01*
X182617793Y-119802118D01*
X182555029Y-119717075D01*
X182531059Y-119651446D01*
X182530800Y-119643442D01*
X182530800Y-119074555D01*
X182550485Y-119007516D01*
X182567119Y-118986874D01*
X182569684Y-118984308D01*
X182569683Y-118984308D01*
X182569687Y-118984306D01*
X182651628Y-118874845D01*
X182699412Y-118746733D01*
X182704179Y-118702393D01*
X182705499Y-118690120D01*
X182705499Y-118690113D01*
X182705500Y-118690104D01*
X182705499Y-118099135D01*
X182699412Y-118042505D01*
X182684134Y-118001545D01*
X182662298Y-117943000D01*
X182651628Y-117914393D01*
X182569687Y-117804932D01*
X182472420Y-117732119D01*
X182460228Y-117722992D01*
X182460226Y-117722991D01*
X182332114Y-117675207D01*
X182332112Y-117675206D01*
X182332110Y-117675206D01*
X182275493Y-117669119D01*
X181734518Y-117669119D01*
X181734509Y-117669120D01*
X181677885Y-117675206D01*
X181549771Y-117722992D01*
X181468195Y-117784058D01*
X181402730Y-117808474D01*
X181334458Y-117793621D01*
X181288347Y-117749887D01*
X181252571Y-117691885D01*
X181132732Y-117572046D01*
X181132728Y-117572043D01*
X180988492Y-117483076D01*
X180988481Y-117483071D01*
X180827606Y-117429763D01*
X180728322Y-117419619D01*
X180705000Y-117419619D01*
X180705000Y-118270619D01*
X180685315Y-118337658D01*
X180632511Y-118383413D01*
X180581000Y-118394619D01*
X180329000Y-118394619D01*
X180261961Y-118374934D01*
X180216206Y-118322130D01*
X180205000Y-118270619D01*
X180205000Y-117419618D01*
X180181693Y-117419619D01*
X180181674Y-117419620D01*
X180082392Y-117429763D01*
X179921518Y-117483071D01*
X179921507Y-117483076D01*
X179777271Y-117572043D01*
X179771605Y-117576524D01*
X179770087Y-117574605D01*
X179718926Y-117602526D01*
X179649236Y-117597525D01*
X179593312Y-117555641D01*
X179568911Y-117490171D01*
X179568597Y-117481483D01*
X179568291Y-117139152D01*
X184395001Y-117139152D01*
X184405056Y-117237583D01*
X184457906Y-117397072D01*
X184457908Y-117397077D01*
X184546114Y-117540080D01*
X184664919Y-117658885D01*
X184747325Y-117709714D01*
X184794050Y-117761662D01*
X184805271Y-117830625D01*
X184781495Y-117889563D01*
X184697666Y-118001545D01*
X184697662Y-118001552D01*
X184650509Y-118127975D01*
X184644500Y-118183855D01*
X184644500Y-118711144D01*
X184650509Y-118767024D01*
X184697662Y-118893447D01*
X184697664Y-118893450D01*
X184778528Y-119001472D01*
X184865058Y-119066247D01*
X184886549Y-119082335D01*
X184886552Y-119082337D01*
X185012975Y-119129490D01*
X185012978Y-119129491D01*
X185042318Y-119132645D01*
X185068855Y-119135499D01*
X185068870Y-119135500D01*
X185671130Y-119135500D01*
X185671144Y-119135499D01*
X185693023Y-119133146D01*
X185727022Y-119129491D01*
X185853450Y-119082336D01*
X185961472Y-119001472D01*
X185961477Y-119001464D01*
X185967747Y-118995197D01*
X185968703Y-118996153D01*
X186017246Y-118959817D01*
X186060577Y-118952000D01*
X186886417Y-118952000D01*
X186886419Y-118952000D01*
X186893178Y-118950188D01*
X186894910Y-118949725D01*
X186927002Y-118945500D01*
X187389270Y-118945500D01*
X187419699Y-118942646D01*
X187419701Y-118942646D01*
X187483790Y-118920219D01*
X187547882Y-118897793D01*
X187657150Y-118817150D01*
X187737793Y-118707882D01*
X187767772Y-118622206D01*
X187782646Y-118579701D01*
X187782646Y-118579699D01*
X187785500Y-118549269D01*
X187785500Y-117890730D01*
X187782646Y-117860301D01*
X187765123Y-117810223D01*
X187765122Y-117810221D01*
X187764511Y-117808474D01*
X187752799Y-117775002D01*
X188069500Y-117775002D01*
X188069500Y-120349997D01*
X188070802Y-120378183D01*
X188070804Y-120378192D01*
X188101526Y-120486169D01*
X188101527Y-120486171D01*
X188101528Y-120486173D01*
X188114478Y-120503322D01*
X188144212Y-120542696D01*
X188168904Y-120608058D01*
X188154339Y-120676392D01*
X188148362Y-120686312D01*
X188120333Y-120728261D01*
X188120332Y-120728264D01*
X188105800Y-120801321D01*
X188105800Y-121358678D01*
X188120332Y-121431735D01*
X188120335Y-121431742D01*
X188156662Y-121486111D01*
X188177539Y-121552788D01*
X188159054Y-121620168D01*
X188156663Y-121623889D01*
X188120333Y-121678262D01*
X188120332Y-121678265D01*
X188105800Y-121751322D01*
X188105800Y-122308679D01*
X188120332Y-122381736D01*
X188120333Y-122381740D01*
X188120494Y-122381981D01*
X188175699Y-122464602D01*
X188258560Y-122519967D01*
X188331626Y-122534501D01*
X188331631Y-122534501D01*
X188332018Y-122534578D01*
X188393930Y-122566963D01*
X188404000Y-122577921D01*
X188410257Y-122585608D01*
X188451725Y-122657433D01*
X188531467Y-122737175D01*
X188531469Y-122737176D01*
X188543026Y-122748733D01*
X189202934Y-123408641D01*
X189202944Y-123408652D01*
X189207274Y-123412982D01*
X189207275Y-123412983D01*
X189287017Y-123492725D01*
X189384682Y-123549112D01*
X189493613Y-123578300D01*
X189493614Y-123578300D01*
X189493615Y-123578300D01*
X191606384Y-123578300D01*
X191606386Y-123578300D01*
X191606387Y-123578300D01*
X191715318Y-123549112D01*
X191812983Y-123492725D01*
X191892725Y-123412983D01*
X191892725Y-123412981D01*
X191902929Y-123402778D01*
X191902933Y-123402773D01*
X193040273Y-122265433D01*
X193040278Y-122265429D01*
X193050481Y-122255225D01*
X193050483Y-122255225D01*
X193130225Y-122175483D01*
X193186612Y-122077818D01*
X193203531Y-122014675D01*
X193239895Y-121955016D01*
X193282352Y-121929727D01*
X193287882Y-121927793D01*
X193397150Y-121847150D01*
X193459259Y-121762994D01*
X193514905Y-121720745D01*
X193584561Y-121715286D01*
X193646111Y-121748353D01*
X193677413Y-121799737D01*
X193681981Y-121814397D01*
X193769927Y-121959877D01*
X193890122Y-122080072D01*
X194035604Y-122168019D01*
X194035603Y-122168019D01*
X194197894Y-122218590D01*
X194197893Y-122218590D01*
X194268408Y-122224998D01*
X194268426Y-122224999D01*
X194274999Y-122224998D01*
X194275000Y-122224998D01*
X194275000Y-121000000D01*
X194775000Y-121000000D01*
X195424999Y-121000000D01*
X195424999Y-120918417D01*
X195418591Y-120847897D01*
X195418590Y-120847892D01*
X195368018Y-120685603D01*
X195280072Y-120540122D01*
X195159877Y-120419927D01*
X195014395Y-120331980D01*
X195014396Y-120331980D01*
X194852105Y-120281409D01*
X194852106Y-120281409D01*
X194781572Y-120275000D01*
X194775000Y-120275000D01*
X194775000Y-121000000D01*
X194275000Y-121000000D01*
X194275000Y-120275000D01*
X194274999Y-120274999D01*
X194268436Y-120275000D01*
X194268417Y-120275001D01*
X194197897Y-120281408D01*
X194197892Y-120281409D01*
X194035603Y-120331981D01*
X193890122Y-120419927D01*
X193769927Y-120540122D01*
X193734617Y-120598533D01*
X193683089Y-120645721D01*
X193614229Y-120657559D01*
X193549901Y-120630290D01*
X193510527Y-120572571D01*
X193504500Y-120534383D01*
X193504500Y-120065028D01*
X193524185Y-119997989D01*
X193554866Y-119965258D01*
X193560996Y-119960734D01*
X193647150Y-119897150D01*
X193727793Y-119787882D01*
X193759763Y-119696518D01*
X193772646Y-119659701D01*
X193772646Y-119659699D01*
X193775500Y-119629269D01*
X193775500Y-118970730D01*
X194124500Y-118970730D01*
X194124500Y-119629269D01*
X194127353Y-119659699D01*
X194127353Y-119659701D01*
X194172206Y-119787880D01*
X194172207Y-119787882D01*
X194252850Y-119897150D01*
X194362118Y-119977793D01*
X194389891Y-119987511D01*
X194490299Y-120022646D01*
X194520730Y-120025500D01*
X194520734Y-120025500D01*
X195029270Y-120025500D01*
X195059699Y-120022646D01*
X195059701Y-120022646D01*
X195130165Y-119997989D01*
X195187882Y-119977793D01*
X195297150Y-119897150D01*
X195377793Y-119787882D01*
X195377794Y-119787880D01*
X195383311Y-119780405D01*
X195386010Y-119782397D01*
X195423094Y-119744288D01*
X195484000Y-119728300D01*
X196006384Y-119728300D01*
X196006386Y-119728300D01*
X196006387Y-119728300D01*
X196115318Y-119699112D01*
X196212983Y-119642725D01*
X196292725Y-119562983D01*
X196292725Y-119562981D01*
X196302931Y-119552776D01*
X196302935Y-119552771D01*
X196357032Y-119498674D01*
X196525395Y-119330311D01*
X196580977Y-119298221D01*
X196712485Y-119262984D01*
X196838015Y-119190509D01*
X196940509Y-119088015D01*
X197012984Y-118962485D01*
X197050500Y-118822475D01*
X197050500Y-118677525D01*
X197012984Y-118537515D01*
X196940509Y-118411985D01*
X196838015Y-118309491D01*
X196838013Y-118309490D01*
X196838011Y-118309488D01*
X196712488Y-118237017D01*
X196712489Y-118237017D01*
X196701006Y-118233940D01*
X196572475Y-118199500D01*
X196427525Y-118199500D01*
X196298993Y-118233940D01*
X196287511Y-118237017D01*
X196161988Y-118309488D01*
X196161982Y-118309493D01*
X196059493Y-118411982D01*
X196059488Y-118411988D01*
X195987017Y-118537510D01*
X195951779Y-118669020D01*
X195943761Y-118682906D01*
X195940837Y-118696351D01*
X195919686Y-118724605D01*
X195808913Y-118835380D01*
X195747590Y-118868866D01*
X195721231Y-118871700D01*
X195484000Y-118871700D01*
X195416961Y-118852015D01*
X195385620Y-118817890D01*
X195383311Y-118819595D01*
X195377792Y-118812117D01*
X195297150Y-118702850D01*
X195187882Y-118622207D01*
X195187880Y-118622206D01*
X195059700Y-118577353D01*
X195029270Y-118574500D01*
X195029266Y-118574500D01*
X194520734Y-118574500D01*
X194520730Y-118574500D01*
X194490300Y-118577353D01*
X194490298Y-118577353D01*
X194362119Y-118622206D01*
X194362117Y-118622207D01*
X194252850Y-118702850D01*
X194172207Y-118812117D01*
X194172206Y-118812119D01*
X194127353Y-118940298D01*
X194127353Y-118940300D01*
X194124500Y-118970730D01*
X193775500Y-118970730D01*
X193772646Y-118940300D01*
X193772646Y-118940298D01*
X193730409Y-118819595D01*
X193727793Y-118812118D01*
X193647150Y-118702850D01*
X193537882Y-118622207D01*
X193537880Y-118622206D01*
X193409700Y-118577353D01*
X193379270Y-118574500D01*
X193379266Y-118574500D01*
X192870734Y-118574500D01*
X192870730Y-118574500D01*
X192840300Y-118577353D01*
X192840298Y-118577353D01*
X192712119Y-118622206D01*
X192712117Y-118622207D01*
X192602850Y-118702850D01*
X192522207Y-118812117D01*
X192522206Y-118812119D01*
X192477353Y-118940298D01*
X192477353Y-118940300D01*
X192474500Y-118970730D01*
X192474500Y-119629269D01*
X192477353Y-119659697D01*
X192479245Y-119665103D01*
X192488541Y-119691670D01*
X192495500Y-119732625D01*
X192495500Y-120484971D01*
X192475815Y-120552010D01*
X192445134Y-120584741D01*
X192352850Y-120652850D01*
X192272207Y-120762117D01*
X192272206Y-120762119D01*
X192227353Y-120890298D01*
X192227353Y-120890300D01*
X192224500Y-120920730D01*
X192224500Y-120996614D01*
X192204815Y-121063653D01*
X192152011Y-121109408D01*
X192082853Y-121119352D01*
X192019297Y-121090327D01*
X192012819Y-121084295D01*
X191938017Y-121009493D01*
X191938011Y-121009488D01*
X191812488Y-120937017D01*
X191812489Y-120937017D01*
X191801006Y-120933940D01*
X191672475Y-120899500D01*
X191527525Y-120899500D01*
X191527523Y-120899500D01*
X191496096Y-120907921D01*
X191426246Y-120906258D01*
X191368384Y-120867094D01*
X191340881Y-120802866D01*
X191346298Y-120749141D01*
X191394856Y-120602605D01*
X191404999Y-120503322D01*
X191405000Y-120503309D01*
X191405000Y-120480000D01*
X190554000Y-120480000D01*
X190486961Y-120460315D01*
X190441206Y-120407511D01*
X190430000Y-120356000D01*
X190430000Y-120230000D01*
X190304000Y-120230000D01*
X190236961Y-120210315D01*
X190191206Y-120157511D01*
X190180000Y-120106000D01*
X190180000Y-119980000D01*
X190680000Y-119980000D01*
X191404999Y-119980000D01*
X191404999Y-119956692D01*
X191404998Y-119956677D01*
X191394855Y-119857392D01*
X191341547Y-119696518D01*
X191341542Y-119696507D01*
X191252575Y-119552271D01*
X191252572Y-119552267D01*
X191132732Y-119432427D01*
X191132728Y-119432424D01*
X190988492Y-119343457D01*
X190988481Y-119343452D01*
X190827606Y-119290144D01*
X190728322Y-119280000D01*
X190680000Y-119280000D01*
X190680000Y-119980000D01*
X190180000Y-119980000D01*
X190180000Y-119280000D01*
X190179999Y-119279999D01*
X190131693Y-119280000D01*
X190131675Y-119280001D01*
X190032392Y-119290144D01*
X189871518Y-119343452D01*
X189871507Y-119343457D01*
X189727271Y-119432424D01*
X189727267Y-119432427D01*
X189717181Y-119442514D01*
X189655858Y-119475999D01*
X189586166Y-119471015D01*
X189530233Y-119429143D01*
X189505816Y-119363679D01*
X189505500Y-119354833D01*
X189505500Y-117775002D01*
X189504883Y-117761662D01*
X189504197Y-117746812D01*
X189473472Y-117638827D01*
X189405814Y-117549233D01*
X189405813Y-117549232D01*
X189310360Y-117490130D01*
X189310361Y-117490130D01*
X189255179Y-117479815D01*
X189200000Y-117469500D01*
X188375000Y-117469500D01*
X188372130Y-117469632D01*
X188346816Y-117470802D01*
X188346807Y-117470804D01*
X188238830Y-117501526D01*
X188238825Y-117501529D01*
X188149232Y-117569186D01*
X188090130Y-117664639D01*
X188088155Y-117675206D01*
X188071275Y-117765509D01*
X188069500Y-117775002D01*
X187752799Y-117775002D01*
X187737793Y-117732118D01*
X187657150Y-117622850D01*
X187547882Y-117542207D01*
X187547880Y-117542206D01*
X187419700Y-117497353D01*
X187389270Y-117494500D01*
X187389266Y-117494500D01*
X186880734Y-117494500D01*
X186880730Y-117494500D01*
X186850300Y-117497353D01*
X186850298Y-117497353D01*
X186722119Y-117542206D01*
X186722117Y-117542207D01*
X186612850Y-117622850D01*
X186532207Y-117732117D01*
X186532206Y-117732119D01*
X186487474Y-117859955D01*
X186446752Y-117916731D01*
X186381799Y-117942478D01*
X186370433Y-117943000D01*
X186060577Y-117943000D01*
X186056205Y-117941716D01*
X186051753Y-117942686D01*
X186022985Y-117931961D01*
X185993538Y-117923315D01*
X185989361Y-117919427D01*
X185986284Y-117918280D01*
X185961323Y-117893328D01*
X185958517Y-117889581D01*
X185934088Y-117824121D01*
X185948928Y-117755845D01*
X185992674Y-117709714D01*
X186075080Y-117658885D01*
X186193885Y-117540080D01*
X186282091Y-117397077D01*
X186282093Y-117397072D01*
X186334942Y-117237583D01*
X186344999Y-117139150D01*
X186345000Y-117139137D01*
X186345000Y-117122500D01*
X184395001Y-117122500D01*
X184395001Y-117139152D01*
X179568291Y-117139152D01*
X179567814Y-116605849D01*
X184395000Y-116605849D01*
X184395000Y-116622500D01*
X185120000Y-116622500D01*
X185620000Y-116622500D01*
X186344999Y-116622500D01*
X186344999Y-116605864D01*
X186344998Y-116605847D01*
X186334943Y-116507416D01*
X186282093Y-116347927D01*
X186282091Y-116347922D01*
X186193885Y-116204919D01*
X186075080Y-116086114D01*
X185932077Y-115997908D01*
X185932072Y-115997906D01*
X185772583Y-115945057D01*
X185674150Y-115935000D01*
X185620000Y-115935000D01*
X185620000Y-116622500D01*
X185120000Y-116622500D01*
X185120000Y-115935000D01*
X185119999Y-115934999D01*
X185065864Y-115935000D01*
X185065847Y-115935001D01*
X184967415Y-115945057D01*
X184807927Y-115997906D01*
X184807922Y-115997908D01*
X184664919Y-116086114D01*
X184546114Y-116204919D01*
X184457908Y-116347922D01*
X184457906Y-116347927D01*
X184405057Y-116507416D01*
X184395000Y-116605849D01*
X179567814Y-116605849D01*
X179566568Y-115211836D01*
X179568951Y-115187545D01*
X179572496Y-115169726D01*
X179572496Y-114970280D01*
X179570668Y-114961092D01*
X179568697Y-114951183D01*
X179566314Y-114927102D01*
X179566303Y-114915015D01*
X179560859Y-108822588D01*
X179580484Y-108755533D01*
X179633247Y-108709731D01*
X179684236Y-108698481D01*
X181281402Y-108690496D01*
X181305881Y-108689303D01*
X181405030Y-108661093D01*
X181476720Y-108606954D01*
X181542079Y-108582263D01*
X181610414Y-108596828D01*
X181660027Y-108646025D01*
X181675166Y-108714234D01*
X181656879Y-108771177D01*
X179897733Y-111612876D01*
X179897728Y-111612886D01*
X179863763Y-111684564D01*
X179863762Y-111684568D01*
X179863762Y-111684569D01*
X179844500Y-111800000D01*
X179844500Y-113200000D01*
X179850147Y-113245300D01*
X179855378Y-113287270D01*
X179855379Y-113287273D01*
X179902386Y-113394440D01*
X179902386Y-113394441D01*
X179981642Y-113480535D01*
X179981645Y-113480537D01*
X179981647Y-113480539D01*
X180057310Y-113521486D01*
X180084569Y-113536238D01*
X180084568Y-113536238D01*
X180200000Y-113555500D01*
X182275011Y-113555500D01*
X182300322Y-113554101D01*
X182314135Y-113553339D01*
X182426743Y-113521488D01*
X182522908Y-113454797D01*
X182592209Y-113360496D01*
X183672531Y-111225321D01*
X184574500Y-111225321D01*
X184574500Y-112974678D01*
X184589032Y-113047735D01*
X184589033Y-113047739D01*
X184589034Y-113047740D01*
X184644399Y-113130601D01*
X184727260Y-113185966D01*
X184727264Y-113185967D01*
X184800321Y-113200499D01*
X184800324Y-113200500D01*
X184800326Y-113200500D01*
X186549676Y-113200500D01*
X186549677Y-113200499D01*
X186622740Y-113185966D01*
X186705601Y-113130601D01*
X186760966Y-113047740D01*
X186775500Y-112974674D01*
X186775500Y-112764949D01*
X186795185Y-112697910D01*
X186847989Y-112652155D01*
X186917147Y-112642211D01*
X186980703Y-112671236D01*
X187009985Y-112708654D01*
X187060375Y-112807550D01*
X187099728Y-112861716D01*
X187732037Y-112229408D01*
X187749075Y-112292993D01*
X187814901Y-112407007D01*
X187907993Y-112500099D01*
X188022007Y-112565925D01*
X188085590Y-112582962D01*
X187453282Y-113215269D01*
X187453282Y-113215270D01*
X187507449Y-113254624D01*
X187696782Y-113351095D01*
X187898870Y-113416757D01*
X188108754Y-113450000D01*
X188321246Y-113450000D01*
X188531127Y-113416757D01*
X188531130Y-113416757D01*
X188733217Y-113351095D01*
X188922554Y-113254622D01*
X188976716Y-113215270D01*
X188976717Y-113215270D01*
X188344408Y-112582962D01*
X188407993Y-112565925D01*
X188522007Y-112500099D01*
X188615099Y-112407007D01*
X188680925Y-112292993D01*
X188697962Y-112229408D01*
X189330270Y-112861717D01*
X189330270Y-112861716D01*
X189369622Y-112807554D01*
X189466095Y-112618217D01*
X189531757Y-112416130D01*
X189531757Y-112416127D01*
X189565000Y-112206246D01*
X189565000Y-111993753D01*
X189531757Y-111783872D01*
X189531757Y-111783869D01*
X189466095Y-111581782D01*
X189369624Y-111392449D01*
X189330270Y-111338282D01*
X189330269Y-111338282D01*
X188697962Y-111970590D01*
X188680925Y-111907007D01*
X188615099Y-111792993D01*
X188522007Y-111699901D01*
X188407993Y-111634075D01*
X188344409Y-111617037D01*
X188976716Y-110984728D01*
X188922550Y-110945375D01*
X188733217Y-110848904D01*
X188531129Y-110783242D01*
X188321246Y-110750000D01*
X188108754Y-110750000D01*
X187898872Y-110783242D01*
X187898869Y-110783242D01*
X187696782Y-110848904D01*
X187507439Y-110945380D01*
X187453282Y-110984727D01*
X187453282Y-110984728D01*
X188085591Y-111617037D01*
X188022007Y-111634075D01*
X187907993Y-111699901D01*
X187814901Y-111792993D01*
X187749075Y-111907007D01*
X187732037Y-111970590D01*
X187099728Y-111338282D01*
X187099727Y-111338282D01*
X187060380Y-111392440D01*
X187060378Y-111392443D01*
X187009984Y-111491346D01*
X186962010Y-111542141D01*
X186894188Y-111558936D01*
X186828054Y-111536398D01*
X186784603Y-111481683D01*
X186775500Y-111435050D01*
X186775500Y-111225323D01*
X186775499Y-111225321D01*
X186760967Y-111152264D01*
X186760966Y-111152260D01*
X186744439Y-111127525D01*
X186705601Y-111069399D01*
X186639203Y-111025034D01*
X186622739Y-111014033D01*
X186622735Y-111014032D01*
X186549677Y-110999500D01*
X186549674Y-110999500D01*
X184800326Y-110999500D01*
X184800323Y-110999500D01*
X184727264Y-111014032D01*
X184727260Y-111014033D01*
X184644399Y-111069399D01*
X184589033Y-111152260D01*
X184589032Y-111152264D01*
X184574500Y-111225321D01*
X183672531Y-111225321D01*
X185137209Y-108330496D01*
X185137208Y-108330496D01*
X185138141Y-108328654D01*
X185138887Y-108329031D01*
X185182815Y-108278913D01*
X185249965Y-108259609D01*
X185316892Y-108279673D01*
X185355378Y-108319456D01*
X185394925Y-108384874D01*
X185394928Y-108384878D01*
X185515122Y-108505072D01*
X185660604Y-108593019D01*
X185660603Y-108593019D01*
X185822894Y-108643590D01*
X185822893Y-108643590D01*
X185893408Y-108649998D01*
X185893426Y-108649999D01*
X186400000Y-108649999D01*
X186406581Y-108649999D01*
X186477102Y-108643591D01*
X186477107Y-108643590D01*
X186639396Y-108593018D01*
X186784877Y-108505072D01*
X186905072Y-108384877D01*
X186993019Y-108239395D01*
X187043590Y-108077106D01*
X187050000Y-108006572D01*
X187050000Y-107925000D01*
X186400000Y-107925000D01*
X186400000Y-108649999D01*
X185893426Y-108649999D01*
X185899999Y-108649998D01*
X185900000Y-108649998D01*
X185900000Y-107425000D01*
X186400000Y-107425000D01*
X187049999Y-107425000D01*
X187049999Y-107343417D01*
X187043591Y-107272897D01*
X187043590Y-107272892D01*
X186993018Y-107110603D01*
X186905072Y-106965122D01*
X186784877Y-106844927D01*
X186639395Y-106756980D01*
X186639396Y-106756980D01*
X186477105Y-106706409D01*
X186477106Y-106706409D01*
X186406572Y-106700000D01*
X186400000Y-106700000D01*
X186400000Y-107425000D01*
X185900000Y-107425000D01*
X185900000Y-106700000D01*
X185899999Y-106699999D01*
X185893436Y-106700000D01*
X185893417Y-106700001D01*
X185822897Y-106706408D01*
X185822892Y-106706409D01*
X185660603Y-106756981D01*
X185515122Y-106844927D01*
X185394927Y-106965122D01*
X185382270Y-106986060D01*
X185330741Y-107033247D01*
X185261881Y-107045084D01*
X185197553Y-107017814D01*
X185162598Y-106971717D01*
X185122613Y-106880559D01*
X185122613Y-106880558D01*
X185043357Y-106794464D01*
X185043350Y-106794459D01*
X184940430Y-106738761D01*
X184940431Y-106738761D01*
X184825000Y-106719500D01*
X183230167Y-106719500D01*
X183163128Y-106699815D01*
X183117373Y-106647011D01*
X183107429Y-106577853D01*
X183136454Y-106514297D01*
X183142486Y-106507819D01*
X183197572Y-106452732D01*
X183197575Y-106452728D01*
X183286542Y-106308492D01*
X183286547Y-106308481D01*
X183339855Y-106147606D01*
X183349999Y-106048322D01*
X183350000Y-106048309D01*
X183350000Y-106000000D01*
X182524000Y-106000000D01*
X182522503Y-105999560D01*
X182520995Y-105999964D01*
X182489079Y-105989745D01*
X182456961Y-105980315D01*
X182455939Y-105979136D01*
X182454452Y-105978660D01*
X182433116Y-105952796D01*
X182411206Y-105927511D01*
X182410664Y-105925580D01*
X182409990Y-105924763D01*
X182408784Y-105918878D01*
X182400871Y-105890668D01*
X182384114Y-105750000D01*
X182274000Y-105750000D01*
X182206961Y-105730315D01*
X182162246Y-105678711D01*
X199239500Y-105678711D01*
X199239500Y-105921288D01*
X199271161Y-106161785D01*
X199333947Y-106396104D01*
X199411020Y-106582174D01*
X199426776Y-106620212D01*
X199548064Y-106830289D01*
X199548066Y-106830292D01*
X199548067Y-106830293D01*
X199695733Y-107022736D01*
X199695739Y-107022743D01*
X199867256Y-107194260D01*
X199867263Y-107194266D01*
X199937228Y-107247952D01*
X200059711Y-107341936D01*
X200269788Y-107463224D01*
X200493900Y-107556054D01*
X200728211Y-107618838D01*
X200907801Y-107642481D01*
X200968711Y-107650500D01*
X200968712Y-107650500D01*
X201211289Y-107650500D01*
X201272199Y-107642481D01*
X201451789Y-107618838D01*
X201686100Y-107556054D01*
X201910212Y-107463224D01*
X202120289Y-107341936D01*
X202312738Y-107194265D01*
X202484265Y-107022738D01*
X202631936Y-106830289D01*
X202753224Y-106620212D01*
X202846054Y-106396100D01*
X202908838Y-106161789D01*
X202940500Y-105921288D01*
X202940500Y-105678712D01*
X202908838Y-105438211D01*
X202846054Y-105203900D01*
X202753224Y-104979788D01*
X202631936Y-104769711D01*
X202531733Y-104639124D01*
X202484266Y-104577263D01*
X202484260Y-104577256D01*
X202312743Y-104405739D01*
X202312736Y-104405733D01*
X202120293Y-104258067D01*
X202120292Y-104258066D01*
X202120289Y-104258064D01*
X201910212Y-104136776D01*
X201910205Y-104136773D01*
X201686104Y-104043947D01*
X201451785Y-103981161D01*
X201211289Y-103949500D01*
X201211288Y-103949500D01*
X200968712Y-103949500D01*
X200968711Y-103949500D01*
X200728214Y-103981161D01*
X200493895Y-104043947D01*
X200269794Y-104136773D01*
X200269785Y-104136777D01*
X200059706Y-104258067D01*
X199867263Y-104405733D01*
X199867256Y-104405739D01*
X199695739Y-104577256D01*
X199695733Y-104577263D01*
X199548067Y-104769706D01*
X199426777Y-104979785D01*
X199426773Y-104979794D01*
X199333947Y-105203895D01*
X199271161Y-105438214D01*
X199239500Y-105678711D01*
X182162246Y-105678711D01*
X182161206Y-105677511D01*
X182150000Y-105626000D01*
X182150000Y-105500000D01*
X182650000Y-105500000D01*
X183349999Y-105500000D01*
X183349999Y-105451692D01*
X183349998Y-105451677D01*
X183339855Y-105352392D01*
X183286547Y-105191518D01*
X183286542Y-105191507D01*
X183197575Y-105047271D01*
X183197572Y-105047267D01*
X183077732Y-104927427D01*
X183077728Y-104927424D01*
X182933492Y-104838457D01*
X182933481Y-104838452D01*
X182772606Y-104785144D01*
X182673322Y-104775000D01*
X182650000Y-104775000D01*
X182650000Y-105500000D01*
X182150000Y-105500000D01*
X182150000Y-104774999D01*
X182126693Y-104775000D01*
X182126674Y-104775001D01*
X182027392Y-104785144D01*
X181866518Y-104838452D01*
X181866507Y-104838457D01*
X181722271Y-104927424D01*
X181598956Y-105050739D01*
X181537633Y-105084223D01*
X181467941Y-105079239D01*
X181446006Y-105068488D01*
X181381328Y-105028442D01*
X181280000Y-105009500D01*
X180250000Y-105009500D01*
X180249979Y-105009500D01*
X180224123Y-105010696D01*
X180124968Y-105038907D01*
X180124965Y-105038909D01*
X180042711Y-105101024D01*
X180042708Y-105101027D01*
X179988443Y-105188669D01*
X179988442Y-105188670D01*
X179988442Y-105188672D01*
X179969500Y-105290000D01*
X179969500Y-105290003D01*
X179969500Y-106715500D01*
X179949815Y-106782539D01*
X179897011Y-106828294D01*
X179845500Y-106839500D01*
X176739979Y-106839500D01*
X176714123Y-106840696D01*
X176614968Y-106868907D01*
X176614965Y-106868909D01*
X176532711Y-106931024D01*
X176532708Y-106931027D01*
X176478443Y-107018669D01*
X176478442Y-107018670D01*
X176478442Y-107018672D01*
X176459500Y-107120000D01*
X176459500Y-107120003D01*
X176459500Y-110900020D01*
X176460696Y-110925876D01*
X176460696Y-110925879D01*
X176460697Y-110925881D01*
X176466245Y-110945380D01*
X176488907Y-111025031D01*
X176488909Y-111025034D01*
X176551024Y-111107288D01*
X176551027Y-111107291D01*
X176551028Y-111107292D01*
X176638672Y-111161558D01*
X176740000Y-111180500D01*
X177475035Y-111180500D01*
X177542074Y-111200185D01*
X177587829Y-111252989D01*
X177599035Y-111304642D01*
X177595103Y-114729141D01*
X177587242Y-114768552D01*
X177588173Y-114768835D01*
X177586403Y-114774669D01*
X177547494Y-114970277D01*
X177547494Y-115169730D01*
X177586401Y-115365331D01*
X177588171Y-115371162D01*
X177586850Y-115371562D01*
X177594322Y-115409262D01*
X177591637Y-117747842D01*
X177589096Y-117756456D01*
X177590375Y-117765347D01*
X177579367Y-117789449D01*
X177571875Y-117814859D01*
X177565081Y-117820731D01*
X177561350Y-117828903D01*
X177539058Y-117843228D01*
X177519019Y-117860553D01*
X177508575Y-117862818D01*
X177502572Y-117866677D01*
X177467637Y-117871700D01*
X177292387Y-117871700D01*
X177230387Y-117855087D01*
X177112485Y-117787016D01*
X176972475Y-117749500D01*
X176827525Y-117749500D01*
X176698993Y-117783940D01*
X176687511Y-117787017D01*
X176561988Y-117859488D01*
X176561982Y-117859493D01*
X176459493Y-117961982D01*
X176459488Y-117961988D01*
X176387017Y-118087511D01*
X176387016Y-118087515D01*
X176349500Y-118227525D01*
X176349500Y-118372475D01*
X176360087Y-118411985D01*
X176387017Y-118512488D01*
X176459488Y-118638011D01*
X176459490Y-118638013D01*
X176459491Y-118638015D01*
X176561985Y-118740509D01*
X176561986Y-118740510D01*
X176561988Y-118740511D01*
X176687511Y-118812982D01*
X176687512Y-118812982D01*
X176687515Y-118812984D01*
X176827525Y-118850500D01*
X176827528Y-118850500D01*
X176972472Y-118850500D01*
X176972475Y-118850500D01*
X177112485Y-118812984D01*
X177112487Y-118812982D01*
X177112489Y-118812982D01*
X177112490Y-118812981D01*
X177113985Y-118812118D01*
X177216974Y-118752656D01*
X177284873Y-118736183D01*
X177350900Y-118759035D01*
X177366655Y-118772362D01*
X177553825Y-118959533D01*
X177587310Y-119020856D01*
X177590144Y-119047356D01*
X177589568Y-119549905D01*
X177569807Y-119616922D01*
X177516950Y-119662616D01*
X177465568Y-119673763D01*
X175023027Y-119673763D01*
X174955988Y-119654078D01*
X174910233Y-119601274D01*
X174899027Y-119549763D01*
X174899027Y-119224402D01*
X174899026Y-119224400D01*
X174884494Y-119151343D01*
X174884493Y-119151339D01*
X174842183Y-119088017D01*
X174829128Y-119068478D01*
X174765454Y-119025933D01*
X174746266Y-119013112D01*
X174746262Y-119013111D01*
X174673204Y-118998579D01*
X174673201Y-118998579D01*
X174502325Y-118998579D01*
X174435286Y-118978894D01*
X174389531Y-118926090D01*
X174378325Y-118874579D01*
X174378325Y-117703913D01*
X174378326Y-117703900D01*
X174378326Y-117581141D01*
X174378326Y-117581139D01*
X174349138Y-117472208D01*
X174292751Y-117374543D01*
X173611819Y-116693611D01*
X173578334Y-116632288D01*
X173575500Y-116605930D01*
X173575500Y-116370730D01*
X173572646Y-116340300D01*
X173572646Y-116340298D01*
X173527793Y-116212119D01*
X173527793Y-116212118D01*
X173465029Y-116127075D01*
X173441059Y-116061446D01*
X173440800Y-116053442D01*
X173440800Y-115338237D01*
X173460485Y-115271198D01*
X173491164Y-115238468D01*
X173547150Y-115197150D01*
X173627793Y-115087882D01*
X173657296Y-115003567D01*
X173672646Y-114959701D01*
X173672646Y-114959699D01*
X173675500Y-114929269D01*
X173675500Y-114270730D01*
X173672646Y-114240300D01*
X173672646Y-114240298D01*
X173634009Y-114129882D01*
X173627793Y-114112118D01*
X173547150Y-114002850D01*
X173437882Y-113922207D01*
X173437880Y-113922206D01*
X173309700Y-113877353D01*
X173279270Y-113874500D01*
X173279266Y-113874500D01*
X172770734Y-113874500D01*
X172770730Y-113874500D01*
X172740300Y-113877353D01*
X172740298Y-113877353D01*
X172612119Y-113922206D01*
X172612117Y-113922207D01*
X172502850Y-114002850D01*
X172422207Y-114112117D01*
X172422206Y-114112119D01*
X172377353Y-114240298D01*
X172377353Y-114240300D01*
X172374500Y-114270730D01*
X172374500Y-114929269D01*
X172377353Y-114959699D01*
X172377353Y-114959701D01*
X172418403Y-115077011D01*
X172422207Y-115087882D01*
X172502850Y-115197150D01*
X172502853Y-115197152D01*
X172502855Y-115197154D01*
X172533832Y-115220016D01*
X172576084Y-115275663D01*
X172584200Y-115319787D01*
X172584200Y-115909393D01*
X172564515Y-115976432D01*
X172518144Y-116019022D01*
X172512119Y-116022206D01*
X172402850Y-116102850D01*
X172322207Y-116212117D01*
X172322206Y-116212119D01*
X172277353Y-116340298D01*
X172277353Y-116340300D01*
X172274500Y-116370730D01*
X172274500Y-116881930D01*
X172268261Y-116903175D01*
X172266682Y-116925264D01*
X172258609Y-116936047D01*
X172254815Y-116948969D01*
X172238081Y-116963468D01*
X172224810Y-116981197D01*
X172212189Y-116985904D01*
X172202011Y-116994724D01*
X172180093Y-116997875D01*
X172159346Y-117005614D01*
X172146185Y-117002751D01*
X172132853Y-117004668D01*
X172112709Y-116995468D01*
X172091073Y-116990762D01*
X172073347Y-116977493D01*
X172069297Y-116975643D01*
X172062819Y-116969611D01*
X171961819Y-116868611D01*
X171928334Y-116807288D01*
X171925500Y-116780930D01*
X171925500Y-116370730D01*
X171922646Y-116340300D01*
X171922646Y-116340298D01*
X171877793Y-116212119D01*
X171877792Y-116212117D01*
X171872480Y-116204919D01*
X171797150Y-116102850D01*
X171687882Y-116022207D01*
X171687880Y-116022206D01*
X171559700Y-115977353D01*
X171529270Y-115974500D01*
X171529266Y-115974500D01*
X171020734Y-115974500D01*
X171020730Y-115974500D01*
X170990300Y-115977353D01*
X170990298Y-115977353D01*
X170862119Y-116022206D01*
X170862117Y-116022207D01*
X170752850Y-116102850D01*
X170672207Y-116212117D01*
X170672206Y-116212119D01*
X170627353Y-116340298D01*
X170627353Y-116340300D01*
X170624500Y-116370730D01*
X170624500Y-117029269D01*
X170627353Y-117059699D01*
X170627353Y-117059701D01*
X170672206Y-117187880D01*
X170672209Y-117187886D01*
X170728916Y-117264721D01*
X170752850Y-117297150D01*
X170862118Y-117377793D01*
X170882129Y-117384795D01*
X170990299Y-117422646D01*
X171020730Y-117425500D01*
X171020734Y-117425500D01*
X171255930Y-117425500D01*
X171322969Y-117445185D01*
X171343606Y-117461814D01*
X171489182Y-117607389D01*
X171522666Y-117668710D01*
X171525500Y-117695069D01*
X171525500Y-118112667D01*
X171505815Y-118179706D01*
X171453011Y-118225461D01*
X171383853Y-118235405D01*
X171320297Y-118206380D01*
X171313819Y-118200348D01*
X169375652Y-116262181D01*
X169342167Y-116200858D01*
X169347151Y-116131166D01*
X169389023Y-116075233D01*
X169454487Y-116050816D01*
X169463333Y-116050500D01*
X169572472Y-116050500D01*
X169572475Y-116050500D01*
X169712485Y-116012984D01*
X169838015Y-115940509D01*
X169940509Y-115838015D01*
X170012984Y-115712485D01*
X170012984Y-115712484D01*
X170017048Y-115705446D01*
X170017932Y-115705956D01*
X170038907Y-115674562D01*
X170572652Y-115140819D01*
X170599579Y-115126115D01*
X170625398Y-115109523D01*
X170631598Y-115108631D01*
X170633975Y-115107334D01*
X170660333Y-115104500D01*
X170721873Y-115104500D01*
X170788912Y-115124185D01*
X170821643Y-115154866D01*
X170831842Y-115168685D01*
X170852850Y-115197150D01*
X170962118Y-115277793D01*
X170989891Y-115287511D01*
X171090299Y-115322646D01*
X171120730Y-115325500D01*
X171120734Y-115325500D01*
X171629270Y-115325500D01*
X171659699Y-115322646D01*
X171659701Y-115322646D01*
X171723790Y-115300219D01*
X171787882Y-115277793D01*
X171897150Y-115197150D01*
X171977793Y-115087882D01*
X172007296Y-115003567D01*
X172022646Y-114959701D01*
X172022646Y-114959699D01*
X172025500Y-114929269D01*
X172025500Y-114270730D01*
X172022646Y-114240300D01*
X172022646Y-114240298D01*
X171984009Y-114129882D01*
X171977793Y-114112118D01*
X171897150Y-114002850D01*
X171787882Y-113922207D01*
X171787880Y-113922206D01*
X171659700Y-113877353D01*
X171629270Y-113874500D01*
X171629266Y-113874500D01*
X171120734Y-113874500D01*
X171120730Y-113874500D01*
X171090300Y-113877353D01*
X171090298Y-113877353D01*
X170962119Y-113922206D01*
X170962117Y-113922207D01*
X170852850Y-114002850D01*
X170821643Y-114045134D01*
X170765995Y-114087385D01*
X170721873Y-114095500D01*
X170333581Y-114095500D01*
X170263576Y-114114258D01*
X170205268Y-114129881D01*
X170205267Y-114129882D01*
X170090233Y-114196296D01*
X170090228Y-114196300D01*
X169325435Y-114961092D01*
X169294043Y-114982070D01*
X169294553Y-114982953D01*
X169287516Y-114987015D01*
X169287515Y-114987016D01*
X169214883Y-115028949D01*
X169161988Y-115059489D01*
X169161982Y-115059493D01*
X169059493Y-115161982D01*
X169059488Y-115161988D01*
X168987017Y-115287511D01*
X168987016Y-115287515D01*
X168949500Y-115427525D01*
X168949500Y-115427527D01*
X168949500Y-115536667D01*
X168929815Y-115603706D01*
X168877011Y-115649461D01*
X168807853Y-115659405D01*
X168744297Y-115630380D01*
X168737819Y-115624348D01*
X164566348Y-111452877D01*
X164532863Y-111391554D01*
X164534253Y-111333104D01*
X164550500Y-111272475D01*
X164550500Y-111127525D01*
X164512984Y-110987515D01*
X164511374Y-110984727D01*
X164440511Y-110861988D01*
X164440506Y-110861982D01*
X164338017Y-110759493D01*
X164338011Y-110759488D01*
X164212488Y-110687017D01*
X164212489Y-110687017D01*
X164201006Y-110683940D01*
X164072475Y-110649500D01*
X163927525Y-110649500D01*
X163798993Y-110683940D01*
X163787511Y-110687017D01*
X163661988Y-110759488D01*
X163661982Y-110759493D01*
X163559493Y-110861982D01*
X163559488Y-110861988D01*
X163487017Y-110987511D01*
X163487015Y-110987516D01*
X163483763Y-110999652D01*
X163472239Y-111018555D01*
X163464997Y-111039480D01*
X163454406Y-111047808D01*
X163447395Y-111059310D01*
X163427479Y-111068982D01*
X163410075Y-111082670D01*
X163396664Y-111083950D01*
X163384547Y-111089836D01*
X163362562Y-111087206D01*
X163340522Y-111089311D01*
X163328548Y-111083138D01*
X163315171Y-111081538D01*
X163298095Y-111067438D01*
X163278420Y-111057294D01*
X163264728Y-111039884D01*
X163261296Y-111037050D01*
X163256610Y-111029565D01*
X163242584Y-111005270D01*
X163206854Y-110943383D01*
X162099113Y-109835642D01*
X162065628Y-109774319D01*
X162070612Y-109704627D01*
X162112484Y-109648694D01*
X162145756Y-109633147D01*
X162145102Y-109631392D01*
X162287080Y-109578437D01*
X162287087Y-109578433D01*
X162402181Y-109492273D01*
X162402184Y-109492270D01*
X162488344Y-109377176D01*
X162488348Y-109377169D01*
X162538590Y-109242462D01*
X162538592Y-109242455D01*
X162544993Y-109182927D01*
X162544994Y-109182910D01*
X162544994Y-108885082D01*
X161993987Y-108885082D01*
X161985301Y-108882531D01*
X161976340Y-108883820D01*
X161952299Y-108872841D01*
X161926948Y-108865397D01*
X161921020Y-108858556D01*
X161912784Y-108854795D01*
X161898494Y-108832560D01*
X161881193Y-108812593D01*
X161878905Y-108802078D01*
X161875010Y-108796017D01*
X161869987Y-108761082D01*
X161869987Y-108659070D01*
X161889672Y-108592031D01*
X161942476Y-108546276D01*
X161993987Y-108535070D01*
X162544994Y-108535070D01*
X162544994Y-108237241D01*
X162544993Y-108237224D01*
X162538592Y-108177696D01*
X162538590Y-108177689D01*
X162488348Y-108042982D01*
X162488344Y-108042975D01*
X162402184Y-107927881D01*
X162402181Y-107927878D01*
X162287087Y-107841718D01*
X162279298Y-107837465D01*
X162280199Y-107835813D01*
X162233145Y-107800588D01*
X162208728Y-107735124D01*
X162223580Y-107666851D01*
X162272985Y-107617446D01*
X162333845Y-107602286D01*
X163000000Y-107610000D01*
X163922364Y-106562603D01*
X163930783Y-106557288D01*
X163936356Y-106549033D01*
X163959833Y-106538946D01*
X163981440Y-106525304D01*
X163991400Y-106525383D01*
X164000552Y-106521452D01*
X164025753Y-106525658D01*
X164051308Y-106525863D01*
X164059644Y-106531315D01*
X164069468Y-106532955D01*
X164088395Y-106550120D01*
X164109781Y-106564107D01*
X164115225Y-106574451D01*
X164121225Y-106579892D01*
X164135157Y-106612319D01*
X164156722Y-106692418D01*
X164156723Y-106692420D01*
X164202385Y-106794437D01*
X164202388Y-106794442D01*
X164281642Y-106880535D01*
X164281645Y-106880537D01*
X164281647Y-106880539D01*
X164368813Y-106927711D01*
X164418401Y-106976929D01*
X164433509Y-107045145D01*
X164409339Y-107110701D01*
X164353563Y-107152782D01*
X164321179Y-107159465D01*
X164321192Y-107159543D01*
X164319352Y-107159843D01*
X164315535Y-107160631D01*
X164314123Y-107160696D01*
X164214968Y-107188907D01*
X164214965Y-107188909D01*
X164132711Y-107251024D01*
X164132708Y-107251027D01*
X164078443Y-107338669D01*
X164078442Y-107338670D01*
X164078442Y-107338672D01*
X164059500Y-107440000D01*
X164059500Y-107440003D01*
X164059500Y-108420020D01*
X164060696Y-108445876D01*
X164060696Y-108445879D01*
X164060697Y-108445881D01*
X164070848Y-108481558D01*
X164088907Y-108545031D01*
X164088909Y-108545034D01*
X164151024Y-108627288D01*
X164151027Y-108627291D01*
X164151028Y-108627292D01*
X164238672Y-108681558D01*
X164340000Y-108700500D01*
X164340003Y-108700500D01*
X167810009Y-108700500D01*
X167810018Y-108700499D01*
X167835881Y-108699303D01*
X167935030Y-108671093D01*
X167935034Y-108671090D01*
X168017283Y-108608979D01*
X168017283Y-108608978D01*
X168017292Y-108608972D01*
X168017297Y-108608963D01*
X168019205Y-108606871D01*
X168023663Y-108604161D01*
X168026462Y-108602048D01*
X168026675Y-108602330D01*
X168078913Y-108570584D01*
X168148760Y-108572337D01*
X168206572Y-108611574D01*
X168209804Y-108615672D01*
X168211025Y-108617289D01*
X168211027Y-108617291D01*
X168211028Y-108617292D01*
X168298672Y-108671558D01*
X168400000Y-108690500D01*
X168608979Y-108690500D01*
X168622217Y-108691209D01*
X168662127Y-108695500D01*
X169657872Y-108695499D01*
X169697772Y-108691209D01*
X169711024Y-108690500D01*
X170638979Y-108690500D01*
X170652217Y-108691209D01*
X170692127Y-108695500D01*
X171687872Y-108695499D01*
X171727772Y-108691209D01*
X171741024Y-108690500D01*
X171870009Y-108690500D01*
X171870018Y-108690499D01*
X171895881Y-108689303D01*
X171995030Y-108661093D01*
X171995033Y-108661090D01*
X172000223Y-108658506D01*
X172069008Y-108646242D01*
X172133504Y-108673112D01*
X172173235Y-108730587D01*
X172179500Y-108769504D01*
X172179500Y-108780020D01*
X172180696Y-108805876D01*
X172180696Y-108805879D01*
X172180697Y-108805881D01*
X172185408Y-108822439D01*
X172208907Y-108905031D01*
X172208909Y-108905034D01*
X172271024Y-108987288D01*
X172271027Y-108987291D01*
X172271028Y-108987292D01*
X172358672Y-109041558D01*
X172460000Y-109060500D01*
X174595500Y-109060500D01*
X174662539Y-109080185D01*
X174708294Y-109132989D01*
X174719500Y-109184500D01*
X174719500Y-113290020D01*
X174720696Y-113315876D01*
X174720696Y-113315879D01*
X174720697Y-113315881D01*
X174730716Y-113351095D01*
X174748907Y-113415031D01*
X174748909Y-113415034D01*
X174811024Y-113497288D01*
X174811027Y-113497291D01*
X174811028Y-113497292D01*
X174898672Y-113551558D01*
X175000000Y-113570500D01*
X175000003Y-113570500D01*
X176750009Y-113570500D01*
X176750018Y-113570499D01*
X176775881Y-113569303D01*
X176875030Y-113541093D01*
X176957292Y-113478972D01*
X177011558Y-113391328D01*
X177030500Y-113290000D01*
X177030500Y-112639729D01*
X177032491Y-112629720D01*
X177032491Y-112430274D01*
X177030500Y-112420264D01*
X177030500Y-111690000D01*
X177029303Y-111664119D01*
X177001093Y-111564970D01*
X177001092Y-111564969D01*
X177001092Y-111564968D01*
X177001090Y-111564965D01*
X176938975Y-111482711D01*
X176938972Y-111482708D01*
X176851330Y-111428443D01*
X176851329Y-111428442D01*
X176851328Y-111428442D01*
X176750000Y-111409500D01*
X176621893Y-111409500D01*
X176294500Y-111409500D01*
X176227461Y-111389815D01*
X176181706Y-111337011D01*
X176170500Y-111285500D01*
X176170500Y-107129990D01*
X176170499Y-107129979D01*
X176169303Y-107104123D01*
X176169303Y-107104119D01*
X176141093Y-107004970D01*
X176141092Y-107004969D01*
X176141092Y-107004968D01*
X176141090Y-107004965D01*
X176078975Y-106922711D01*
X176078972Y-106922708D01*
X175991330Y-106868443D01*
X175991329Y-106868442D01*
X175991328Y-106868442D01*
X175890000Y-106849500D01*
X174860000Y-106849500D01*
X174859979Y-106849500D01*
X174834123Y-106850696D01*
X174834119Y-106850696D01*
X174834119Y-106850697D01*
X174828759Y-106852222D01*
X174734968Y-106878907D01*
X174734965Y-106878909D01*
X174652711Y-106941024D01*
X174652708Y-106941027D01*
X174598442Y-107028670D01*
X174594292Y-107039385D01*
X174590421Y-107037885D01*
X174568692Y-107080591D01*
X174508369Y-107115847D01*
X174478495Y-107119500D01*
X173999786Y-107119500D01*
X173932747Y-107099815D01*
X173886992Y-107047011D01*
X173877048Y-106977853D01*
X173906073Y-106914297D01*
X173964851Y-106876523D01*
X173965733Y-106876267D01*
X174054214Y-106851093D01*
X174056324Y-106849500D01*
X174129210Y-106794459D01*
X174136476Y-106788972D01*
X174190742Y-106701328D01*
X174209684Y-106600000D01*
X174209684Y-105620000D01*
X174208487Y-105594119D01*
X174180277Y-105494970D01*
X174180276Y-105494969D01*
X174180276Y-105494968D01*
X174180274Y-105494965D01*
X174118159Y-105412711D01*
X174118156Y-105412708D01*
X174030514Y-105358443D01*
X174030513Y-105358442D01*
X174030512Y-105358442D01*
X173929184Y-105339500D01*
X170459184Y-105339500D01*
X170459163Y-105339500D01*
X170433307Y-105340696D01*
X170334152Y-105368907D01*
X170334149Y-105368909D01*
X170242722Y-105437952D01*
X170240644Y-105435200D01*
X170197609Y-105461341D01*
X170127761Y-105459571D01*
X170069959Y-105420320D01*
X170066744Y-105416242D01*
X170048974Y-105392710D01*
X170048972Y-105392708D01*
X169961330Y-105338443D01*
X169961329Y-105338442D01*
X169961328Y-105338442D01*
X169860000Y-105319500D01*
X166390000Y-105319500D01*
X166389979Y-105319500D01*
X166364123Y-105320696D01*
X166264969Y-105348907D01*
X166254225Y-105357021D01*
X166188863Y-105381711D01*
X166120529Y-105367145D01*
X166070917Y-105317946D01*
X166055500Y-105258065D01*
X166055500Y-104421020D01*
X166055527Y-104418433D01*
X166055638Y-104413088D01*
X166060273Y-104369986D01*
X167110001Y-104369986D01*
X167120494Y-104472697D01*
X167175641Y-104639119D01*
X167175643Y-104639124D01*
X167267684Y-104788345D01*
X167391654Y-104912315D01*
X167540875Y-105004356D01*
X167540880Y-105004358D01*
X167707302Y-105059505D01*
X167707309Y-105059506D01*
X167810019Y-105069999D01*
X167934999Y-105069999D01*
X168435000Y-105069999D01*
X168559972Y-105069999D01*
X168559986Y-105069998D01*
X168662697Y-105059505D01*
X168829119Y-105004358D01*
X168829124Y-105004356D01*
X168978345Y-104912315D01*
X169102315Y-104788345D01*
X169194356Y-104639124D01*
X169194358Y-104639119D01*
X169249505Y-104472697D01*
X169249506Y-104472690D01*
X169259999Y-104369986D01*
X169260000Y-104369973D01*
X169260000Y-103920000D01*
X168435000Y-103920000D01*
X168435000Y-105069999D01*
X167934999Y-105069999D01*
X167935000Y-105069998D01*
X167935000Y-103920000D01*
X167110001Y-103920000D01*
X167110001Y-104369986D01*
X166060273Y-104369986D01*
X166060500Y-104367873D01*
X166060499Y-104180112D01*
X166060526Y-104178860D01*
X166070688Y-104146743D01*
X166080183Y-104114408D01*
X166081453Y-104112724D01*
X166081605Y-104112246D01*
X166082167Y-104111778D01*
X166091421Y-104099518D01*
X166892944Y-103189345D01*
X166952019Y-103152046D01*
X167021887Y-103152606D01*
X167080360Y-103190849D01*
X167108875Y-103254636D01*
X167110000Y-103271299D01*
X167110000Y-103420000D01*
X169259999Y-103420000D01*
X169259999Y-102970028D01*
X169259998Y-102970013D01*
X169249505Y-102867302D01*
X169194358Y-102700880D01*
X169194352Y-102700868D01*
X169191144Y-102695666D01*
X169172705Y-102628273D01*
X169193629Y-102561610D01*
X169247273Y-102516842D01*
X169297129Y-102506574D01*
X203980356Y-102633463D01*
G37*
%TD.AperFunction*%
%TA.AperFunction,Conductor*%
G36*
X158039979Y-107552568D02*
G01*
X158106783Y-107573027D01*
X158151923Y-107626357D01*
X158161898Y-107689161D01*
X158155000Y-107756675D01*
X158155000Y-107780000D01*
X160104999Y-107780000D01*
X160104999Y-107756692D01*
X160104998Y-107756677D01*
X160100686Y-107714467D01*
X160113455Y-107645774D01*
X160161336Y-107594890D01*
X160225476Y-107577873D01*
X161436848Y-107591900D01*
X161503651Y-107612359D01*
X161548791Y-107665689D01*
X161557933Y-107734958D01*
X161528175Y-107798173D01*
X161478744Y-107832072D01*
X161452894Y-107841714D01*
X161452886Y-107841718D01*
X161337794Y-107927877D01*
X161337789Y-107927882D01*
X161295121Y-107984880D01*
X161239187Y-108026751D01*
X161195854Y-108034569D01*
X161020317Y-108034569D01*
X160947251Y-108049102D01*
X160946807Y-108049287D01*
X160945760Y-108049399D01*
X160935276Y-108051485D01*
X160935089Y-108050545D01*
X160877338Y-108056750D01*
X160834092Y-108040153D01*
X160831330Y-108038443D01*
X160831329Y-108038442D01*
X160831328Y-108038442D01*
X160730000Y-108019500D01*
X160360000Y-108019500D01*
X160359988Y-108019500D01*
X160321475Y-108022157D01*
X160321468Y-108022159D01*
X160223712Y-108054834D01*
X160223709Y-108054836D01*
X160144353Y-108120623D01*
X160144349Y-108120626D01*
X160102277Y-108171207D01*
X160048969Y-108235296D01*
X159990968Y-108274248D01*
X159953639Y-108280000D01*
X158155001Y-108280000D01*
X158155001Y-108303322D01*
X158165144Y-108402607D01*
X158218452Y-108563481D01*
X158218457Y-108563492D01*
X158307424Y-108707728D01*
X158307427Y-108707732D01*
X158349645Y-108749950D01*
X158386038Y-108749950D01*
X158453077Y-108769635D01*
X158498832Y-108822439D01*
X158510038Y-108873950D01*
X158510038Y-110679950D01*
X158573868Y-110679950D01*
X158573884Y-110679949D01*
X158633412Y-110673548D01*
X158633419Y-110673546D01*
X158768126Y-110623304D01*
X158768128Y-110623302D01*
X158883226Y-110537140D01*
X158889497Y-110530870D01*
X158891166Y-110532538D01*
X158936873Y-110498320D01*
X158980212Y-110490500D01*
X159540001Y-110490500D01*
X159639536Y-110472246D01*
X159727543Y-110418584D01*
X159727546Y-110418582D01*
X159727545Y-110418582D01*
X159727548Y-110418581D01*
X160610190Y-109624943D01*
X160673202Y-109594758D01*
X160742532Y-109603430D01*
X160796167Y-109648208D01*
X160815070Y-109694809D01*
X160817099Y-109705886D01*
X160817099Y-109723043D01*
X160825735Y-109755271D01*
X160827027Y-109760096D01*
X160827031Y-109760113D01*
X160844555Y-109825509D01*
X160844557Y-109825514D01*
X160897598Y-109917386D01*
X160971593Y-109991381D01*
X161003687Y-110046969D01*
X161029881Y-110144729D01*
X161096298Y-110259768D01*
X161096300Y-110259771D01*
X162262334Y-111425805D01*
X162277037Y-111452732D01*
X162293630Y-111478551D01*
X162294521Y-111484751D01*
X162295819Y-111487128D01*
X162298653Y-111513486D01*
X162298653Y-111538313D01*
X162278968Y-111605352D01*
X162248967Y-111637578D01*
X162242456Y-111642452D01*
X162242451Y-111642457D01*
X162156206Y-111757664D01*
X162156202Y-111757671D01*
X162105908Y-111892517D01*
X162099501Y-111952116D01*
X162099500Y-111952135D01*
X162099500Y-112947870D01*
X162099501Y-112947876D01*
X162105908Y-113007483D01*
X162156202Y-113142328D01*
X162156203Y-113142329D01*
X162156204Y-113142331D01*
X162240265Y-113254622D01*
X162242452Y-113257543D01*
X162242452Y-113257544D01*
X162242453Y-113257544D01*
X162242454Y-113257546D01*
X162248962Y-113262418D01*
X162290834Y-113318348D01*
X162298653Y-113361685D01*
X162298653Y-114369572D01*
X162322151Y-114457267D01*
X162333035Y-114497887D01*
X162333036Y-114497888D01*
X162353641Y-114533576D01*
X162353642Y-114533578D01*
X162353645Y-114533582D01*
X162360308Y-114545122D01*
X162399451Y-114612922D01*
X169466321Y-121679792D01*
X169499806Y-121741115D01*
X169494822Y-121810807D01*
X169466322Y-121855154D01*
X169359488Y-121961988D01*
X169287017Y-122087511D01*
X169287016Y-122087515D01*
X169249500Y-122227525D01*
X169249500Y-122227527D01*
X169249500Y-122266491D01*
X169246949Y-122275176D01*
X169248238Y-122284138D01*
X169237259Y-122308178D01*
X169229815Y-122333530D01*
X169222974Y-122339457D01*
X169219213Y-122347694D01*
X169196978Y-122361983D01*
X169177011Y-122379285D01*
X169166496Y-122381572D01*
X169160435Y-122385468D01*
X169125500Y-122390491D01*
X169011640Y-122390491D01*
X168944601Y-122370806D01*
X168923959Y-122354172D01*
X166579474Y-120009688D01*
X166579462Y-120009674D01*
X166497386Y-119927598D01*
X166405514Y-119874557D01*
X166405511Y-119874556D01*
X166401443Y-119873466D01*
X166383858Y-119868754D01*
X166303043Y-119847099D01*
X166196957Y-119847099D01*
X166196953Y-119847100D01*
X164910655Y-119847100D01*
X164910639Y-119847099D01*
X164903043Y-119847099D01*
X164796957Y-119847099D01*
X164772500Y-119853652D01*
X164705680Y-119871556D01*
X164705681Y-119871557D01*
X164694488Y-119874556D01*
X164694485Y-119874557D01*
X164602613Y-119927598D01*
X164602611Y-119927600D01*
X164564954Y-119965258D01*
X164527599Y-120002613D01*
X164527597Y-120002615D01*
X164026892Y-120503322D01*
X163892040Y-120638174D01*
X163830717Y-120671659D01*
X163804359Y-120674493D01*
X163392721Y-120674493D01*
X163319662Y-120689025D01*
X163319658Y-120689026D01*
X163236797Y-120744392D01*
X163181431Y-120827253D01*
X163181430Y-120827257D01*
X163166898Y-120900314D01*
X163166898Y-122099685D01*
X163181430Y-122172742D01*
X163181431Y-122172746D01*
X163185685Y-122179112D01*
X163236797Y-122255608D01*
X163290968Y-122291803D01*
X163319658Y-122310973D01*
X163319662Y-122310974D01*
X163392719Y-122325506D01*
X163392722Y-122325507D01*
X163392724Y-122325507D01*
X164392088Y-122325507D01*
X164392089Y-122325506D01*
X164465152Y-122310973D01*
X164548013Y-122255608D01*
X164603378Y-122172747D01*
X164617912Y-122099681D01*
X164617912Y-121103236D01*
X164637597Y-121036197D01*
X164654231Y-121015555D01*
X164980568Y-120689219D01*
X165041891Y-120655734D01*
X165068249Y-120652900D01*
X166031752Y-120652900D01*
X166098791Y-120672585D01*
X166119433Y-120689219D01*
X167959404Y-122529191D01*
X168423897Y-122993684D01*
X168455990Y-123049270D01*
X168481685Y-123145162D01*
X168481690Y-123145173D01*
X168553367Y-123269323D01*
X168553371Y-123269328D01*
X168553372Y-123269330D01*
X168654751Y-123370709D01*
X168654753Y-123370710D01*
X168654757Y-123370713D01*
X168727967Y-123412980D01*
X168778914Y-123442394D01*
X168808133Y-123450223D01*
X168867791Y-123486586D01*
X168898321Y-123549433D01*
X168890027Y-123618809D01*
X168845542Y-123672687D01*
X168833776Y-123679735D01*
X168821514Y-123686186D01*
X168778914Y-123697601D01*
X168654751Y-123769286D01*
X168644956Y-123779080D01*
X168628314Y-123787837D01*
X168611755Y-123791171D01*
X168596934Y-123799265D01*
X168570576Y-123802099D01*
X168485747Y-123802099D01*
X168418708Y-123782414D01*
X168398066Y-123765780D01*
X168011819Y-123379533D01*
X167978334Y-123318210D01*
X167975500Y-123291852D01*
X167975500Y-123020730D01*
X167972646Y-122990300D01*
X167972646Y-122990298D01*
X167935699Y-122884712D01*
X167927793Y-122862118D01*
X167847150Y-122752850D01*
X167737882Y-122672207D01*
X167737880Y-122672206D01*
X167609700Y-122627353D01*
X167579270Y-122624500D01*
X167579266Y-122624500D01*
X167070734Y-122624500D01*
X167070730Y-122624500D01*
X167040300Y-122627353D01*
X167040298Y-122627353D01*
X166912119Y-122672206D01*
X166912117Y-122672207D01*
X166802850Y-122752850D01*
X166740741Y-122837004D01*
X166685093Y-122879255D01*
X166615437Y-122884712D01*
X166553887Y-122851645D01*
X166522585Y-122800258D01*
X166518018Y-122785602D01*
X166430072Y-122640122D01*
X166309877Y-122519927D01*
X166164395Y-122431980D01*
X166164396Y-122431980D01*
X166002105Y-122381409D01*
X166002106Y-122381409D01*
X165931572Y-122375000D01*
X165925000Y-122375000D01*
X165925000Y-123226000D01*
X165905315Y-123293039D01*
X165852511Y-123338794D01*
X165801000Y-123350000D01*
X165549000Y-123350000D01*
X165481961Y-123330315D01*
X165436206Y-123277511D01*
X165425000Y-123226000D01*
X165425000Y-122375000D01*
X165424999Y-122374999D01*
X165418436Y-122375000D01*
X165418417Y-122375001D01*
X165347897Y-122381408D01*
X165347892Y-122381409D01*
X165185603Y-122431981D01*
X165040122Y-122519927D01*
X164919927Y-122640122D01*
X164831980Y-122785604D01*
X164830080Y-122791702D01*
X164791339Y-122849847D01*
X164727312Y-122877817D01*
X164658327Y-122866731D01*
X164608596Y-122823696D01*
X164555608Y-122744392D01*
X164490389Y-122700815D01*
X164472746Y-122689026D01*
X164472742Y-122689025D01*
X164399684Y-122674493D01*
X164399681Y-122674493D01*
X163400319Y-122674493D01*
X163400316Y-122674493D01*
X163327257Y-122689025D01*
X163327253Y-122689026D01*
X163244392Y-122744392D01*
X163189026Y-122827253D01*
X163189025Y-122827257D01*
X163174493Y-122900314D01*
X163174493Y-124099685D01*
X163189025Y-124172742D01*
X163189026Y-124172746D01*
X163189027Y-124172747D01*
X163244392Y-124255608D01*
X163275937Y-124276685D01*
X163327253Y-124310973D01*
X163327257Y-124310974D01*
X163400314Y-124325506D01*
X163400317Y-124325507D01*
X163400319Y-124325507D01*
X163927333Y-124325507D01*
X163994372Y-124345192D01*
X164015013Y-124361825D01*
X164303971Y-124650784D01*
X164303973Y-124650787D01*
X164378987Y-124725801D01*
X164427981Y-124754087D01*
X164470861Y-124778844D01*
X164573331Y-124806301D01*
X164573334Y-124806301D01*
X164686915Y-124806301D01*
X164687029Y-124806300D01*
X165202280Y-124806300D01*
X165269319Y-124825985D01*
X165315074Y-124878789D01*
X165325018Y-124947947D01*
X165302050Y-125003933D01*
X165216689Y-125119594D01*
X165213990Y-125117602D01*
X165176906Y-125155712D01*
X165116000Y-125171700D01*
X164792387Y-125171700D01*
X164730387Y-125155087D01*
X164612485Y-125087016D01*
X164472475Y-125049500D01*
X164327525Y-125049500D01*
X164198993Y-125083940D01*
X164187511Y-125087017D01*
X164061988Y-125159488D01*
X164061982Y-125159493D01*
X163959493Y-125261982D01*
X163959488Y-125261988D01*
X163887017Y-125387511D01*
X163887016Y-125387515D01*
X163849500Y-125527525D01*
X163849500Y-125672475D01*
X163886172Y-125809335D01*
X163887017Y-125812488D01*
X163959488Y-125938011D01*
X163959490Y-125938013D01*
X163959491Y-125938015D01*
X164061985Y-126040509D01*
X164061986Y-126040510D01*
X164061988Y-126040511D01*
X164187511Y-126112982D01*
X164187512Y-126112982D01*
X164187515Y-126112984D01*
X164327525Y-126150500D01*
X164327528Y-126150500D01*
X164472472Y-126150500D01*
X164472475Y-126150500D01*
X164612485Y-126112984D01*
X164730387Y-126044912D01*
X164792387Y-126028300D01*
X165116000Y-126028300D01*
X165183039Y-126047985D01*
X165214379Y-126082109D01*
X165216689Y-126080405D01*
X165222206Y-126087881D01*
X165222207Y-126087882D01*
X165302850Y-126197150D01*
X165368193Y-126245375D01*
X165389363Y-126260999D01*
X165431613Y-126316646D01*
X165437072Y-126386303D01*
X165404004Y-126447852D01*
X165380827Y-126466307D01*
X165322268Y-126502426D01*
X165202427Y-126622267D01*
X165202424Y-126622271D01*
X165113457Y-126766507D01*
X165113452Y-126766518D01*
X165060144Y-126927393D01*
X165050000Y-127026677D01*
X165050000Y-127075000D01*
X165876000Y-127075000D01*
X165943039Y-127094685D01*
X165988794Y-127147489D01*
X166000000Y-127199000D01*
X166000000Y-127451000D01*
X165980315Y-127518039D01*
X165927511Y-127563794D01*
X165876000Y-127575000D01*
X165061244Y-127575000D01*
X165011657Y-127564654D01*
X164215440Y-127217268D01*
X164211225Y-127215334D01*
X163266163Y-126760216D01*
X163262024Y-126758126D01*
X162334662Y-126268001D01*
X162330603Y-126265758D01*
X161422198Y-125741290D01*
X161418226Y-125738897D01*
X160733223Y-125308481D01*
X160530060Y-125180825D01*
X160526187Y-125178290D01*
X160516521Y-125171700D01*
X160234494Y-124979417D01*
X159659499Y-124587392D01*
X159655717Y-124584708D01*
X159203145Y-124250695D01*
X159160895Y-124195048D01*
X159155436Y-124125391D01*
X159188504Y-124063842D01*
X159244683Y-124031151D01*
X159312485Y-124012984D01*
X159438015Y-123940509D01*
X159540509Y-123838015D01*
X159558296Y-123807206D01*
X159608863Y-123758991D01*
X159677470Y-123745768D01*
X159742335Y-123771736D01*
X159782863Y-123828651D01*
X159789683Y-123869207D01*
X159789683Y-124099685D01*
X159804215Y-124172742D01*
X159804216Y-124172746D01*
X159804217Y-124172747D01*
X159859582Y-124255608D01*
X159891127Y-124276685D01*
X159942443Y-124310973D01*
X159942447Y-124310974D01*
X160015504Y-124325506D01*
X160015507Y-124325507D01*
X160015509Y-124325507D01*
X161014873Y-124325507D01*
X161014874Y-124325506D01*
X161087937Y-124310973D01*
X161170798Y-124255608D01*
X161226163Y-124172747D01*
X161240697Y-124099681D01*
X161240697Y-122900319D01*
X161240697Y-122900316D01*
X161240696Y-122900314D01*
X161226164Y-122827257D01*
X161226163Y-122827253D01*
X161216050Y-122812118D01*
X161170798Y-122744392D01*
X161170796Y-122744390D01*
X161170795Y-122744389D01*
X161162162Y-122735756D01*
X161163817Y-122734100D01*
X161129663Y-122693234D01*
X161120954Y-122623909D01*
X161151108Y-122560881D01*
X161200026Y-122527560D01*
X161224686Y-122518362D01*
X161224695Y-122518357D01*
X161339789Y-122432197D01*
X161339792Y-122432194D01*
X161425952Y-122317100D01*
X161425956Y-122317093D01*
X161476198Y-122182386D01*
X161476200Y-122182379D01*
X161482601Y-122122851D01*
X161482602Y-122122834D01*
X161482602Y-121750000D01*
X160631595Y-121750000D01*
X160564556Y-121730315D01*
X160518801Y-121677511D01*
X160507595Y-121626000D01*
X160507595Y-121500000D01*
X160381595Y-121500000D01*
X160314556Y-121480315D01*
X160268801Y-121427511D01*
X160257595Y-121376000D01*
X160257595Y-121250000D01*
X160757595Y-121250000D01*
X161482602Y-121250000D01*
X161482602Y-120877165D01*
X161482601Y-120877148D01*
X161476200Y-120817620D01*
X161476198Y-120817613D01*
X161425956Y-120682906D01*
X161425952Y-120682899D01*
X161339792Y-120567805D01*
X161339789Y-120567802D01*
X161224695Y-120481642D01*
X161224688Y-120481638D01*
X161089981Y-120431396D01*
X161089974Y-120431394D01*
X161030446Y-120424993D01*
X160757595Y-120424993D01*
X160757595Y-121250000D01*
X160257595Y-121250000D01*
X160257595Y-120424993D01*
X159984743Y-120424993D01*
X159925215Y-120431394D01*
X159925208Y-120431396D01*
X159790501Y-120481638D01*
X159790494Y-120481642D01*
X159675400Y-120567802D01*
X159675397Y-120567805D01*
X159589237Y-120682899D01*
X159589234Y-120682905D01*
X159541796Y-120810091D01*
X159499924Y-120866024D01*
X159434460Y-120890441D01*
X159366187Y-120875589D01*
X159337933Y-120854438D01*
X155636819Y-117153324D01*
X155603334Y-117092001D01*
X155600500Y-117065643D01*
X155600500Y-115436582D01*
X156085654Y-115436582D01*
X156092061Y-115507102D01*
X156092062Y-115507107D01*
X156142634Y-115669396D01*
X156230580Y-115814877D01*
X156350775Y-115935072D01*
X156496257Y-116023019D01*
X156496256Y-116023019D01*
X156658547Y-116073590D01*
X156658545Y-116073590D01*
X156729071Y-116079999D01*
X157310653Y-116079999D01*
X157392234Y-116079999D01*
X157462755Y-116073591D01*
X157462760Y-116073590D01*
X157625049Y-116023018D01*
X157770530Y-115935072D01*
X157890725Y-115814877D01*
X157978672Y-115669395D01*
X158029243Y-115507106D01*
X158035653Y-115436572D01*
X158035653Y-115430000D01*
X157310653Y-115430000D01*
X157310653Y-116079999D01*
X156729071Y-116079999D01*
X156810652Y-116079998D01*
X156810653Y-116079998D01*
X156810653Y-115430000D01*
X156085654Y-115430000D01*
X156085654Y-115436582D01*
X155600500Y-115436582D01*
X155600500Y-115408322D01*
X158485654Y-115408322D01*
X158495797Y-115507607D01*
X158549105Y-115668481D01*
X158549110Y-115668492D01*
X158638077Y-115812728D01*
X158638080Y-115812732D01*
X158757920Y-115932572D01*
X158757924Y-115932575D01*
X158902160Y-116021542D01*
X158902171Y-116021547D01*
X159063046Y-116074855D01*
X159162336Y-116084999D01*
X159710653Y-116084999D01*
X159758961Y-116084999D01*
X159758975Y-116084998D01*
X159858260Y-116074855D01*
X160019134Y-116021547D01*
X160019145Y-116021542D01*
X160163381Y-115932575D01*
X160163385Y-115932572D01*
X160283225Y-115812732D01*
X160283228Y-115812728D01*
X160372195Y-115668492D01*
X160372200Y-115668481D01*
X160425508Y-115507606D01*
X160435652Y-115408322D01*
X160435653Y-115408309D01*
X160435653Y-115385000D01*
X159710653Y-115385000D01*
X159710653Y-116084999D01*
X159162336Y-116084999D01*
X159210652Y-116084998D01*
X159210653Y-116084998D01*
X159210653Y-115385000D01*
X158485654Y-115385000D01*
X158485654Y-115408322D01*
X155600500Y-115408322D01*
X155600500Y-115375323D01*
X155600499Y-115375321D01*
X155585967Y-115302264D01*
X155585966Y-115302260D01*
X155569617Y-115277792D01*
X155530601Y-115219399D01*
X155456259Y-115169726D01*
X155447739Y-115164033D01*
X155447735Y-115164032D01*
X155374677Y-115149500D01*
X155374674Y-115149500D01*
X155164950Y-115149500D01*
X155162789Y-115148865D01*
X155160609Y-115149424D01*
X155129419Y-115139066D01*
X155097911Y-115129815D01*
X155096437Y-115128114D01*
X155094300Y-115127405D01*
X155073655Y-115101822D01*
X155052156Y-115077011D01*
X155051835Y-115074784D01*
X155050421Y-115073031D01*
X155046885Y-115040357D01*
X155042212Y-115007853D01*
X155043147Y-115005805D01*
X155042905Y-115003567D01*
X155057591Y-114974177D01*
X155071237Y-114944297D01*
X155073445Y-114942450D01*
X155074137Y-114941066D01*
X155084016Y-114933609D01*
X155096193Y-114923427D01*
X156085653Y-114923427D01*
X156085653Y-114930000D01*
X158035652Y-114930000D01*
X158035652Y-114923417D01*
X158029244Y-114852897D01*
X158029243Y-114852892D01*
X157978671Y-114690603D01*
X157890725Y-114545122D01*
X157770530Y-114424927D01*
X157625050Y-114336981D01*
X157610390Y-114332413D01*
X157552243Y-114293674D01*
X157524270Y-114229649D01*
X157535352Y-114160664D01*
X157573646Y-114114259D01*
X157657803Y-114052150D01*
X157738446Y-113942882D01*
X157782758Y-113816246D01*
X157783299Y-113814701D01*
X157783299Y-113814699D01*
X157786153Y-113784269D01*
X157786153Y-113275730D01*
X157783299Y-113245300D01*
X157783299Y-113245298D01*
X157743164Y-113130601D01*
X157738446Y-113117118D01*
X157657803Y-113007850D01*
X157657801Y-113007849D01*
X157657801Y-113007848D01*
X157656031Y-113006078D01*
X157654712Y-113003662D01*
X157652285Y-113000374D01*
X157652735Y-113000041D01*
X157645934Y-112987587D01*
X157631854Y-112971912D01*
X157629524Y-112957535D01*
X157622546Y-112944755D01*
X157624048Y-112923740D01*
X157620679Y-112902942D01*
X157626491Y-112889590D01*
X157627530Y-112875063D01*
X157640157Y-112858194D01*
X157648566Y-112838879D01*
X157667040Y-112822284D01*
X157669402Y-112819130D01*
X157674810Y-112815302D01*
X157716168Y-112787668D01*
X157782845Y-112766792D01*
X157850225Y-112785278D01*
X157853930Y-112787658D01*
X157896296Y-112815966D01*
X157896298Y-112815966D01*
X157896300Y-112815967D01*
X157969357Y-112830499D01*
X157969360Y-112830500D01*
X158555500Y-112830500D01*
X158622539Y-112850185D01*
X158668294Y-112902989D01*
X158679500Y-112954500D01*
X158679500Y-114020020D01*
X158680696Y-114045876D01*
X158680696Y-114045879D01*
X158680697Y-114045881D01*
X158692506Y-114087385D01*
X158708907Y-114145031D01*
X158747748Y-114196465D01*
X158772439Y-114261827D01*
X158757873Y-114330161D01*
X158736475Y-114358871D01*
X158638080Y-114457267D01*
X158638077Y-114457271D01*
X158549110Y-114601507D01*
X158549105Y-114601518D01*
X158495797Y-114762393D01*
X158485653Y-114861677D01*
X158485653Y-114885000D01*
X160435652Y-114885000D01*
X160435652Y-114861692D01*
X160435651Y-114861677D01*
X160425508Y-114762392D01*
X160372200Y-114601518D01*
X160372197Y-114601511D01*
X160303167Y-114489598D01*
X160284726Y-114422205D01*
X160305648Y-114355542D01*
X160359290Y-114310772D01*
X160408705Y-114300500D01*
X161520009Y-114300500D01*
X161520018Y-114300499D01*
X161545881Y-114299303D01*
X161645030Y-114271093D01*
X161727292Y-114208972D01*
X161781558Y-114121328D01*
X161800500Y-114020000D01*
X161800500Y-111800000D01*
X161799303Y-111774119D01*
X161771093Y-111674970D01*
X161771092Y-111674969D01*
X161771092Y-111674968D01*
X161771090Y-111674965D01*
X161708975Y-111592711D01*
X161708972Y-111592708D01*
X161621330Y-111538443D01*
X161621329Y-111538442D01*
X161621328Y-111538442D01*
X161520000Y-111519500D01*
X161519997Y-111519500D01*
X161466295Y-111519500D01*
X161422961Y-111511681D01*
X161407491Y-111505911D01*
X161407488Y-111505910D01*
X161407484Y-111505909D01*
X161407483Y-111505909D01*
X161347873Y-111499500D01*
X161347863Y-111499500D01*
X160727129Y-111499500D01*
X160727123Y-111499501D01*
X160667514Y-111505909D01*
X160652040Y-111511681D01*
X160608706Y-111519500D01*
X158959979Y-111519500D01*
X158934119Y-111520696D01*
X158870485Y-111538800D01*
X158870486Y-111538801D01*
X158865664Y-111540173D01*
X158846258Y-111544034D01*
X158841927Y-111546926D01*
X158834968Y-111548907D01*
X158809583Y-111568077D01*
X158744222Y-111592767D01*
X158675887Y-111578201D01*
X158665973Y-111572226D01*
X158623780Y-111544034D01*
X158623775Y-111544032D01*
X158550717Y-111529500D01*
X158550714Y-111529500D01*
X157969362Y-111529500D01*
X157969359Y-111529500D01*
X157896300Y-111544032D01*
X157896293Y-111544035D01*
X157853946Y-111572330D01*
X157787269Y-111593207D01*
X157719889Y-111574722D01*
X157716168Y-111572330D01*
X157673820Y-111544035D01*
X157673813Y-111544032D01*
X157600755Y-111529500D01*
X157600752Y-111529500D01*
X157019400Y-111529500D01*
X157019397Y-111529500D01*
X156946338Y-111544032D01*
X156946334Y-111544033D01*
X156863473Y-111599399D01*
X156808107Y-111682260D01*
X156808106Y-111682264D01*
X156793574Y-111755321D01*
X156793574Y-112075352D01*
X156776154Y-112138730D01*
X156768226Y-112152061D01*
X156738252Y-112182036D01*
X156685210Y-112273909D01*
X156685210Y-112273910D01*
X156657752Y-112376380D01*
X156657752Y-112376382D01*
X156657752Y-112492455D01*
X156657753Y-112492468D01*
X156657753Y-112809488D01*
X156638068Y-112876527D01*
X156585264Y-112922282D01*
X156574709Y-112926529D01*
X156572771Y-112927207D01*
X156463503Y-113007850D01*
X156382860Y-113117117D01*
X156382859Y-113117119D01*
X156338006Y-113245298D01*
X156338006Y-113245300D01*
X156335153Y-113275730D01*
X156335153Y-113784269D01*
X156338006Y-113814699D01*
X156338006Y-113814701D01*
X156382859Y-113942880D01*
X156382860Y-113942882D01*
X156463503Y-114052150D01*
X156547657Y-114114258D01*
X156589907Y-114169905D01*
X156595366Y-114239562D01*
X156562298Y-114301111D01*
X156510916Y-114332412D01*
X156496258Y-114336979D01*
X156496257Y-114336980D01*
X156350775Y-114424927D01*
X156230580Y-114545122D01*
X156142633Y-114690604D01*
X156092062Y-114852893D01*
X156085653Y-114923427D01*
X155096193Y-114923427D01*
X155101604Y-114918902D01*
X155260766Y-114824319D01*
X154629408Y-114192962D01*
X154692993Y-114175925D01*
X154807007Y-114110099D01*
X154900099Y-114017007D01*
X154965925Y-113902993D01*
X154982962Y-113839408D01*
X155615270Y-114471717D01*
X155615270Y-114471716D01*
X155654622Y-114417554D01*
X155751095Y-114228217D01*
X155816757Y-114026130D01*
X155816757Y-114026127D01*
X155850000Y-113816246D01*
X155850000Y-113603753D01*
X155816757Y-113393872D01*
X155816757Y-113393869D01*
X155751095Y-113191782D01*
X155654624Y-113002449D01*
X155615270Y-112948282D01*
X155615269Y-112948282D01*
X154982962Y-113580590D01*
X154965925Y-113517007D01*
X154900099Y-113402993D01*
X154807007Y-113309901D01*
X154692993Y-113244075D01*
X154629409Y-113227037D01*
X155261716Y-112594728D01*
X155207550Y-112555375D01*
X155018217Y-112458904D01*
X154816129Y-112393242D01*
X154606246Y-112360000D01*
X154393754Y-112360000D01*
X154183872Y-112393242D01*
X154183869Y-112393242D01*
X153981782Y-112458904D01*
X153792439Y-112555380D01*
X153738282Y-112594727D01*
X153738282Y-112594728D01*
X154370591Y-113227037D01*
X154307007Y-113244075D01*
X154192993Y-113309901D01*
X154099901Y-113402993D01*
X154034075Y-113517007D01*
X154017037Y-113580591D01*
X153384728Y-112948282D01*
X153384727Y-112948282D01*
X153345380Y-113002439D01*
X153248904Y-113191782D01*
X153183242Y-113393869D01*
X153183242Y-113393872D01*
X153150000Y-113603753D01*
X153150000Y-113816246D01*
X153183242Y-114026127D01*
X153183242Y-114026130D01*
X153248904Y-114228217D01*
X153345375Y-114417550D01*
X153384728Y-114471716D01*
X154017037Y-113839408D01*
X154034075Y-113902993D01*
X154099901Y-114017007D01*
X154192993Y-114110099D01*
X154307007Y-114175925D01*
X154370590Y-114192962D01*
X153738282Y-114825269D01*
X153738282Y-114825270D01*
X153792450Y-114864624D01*
X153891345Y-114915015D01*
X153942141Y-114962990D01*
X153958936Y-115030811D01*
X153936398Y-115096946D01*
X153881683Y-115140397D01*
X153835050Y-115149500D01*
X153625323Y-115149500D01*
X153552264Y-115164032D01*
X153552260Y-115164033D01*
X153469399Y-115219399D01*
X153414033Y-115302260D01*
X153414032Y-115302264D01*
X153399500Y-115375321D01*
X153399500Y-117124678D01*
X153414032Y-117197735D01*
X153414033Y-117197739D01*
X153414034Y-117197740D01*
X153469399Y-117280601D01*
X153552260Y-117335966D01*
X153552264Y-117335967D01*
X153625321Y-117350499D01*
X153625324Y-117350500D01*
X153625326Y-117350500D01*
X154571219Y-117350500D01*
X154638258Y-117370185D01*
X154658900Y-117386819D01*
X158835381Y-121563300D01*
X158868866Y-121624623D01*
X158871700Y-121650981D01*
X158871700Y-122341197D01*
X158900888Y-122450128D01*
X158957275Y-122547793D01*
X158957277Y-122547795D01*
X159044082Y-122634600D01*
X159044088Y-122634605D01*
X159114207Y-122704724D01*
X159147692Y-122766047D01*
X159142708Y-122835739D01*
X159114206Y-122880087D01*
X159074606Y-122919686D01*
X159019020Y-122951779D01*
X158887511Y-122987017D01*
X158761988Y-123059488D01*
X158761982Y-123059493D01*
X158659493Y-123161982D01*
X158659488Y-123161988D01*
X158587017Y-123287511D01*
X158587016Y-123287515D01*
X158549500Y-123427525D01*
X158549500Y-123427527D01*
X158549500Y-123495316D01*
X158529815Y-123562355D01*
X158477011Y-123608110D01*
X158407853Y-123618054D01*
X158348187Y-123592263D01*
X158035889Y-123343214D01*
X157987974Y-123305003D01*
X157984445Y-123302080D01*
X157189292Y-122617795D01*
X157185902Y-122614764D01*
X156416973Y-121901303D01*
X156413633Y-121898086D01*
X155671913Y-121156366D01*
X155668696Y-121153026D01*
X154955232Y-120384094D01*
X154952206Y-120380710D01*
X154267914Y-119585548D01*
X154264991Y-119582019D01*
X153610965Y-118761895D01*
X153608184Y-118758272D01*
X153049694Y-118001545D01*
X152985291Y-117914282D01*
X152982607Y-117910500D01*
X152800711Y-117643707D01*
X152391696Y-117043792D01*
X152389182Y-117039952D01*
X151831101Y-116151771D01*
X151828709Y-116147801D01*
X151802757Y-116102850D01*
X151304234Y-115239384D01*
X151301998Y-115235337D01*
X151283097Y-115199575D01*
X150811867Y-114307963D01*
X150809783Y-114303836D01*
X150808471Y-114301111D01*
X150354658Y-113358758D01*
X150352731Y-113354559D01*
X150351173Y-113350987D01*
X149933249Y-112393096D01*
X149931483Y-112388830D01*
X149920168Y-112360000D01*
X149548267Y-111412412D01*
X149546680Y-111408138D01*
X149200206Y-110417971D01*
X149198764Y-110413586D01*
X148889585Y-109411250D01*
X148888307Y-109406814D01*
X148854327Y-109279999D01*
X148687152Y-108656092D01*
X148688815Y-108586244D01*
X148727977Y-108528381D01*
X148792206Y-108500877D01*
X148806927Y-108500000D01*
X150649173Y-108500000D01*
X150657432Y-108500019D01*
X150660000Y-108500500D01*
X150855725Y-108500500D01*
X150889293Y-108510444D01*
X150922464Y-108520185D01*
X150922565Y-108520302D01*
X150922717Y-108520347D01*
X150945639Y-108546930D01*
X150968219Y-108572989D01*
X150968241Y-108573142D01*
X150968344Y-108573262D01*
X150973233Y-108607861D01*
X150978163Y-108642147D01*
X150978098Y-108642289D01*
X150978120Y-108642444D01*
X150963620Y-108673989D01*
X150949138Y-108705703D01*
X150948992Y-108705816D01*
X150948941Y-108705929D01*
X150948439Y-108706249D01*
X150911720Y-108734985D01*
X150832439Y-108775380D01*
X150778282Y-108814727D01*
X150778282Y-108814728D01*
X151410591Y-109447037D01*
X151347007Y-109464075D01*
X151232993Y-109529901D01*
X151139901Y-109622993D01*
X151074075Y-109737007D01*
X151057037Y-109800591D01*
X150424728Y-109168282D01*
X150424727Y-109168282D01*
X150385380Y-109222439D01*
X150288904Y-109411782D01*
X150223242Y-109613869D01*
X150223242Y-109613872D01*
X150190000Y-109823753D01*
X150190000Y-110036246D01*
X150223242Y-110246127D01*
X150223242Y-110246130D01*
X150288904Y-110448217D01*
X150385375Y-110637550D01*
X150424728Y-110691716D01*
X151057037Y-110059408D01*
X151074075Y-110122993D01*
X151139901Y-110237007D01*
X151232993Y-110330099D01*
X151347007Y-110395925D01*
X151410590Y-110412962D01*
X150778282Y-111045269D01*
X150778282Y-111045270D01*
X150832449Y-111084624D01*
X151021782Y-111181095D01*
X151223870Y-111246757D01*
X151433754Y-111280000D01*
X151646246Y-111280000D01*
X151856127Y-111246757D01*
X151856130Y-111246757D01*
X152058217Y-111181095D01*
X152247554Y-111084622D01*
X152301716Y-111045270D01*
X152301717Y-111045270D01*
X151669408Y-110412962D01*
X151732993Y-110395925D01*
X151847007Y-110330099D01*
X151940099Y-110237007D01*
X152005925Y-110122993D01*
X152022962Y-110059408D01*
X152655270Y-110691717D01*
X152655270Y-110691716D01*
X152694622Y-110637554D01*
X152791095Y-110448217D01*
X152856757Y-110246130D01*
X152856757Y-110246127D01*
X152859661Y-110227794D01*
X156544074Y-110227794D01*
X156550475Y-110287322D01*
X156550477Y-110287329D01*
X156600719Y-110422036D01*
X156600723Y-110422043D01*
X156686883Y-110537137D01*
X156686886Y-110537140D01*
X156801980Y-110623300D01*
X156801987Y-110623304D01*
X156936694Y-110673546D01*
X156936701Y-110673548D01*
X156996229Y-110679949D01*
X156996246Y-110679950D01*
X157060076Y-110679950D01*
X157560076Y-110679950D01*
X157623906Y-110679950D01*
X157623922Y-110679949D01*
X157683455Y-110673547D01*
X157683457Y-110673547D01*
X157741722Y-110651815D01*
X157811414Y-110646829D01*
X157828392Y-110651815D01*
X157886657Y-110673547D01*
X157946191Y-110679949D01*
X157946208Y-110679950D01*
X158010038Y-110679950D01*
X158010038Y-110029950D01*
X157560076Y-110029950D01*
X157560076Y-110679950D01*
X157060076Y-110679950D01*
X157060076Y-110029950D01*
X156544074Y-110029950D01*
X156544074Y-110227794D01*
X152859661Y-110227794D01*
X152890000Y-110036246D01*
X152890000Y-109823753D01*
X152856757Y-109613872D01*
X152856757Y-109613869D01*
X152801342Y-109443320D01*
X156544074Y-109443320D01*
X156544074Y-109529950D01*
X158010038Y-109529950D01*
X158010038Y-108879950D01*
X157946191Y-108879950D01*
X157886663Y-108886351D01*
X157886657Y-108886353D01*
X157832828Y-108906429D01*
X157763137Y-108911412D01*
X157701814Y-108877926D01*
X157668330Y-108816602D01*
X157671791Y-108751241D01*
X157694505Y-108682694D01*
X157694506Y-108682690D01*
X157704999Y-108579986D01*
X157705000Y-108579973D01*
X157705000Y-108530000D01*
X156730000Y-108530000D01*
X156730000Y-109286000D01*
X156710315Y-109353039D01*
X156657511Y-109398794D01*
X156651123Y-109401498D01*
X156544074Y-109443320D01*
X152801342Y-109443320D01*
X152791095Y-109411782D01*
X152694624Y-109222449D01*
X152655270Y-109168282D01*
X152655269Y-109168282D01*
X152022962Y-109800590D01*
X152005925Y-109737007D01*
X151940099Y-109622993D01*
X151847007Y-109529901D01*
X151732993Y-109464075D01*
X151669409Y-109447037D01*
X152301716Y-108814728D01*
X152247550Y-108775375D01*
X152168281Y-108734985D01*
X152163784Y-108730737D01*
X152157845Y-108729013D01*
X152138682Y-108707030D01*
X152117485Y-108687010D01*
X152115998Y-108681007D01*
X152111934Y-108676345D01*
X152107698Y-108647491D01*
X152100690Y-108619189D01*
X152102685Y-108613334D01*
X152101787Y-108607216D01*
X152113821Y-108580654D01*
X152123228Y-108553054D01*
X152128070Y-108549208D01*
X152130623Y-108543575D01*
X152155106Y-108527737D01*
X152177943Y-108509603D01*
X152185416Y-108508132D01*
X152189290Y-108505627D01*
X152223191Y-108500701D01*
X152224209Y-108500501D01*
X152224547Y-108500500D01*
X152380000Y-108500500D01*
X152390616Y-108500008D01*
X152393318Y-108500001D01*
X152393341Y-108500007D01*
X152393685Y-108500000D01*
X153086896Y-108500000D01*
X153153935Y-108519685D01*
X153199690Y-108572489D01*
X153210254Y-108611399D01*
X153215494Y-108662696D01*
X153270641Y-108829119D01*
X153270643Y-108829124D01*
X153362684Y-108978345D01*
X153486654Y-109102315D01*
X153635875Y-109194356D01*
X153635880Y-109194358D01*
X153802302Y-109249505D01*
X153802309Y-109249506D01*
X153905019Y-109259999D01*
X154179999Y-109259999D01*
X154680000Y-109259999D01*
X154954972Y-109259999D01*
X154954986Y-109259998D01*
X155057697Y-109249505D01*
X155224119Y-109194358D01*
X155224124Y-109194356D01*
X155378534Y-109099115D01*
X155445926Y-109080675D01*
X155512590Y-109101597D01*
X155531312Y-109116973D01*
X155536654Y-109122315D01*
X155685875Y-109214356D01*
X155685880Y-109214358D01*
X155852302Y-109269505D01*
X155852309Y-109269506D01*
X155955019Y-109279999D01*
X156230000Y-109279999D01*
X156230000Y-108530000D01*
X155196362Y-108530000D01*
X155129323Y-108510315D01*
X155128932Y-108510000D01*
X154680000Y-108510000D01*
X154680000Y-109259999D01*
X154179999Y-109259999D01*
X154180000Y-109259998D01*
X154180000Y-108384000D01*
X154199685Y-108316961D01*
X154252489Y-108271206D01*
X154304000Y-108260000D01*
X154430000Y-108260000D01*
X154430000Y-108134000D01*
X154449685Y-108066961D01*
X154502489Y-108021206D01*
X154554000Y-108010000D01*
X155713638Y-108010000D01*
X155780677Y-108029685D01*
X155781068Y-108030000D01*
X157704999Y-108030000D01*
X157704999Y-107980028D01*
X157704998Y-107980013D01*
X157694505Y-107877302D01*
X157639832Y-107712309D01*
X157637430Y-107642481D01*
X157673162Y-107582439D01*
X157735682Y-107551246D01*
X157758958Y-107549314D01*
X158039979Y-107552568D01*
G37*
%TD.AperFunction*%
%TA.AperFunction,Conductor*%
G36*
X163830702Y-112144619D02*
G01*
X163837180Y-112150651D01*
X169788681Y-118102152D01*
X169822166Y-118163475D01*
X169825000Y-118189833D01*
X169825000Y-120074999D01*
X169848308Y-120074999D01*
X169848322Y-120074998D01*
X169947607Y-120064855D01*
X170108481Y-120011547D01*
X170108492Y-120011542D01*
X170252728Y-119922575D01*
X170252732Y-119922572D01*
X170372573Y-119802731D01*
X170408348Y-119744731D01*
X170460296Y-119698006D01*
X170529258Y-119686783D01*
X170588194Y-119710558D01*
X170669774Y-119771628D01*
X170797886Y-119819412D01*
X170836929Y-119823609D01*
X170901477Y-119850346D01*
X170941326Y-119907738D01*
X170946610Y-119930707D01*
X170946698Y-119931378D01*
X170946700Y-119931385D01*
X170946700Y-119931387D01*
X170975888Y-120040318D01*
X171032275Y-120137983D01*
X171032277Y-120137985D01*
X171119082Y-120224790D01*
X171119088Y-120224795D01*
X171588413Y-120694121D01*
X171621898Y-120755444D01*
X171616914Y-120825136D01*
X171575042Y-120881069D01*
X171509578Y-120905486D01*
X171500732Y-120905802D01*
X170170635Y-120905802D01*
X170103596Y-120886117D01*
X170082954Y-120869483D01*
X169361319Y-120147848D01*
X169327834Y-120086525D01*
X169325000Y-120060167D01*
X169325000Y-119350000D01*
X168614833Y-119350000D01*
X168547794Y-119330315D01*
X168527152Y-119313681D01*
X168015148Y-118801677D01*
X168625000Y-118801677D01*
X168625000Y-118850000D01*
X169325000Y-118850000D01*
X169325000Y-118124999D01*
X169301693Y-118125000D01*
X169301674Y-118125001D01*
X169202392Y-118135144D01*
X169041518Y-118188452D01*
X169041507Y-118188457D01*
X168897271Y-118277424D01*
X168897267Y-118277427D01*
X168777427Y-118397267D01*
X168777424Y-118397271D01*
X168688457Y-118541507D01*
X168688452Y-118541518D01*
X168635144Y-118702393D01*
X168625000Y-118801677D01*
X168015148Y-118801677D01*
X163343972Y-114130501D01*
X163310487Y-114069178D01*
X163307653Y-114042820D01*
X163307653Y-113449955D01*
X163327338Y-113382916D01*
X163361635Y-113350987D01*
X163360231Y-113349112D01*
X163458255Y-113275730D01*
X163482546Y-113257546D01*
X163568796Y-113142331D01*
X163619091Y-113007483D01*
X163625500Y-112947873D01*
X163625499Y-112238331D01*
X163645183Y-112171293D01*
X163697987Y-112125538D01*
X163767146Y-112115594D01*
X163830702Y-112144619D01*
G37*
%TD.AperFunction*%
%TD*%
%TA.AperFunction,Conductor*%
%TO.N,GND*%
G36*
X196559075Y-90052993D02*
G01*
X196624901Y-90167007D01*
X196717993Y-90260099D01*
X196832007Y-90325925D01*
X196895590Y-90342962D01*
X196263282Y-90975269D01*
X196263282Y-90975270D01*
X196317449Y-91014624D01*
X196456351Y-91085399D01*
X196507147Y-91133374D01*
X196523942Y-91201195D01*
X196501404Y-91267330D01*
X196446689Y-91310781D01*
X196401389Y-91319877D01*
X196048029Y-91323677D01*
X195980782Y-91304714D01*
X195934462Y-91252405D01*
X195922717Y-91201987D01*
X195911911Y-90619533D01*
X196542036Y-89989407D01*
X196559075Y-90052993D01*
G37*
%TD.AperFunction*%
%TA.AperFunction,Conductor*%
G36*
X198145436Y-90626883D02*
G01*
X198194513Y-90637193D01*
X198244270Y-90686244D01*
X198259845Y-90748661D01*
X198252151Y-91179516D01*
X198231273Y-91246193D01*
X198177660Y-91290998D01*
X198129504Y-91301295D01*
X197678221Y-91306148D01*
X197610974Y-91287185D01*
X197564654Y-91234876D01*
X197553967Y-91165829D01*
X197582307Y-91101965D01*
X197620593Y-91071670D01*
X197732554Y-91014622D01*
X197786716Y-90975270D01*
X197786717Y-90975270D01*
X197154408Y-90342962D01*
X197217993Y-90325925D01*
X197332007Y-90260099D01*
X197425099Y-90167007D01*
X197490925Y-90052993D01*
X197507962Y-89989409D01*
X198145436Y-90626883D01*
G37*
%TD.AperFunction*%
%TA.AperFunction,Conductor*%
G36*
X176489112Y-73442876D02*
G01*
X177537314Y-73482096D01*
X177541925Y-73482355D01*
X178587979Y-73560746D01*
X178592519Y-73561172D01*
X179634930Y-73678624D01*
X179639451Y-73679219D01*
X180660518Y-73833120D01*
X180676719Y-73835562D01*
X180681292Y-73836339D01*
X181711953Y-74031350D01*
X181716445Y-74032287D01*
X182739123Y-74265707D01*
X182743590Y-74266814D01*
X183756833Y-74538312D01*
X183761250Y-74539585D01*
X184763607Y-74848771D01*
X184767971Y-74850206D01*
X185758138Y-75196680D01*
X185762412Y-75198267D01*
X186738849Y-75581490D01*
X186743096Y-75583249D01*
X187704575Y-76002738D01*
X187708758Y-76004658D01*
X188653848Y-76459789D01*
X188657963Y-76461867D01*
X189585350Y-76952005D01*
X189589396Y-76954241D01*
X190497801Y-77478709D01*
X190501771Y-77481101D01*
X191389952Y-78039182D01*
X191393792Y-78041696D01*
X192051522Y-78490128D01*
X192260500Y-78632607D01*
X192264282Y-78635291D01*
X193108272Y-79258184D01*
X193111895Y-79260965D01*
X193874280Y-79868946D01*
X193932019Y-79914991D01*
X193935548Y-79917914D01*
X194730710Y-80602206D01*
X194734094Y-80605232D01*
X195443227Y-81263211D01*
X195503026Y-81318696D01*
X195506366Y-81321913D01*
X196248086Y-82063633D01*
X196251303Y-82066973D01*
X196964764Y-82835902D01*
X196967795Y-82839292D01*
X197652080Y-83634445D01*
X197655003Y-83637974D01*
X198309028Y-84458096D01*
X198311821Y-84461735D01*
X198372615Y-84544108D01*
X198934708Y-85305717D01*
X198937392Y-85309499D01*
X199528290Y-86176187D01*
X199530830Y-86180067D01*
X200088897Y-87068226D01*
X200091290Y-87072198D01*
X200615758Y-87980603D01*
X200618001Y-87984662D01*
X200774965Y-88281653D01*
X200788887Y-88350121D01*
X200763582Y-88415248D01*
X200707084Y-88456354D01*
X200667243Y-88463579D01*
X198300000Y-88499999D01*
X198299999Y-88500000D01*
X198291458Y-88978254D01*
X198270580Y-89044931D01*
X198216967Y-89089736D01*
X198157749Y-89099658D01*
X198140269Y-89098282D01*
X197507962Y-89730590D01*
X197490925Y-89667007D01*
X197425099Y-89552993D01*
X197332007Y-89459901D01*
X197217993Y-89394075D01*
X197154409Y-89377037D01*
X197786716Y-88744728D01*
X197732550Y-88705375D01*
X197543217Y-88608904D01*
X197341129Y-88543242D01*
X197131246Y-88510000D01*
X196918754Y-88510000D01*
X196708872Y-88543242D01*
X196708869Y-88543242D01*
X196506782Y-88608904D01*
X196317439Y-88705380D01*
X196263282Y-88744727D01*
X196263282Y-88744728D01*
X196895591Y-89377037D01*
X196832007Y-89394075D01*
X196717993Y-89459901D01*
X196624901Y-89552993D01*
X196559075Y-89667007D01*
X196542037Y-89730591D01*
X195900210Y-89088764D01*
X195889382Y-89077935D01*
X195883096Y-89066423D01*
X195875000Y-88630000D01*
X190025000Y-79525000D01*
X158831387Y-79525000D01*
X158803698Y-79516869D01*
X158775320Y-79511601D01*
X158770583Y-79507145D01*
X158764348Y-79505315D01*
X158745453Y-79483509D01*
X158724425Y-79463731D01*
X158722848Y-79457422D01*
X158718593Y-79452511D01*
X158714486Y-79423948D01*
X158707490Y-79395945D01*
X158709574Y-79389787D01*
X158708649Y-79383353D01*
X158720638Y-79357100D01*
X158729891Y-79329764D01*
X158736171Y-79323086D01*
X158737674Y-79319797D01*
X158754072Y-79304055D01*
X158772796Y-79289122D01*
X158808114Y-79260957D01*
X158811701Y-79258203D01*
X159655736Y-78635277D01*
X159659480Y-78632620D01*
X160526231Y-78041679D01*
X160530022Y-78039198D01*
X161418251Y-77481086D01*
X161422172Y-77478724D01*
X162330637Y-76954221D01*
X162334626Y-76952017D01*
X163262057Y-76461855D01*
X163266130Y-76459799D01*
X164211261Y-76004648D01*
X164215404Y-76002747D01*
X165176921Y-75583241D01*
X165181131Y-75581498D01*
X166157604Y-75198260D01*
X166161843Y-75196686D01*
X167152044Y-74850201D01*
X167156376Y-74848776D01*
X168158763Y-74539581D01*
X168163151Y-74538316D01*
X169176421Y-74266811D01*
X169180864Y-74265710D01*
X170203565Y-74032284D01*
X170208036Y-74031352D01*
X171238716Y-73836337D01*
X171243272Y-73835563D01*
X172280555Y-73679218D01*
X172285062Y-73678624D01*
X173327485Y-73561171D01*
X173332015Y-73560747D01*
X174378077Y-73482355D01*
X174382682Y-73482096D01*
X175430888Y-73442876D01*
X175435524Y-73442789D01*
X176484476Y-73442789D01*
X176489112Y-73442876D01*
G37*
%TD.AperFunction*%
%TD*%
M02*
