M48
; DRILL file {KiCad 8.0.0} date 2024-06-21T16:47:30+0530
; FORMAT={-:-/ absolute / inch / decimal}
; #@! TF.CreationDate,2024-06-21T16:47:30+05:30
; #@! TF.GenerationSoftware,Kicad,Pcbnew,8.0.0
; #@! TF.FileFunction,Plated,1,2,PTH
FMAT,2
INCH
; #@! TA.AperFunction,Plated,PTH,ViaDrill
T1C0.0118
; #@! TA.AperFunction,Plated,PTH,ComponentDrill
T2C0.0300
; #@! TA.AperFunction,Plated,PTH,ComponentDrill
T3C0.0340
; #@! TA.AperFunction,Plated,PTH,ComponentDrill
T4C0.0394
%
G90
G05
T1
X2.2756Y-3.6339
X2.2756Y-3.6811
X2.2761Y-1.8529
X2.2953Y-2.1791
X2.2953Y-2.2264
X2.3228Y-3.6358
X2.3228Y-3.6811
X2.3307Y-1.9724
X2.3425Y-2.1811
X2.3425Y-2.2264
X2.5886Y-2.8228
X2.7156Y-3.0069
X2.7224Y-3.189
X2.7283Y-3.2677
X2.94Y-2.5837
X2.9705Y-3.4232
X2.9823Y-3.1654
X3.0079Y-2.9646
X3.0118Y-3.0512
X3.0571Y-3.3366
X3.0689Y-3.2352
X3.3228Y-3.3262
X3.3228Y-3.9714
X3.3307Y-2.4331
X3.4154Y-4.1004
X3.4567Y-2.6791
X3.4764Y-3.2717
X3.4764Y-3.3189
X3.5236Y-3.2736
X3.5236Y-3.3189
X3.5827Y-3.7549
X3.6083Y-2.7638
X3.7028Y-3.9587
X3.7151Y-4.1969
X3.7874Y-3.2441
X3.8484Y-2.7047
X3.9055Y-3.1246
X3.9114Y-2.8474
X4.1378Y-3.3888
X4.321Y-3.0629
X4.3661Y-3.3031
X4.4114Y-3.6831
X4.4114Y-3.7303
X4.4291Y-2.561
X4.4291Y-2.6083
X4.4587Y-3.685
X4.4587Y-3.7303
X4.4764Y-2.563
X4.4764Y-2.6083
T2
X3.0583Y-2.2673
X3.0583Y-2.4673
X3.1583Y-2.3673
T3
X2.836Y-3.9764
X3.1352Y-3.9764
T4
X2.2638Y-2.8921
X2.2638Y-2.9921
X2.2638Y-3.3154
X2.2638Y-3.4154
X3.9951Y-4.2323
X4.0951Y-4.2323
X4.6665Y-1.855
X4.6742Y-1.5846
X4.7665Y-1.855
X4.7742Y-1.5846
M30
