%TF.GenerationSoftware,KiCad,Pcbnew,8.0.0*%
%TF.CreationDate,2024-06-21T16:47:30+05:30*%
%TF.ProjectId,HV_POWER_SUPPLY,48565f50-4f57-4455-925f-535550504c59,rev?*%
%TF.SameCoordinates,Original*%
%TF.FileFunction,Legend,Top*%
%TF.FilePolarity,Positive*%
%FSLAX46Y46*%
G04 Gerber Fmt 4.6, Leading zero omitted, Abs format (unit mm)*
G04 Created by KiCad (PCBNEW 8.0.0) date 2024-06-21 16:47:30*
%MOMM*%
%LPD*%
G01*
G04 APERTURE LIST*
G04 Aperture macros list*
%AMRoundRect*
0 Rectangle with rounded corners*
0 $1 Rounding radius*
0 $2 $3 $4 $5 $6 $7 $8 $9 X,Y pos of 4 corners*
0 Add a 4 corners polygon primitive as box body*
4,1,4,$2,$3,$4,$5,$6,$7,$8,$9,$2,$3,0*
0 Add four circle primitives for the rounded corners*
1,1,$1+$1,$2,$3*
1,1,$1+$1,$4,$5*
1,1,$1+$1,$6,$7*
1,1,$1+$1,$8,$9*
0 Add four rect primitives between the rounded corners*
20,1,$1+$1,$2,$3,$4,$5,0*
20,1,$1+$1,$4,$5,$6,$7,0*
20,1,$1+$1,$6,$7,$8,$9,0*
20,1,$1+$1,$8,$9,$2,$3,0*%
G04 Aperture macros list end*
%ADD10C,0.100000*%
%ADD11C,0.150000*%
%ADD12C,0.254000*%
%ADD13C,0.120000*%
%ADD14C,0.152400*%
%ADD15C,0.151994*%
%ADD16C,0.059995*%
%ADD17C,0.240005*%
%ADD18C,0.150013*%
%ADD19C,0.200000*%
%ADD20C,0.300000*%
%ADD21RoundRect,0.218750X-0.256250X0.218750X-0.256250X-0.218750X0.256250X-0.218750X0.256250X0.218750X0*%
%ADD22R,1.000000X0.750013*%
%ADD23O,1.700000X1.700000*%
%ADD24C,1.700000*%
%ADD25RoundRect,0.225000X0.225000X0.250000X-0.225000X0.250000X-0.225000X-0.250000X0.225000X-0.250000X0*%
%ADD26R,1.700000X1.700000*%
%ADD27R,0.600000X1.070003*%
%ADD28RoundRect,0.250000X-0.262500X-0.450000X0.262500X-0.450000X0.262500X0.450000X-0.262500X0.450000X0*%
%ADD29RoundRect,0.250000X-0.325000X-0.650000X0.325000X-0.650000X0.325000X0.650000X-0.325000X0.650000X0*%
%ADD30R,0.876300X0.508000*%
%ADD31RoundRect,0.250000X0.650000X-0.325000X0.650000X0.325000X-0.650000X0.325000X-0.650000X-0.325000X0*%
%ADD32RoundRect,0.250000X-0.650000X0.325000X-0.650000X-0.325000X0.650000X-0.325000X0.650000X0.325000X0*%
%ADD33R,1.397003X0.405994*%
%ADD34RoundRect,0.225000X-0.250000X0.225000X-0.250000X-0.225000X0.250000X-0.225000X0.250000X0.225000X0*%
%ADD35R,2.300000X6.600000*%
%ADD36C,1.371600*%
%ADD37R,1.371600X1.371600*%
%ADD38RoundRect,0.250000X0.325000X0.650000X-0.325000X0.650000X-0.325000X-0.650000X0.325000X-0.650000X0*%
%ADD39RoundRect,0.200000X0.200000X0.275000X-0.200000X0.275000X-0.200000X-0.275000X0.200000X-0.275000X0*%
%ADD40C,1.524003*%
%ADD41RoundRect,0.250000X-0.450000X0.262500X-0.450000X-0.262500X0.450000X-0.262500X0.450000X0.262500X0*%
%ADD42C,3.200000*%
%ADD43RoundRect,0.225000X0.250000X-0.225000X0.250000X0.225000X-0.250000X0.225000X-0.250000X-0.225000X0*%
%ADD44R,0.750013X1.000000*%
%ADD45RoundRect,0.250000X0.450000X-0.262500X0.450000X0.262500X-0.450000X0.262500X-0.450000X-0.262500X0*%
%ADD46O,2.045009X0.588011*%
%ADD47R,0.800000X0.532004*%
%ADD48RoundRect,0.250000X-0.250000X-0.475000X0.250000X-0.475000X0.250000X0.475000X-0.250000X0.475000X0*%
%ADD49RoundRect,0.250000X0.262500X0.450000X-0.262500X0.450000X-0.262500X-0.450000X0.262500X-0.450000X0*%
%ADD50RoundRect,0.225000X-0.225000X-0.250000X0.225000X-0.250000X0.225000X0.250000X-0.225000X0.250000X0*%
%ADD51R,0.850013X0.350013*%
%ADD52R,1.000000X1.000000*%
G04 APERTURE END LIST*
D10*
X60103884Y-74072419D02*
X60103884Y-73072419D01*
X60103884Y-73548609D02*
X60675312Y-73548609D01*
X60675312Y-74072419D02*
X60675312Y-73072419D01*
X61008646Y-73072419D02*
X61341979Y-74072419D01*
X61341979Y-74072419D02*
X61675312Y-73072419D01*
X62770551Y-74072419D02*
X62770551Y-73072419D01*
X62770551Y-73072419D02*
X63151503Y-73072419D01*
X63151503Y-73072419D02*
X63246741Y-73120038D01*
X63246741Y-73120038D02*
X63294360Y-73167657D01*
X63294360Y-73167657D02*
X63341979Y-73262895D01*
X63341979Y-73262895D02*
X63341979Y-73405752D01*
X63341979Y-73405752D02*
X63294360Y-73500990D01*
X63294360Y-73500990D02*
X63246741Y-73548609D01*
X63246741Y-73548609D02*
X63151503Y-73596228D01*
X63151503Y-73596228D02*
X62770551Y-73596228D01*
X64294360Y-73120038D02*
X64199122Y-73072419D01*
X64199122Y-73072419D02*
X64056265Y-73072419D01*
X64056265Y-73072419D02*
X63913408Y-73120038D01*
X63913408Y-73120038D02*
X63818170Y-73215276D01*
X63818170Y-73215276D02*
X63770551Y-73310514D01*
X63770551Y-73310514D02*
X63722932Y-73500990D01*
X63722932Y-73500990D02*
X63722932Y-73643847D01*
X63722932Y-73643847D02*
X63770551Y-73834323D01*
X63770551Y-73834323D02*
X63818170Y-73929561D01*
X63818170Y-73929561D02*
X63913408Y-74024800D01*
X63913408Y-74024800D02*
X64056265Y-74072419D01*
X64056265Y-74072419D02*
X64151503Y-74072419D01*
X64151503Y-74072419D02*
X64294360Y-74024800D01*
X64294360Y-74024800D02*
X64341979Y-73977180D01*
X64341979Y-73977180D02*
X64341979Y-73643847D01*
X64341979Y-73643847D02*
X64151503Y-73643847D01*
X120677693Y-42170038D02*
X120582455Y-42122419D01*
X120582455Y-42122419D02*
X120439598Y-42122419D01*
X120439598Y-42122419D02*
X120296741Y-42170038D01*
X120296741Y-42170038D02*
X120201503Y-42265276D01*
X120201503Y-42265276D02*
X120153884Y-42360514D01*
X120153884Y-42360514D02*
X120106265Y-42550990D01*
X120106265Y-42550990D02*
X120106265Y-42693847D01*
X120106265Y-42693847D02*
X120153884Y-42884323D01*
X120153884Y-42884323D02*
X120201503Y-42979561D01*
X120201503Y-42979561D02*
X120296741Y-43074800D01*
X120296741Y-43074800D02*
X120439598Y-43122419D01*
X120439598Y-43122419D02*
X120534836Y-43122419D01*
X120534836Y-43122419D02*
X120677693Y-43074800D01*
X120677693Y-43074800D02*
X120725312Y-43027180D01*
X120725312Y-43027180D02*
X120725312Y-42693847D01*
X120725312Y-42693847D02*
X120534836Y-42693847D01*
X121153884Y-43122419D02*
X121153884Y-42122419D01*
X121153884Y-42122419D02*
X121725312Y-43122419D01*
X121725312Y-43122419D02*
X121725312Y-42122419D01*
X122201503Y-43122419D02*
X122201503Y-42122419D01*
X122201503Y-42122419D02*
X122439598Y-42122419D01*
X122439598Y-42122419D02*
X122582455Y-42170038D01*
X122582455Y-42170038D02*
X122677693Y-42265276D01*
X122677693Y-42265276D02*
X122725312Y-42360514D01*
X122725312Y-42360514D02*
X122772931Y-42550990D01*
X122772931Y-42550990D02*
X122772931Y-42693847D01*
X122772931Y-42693847D02*
X122725312Y-42884323D01*
X122725312Y-42884323D02*
X122677693Y-42979561D01*
X122677693Y-42979561D02*
X122582455Y-43074800D01*
X122582455Y-43074800D02*
X122439598Y-43122419D01*
X122439598Y-43122419D02*
X122201503Y-43122419D01*
X101922419Y-105796113D02*
X100922419Y-105796113D01*
X100922419Y-105129447D02*
X100922419Y-104938971D01*
X100922419Y-104938971D02*
X100970038Y-104843733D01*
X100970038Y-104843733D02*
X101065276Y-104748495D01*
X101065276Y-104748495D02*
X101255752Y-104700876D01*
X101255752Y-104700876D02*
X101589085Y-104700876D01*
X101589085Y-104700876D02*
X101779561Y-104748495D01*
X101779561Y-104748495D02*
X101874800Y-104843733D01*
X101874800Y-104843733D02*
X101922419Y-104938971D01*
X101922419Y-104938971D02*
X101922419Y-105129447D01*
X101922419Y-105129447D02*
X101874800Y-105224685D01*
X101874800Y-105224685D02*
X101779561Y-105319923D01*
X101779561Y-105319923D02*
X101589085Y-105367542D01*
X101589085Y-105367542D02*
X101255752Y-105367542D01*
X101255752Y-105367542D02*
X101065276Y-105319923D01*
X101065276Y-105319923D02*
X100970038Y-105224685D01*
X100970038Y-105224685D02*
X100922419Y-105129447D01*
X101922419Y-102938971D02*
X101446228Y-103272304D01*
X101922419Y-103510399D02*
X100922419Y-103510399D01*
X100922419Y-103510399D02*
X100922419Y-103129447D01*
X100922419Y-103129447D02*
X100970038Y-103034209D01*
X100970038Y-103034209D02*
X101017657Y-102986590D01*
X101017657Y-102986590D02*
X101112895Y-102938971D01*
X101112895Y-102938971D02*
X101255752Y-102938971D01*
X101255752Y-102938971D02*
X101350990Y-102986590D01*
X101350990Y-102986590D02*
X101398609Y-103034209D01*
X101398609Y-103034209D02*
X101446228Y-103129447D01*
X101446228Y-103129447D02*
X101446228Y-103510399D01*
X101398609Y-102510399D02*
X101398609Y-102177066D01*
X101922419Y-102034209D02*
X101922419Y-102510399D01*
X101922419Y-102510399D02*
X100922419Y-102510399D01*
X100922419Y-102510399D02*
X100922419Y-102034209D01*
X101398609Y-101272304D02*
X101398609Y-101605637D01*
X101922419Y-101605637D02*
X100922419Y-101605637D01*
X100922419Y-101605637D02*
X100922419Y-101129447D01*
X60427693Y-86420038D02*
X60332455Y-86372419D01*
X60332455Y-86372419D02*
X60189598Y-86372419D01*
X60189598Y-86372419D02*
X60046741Y-86420038D01*
X60046741Y-86420038D02*
X59951503Y-86515276D01*
X59951503Y-86515276D02*
X59903884Y-86610514D01*
X59903884Y-86610514D02*
X59856265Y-86800990D01*
X59856265Y-86800990D02*
X59856265Y-86943847D01*
X59856265Y-86943847D02*
X59903884Y-87134323D01*
X59903884Y-87134323D02*
X59951503Y-87229561D01*
X59951503Y-87229561D02*
X60046741Y-87324800D01*
X60046741Y-87324800D02*
X60189598Y-87372419D01*
X60189598Y-87372419D02*
X60284836Y-87372419D01*
X60284836Y-87372419D02*
X60427693Y-87324800D01*
X60427693Y-87324800D02*
X60475312Y-87277180D01*
X60475312Y-87277180D02*
X60475312Y-86943847D01*
X60475312Y-86943847D02*
X60284836Y-86943847D01*
X60903884Y-87372419D02*
X60903884Y-86372419D01*
X60903884Y-86372419D02*
X61475312Y-87372419D01*
X61475312Y-87372419D02*
X61475312Y-86372419D01*
X61951503Y-87372419D02*
X61951503Y-86372419D01*
X61951503Y-86372419D02*
X62189598Y-86372419D01*
X62189598Y-86372419D02*
X62332455Y-86420038D01*
X62332455Y-86420038D02*
X62427693Y-86515276D01*
X62427693Y-86515276D02*
X62475312Y-86610514D01*
X62475312Y-86610514D02*
X62522931Y-86800990D01*
X62522931Y-86800990D02*
X62522931Y-86943847D01*
X62522931Y-86943847D02*
X62475312Y-87134323D01*
X62475312Y-87134323D02*
X62427693Y-87229561D01*
X62427693Y-87229561D02*
X62332455Y-87324800D01*
X62332455Y-87324800D02*
X62189598Y-87372419D01*
X62189598Y-87372419D02*
X61951503Y-87372419D01*
X103720038Y-105072306D02*
X103672419Y-105167544D01*
X103672419Y-105167544D02*
X103672419Y-105310401D01*
X103672419Y-105310401D02*
X103720038Y-105453258D01*
X103720038Y-105453258D02*
X103815276Y-105548496D01*
X103815276Y-105548496D02*
X103910514Y-105596115D01*
X103910514Y-105596115D02*
X104100990Y-105643734D01*
X104100990Y-105643734D02*
X104243847Y-105643734D01*
X104243847Y-105643734D02*
X104434323Y-105596115D01*
X104434323Y-105596115D02*
X104529561Y-105548496D01*
X104529561Y-105548496D02*
X104624800Y-105453258D01*
X104624800Y-105453258D02*
X104672419Y-105310401D01*
X104672419Y-105310401D02*
X104672419Y-105215163D01*
X104672419Y-105215163D02*
X104624800Y-105072306D01*
X104624800Y-105072306D02*
X104577180Y-105024687D01*
X104577180Y-105024687D02*
X104243847Y-105024687D01*
X104243847Y-105024687D02*
X104243847Y-105215163D01*
X104672419Y-104596115D02*
X103672419Y-104596115D01*
X103672419Y-104596115D02*
X104672419Y-104024687D01*
X104672419Y-104024687D02*
X103672419Y-104024687D01*
X104672419Y-103548496D02*
X103672419Y-103548496D01*
X103672419Y-103548496D02*
X103672419Y-103310401D01*
X103672419Y-103310401D02*
X103720038Y-103167544D01*
X103720038Y-103167544D02*
X103815276Y-103072306D01*
X103815276Y-103072306D02*
X103910514Y-103024687D01*
X103910514Y-103024687D02*
X104100990Y-102977068D01*
X104100990Y-102977068D02*
X104243847Y-102977068D01*
X104243847Y-102977068D02*
X104434323Y-103024687D01*
X104434323Y-103024687D02*
X104529561Y-103072306D01*
X104529561Y-103072306D02*
X104624800Y-103167544D01*
X104624800Y-103167544D02*
X104672419Y-103310401D01*
X104672419Y-103310401D02*
X104672419Y-103548496D01*
X59656267Y-84574800D02*
X59799124Y-84622419D01*
X59799124Y-84622419D02*
X60037219Y-84622419D01*
X60037219Y-84622419D02*
X60132457Y-84574800D01*
X60132457Y-84574800D02*
X60180076Y-84527180D01*
X60180076Y-84527180D02*
X60227695Y-84431942D01*
X60227695Y-84431942D02*
X60227695Y-84336704D01*
X60227695Y-84336704D02*
X60180076Y-84241466D01*
X60180076Y-84241466D02*
X60132457Y-84193847D01*
X60132457Y-84193847D02*
X60037219Y-84146228D01*
X60037219Y-84146228D02*
X59846743Y-84098609D01*
X59846743Y-84098609D02*
X59751505Y-84050990D01*
X59751505Y-84050990D02*
X59703886Y-84003371D01*
X59703886Y-84003371D02*
X59656267Y-83908133D01*
X59656267Y-83908133D02*
X59656267Y-83812895D01*
X59656267Y-83812895D02*
X59703886Y-83717657D01*
X59703886Y-83717657D02*
X59751505Y-83670038D01*
X59751505Y-83670038D02*
X59846743Y-83622419D01*
X59846743Y-83622419D02*
X60084838Y-83622419D01*
X60084838Y-83622419D02*
X60227695Y-83670038D01*
X60846743Y-84146228D02*
X60846743Y-84622419D01*
X60513410Y-83622419D02*
X60846743Y-84146228D01*
X60846743Y-84146228D02*
X61180076Y-83622419D01*
X61465791Y-84574800D02*
X61608648Y-84622419D01*
X61608648Y-84622419D02*
X61846743Y-84622419D01*
X61846743Y-84622419D02*
X61941981Y-84574800D01*
X61941981Y-84574800D02*
X61989600Y-84527180D01*
X61989600Y-84527180D02*
X62037219Y-84431942D01*
X62037219Y-84431942D02*
X62037219Y-84336704D01*
X62037219Y-84336704D02*
X61989600Y-84241466D01*
X61989600Y-84241466D02*
X61941981Y-84193847D01*
X61941981Y-84193847D02*
X61846743Y-84146228D01*
X61846743Y-84146228D02*
X61656267Y-84098609D01*
X61656267Y-84098609D02*
X61561029Y-84050990D01*
X61561029Y-84050990D02*
X61513410Y-84003371D01*
X61513410Y-84003371D02*
X61465791Y-83908133D01*
X61465791Y-83908133D02*
X61465791Y-83812895D01*
X61465791Y-83812895D02*
X61513410Y-83717657D01*
X61513410Y-83717657D02*
X61561029Y-83670038D01*
X61561029Y-83670038D02*
X61656267Y-83622419D01*
X61656267Y-83622419D02*
X61894362Y-83622419D01*
X61894362Y-83622419D02*
X62037219Y-83670038D01*
X63703886Y-83622419D02*
X63227696Y-83622419D01*
X63227696Y-83622419D02*
X63180077Y-84098609D01*
X63180077Y-84098609D02*
X63227696Y-84050990D01*
X63227696Y-84050990D02*
X63322934Y-84003371D01*
X63322934Y-84003371D02*
X63561029Y-84003371D01*
X63561029Y-84003371D02*
X63656267Y-84050990D01*
X63656267Y-84050990D02*
X63703886Y-84098609D01*
X63703886Y-84098609D02*
X63751505Y-84193847D01*
X63751505Y-84193847D02*
X63751505Y-84431942D01*
X63751505Y-84431942D02*
X63703886Y-84527180D01*
X63703886Y-84527180D02*
X63656267Y-84574800D01*
X63656267Y-84574800D02*
X63561029Y-84622419D01*
X63561029Y-84622419D02*
X63322934Y-84622419D01*
X63322934Y-84622419D02*
X63227696Y-84574800D01*
X63227696Y-84574800D02*
X63180077Y-84527180D01*
X64037220Y-83622419D02*
X64370553Y-84622419D01*
X64370553Y-84622419D02*
X64703886Y-83622419D01*
X60827691Y-75870038D02*
X60732453Y-75822419D01*
X60732453Y-75822419D02*
X60589596Y-75822419D01*
X60589596Y-75822419D02*
X60446739Y-75870038D01*
X60446739Y-75870038D02*
X60351501Y-75965276D01*
X60351501Y-75965276D02*
X60303882Y-76060514D01*
X60303882Y-76060514D02*
X60256263Y-76250990D01*
X60256263Y-76250990D02*
X60256263Y-76393847D01*
X60256263Y-76393847D02*
X60303882Y-76584323D01*
X60303882Y-76584323D02*
X60351501Y-76679561D01*
X60351501Y-76679561D02*
X60446739Y-76774800D01*
X60446739Y-76774800D02*
X60589596Y-76822419D01*
X60589596Y-76822419D02*
X60684834Y-76822419D01*
X60684834Y-76822419D02*
X60827691Y-76774800D01*
X60827691Y-76774800D02*
X60875310Y-76727180D01*
X60875310Y-76727180D02*
X60875310Y-76393847D01*
X60875310Y-76393847D02*
X60684834Y-76393847D01*
X61303882Y-76822419D02*
X61303882Y-75822419D01*
X61303882Y-75822419D02*
X61875310Y-76822419D01*
X61875310Y-76822419D02*
X61875310Y-75822419D01*
X62351501Y-76822419D02*
X62351501Y-75822419D01*
X62351501Y-75822419D02*
X62589596Y-75822419D01*
X62589596Y-75822419D02*
X62732453Y-75870038D01*
X62732453Y-75870038D02*
X62827691Y-75965276D01*
X62827691Y-75965276D02*
X62875310Y-76060514D01*
X62875310Y-76060514D02*
X62922929Y-76250990D01*
X62922929Y-76250990D02*
X62922929Y-76393847D01*
X62922929Y-76393847D02*
X62875310Y-76584323D01*
X62875310Y-76584323D02*
X62827691Y-76679561D01*
X62827691Y-76679561D02*
X62732453Y-76774800D01*
X62732453Y-76774800D02*
X62589596Y-76822419D01*
X62589596Y-76822419D02*
X62351501Y-76822419D01*
D11*
X92304819Y-97369047D02*
X92304819Y-97845237D01*
X92304819Y-97845237D02*
X91304819Y-97845237D01*
X91781009Y-97035713D02*
X91781009Y-96702380D01*
X92304819Y-96559523D02*
X92304819Y-97035713D01*
X92304819Y-97035713D02*
X91304819Y-97035713D01*
X91304819Y-97035713D02*
X91304819Y-96559523D01*
X92304819Y-96130951D02*
X91304819Y-96130951D01*
X91304819Y-96130951D02*
X91304819Y-95892856D01*
X91304819Y-95892856D02*
X91352438Y-95749999D01*
X91352438Y-95749999D02*
X91447676Y-95654761D01*
X91447676Y-95654761D02*
X91542914Y-95607142D01*
X91542914Y-95607142D02*
X91733390Y-95559523D01*
X91733390Y-95559523D02*
X91876247Y-95559523D01*
X91876247Y-95559523D02*
X92066723Y-95607142D01*
X92066723Y-95607142D02*
X92161961Y-95654761D01*
X92161961Y-95654761D02*
X92257200Y-95749999D01*
X92257200Y-95749999D02*
X92304819Y-95892856D01*
X92304819Y-95892856D02*
X92304819Y-96130951D01*
X92304819Y-94607142D02*
X92304819Y-95178570D01*
X92304819Y-94892856D02*
X91304819Y-94892856D01*
X91304819Y-94892856D02*
X91447676Y-94988094D01*
X91447676Y-94988094D02*
X91542914Y-95083332D01*
X91542914Y-95083332D02*
X91590533Y-95178570D01*
X112061905Y-81204819D02*
X112061905Y-80204819D01*
X112061905Y-80204819D02*
X112300000Y-80204819D01*
X112300000Y-80204819D02*
X112442857Y-80252438D01*
X112442857Y-80252438D02*
X112538095Y-80347676D01*
X112538095Y-80347676D02*
X112585714Y-80442914D01*
X112585714Y-80442914D02*
X112633333Y-80633390D01*
X112633333Y-80633390D02*
X112633333Y-80776247D01*
X112633333Y-80776247D02*
X112585714Y-80966723D01*
X112585714Y-80966723D02*
X112538095Y-81061961D01*
X112538095Y-81061961D02*
X112442857Y-81157200D01*
X112442857Y-81157200D02*
X112300000Y-81204819D01*
X112300000Y-81204819D02*
X112061905Y-81204819D01*
X112966667Y-80204819D02*
X113585714Y-80204819D01*
X113585714Y-80204819D02*
X113252381Y-80585771D01*
X113252381Y-80585771D02*
X113395238Y-80585771D01*
X113395238Y-80585771D02*
X113490476Y-80633390D01*
X113490476Y-80633390D02*
X113538095Y-80681009D01*
X113538095Y-80681009D02*
X113585714Y-80776247D01*
X113585714Y-80776247D02*
X113585714Y-81014342D01*
X113585714Y-81014342D02*
X113538095Y-81109580D01*
X113538095Y-81109580D02*
X113490476Y-81157200D01*
X113490476Y-81157200D02*
X113395238Y-81204819D01*
X113395238Y-81204819D02*
X113109524Y-81204819D01*
X113109524Y-81204819D02*
X113014286Y-81157200D01*
X113014286Y-81157200D02*
X112966667Y-81109580D01*
X112011905Y-83404819D02*
X112011905Y-82404819D01*
X112011905Y-82404819D02*
X112250000Y-82404819D01*
X112250000Y-82404819D02*
X112392857Y-82452438D01*
X112392857Y-82452438D02*
X112488095Y-82547676D01*
X112488095Y-82547676D02*
X112535714Y-82642914D01*
X112535714Y-82642914D02*
X112583333Y-82833390D01*
X112583333Y-82833390D02*
X112583333Y-82976247D01*
X112583333Y-82976247D02*
X112535714Y-83166723D01*
X112535714Y-83166723D02*
X112488095Y-83261961D01*
X112488095Y-83261961D02*
X112392857Y-83357200D01*
X112392857Y-83357200D02*
X112250000Y-83404819D01*
X112250000Y-83404819D02*
X112011905Y-83404819D01*
X112964286Y-82500057D02*
X113011905Y-82452438D01*
X113011905Y-82452438D02*
X113107143Y-82404819D01*
X113107143Y-82404819D02*
X113345238Y-82404819D01*
X113345238Y-82404819D02*
X113440476Y-82452438D01*
X113440476Y-82452438D02*
X113488095Y-82500057D01*
X113488095Y-82500057D02*
X113535714Y-82595295D01*
X113535714Y-82595295D02*
X113535714Y-82690533D01*
X113535714Y-82690533D02*
X113488095Y-82833390D01*
X113488095Y-82833390D02*
X112916667Y-83404819D01*
X112916667Y-83404819D02*
X113535714Y-83404819D01*
X56361905Y-46054819D02*
X56361905Y-45054819D01*
X56361905Y-45054819D02*
X56600000Y-45054819D01*
X56600000Y-45054819D02*
X56742857Y-45102438D01*
X56742857Y-45102438D02*
X56838095Y-45197676D01*
X56838095Y-45197676D02*
X56885714Y-45292914D01*
X56885714Y-45292914D02*
X56933333Y-45483390D01*
X56933333Y-45483390D02*
X56933333Y-45626247D01*
X56933333Y-45626247D02*
X56885714Y-45816723D01*
X56885714Y-45816723D02*
X56838095Y-45911961D01*
X56838095Y-45911961D02*
X56742857Y-46007200D01*
X56742857Y-46007200D02*
X56600000Y-46054819D01*
X56600000Y-46054819D02*
X56361905Y-46054819D01*
X57885714Y-46054819D02*
X57314286Y-46054819D01*
X57600000Y-46054819D02*
X57600000Y-45054819D01*
X57600000Y-45054819D02*
X57504762Y-45197676D01*
X57504762Y-45197676D02*
X57409524Y-45292914D01*
X57409524Y-45292914D02*
X57314286Y-45340533D01*
X67983333Y-83459580D02*
X67935714Y-83507200D01*
X67935714Y-83507200D02*
X67792857Y-83554819D01*
X67792857Y-83554819D02*
X67697619Y-83554819D01*
X67697619Y-83554819D02*
X67554762Y-83507200D01*
X67554762Y-83507200D02*
X67459524Y-83411961D01*
X67459524Y-83411961D02*
X67411905Y-83316723D01*
X67411905Y-83316723D02*
X67364286Y-83126247D01*
X67364286Y-83126247D02*
X67364286Y-82983390D01*
X67364286Y-82983390D02*
X67411905Y-82792914D01*
X67411905Y-82792914D02*
X67459524Y-82697676D01*
X67459524Y-82697676D02*
X67554762Y-82602438D01*
X67554762Y-82602438D02*
X67697619Y-82554819D01*
X67697619Y-82554819D02*
X67792857Y-82554819D01*
X67792857Y-82554819D02*
X67935714Y-82602438D01*
X67935714Y-82602438D02*
X67983333Y-82650057D01*
X68935714Y-83554819D02*
X68364286Y-83554819D01*
X68650000Y-83554819D02*
X68650000Y-82554819D01*
X68650000Y-82554819D02*
X68554762Y-82697676D01*
X68554762Y-82697676D02*
X68459524Y-82792914D01*
X68459524Y-82792914D02*
X68364286Y-82840533D01*
X107066666Y-107704819D02*
X107066666Y-108419104D01*
X107066666Y-108419104D02*
X107019047Y-108561961D01*
X107019047Y-108561961D02*
X106923809Y-108657200D01*
X106923809Y-108657200D02*
X106780952Y-108704819D01*
X106780952Y-108704819D02*
X106685714Y-108704819D01*
X108066666Y-108704819D02*
X107495238Y-108704819D01*
X107780952Y-108704819D02*
X107780952Y-107704819D01*
X107780952Y-107704819D02*
X107685714Y-107847676D01*
X107685714Y-107847676D02*
X107590476Y-107942914D01*
X107590476Y-107942914D02*
X107495238Y-107990533D01*
X102331907Y-41454819D02*
X102331907Y-42264342D01*
X102331907Y-42264342D02*
X102379526Y-42359580D01*
X102379526Y-42359580D02*
X102427145Y-42407200D01*
X102427145Y-42407200D02*
X102522383Y-42454819D01*
X102522383Y-42454819D02*
X102712859Y-42454819D01*
X102712859Y-42454819D02*
X102808097Y-42407200D01*
X102808097Y-42407200D02*
X102855716Y-42359580D01*
X102855716Y-42359580D02*
X102903335Y-42264342D01*
X102903335Y-42264342D02*
X102903335Y-41454819D01*
X103903335Y-42454819D02*
X103331907Y-42454819D01*
X103617621Y-42454819D02*
X103617621Y-41454819D01*
X103617621Y-41454819D02*
X103522383Y-41597676D01*
X103522383Y-41597676D02*
X103427145Y-41692914D01*
X103427145Y-41692914D02*
X103331907Y-41740533D01*
X104522383Y-41454819D02*
X104617621Y-41454819D01*
X104617621Y-41454819D02*
X104712859Y-41502438D01*
X104712859Y-41502438D02*
X104760478Y-41550057D01*
X104760478Y-41550057D02*
X104808097Y-41645295D01*
X104808097Y-41645295D02*
X104855716Y-41835771D01*
X104855716Y-41835771D02*
X104855716Y-42073866D01*
X104855716Y-42073866D02*
X104808097Y-42264342D01*
X104808097Y-42264342D02*
X104760478Y-42359580D01*
X104760478Y-42359580D02*
X104712859Y-42407200D01*
X104712859Y-42407200D02*
X104617621Y-42454819D01*
X104617621Y-42454819D02*
X104522383Y-42454819D01*
X104522383Y-42454819D02*
X104427145Y-42407200D01*
X104427145Y-42407200D02*
X104379526Y-42359580D01*
X104379526Y-42359580D02*
X104331907Y-42264342D01*
X104331907Y-42264342D02*
X104284288Y-42073866D01*
X104284288Y-42073866D02*
X104284288Y-41835771D01*
X104284288Y-41835771D02*
X104331907Y-41645295D01*
X104331907Y-41645295D02*
X104379526Y-41550057D01*
X104379526Y-41550057D02*
X104427145Y-41502438D01*
X104427145Y-41502438D02*
X104522383Y-41454819D01*
X83807142Y-106554819D02*
X83473809Y-106078628D01*
X83235714Y-106554819D02*
X83235714Y-105554819D01*
X83235714Y-105554819D02*
X83616666Y-105554819D01*
X83616666Y-105554819D02*
X83711904Y-105602438D01*
X83711904Y-105602438D02*
X83759523Y-105650057D01*
X83759523Y-105650057D02*
X83807142Y-105745295D01*
X83807142Y-105745295D02*
X83807142Y-105888152D01*
X83807142Y-105888152D02*
X83759523Y-105983390D01*
X83759523Y-105983390D02*
X83711904Y-106031009D01*
X83711904Y-106031009D02*
X83616666Y-106078628D01*
X83616666Y-106078628D02*
X83235714Y-106078628D01*
X84188095Y-105650057D02*
X84235714Y-105602438D01*
X84235714Y-105602438D02*
X84330952Y-105554819D01*
X84330952Y-105554819D02*
X84569047Y-105554819D01*
X84569047Y-105554819D02*
X84664285Y-105602438D01*
X84664285Y-105602438D02*
X84711904Y-105650057D01*
X84711904Y-105650057D02*
X84759523Y-105745295D01*
X84759523Y-105745295D02*
X84759523Y-105840533D01*
X84759523Y-105840533D02*
X84711904Y-105983390D01*
X84711904Y-105983390D02*
X84140476Y-106554819D01*
X84140476Y-106554819D02*
X84759523Y-106554819D01*
X85140476Y-105650057D02*
X85188095Y-105602438D01*
X85188095Y-105602438D02*
X85283333Y-105554819D01*
X85283333Y-105554819D02*
X85521428Y-105554819D01*
X85521428Y-105554819D02*
X85616666Y-105602438D01*
X85616666Y-105602438D02*
X85664285Y-105650057D01*
X85664285Y-105650057D02*
X85711904Y-105745295D01*
X85711904Y-105745295D02*
X85711904Y-105840533D01*
X85711904Y-105840533D02*
X85664285Y-105983390D01*
X85664285Y-105983390D02*
X85092857Y-106554819D01*
X85092857Y-106554819D02*
X85711904Y-106554819D01*
X74333333Y-87454819D02*
X74000000Y-86978628D01*
X73761905Y-87454819D02*
X73761905Y-86454819D01*
X73761905Y-86454819D02*
X74142857Y-86454819D01*
X74142857Y-86454819D02*
X74238095Y-86502438D01*
X74238095Y-86502438D02*
X74285714Y-86550057D01*
X74285714Y-86550057D02*
X74333333Y-86645295D01*
X74333333Y-86645295D02*
X74333333Y-86788152D01*
X74333333Y-86788152D02*
X74285714Y-86883390D01*
X74285714Y-86883390D02*
X74238095Y-86931009D01*
X74238095Y-86931009D02*
X74142857Y-86978628D01*
X74142857Y-86978628D02*
X73761905Y-86978628D01*
X74714286Y-86550057D02*
X74761905Y-86502438D01*
X74761905Y-86502438D02*
X74857143Y-86454819D01*
X74857143Y-86454819D02*
X75095238Y-86454819D01*
X75095238Y-86454819D02*
X75190476Y-86502438D01*
X75190476Y-86502438D02*
X75238095Y-86550057D01*
X75238095Y-86550057D02*
X75285714Y-86645295D01*
X75285714Y-86645295D02*
X75285714Y-86740533D01*
X75285714Y-86740533D02*
X75238095Y-86883390D01*
X75238095Y-86883390D02*
X74666667Y-87454819D01*
X74666667Y-87454819D02*
X75285714Y-87454819D01*
X71950702Y-50509580D02*
X71903083Y-50557200D01*
X71903083Y-50557200D02*
X71760226Y-50604819D01*
X71760226Y-50604819D02*
X71664988Y-50604819D01*
X71664988Y-50604819D02*
X71522131Y-50557200D01*
X71522131Y-50557200D02*
X71426893Y-50461961D01*
X71426893Y-50461961D02*
X71379274Y-50366723D01*
X71379274Y-50366723D02*
X71331655Y-50176247D01*
X71331655Y-50176247D02*
X71331655Y-50033390D01*
X71331655Y-50033390D02*
X71379274Y-49842914D01*
X71379274Y-49842914D02*
X71426893Y-49747676D01*
X71426893Y-49747676D02*
X71522131Y-49652438D01*
X71522131Y-49652438D02*
X71664988Y-49604819D01*
X71664988Y-49604819D02*
X71760226Y-49604819D01*
X71760226Y-49604819D02*
X71903083Y-49652438D01*
X71903083Y-49652438D02*
X71950702Y-49700057D01*
X72522131Y-50033390D02*
X72426893Y-49985771D01*
X72426893Y-49985771D02*
X72379274Y-49938152D01*
X72379274Y-49938152D02*
X72331655Y-49842914D01*
X72331655Y-49842914D02*
X72331655Y-49795295D01*
X72331655Y-49795295D02*
X72379274Y-49700057D01*
X72379274Y-49700057D02*
X72426893Y-49652438D01*
X72426893Y-49652438D02*
X72522131Y-49604819D01*
X72522131Y-49604819D02*
X72712607Y-49604819D01*
X72712607Y-49604819D02*
X72807845Y-49652438D01*
X72807845Y-49652438D02*
X72855464Y-49700057D01*
X72855464Y-49700057D02*
X72903083Y-49795295D01*
X72903083Y-49795295D02*
X72903083Y-49842914D01*
X72903083Y-49842914D02*
X72855464Y-49938152D01*
X72855464Y-49938152D02*
X72807845Y-49985771D01*
X72807845Y-49985771D02*
X72712607Y-50033390D01*
X72712607Y-50033390D02*
X72522131Y-50033390D01*
X72522131Y-50033390D02*
X72426893Y-50081009D01*
X72426893Y-50081009D02*
X72379274Y-50128628D01*
X72379274Y-50128628D02*
X72331655Y-50223866D01*
X72331655Y-50223866D02*
X72331655Y-50414342D01*
X72331655Y-50414342D02*
X72379274Y-50509580D01*
X72379274Y-50509580D02*
X72426893Y-50557200D01*
X72426893Y-50557200D02*
X72522131Y-50604819D01*
X72522131Y-50604819D02*
X72712607Y-50604819D01*
X72712607Y-50604819D02*
X72807845Y-50557200D01*
X72807845Y-50557200D02*
X72855464Y-50509580D01*
X72855464Y-50509580D02*
X72903083Y-50414342D01*
X72903083Y-50414342D02*
X72903083Y-50223866D01*
X72903083Y-50223866D02*
X72855464Y-50128628D01*
X72855464Y-50128628D02*
X72807845Y-50081009D01*
X72807845Y-50081009D02*
X72712607Y-50033390D01*
X103207142Y-50509580D02*
X103159523Y-50557200D01*
X103159523Y-50557200D02*
X103016666Y-50604819D01*
X103016666Y-50604819D02*
X102921428Y-50604819D01*
X102921428Y-50604819D02*
X102778571Y-50557200D01*
X102778571Y-50557200D02*
X102683333Y-50461961D01*
X102683333Y-50461961D02*
X102635714Y-50366723D01*
X102635714Y-50366723D02*
X102588095Y-50176247D01*
X102588095Y-50176247D02*
X102588095Y-50033390D01*
X102588095Y-50033390D02*
X102635714Y-49842914D01*
X102635714Y-49842914D02*
X102683333Y-49747676D01*
X102683333Y-49747676D02*
X102778571Y-49652438D01*
X102778571Y-49652438D02*
X102921428Y-49604819D01*
X102921428Y-49604819D02*
X103016666Y-49604819D01*
X103016666Y-49604819D02*
X103159523Y-49652438D01*
X103159523Y-49652438D02*
X103207142Y-49700057D01*
X104159523Y-50604819D02*
X103588095Y-50604819D01*
X103873809Y-50604819D02*
X103873809Y-49604819D01*
X103873809Y-49604819D02*
X103778571Y-49747676D01*
X103778571Y-49747676D02*
X103683333Y-49842914D01*
X103683333Y-49842914D02*
X103588095Y-49890533D01*
X104730952Y-50033390D02*
X104635714Y-49985771D01*
X104635714Y-49985771D02*
X104588095Y-49938152D01*
X104588095Y-49938152D02*
X104540476Y-49842914D01*
X104540476Y-49842914D02*
X104540476Y-49795295D01*
X104540476Y-49795295D02*
X104588095Y-49700057D01*
X104588095Y-49700057D02*
X104635714Y-49652438D01*
X104635714Y-49652438D02*
X104730952Y-49604819D01*
X104730952Y-49604819D02*
X104921428Y-49604819D01*
X104921428Y-49604819D02*
X105016666Y-49652438D01*
X105016666Y-49652438D02*
X105064285Y-49700057D01*
X105064285Y-49700057D02*
X105111904Y-49795295D01*
X105111904Y-49795295D02*
X105111904Y-49842914D01*
X105111904Y-49842914D02*
X105064285Y-49938152D01*
X105064285Y-49938152D02*
X105016666Y-49985771D01*
X105016666Y-49985771D02*
X104921428Y-50033390D01*
X104921428Y-50033390D02*
X104730952Y-50033390D01*
X104730952Y-50033390D02*
X104635714Y-50081009D01*
X104635714Y-50081009D02*
X104588095Y-50128628D01*
X104588095Y-50128628D02*
X104540476Y-50223866D01*
X104540476Y-50223866D02*
X104540476Y-50414342D01*
X104540476Y-50414342D02*
X104588095Y-50509580D01*
X104588095Y-50509580D02*
X104635714Y-50557200D01*
X104635714Y-50557200D02*
X104730952Y-50604819D01*
X104730952Y-50604819D02*
X104921428Y-50604819D01*
X104921428Y-50604819D02*
X105016666Y-50557200D01*
X105016666Y-50557200D02*
X105064285Y-50509580D01*
X105064285Y-50509580D02*
X105111904Y-50414342D01*
X105111904Y-50414342D02*
X105111904Y-50223866D01*
X105111904Y-50223866D02*
X105064285Y-50128628D01*
X105064285Y-50128628D02*
X105016666Y-50081009D01*
X105016666Y-50081009D02*
X104921428Y-50033390D01*
X84058097Y-41454819D02*
X84058097Y-42264342D01*
X84058097Y-42264342D02*
X84105716Y-42359580D01*
X84105716Y-42359580D02*
X84153335Y-42407200D01*
X84153335Y-42407200D02*
X84248573Y-42454819D01*
X84248573Y-42454819D02*
X84439049Y-42454819D01*
X84439049Y-42454819D02*
X84534287Y-42407200D01*
X84534287Y-42407200D02*
X84581906Y-42359580D01*
X84581906Y-42359580D02*
X84629525Y-42264342D01*
X84629525Y-42264342D02*
X84629525Y-41454819D01*
X85010478Y-41454819D02*
X85677144Y-41454819D01*
X85677144Y-41454819D02*
X85248573Y-42454819D01*
X96808097Y-41454819D02*
X96808097Y-42264342D01*
X96808097Y-42264342D02*
X96855716Y-42359580D01*
X96855716Y-42359580D02*
X96903335Y-42407200D01*
X96903335Y-42407200D02*
X96998573Y-42454819D01*
X96998573Y-42454819D02*
X97189049Y-42454819D01*
X97189049Y-42454819D02*
X97284287Y-42407200D01*
X97284287Y-42407200D02*
X97331906Y-42359580D01*
X97331906Y-42359580D02*
X97379525Y-42264342D01*
X97379525Y-42264342D02*
X97379525Y-41454819D01*
X97903335Y-42454819D02*
X98093811Y-42454819D01*
X98093811Y-42454819D02*
X98189049Y-42407200D01*
X98189049Y-42407200D02*
X98236668Y-42359580D01*
X98236668Y-42359580D02*
X98331906Y-42216723D01*
X98331906Y-42216723D02*
X98379525Y-42026247D01*
X98379525Y-42026247D02*
X98379525Y-41645295D01*
X98379525Y-41645295D02*
X98331906Y-41550057D01*
X98331906Y-41550057D02*
X98284287Y-41502438D01*
X98284287Y-41502438D02*
X98189049Y-41454819D01*
X98189049Y-41454819D02*
X97998573Y-41454819D01*
X97998573Y-41454819D02*
X97903335Y-41502438D01*
X97903335Y-41502438D02*
X97855716Y-41550057D01*
X97855716Y-41550057D02*
X97808097Y-41645295D01*
X97808097Y-41645295D02*
X97808097Y-41883390D01*
X97808097Y-41883390D02*
X97855716Y-41978628D01*
X97855716Y-41978628D02*
X97903335Y-42026247D01*
X97903335Y-42026247D02*
X97998573Y-42073866D01*
X97998573Y-42073866D02*
X98189049Y-42073866D01*
X98189049Y-42073866D02*
X98284287Y-42026247D01*
X98284287Y-42026247D02*
X98331906Y-41978628D01*
X98331906Y-41978628D02*
X98379525Y-41883390D01*
X81043333Y-81609580D02*
X80995714Y-81657200D01*
X80995714Y-81657200D02*
X80852857Y-81704819D01*
X80852857Y-81704819D02*
X80757619Y-81704819D01*
X80757619Y-81704819D02*
X80614762Y-81657200D01*
X80614762Y-81657200D02*
X80519524Y-81561961D01*
X80519524Y-81561961D02*
X80471905Y-81466723D01*
X80471905Y-81466723D02*
X80424286Y-81276247D01*
X80424286Y-81276247D02*
X80424286Y-81133390D01*
X80424286Y-81133390D02*
X80471905Y-80942914D01*
X80471905Y-80942914D02*
X80519524Y-80847676D01*
X80519524Y-80847676D02*
X80614762Y-80752438D01*
X80614762Y-80752438D02*
X80757619Y-80704819D01*
X80757619Y-80704819D02*
X80852857Y-80704819D01*
X80852857Y-80704819D02*
X80995714Y-80752438D01*
X80995714Y-80752438D02*
X81043333Y-80800057D01*
X81424286Y-80800057D02*
X81471905Y-80752438D01*
X81471905Y-80752438D02*
X81567143Y-80704819D01*
X81567143Y-80704819D02*
X81805238Y-80704819D01*
X81805238Y-80704819D02*
X81900476Y-80752438D01*
X81900476Y-80752438D02*
X81948095Y-80800057D01*
X81948095Y-80800057D02*
X81995714Y-80895295D01*
X81995714Y-80895295D02*
X81995714Y-80990533D01*
X81995714Y-80990533D02*
X81948095Y-81133390D01*
X81948095Y-81133390D02*
X81376667Y-81704819D01*
X81376667Y-81704819D02*
X81995714Y-81704819D01*
X88011905Y-105454819D02*
X88011905Y-106264342D01*
X88011905Y-106264342D02*
X88059524Y-106359580D01*
X88059524Y-106359580D02*
X88107143Y-106407200D01*
X88107143Y-106407200D02*
X88202381Y-106454819D01*
X88202381Y-106454819D02*
X88392857Y-106454819D01*
X88392857Y-106454819D02*
X88488095Y-106407200D01*
X88488095Y-106407200D02*
X88535714Y-106359580D01*
X88535714Y-106359580D02*
X88583333Y-106264342D01*
X88583333Y-106264342D02*
X88583333Y-105454819D01*
X89583333Y-106454819D02*
X89011905Y-106454819D01*
X89297619Y-106454819D02*
X89297619Y-105454819D01*
X89297619Y-105454819D02*
X89202381Y-105597676D01*
X89202381Y-105597676D02*
X89107143Y-105692914D01*
X89107143Y-105692914D02*
X89011905Y-105740533D01*
X90488095Y-105454819D02*
X90011905Y-105454819D01*
X90011905Y-105454819D02*
X89964286Y-105931009D01*
X89964286Y-105931009D02*
X90011905Y-105883390D01*
X90011905Y-105883390D02*
X90107143Y-105835771D01*
X90107143Y-105835771D02*
X90345238Y-105835771D01*
X90345238Y-105835771D02*
X90440476Y-105883390D01*
X90440476Y-105883390D02*
X90488095Y-105931009D01*
X90488095Y-105931009D02*
X90535714Y-106026247D01*
X90535714Y-106026247D02*
X90535714Y-106264342D01*
X90535714Y-106264342D02*
X90488095Y-106359580D01*
X90488095Y-106359580D02*
X90440476Y-106407200D01*
X90440476Y-106407200D02*
X90345238Y-106454819D01*
X90345238Y-106454819D02*
X90107143Y-106454819D01*
X90107143Y-106454819D02*
X90011905Y-106407200D01*
X90011905Y-106407200D02*
X89964286Y-106359580D01*
X107309580Y-48742857D02*
X107357200Y-48790476D01*
X107357200Y-48790476D02*
X107404819Y-48933333D01*
X107404819Y-48933333D02*
X107404819Y-49028571D01*
X107404819Y-49028571D02*
X107357200Y-49171428D01*
X107357200Y-49171428D02*
X107261961Y-49266666D01*
X107261961Y-49266666D02*
X107166723Y-49314285D01*
X107166723Y-49314285D02*
X106976247Y-49361904D01*
X106976247Y-49361904D02*
X106833390Y-49361904D01*
X106833390Y-49361904D02*
X106642914Y-49314285D01*
X106642914Y-49314285D02*
X106547676Y-49266666D01*
X106547676Y-49266666D02*
X106452438Y-49171428D01*
X106452438Y-49171428D02*
X106404819Y-49028571D01*
X106404819Y-49028571D02*
X106404819Y-48933333D01*
X106404819Y-48933333D02*
X106452438Y-48790476D01*
X106452438Y-48790476D02*
X106500057Y-48742857D01*
X107404819Y-47790476D02*
X107404819Y-48361904D01*
X107404819Y-48076190D02*
X106404819Y-48076190D01*
X106404819Y-48076190D02*
X106547676Y-48171428D01*
X106547676Y-48171428D02*
X106642914Y-48266666D01*
X106642914Y-48266666D02*
X106690533Y-48361904D01*
X107404819Y-47314285D02*
X107404819Y-47123809D01*
X107404819Y-47123809D02*
X107357200Y-47028571D01*
X107357200Y-47028571D02*
X107309580Y-46980952D01*
X107309580Y-46980952D02*
X107166723Y-46885714D01*
X107166723Y-46885714D02*
X106976247Y-46838095D01*
X106976247Y-46838095D02*
X106595295Y-46838095D01*
X106595295Y-46838095D02*
X106500057Y-46885714D01*
X106500057Y-46885714D02*
X106452438Y-46933333D01*
X106452438Y-46933333D02*
X106404819Y-47028571D01*
X106404819Y-47028571D02*
X106404819Y-47219047D01*
X106404819Y-47219047D02*
X106452438Y-47314285D01*
X106452438Y-47314285D02*
X106500057Y-47361904D01*
X106500057Y-47361904D02*
X106595295Y-47409523D01*
X106595295Y-47409523D02*
X106833390Y-47409523D01*
X106833390Y-47409523D02*
X106928628Y-47361904D01*
X106928628Y-47361904D02*
X106976247Y-47314285D01*
X106976247Y-47314285D02*
X107023866Y-47219047D01*
X107023866Y-47219047D02*
X107023866Y-47028571D01*
X107023866Y-47028571D02*
X106976247Y-46933333D01*
X106976247Y-46933333D02*
X106928628Y-46885714D01*
X106928628Y-46885714D02*
X106833390Y-46838095D01*
X91714399Y-74139922D02*
X91381066Y-73663731D01*
X91142971Y-74139922D02*
X91142971Y-73139922D01*
X91142971Y-73139922D02*
X91523923Y-73139922D01*
X91523923Y-73139922D02*
X91619161Y-73187541D01*
X91619161Y-73187541D02*
X91666780Y-73235160D01*
X91666780Y-73235160D02*
X91714399Y-73330398D01*
X91714399Y-73330398D02*
X91714399Y-73473255D01*
X91714399Y-73473255D02*
X91666780Y-73568493D01*
X91666780Y-73568493D02*
X91619161Y-73616112D01*
X91619161Y-73616112D02*
X91523923Y-73663731D01*
X91523923Y-73663731D02*
X91142971Y-73663731D01*
X92666780Y-74139922D02*
X92095352Y-74139922D01*
X92381066Y-74139922D02*
X92381066Y-73139922D01*
X92381066Y-73139922D02*
X92285828Y-73282779D01*
X92285828Y-73282779D02*
X92190590Y-73378017D01*
X92190590Y-73378017D02*
X92095352Y-73425636D01*
X93523923Y-73139922D02*
X93333447Y-73139922D01*
X93333447Y-73139922D02*
X93238209Y-73187541D01*
X93238209Y-73187541D02*
X93190590Y-73235160D01*
X93190590Y-73235160D02*
X93095352Y-73378017D01*
X93095352Y-73378017D02*
X93047733Y-73568493D01*
X93047733Y-73568493D02*
X93047733Y-73949445D01*
X93047733Y-73949445D02*
X93095352Y-74044683D01*
X93095352Y-74044683D02*
X93142971Y-74092303D01*
X93142971Y-74092303D02*
X93238209Y-74139922D01*
X93238209Y-74139922D02*
X93428685Y-74139922D01*
X93428685Y-74139922D02*
X93523923Y-74092303D01*
X93523923Y-74092303D02*
X93571542Y-74044683D01*
X93571542Y-74044683D02*
X93619161Y-73949445D01*
X93619161Y-73949445D02*
X93619161Y-73711350D01*
X93619161Y-73711350D02*
X93571542Y-73616112D01*
X93571542Y-73616112D02*
X93523923Y-73568493D01*
X93523923Y-73568493D02*
X93428685Y-73520874D01*
X93428685Y-73520874D02*
X93238209Y-73520874D01*
X93238209Y-73520874D02*
X93142971Y-73568493D01*
X93142971Y-73568493D02*
X93095352Y-73616112D01*
X93095352Y-73616112D02*
X93047733Y-73711350D01*
X75859580Y-48466666D02*
X75907200Y-48514285D01*
X75907200Y-48514285D02*
X75954819Y-48657142D01*
X75954819Y-48657142D02*
X75954819Y-48752380D01*
X75954819Y-48752380D02*
X75907200Y-48895237D01*
X75907200Y-48895237D02*
X75811961Y-48990475D01*
X75811961Y-48990475D02*
X75716723Y-49038094D01*
X75716723Y-49038094D02*
X75526247Y-49085713D01*
X75526247Y-49085713D02*
X75383390Y-49085713D01*
X75383390Y-49085713D02*
X75192914Y-49038094D01*
X75192914Y-49038094D02*
X75097676Y-48990475D01*
X75097676Y-48990475D02*
X75002438Y-48895237D01*
X75002438Y-48895237D02*
X74954819Y-48752380D01*
X74954819Y-48752380D02*
X74954819Y-48657142D01*
X74954819Y-48657142D02*
X75002438Y-48514285D01*
X75002438Y-48514285D02*
X75050057Y-48466666D01*
X75954819Y-47990475D02*
X75954819Y-47799999D01*
X75954819Y-47799999D02*
X75907200Y-47704761D01*
X75907200Y-47704761D02*
X75859580Y-47657142D01*
X75859580Y-47657142D02*
X75716723Y-47561904D01*
X75716723Y-47561904D02*
X75526247Y-47514285D01*
X75526247Y-47514285D02*
X75145295Y-47514285D01*
X75145295Y-47514285D02*
X75050057Y-47561904D01*
X75050057Y-47561904D02*
X75002438Y-47609523D01*
X75002438Y-47609523D02*
X74954819Y-47704761D01*
X74954819Y-47704761D02*
X74954819Y-47895237D01*
X74954819Y-47895237D02*
X75002438Y-47990475D01*
X75002438Y-47990475D02*
X75050057Y-48038094D01*
X75050057Y-48038094D02*
X75145295Y-48085713D01*
X75145295Y-48085713D02*
X75383390Y-48085713D01*
X75383390Y-48085713D02*
X75478628Y-48038094D01*
X75478628Y-48038094D02*
X75526247Y-47990475D01*
X75526247Y-47990475D02*
X75573866Y-47895237D01*
X75573866Y-47895237D02*
X75573866Y-47704761D01*
X75573866Y-47704761D02*
X75526247Y-47609523D01*
X75526247Y-47609523D02*
X75478628Y-47561904D01*
X75478628Y-47561904D02*
X75383390Y-47514285D01*
X94211930Y-67334931D02*
X94211930Y-68144454D01*
X94211930Y-68144454D02*
X94259549Y-68239692D01*
X94259549Y-68239692D02*
X94307168Y-68287312D01*
X94307168Y-68287312D02*
X94402406Y-68334931D01*
X94402406Y-68334931D02*
X94592882Y-68334931D01*
X94592882Y-68334931D02*
X94688120Y-68287312D01*
X94688120Y-68287312D02*
X94735739Y-68239692D01*
X94735739Y-68239692D02*
X94783358Y-68144454D01*
X94783358Y-68144454D02*
X94783358Y-67334931D01*
X95783358Y-68334931D02*
X95211930Y-68334931D01*
X95497644Y-68334931D02*
X95497644Y-67334931D01*
X95497644Y-67334931D02*
X95402406Y-67477788D01*
X95402406Y-67477788D02*
X95307168Y-67573026D01*
X95307168Y-67573026D02*
X95211930Y-67620645D01*
X96116692Y-67334931D02*
X96735739Y-67334931D01*
X96735739Y-67334931D02*
X96402406Y-67715883D01*
X96402406Y-67715883D02*
X96545263Y-67715883D01*
X96545263Y-67715883D02*
X96640501Y-67763502D01*
X96640501Y-67763502D02*
X96688120Y-67811121D01*
X96688120Y-67811121D02*
X96735739Y-67906359D01*
X96735739Y-67906359D02*
X96735739Y-68144454D01*
X96735739Y-68144454D02*
X96688120Y-68239692D01*
X96688120Y-68239692D02*
X96640501Y-68287312D01*
X96640501Y-68287312D02*
X96545263Y-68334931D01*
X96545263Y-68334931D02*
X96259549Y-68334931D01*
X96259549Y-68334931D02*
X96164311Y-68287312D01*
X96164311Y-68287312D02*
X96116692Y-68239692D01*
X112707142Y-61409580D02*
X112659523Y-61457200D01*
X112659523Y-61457200D02*
X112516666Y-61504819D01*
X112516666Y-61504819D02*
X112421428Y-61504819D01*
X112421428Y-61504819D02*
X112278571Y-61457200D01*
X112278571Y-61457200D02*
X112183333Y-61361961D01*
X112183333Y-61361961D02*
X112135714Y-61266723D01*
X112135714Y-61266723D02*
X112088095Y-61076247D01*
X112088095Y-61076247D02*
X112088095Y-60933390D01*
X112088095Y-60933390D02*
X112135714Y-60742914D01*
X112135714Y-60742914D02*
X112183333Y-60647676D01*
X112183333Y-60647676D02*
X112278571Y-60552438D01*
X112278571Y-60552438D02*
X112421428Y-60504819D01*
X112421428Y-60504819D02*
X112516666Y-60504819D01*
X112516666Y-60504819D02*
X112659523Y-60552438D01*
X112659523Y-60552438D02*
X112707142Y-60600057D01*
X113088095Y-60600057D02*
X113135714Y-60552438D01*
X113135714Y-60552438D02*
X113230952Y-60504819D01*
X113230952Y-60504819D02*
X113469047Y-60504819D01*
X113469047Y-60504819D02*
X113564285Y-60552438D01*
X113564285Y-60552438D02*
X113611904Y-60600057D01*
X113611904Y-60600057D02*
X113659523Y-60695295D01*
X113659523Y-60695295D02*
X113659523Y-60790533D01*
X113659523Y-60790533D02*
X113611904Y-60933390D01*
X113611904Y-60933390D02*
X113040476Y-61504819D01*
X113040476Y-61504819D02*
X113659523Y-61504819D01*
X113992857Y-60504819D02*
X114611904Y-60504819D01*
X114611904Y-60504819D02*
X114278571Y-60885771D01*
X114278571Y-60885771D02*
X114421428Y-60885771D01*
X114421428Y-60885771D02*
X114516666Y-60933390D01*
X114516666Y-60933390D02*
X114564285Y-60981009D01*
X114564285Y-60981009D02*
X114611904Y-61076247D01*
X114611904Y-61076247D02*
X114611904Y-61314342D01*
X114611904Y-61314342D02*
X114564285Y-61409580D01*
X114564285Y-61409580D02*
X114516666Y-61457200D01*
X114516666Y-61457200D02*
X114421428Y-61504819D01*
X114421428Y-61504819D02*
X114135714Y-61504819D01*
X114135714Y-61504819D02*
X114040476Y-61457200D01*
X114040476Y-61457200D02*
X113992857Y-61409580D01*
X123666666Y-39954819D02*
X123666666Y-40669104D01*
X123666666Y-40669104D02*
X123619047Y-40811961D01*
X123619047Y-40811961D02*
X123523809Y-40907200D01*
X123523809Y-40907200D02*
X123380952Y-40954819D01*
X123380952Y-40954819D02*
X123285714Y-40954819D01*
X124047619Y-39954819D02*
X124666666Y-39954819D01*
X124666666Y-39954819D02*
X124333333Y-40335771D01*
X124333333Y-40335771D02*
X124476190Y-40335771D01*
X124476190Y-40335771D02*
X124571428Y-40383390D01*
X124571428Y-40383390D02*
X124619047Y-40431009D01*
X124619047Y-40431009D02*
X124666666Y-40526247D01*
X124666666Y-40526247D02*
X124666666Y-40764342D01*
X124666666Y-40764342D02*
X124619047Y-40859580D01*
X124619047Y-40859580D02*
X124571428Y-40907200D01*
X124571428Y-40907200D02*
X124476190Y-40954819D01*
X124476190Y-40954819D02*
X124190476Y-40954819D01*
X124190476Y-40954819D02*
X124095238Y-40907200D01*
X124095238Y-40907200D02*
X124047619Y-40859580D01*
X86257141Y-60509580D02*
X86209522Y-60557200D01*
X86209522Y-60557200D02*
X86066665Y-60604819D01*
X86066665Y-60604819D02*
X85971427Y-60604819D01*
X85971427Y-60604819D02*
X85828570Y-60557200D01*
X85828570Y-60557200D02*
X85733332Y-60461961D01*
X85733332Y-60461961D02*
X85685713Y-60366723D01*
X85685713Y-60366723D02*
X85638094Y-60176247D01*
X85638094Y-60176247D02*
X85638094Y-60033390D01*
X85638094Y-60033390D02*
X85685713Y-59842914D01*
X85685713Y-59842914D02*
X85733332Y-59747676D01*
X85733332Y-59747676D02*
X85828570Y-59652438D01*
X85828570Y-59652438D02*
X85971427Y-59604819D01*
X85971427Y-59604819D02*
X86066665Y-59604819D01*
X86066665Y-59604819D02*
X86209522Y-59652438D01*
X86209522Y-59652438D02*
X86257141Y-59700057D01*
X86638094Y-59700057D02*
X86685713Y-59652438D01*
X86685713Y-59652438D02*
X86780951Y-59604819D01*
X86780951Y-59604819D02*
X87019046Y-59604819D01*
X87019046Y-59604819D02*
X87114284Y-59652438D01*
X87114284Y-59652438D02*
X87161903Y-59700057D01*
X87161903Y-59700057D02*
X87209522Y-59795295D01*
X87209522Y-59795295D02*
X87209522Y-59890533D01*
X87209522Y-59890533D02*
X87161903Y-60033390D01*
X87161903Y-60033390D02*
X86590475Y-60604819D01*
X86590475Y-60604819D02*
X87209522Y-60604819D01*
X88161903Y-60604819D02*
X87590475Y-60604819D01*
X87876189Y-60604819D02*
X87876189Y-59604819D01*
X87876189Y-59604819D02*
X87780951Y-59747676D01*
X87780951Y-59747676D02*
X87685713Y-59842914D01*
X87685713Y-59842914D02*
X87590475Y-59890533D01*
X92854558Y-81609580D02*
X92806939Y-81657200D01*
X92806939Y-81657200D02*
X92664082Y-81704819D01*
X92664082Y-81704819D02*
X92568844Y-81704819D01*
X92568844Y-81704819D02*
X92425987Y-81657200D01*
X92425987Y-81657200D02*
X92330749Y-81561961D01*
X92330749Y-81561961D02*
X92283130Y-81466723D01*
X92283130Y-81466723D02*
X92235511Y-81276247D01*
X92235511Y-81276247D02*
X92235511Y-81133390D01*
X92235511Y-81133390D02*
X92283130Y-80942914D01*
X92283130Y-80942914D02*
X92330749Y-80847676D01*
X92330749Y-80847676D02*
X92425987Y-80752438D01*
X92425987Y-80752438D02*
X92568844Y-80704819D01*
X92568844Y-80704819D02*
X92664082Y-80704819D01*
X92664082Y-80704819D02*
X92806939Y-80752438D01*
X92806939Y-80752438D02*
X92854558Y-80800057D01*
X93235511Y-80800057D02*
X93283130Y-80752438D01*
X93283130Y-80752438D02*
X93378368Y-80704819D01*
X93378368Y-80704819D02*
X93616463Y-80704819D01*
X93616463Y-80704819D02*
X93711701Y-80752438D01*
X93711701Y-80752438D02*
X93759320Y-80800057D01*
X93759320Y-80800057D02*
X93806939Y-80895295D01*
X93806939Y-80895295D02*
X93806939Y-80990533D01*
X93806939Y-80990533D02*
X93759320Y-81133390D01*
X93759320Y-81133390D02*
X93187892Y-81704819D01*
X93187892Y-81704819D02*
X93806939Y-81704819D01*
X94711701Y-80704819D02*
X94235511Y-80704819D01*
X94235511Y-80704819D02*
X94187892Y-81181009D01*
X94187892Y-81181009D02*
X94235511Y-81133390D01*
X94235511Y-81133390D02*
X94330749Y-81085771D01*
X94330749Y-81085771D02*
X94568844Y-81085771D01*
X94568844Y-81085771D02*
X94664082Y-81133390D01*
X94664082Y-81133390D02*
X94711701Y-81181009D01*
X94711701Y-81181009D02*
X94759320Y-81276247D01*
X94759320Y-81276247D02*
X94759320Y-81514342D01*
X94759320Y-81514342D02*
X94711701Y-81609580D01*
X94711701Y-81609580D02*
X94664082Y-81657200D01*
X94664082Y-81657200D02*
X94568844Y-81704819D01*
X94568844Y-81704819D02*
X94330749Y-81704819D01*
X94330749Y-81704819D02*
X94235511Y-81657200D01*
X94235511Y-81657200D02*
X94187892Y-81609580D01*
D12*
X85638333Y-79424318D02*
X85033571Y-79424318D01*
X85033571Y-79424318D02*
X85033571Y-78154318D01*
X86726905Y-79424318D02*
X86001190Y-79424318D01*
X86364047Y-79424318D02*
X86364047Y-78154318D01*
X86364047Y-78154318D02*
X86243095Y-78335746D01*
X86243095Y-78335746D02*
X86122143Y-78456699D01*
X86122143Y-78456699D02*
X86001190Y-78517175D01*
D11*
X77440085Y-50509580D02*
X77392466Y-50557200D01*
X77392466Y-50557200D02*
X77249609Y-50604819D01*
X77249609Y-50604819D02*
X77154371Y-50604819D01*
X77154371Y-50604819D02*
X77011514Y-50557200D01*
X77011514Y-50557200D02*
X76916276Y-50461961D01*
X76916276Y-50461961D02*
X76868657Y-50366723D01*
X76868657Y-50366723D02*
X76821038Y-50176247D01*
X76821038Y-50176247D02*
X76821038Y-50033390D01*
X76821038Y-50033390D02*
X76868657Y-49842914D01*
X76868657Y-49842914D02*
X76916276Y-49747676D01*
X76916276Y-49747676D02*
X77011514Y-49652438D01*
X77011514Y-49652438D02*
X77154371Y-49604819D01*
X77154371Y-49604819D02*
X77249609Y-49604819D01*
X77249609Y-49604819D02*
X77392466Y-49652438D01*
X77392466Y-49652438D02*
X77440085Y-49700057D01*
X78392466Y-50604819D02*
X77821038Y-50604819D01*
X78106752Y-50604819D02*
X78106752Y-49604819D01*
X78106752Y-49604819D02*
X78011514Y-49747676D01*
X78011514Y-49747676D02*
X77916276Y-49842914D01*
X77916276Y-49842914D02*
X77821038Y-49890533D01*
X79011514Y-49604819D02*
X79106752Y-49604819D01*
X79106752Y-49604819D02*
X79201990Y-49652438D01*
X79201990Y-49652438D02*
X79249609Y-49700057D01*
X79249609Y-49700057D02*
X79297228Y-49795295D01*
X79297228Y-49795295D02*
X79344847Y-49985771D01*
X79344847Y-49985771D02*
X79344847Y-50223866D01*
X79344847Y-50223866D02*
X79297228Y-50414342D01*
X79297228Y-50414342D02*
X79249609Y-50509580D01*
X79249609Y-50509580D02*
X79201990Y-50557200D01*
X79201990Y-50557200D02*
X79106752Y-50604819D01*
X79106752Y-50604819D02*
X79011514Y-50604819D01*
X79011514Y-50604819D02*
X78916276Y-50557200D01*
X78916276Y-50557200D02*
X78868657Y-50509580D01*
X78868657Y-50509580D02*
X78821038Y-50414342D01*
X78821038Y-50414342D02*
X78773419Y-50223866D01*
X78773419Y-50223866D02*
X78773419Y-49985771D01*
X78773419Y-49985771D02*
X78821038Y-49795295D01*
X78821038Y-49795295D02*
X78868657Y-49700057D01*
X78868657Y-49700057D02*
X78916276Y-49652438D01*
X78916276Y-49652438D02*
X79011514Y-49604819D01*
X73661905Y-107554819D02*
X73661905Y-108364342D01*
X73661905Y-108364342D02*
X73709524Y-108459580D01*
X73709524Y-108459580D02*
X73757143Y-108507200D01*
X73757143Y-108507200D02*
X73852381Y-108554819D01*
X73852381Y-108554819D02*
X74042857Y-108554819D01*
X74042857Y-108554819D02*
X74138095Y-108507200D01*
X74138095Y-108507200D02*
X74185714Y-108459580D01*
X74185714Y-108459580D02*
X74233333Y-108364342D01*
X74233333Y-108364342D02*
X74233333Y-107554819D01*
X75233333Y-108554819D02*
X74661905Y-108554819D01*
X74947619Y-108554819D02*
X74947619Y-107554819D01*
X74947619Y-107554819D02*
X74852381Y-107697676D01*
X74852381Y-107697676D02*
X74757143Y-107792914D01*
X74757143Y-107792914D02*
X74661905Y-107840533D01*
X76090476Y-107554819D02*
X75900000Y-107554819D01*
X75900000Y-107554819D02*
X75804762Y-107602438D01*
X75804762Y-107602438D02*
X75757143Y-107650057D01*
X75757143Y-107650057D02*
X75661905Y-107792914D01*
X75661905Y-107792914D02*
X75614286Y-107983390D01*
X75614286Y-107983390D02*
X75614286Y-108364342D01*
X75614286Y-108364342D02*
X75661905Y-108459580D01*
X75661905Y-108459580D02*
X75709524Y-108507200D01*
X75709524Y-108507200D02*
X75804762Y-108554819D01*
X75804762Y-108554819D02*
X75995238Y-108554819D01*
X75995238Y-108554819D02*
X76090476Y-108507200D01*
X76090476Y-108507200D02*
X76138095Y-108459580D01*
X76138095Y-108459580D02*
X76185714Y-108364342D01*
X76185714Y-108364342D02*
X76185714Y-108126247D01*
X76185714Y-108126247D02*
X76138095Y-108031009D01*
X76138095Y-108031009D02*
X76090476Y-107983390D01*
X76090476Y-107983390D02*
X75995238Y-107935771D01*
X75995238Y-107935771D02*
X75804762Y-107935771D01*
X75804762Y-107935771D02*
X75709524Y-107983390D01*
X75709524Y-107983390D02*
X75661905Y-108031009D01*
X75661905Y-108031009D02*
X75614286Y-108126247D01*
X56233333Y-48684580D02*
X56185714Y-48732200D01*
X56185714Y-48732200D02*
X56042857Y-48779819D01*
X56042857Y-48779819D02*
X55947619Y-48779819D01*
X55947619Y-48779819D02*
X55804762Y-48732200D01*
X55804762Y-48732200D02*
X55709524Y-48636961D01*
X55709524Y-48636961D02*
X55661905Y-48541723D01*
X55661905Y-48541723D02*
X55614286Y-48351247D01*
X55614286Y-48351247D02*
X55614286Y-48208390D01*
X55614286Y-48208390D02*
X55661905Y-48017914D01*
X55661905Y-48017914D02*
X55709524Y-47922676D01*
X55709524Y-47922676D02*
X55804762Y-47827438D01*
X55804762Y-47827438D02*
X55947619Y-47779819D01*
X55947619Y-47779819D02*
X56042857Y-47779819D01*
X56042857Y-47779819D02*
X56185714Y-47827438D01*
X56185714Y-47827438D02*
X56233333Y-47875057D01*
X56614286Y-47875057D02*
X56661905Y-47827438D01*
X56661905Y-47827438D02*
X56757143Y-47779819D01*
X56757143Y-47779819D02*
X56995238Y-47779819D01*
X56995238Y-47779819D02*
X57090476Y-47827438D01*
X57090476Y-47827438D02*
X57138095Y-47875057D01*
X57138095Y-47875057D02*
X57185714Y-47970295D01*
X57185714Y-47970295D02*
X57185714Y-48065533D01*
X57185714Y-48065533D02*
X57138095Y-48208390D01*
X57138095Y-48208390D02*
X56566667Y-48779819D01*
X56566667Y-48779819D02*
X57185714Y-48779819D01*
X57566667Y-47875057D02*
X57614286Y-47827438D01*
X57614286Y-47827438D02*
X57709524Y-47779819D01*
X57709524Y-47779819D02*
X57947619Y-47779819D01*
X57947619Y-47779819D02*
X58042857Y-47827438D01*
X58042857Y-47827438D02*
X58090476Y-47875057D01*
X58090476Y-47875057D02*
X58138095Y-47970295D01*
X58138095Y-47970295D02*
X58138095Y-48065533D01*
X58138095Y-48065533D02*
X58090476Y-48208390D01*
X58090476Y-48208390D02*
X57519048Y-48779819D01*
X57519048Y-48779819D02*
X58138095Y-48779819D01*
X68583333Y-54204819D02*
X68250000Y-53728628D01*
X68011905Y-54204819D02*
X68011905Y-53204819D01*
X68011905Y-53204819D02*
X68392857Y-53204819D01*
X68392857Y-53204819D02*
X68488095Y-53252438D01*
X68488095Y-53252438D02*
X68535714Y-53300057D01*
X68535714Y-53300057D02*
X68583333Y-53395295D01*
X68583333Y-53395295D02*
X68583333Y-53538152D01*
X68583333Y-53538152D02*
X68535714Y-53633390D01*
X68535714Y-53633390D02*
X68488095Y-53681009D01*
X68488095Y-53681009D02*
X68392857Y-53728628D01*
X68392857Y-53728628D02*
X68011905Y-53728628D01*
X68916667Y-53204819D02*
X69535714Y-53204819D01*
X69535714Y-53204819D02*
X69202381Y-53585771D01*
X69202381Y-53585771D02*
X69345238Y-53585771D01*
X69345238Y-53585771D02*
X69440476Y-53633390D01*
X69440476Y-53633390D02*
X69488095Y-53681009D01*
X69488095Y-53681009D02*
X69535714Y-53776247D01*
X69535714Y-53776247D02*
X69535714Y-54014342D01*
X69535714Y-54014342D02*
X69488095Y-54109580D01*
X69488095Y-54109580D02*
X69440476Y-54157200D01*
X69440476Y-54157200D02*
X69345238Y-54204819D01*
X69345238Y-54204819D02*
X69059524Y-54204819D01*
X69059524Y-54204819D02*
X68964286Y-54157200D01*
X68964286Y-54157200D02*
X68916667Y-54109580D01*
X68033333Y-81654819D02*
X67700000Y-81178628D01*
X67461905Y-81654819D02*
X67461905Y-80654819D01*
X67461905Y-80654819D02*
X67842857Y-80654819D01*
X67842857Y-80654819D02*
X67938095Y-80702438D01*
X67938095Y-80702438D02*
X67985714Y-80750057D01*
X67985714Y-80750057D02*
X68033333Y-80845295D01*
X68033333Y-80845295D02*
X68033333Y-80988152D01*
X68033333Y-80988152D02*
X67985714Y-81083390D01*
X67985714Y-81083390D02*
X67938095Y-81131009D01*
X67938095Y-81131009D02*
X67842857Y-81178628D01*
X67842857Y-81178628D02*
X67461905Y-81178628D01*
X68985714Y-81654819D02*
X68414286Y-81654819D01*
X68700000Y-81654819D02*
X68700000Y-80654819D01*
X68700000Y-80654819D02*
X68604762Y-80797676D01*
X68604762Y-80797676D02*
X68509524Y-80892914D01*
X68509524Y-80892914D02*
X68414286Y-80940533D01*
X77483334Y-55892319D02*
X77150001Y-55416128D01*
X76911906Y-55892319D02*
X76911906Y-54892319D01*
X76911906Y-54892319D02*
X77292858Y-54892319D01*
X77292858Y-54892319D02*
X77388096Y-54939938D01*
X77388096Y-54939938D02*
X77435715Y-54987557D01*
X77435715Y-54987557D02*
X77483334Y-55082795D01*
X77483334Y-55082795D02*
X77483334Y-55225652D01*
X77483334Y-55225652D02*
X77435715Y-55320890D01*
X77435715Y-55320890D02*
X77388096Y-55368509D01*
X77388096Y-55368509D02*
X77292858Y-55416128D01*
X77292858Y-55416128D02*
X76911906Y-55416128D01*
X78054763Y-55320890D02*
X77959525Y-55273271D01*
X77959525Y-55273271D02*
X77911906Y-55225652D01*
X77911906Y-55225652D02*
X77864287Y-55130414D01*
X77864287Y-55130414D02*
X77864287Y-55082795D01*
X77864287Y-55082795D02*
X77911906Y-54987557D01*
X77911906Y-54987557D02*
X77959525Y-54939938D01*
X77959525Y-54939938D02*
X78054763Y-54892319D01*
X78054763Y-54892319D02*
X78245239Y-54892319D01*
X78245239Y-54892319D02*
X78340477Y-54939938D01*
X78340477Y-54939938D02*
X78388096Y-54987557D01*
X78388096Y-54987557D02*
X78435715Y-55082795D01*
X78435715Y-55082795D02*
X78435715Y-55130414D01*
X78435715Y-55130414D02*
X78388096Y-55225652D01*
X78388096Y-55225652D02*
X78340477Y-55273271D01*
X78340477Y-55273271D02*
X78245239Y-55320890D01*
X78245239Y-55320890D02*
X78054763Y-55320890D01*
X78054763Y-55320890D02*
X77959525Y-55368509D01*
X77959525Y-55368509D02*
X77911906Y-55416128D01*
X77911906Y-55416128D02*
X77864287Y-55511366D01*
X77864287Y-55511366D02*
X77864287Y-55701842D01*
X77864287Y-55701842D02*
X77911906Y-55797080D01*
X77911906Y-55797080D02*
X77959525Y-55844700D01*
X77959525Y-55844700D02*
X78054763Y-55892319D01*
X78054763Y-55892319D02*
X78245239Y-55892319D01*
X78245239Y-55892319D02*
X78340477Y-55844700D01*
X78340477Y-55844700D02*
X78388096Y-55797080D01*
X78388096Y-55797080D02*
X78435715Y-55701842D01*
X78435715Y-55701842D02*
X78435715Y-55511366D01*
X78435715Y-55511366D02*
X78388096Y-55416128D01*
X78388096Y-55416128D02*
X78340477Y-55368509D01*
X78340477Y-55368509D02*
X78245239Y-55320890D01*
X104107142Y-88204819D02*
X103773809Y-87728628D01*
X103535714Y-88204819D02*
X103535714Y-87204819D01*
X103535714Y-87204819D02*
X103916666Y-87204819D01*
X103916666Y-87204819D02*
X104011904Y-87252438D01*
X104011904Y-87252438D02*
X104059523Y-87300057D01*
X104059523Y-87300057D02*
X104107142Y-87395295D01*
X104107142Y-87395295D02*
X104107142Y-87538152D01*
X104107142Y-87538152D02*
X104059523Y-87633390D01*
X104059523Y-87633390D02*
X104011904Y-87681009D01*
X104011904Y-87681009D02*
X103916666Y-87728628D01*
X103916666Y-87728628D02*
X103535714Y-87728628D01*
X105059523Y-88204819D02*
X104488095Y-88204819D01*
X104773809Y-88204819D02*
X104773809Y-87204819D01*
X104773809Y-87204819D02*
X104678571Y-87347676D01*
X104678571Y-87347676D02*
X104583333Y-87442914D01*
X104583333Y-87442914D02*
X104488095Y-87490533D01*
X105916666Y-87538152D02*
X105916666Y-88204819D01*
X105678571Y-87157200D02*
X105440476Y-87871485D01*
X105440476Y-87871485D02*
X106059523Y-87871485D01*
X90323613Y-50509580D02*
X90275994Y-50557200D01*
X90275994Y-50557200D02*
X90133137Y-50604819D01*
X90133137Y-50604819D02*
X90037899Y-50604819D01*
X90037899Y-50604819D02*
X89895042Y-50557200D01*
X89895042Y-50557200D02*
X89799804Y-50461961D01*
X89799804Y-50461961D02*
X89752185Y-50366723D01*
X89752185Y-50366723D02*
X89704566Y-50176247D01*
X89704566Y-50176247D02*
X89704566Y-50033390D01*
X89704566Y-50033390D02*
X89752185Y-49842914D01*
X89752185Y-49842914D02*
X89799804Y-49747676D01*
X89799804Y-49747676D02*
X89895042Y-49652438D01*
X89895042Y-49652438D02*
X90037899Y-49604819D01*
X90037899Y-49604819D02*
X90133137Y-49604819D01*
X90133137Y-49604819D02*
X90275994Y-49652438D01*
X90275994Y-49652438D02*
X90323613Y-49700057D01*
X91275994Y-50604819D02*
X90704566Y-50604819D01*
X90990280Y-50604819D02*
X90990280Y-49604819D01*
X90990280Y-49604819D02*
X90895042Y-49747676D01*
X90895042Y-49747676D02*
X90799804Y-49842914D01*
X90799804Y-49842914D02*
X90704566Y-49890533D01*
X92133137Y-49938152D02*
X92133137Y-50604819D01*
X91895042Y-49557200D02*
X91656947Y-50271485D01*
X91656947Y-50271485D02*
X92275994Y-50271485D01*
X109257142Y-53954819D02*
X108923809Y-53478628D01*
X108685714Y-53954819D02*
X108685714Y-52954819D01*
X108685714Y-52954819D02*
X109066666Y-52954819D01*
X109066666Y-52954819D02*
X109161904Y-53002438D01*
X109161904Y-53002438D02*
X109209523Y-53050057D01*
X109209523Y-53050057D02*
X109257142Y-53145295D01*
X109257142Y-53145295D02*
X109257142Y-53288152D01*
X109257142Y-53288152D02*
X109209523Y-53383390D01*
X109209523Y-53383390D02*
X109161904Y-53431009D01*
X109161904Y-53431009D02*
X109066666Y-53478628D01*
X109066666Y-53478628D02*
X108685714Y-53478628D01*
X110209523Y-53954819D02*
X109638095Y-53954819D01*
X109923809Y-53954819D02*
X109923809Y-52954819D01*
X109923809Y-52954819D02*
X109828571Y-53097676D01*
X109828571Y-53097676D02*
X109733333Y-53192914D01*
X109733333Y-53192914D02*
X109638095Y-53240533D01*
X110590476Y-53050057D02*
X110638095Y-53002438D01*
X110638095Y-53002438D02*
X110733333Y-52954819D01*
X110733333Y-52954819D02*
X110971428Y-52954819D01*
X110971428Y-52954819D02*
X111066666Y-53002438D01*
X111066666Y-53002438D02*
X111114285Y-53050057D01*
X111114285Y-53050057D02*
X111161904Y-53145295D01*
X111161904Y-53145295D02*
X111161904Y-53240533D01*
X111161904Y-53240533D02*
X111114285Y-53383390D01*
X111114285Y-53383390D02*
X110542857Y-53954819D01*
X110542857Y-53954819D02*
X111161904Y-53954819D01*
X69509580Y-48266666D02*
X69557200Y-48314285D01*
X69557200Y-48314285D02*
X69604819Y-48457142D01*
X69604819Y-48457142D02*
X69604819Y-48552380D01*
X69604819Y-48552380D02*
X69557200Y-48695237D01*
X69557200Y-48695237D02*
X69461961Y-48790475D01*
X69461961Y-48790475D02*
X69366723Y-48838094D01*
X69366723Y-48838094D02*
X69176247Y-48885713D01*
X69176247Y-48885713D02*
X69033390Y-48885713D01*
X69033390Y-48885713D02*
X68842914Y-48838094D01*
X68842914Y-48838094D02*
X68747676Y-48790475D01*
X68747676Y-48790475D02*
X68652438Y-48695237D01*
X68652438Y-48695237D02*
X68604819Y-48552380D01*
X68604819Y-48552380D02*
X68604819Y-48457142D01*
X68604819Y-48457142D02*
X68652438Y-48314285D01*
X68652438Y-48314285D02*
X68700057Y-48266666D01*
X68604819Y-47933332D02*
X68604819Y-47266666D01*
X68604819Y-47266666D02*
X69604819Y-47695237D01*
X106557142Y-61409580D02*
X106509523Y-61457200D01*
X106509523Y-61457200D02*
X106366666Y-61504819D01*
X106366666Y-61504819D02*
X106271428Y-61504819D01*
X106271428Y-61504819D02*
X106128571Y-61457200D01*
X106128571Y-61457200D02*
X106033333Y-61361961D01*
X106033333Y-61361961D02*
X105985714Y-61266723D01*
X105985714Y-61266723D02*
X105938095Y-61076247D01*
X105938095Y-61076247D02*
X105938095Y-60933390D01*
X105938095Y-60933390D02*
X105985714Y-60742914D01*
X105985714Y-60742914D02*
X106033333Y-60647676D01*
X106033333Y-60647676D02*
X106128571Y-60552438D01*
X106128571Y-60552438D02*
X106271428Y-60504819D01*
X106271428Y-60504819D02*
X106366666Y-60504819D01*
X106366666Y-60504819D02*
X106509523Y-60552438D01*
X106509523Y-60552438D02*
X106557142Y-60600057D01*
X106938095Y-60600057D02*
X106985714Y-60552438D01*
X106985714Y-60552438D02*
X107080952Y-60504819D01*
X107080952Y-60504819D02*
X107319047Y-60504819D01*
X107319047Y-60504819D02*
X107414285Y-60552438D01*
X107414285Y-60552438D02*
X107461904Y-60600057D01*
X107461904Y-60600057D02*
X107509523Y-60695295D01*
X107509523Y-60695295D02*
X107509523Y-60790533D01*
X107509523Y-60790533D02*
X107461904Y-60933390D01*
X107461904Y-60933390D02*
X106890476Y-61504819D01*
X106890476Y-61504819D02*
X107509523Y-61504819D01*
X108366666Y-60838152D02*
X108366666Y-61504819D01*
X108128571Y-60457200D02*
X107890476Y-61171485D01*
X107890476Y-61171485D02*
X108509523Y-61171485D01*
X101009580Y-48692857D02*
X101057200Y-48740476D01*
X101057200Y-48740476D02*
X101104819Y-48883333D01*
X101104819Y-48883333D02*
X101104819Y-48978571D01*
X101104819Y-48978571D02*
X101057200Y-49121428D01*
X101057200Y-49121428D02*
X100961961Y-49216666D01*
X100961961Y-49216666D02*
X100866723Y-49264285D01*
X100866723Y-49264285D02*
X100676247Y-49311904D01*
X100676247Y-49311904D02*
X100533390Y-49311904D01*
X100533390Y-49311904D02*
X100342914Y-49264285D01*
X100342914Y-49264285D02*
X100247676Y-49216666D01*
X100247676Y-49216666D02*
X100152438Y-49121428D01*
X100152438Y-49121428D02*
X100104819Y-48978571D01*
X100104819Y-48978571D02*
X100104819Y-48883333D01*
X100104819Y-48883333D02*
X100152438Y-48740476D01*
X100152438Y-48740476D02*
X100200057Y-48692857D01*
X101104819Y-47740476D02*
X101104819Y-48311904D01*
X101104819Y-48026190D02*
X100104819Y-48026190D01*
X100104819Y-48026190D02*
X100247676Y-48121428D01*
X100247676Y-48121428D02*
X100342914Y-48216666D01*
X100342914Y-48216666D02*
X100390533Y-48311904D01*
X100104819Y-47407142D02*
X100104819Y-46740476D01*
X100104819Y-46740476D02*
X101104819Y-47169047D01*
X109507142Y-50459580D02*
X109459523Y-50507200D01*
X109459523Y-50507200D02*
X109316666Y-50554819D01*
X109316666Y-50554819D02*
X109221428Y-50554819D01*
X109221428Y-50554819D02*
X109078571Y-50507200D01*
X109078571Y-50507200D02*
X108983333Y-50411961D01*
X108983333Y-50411961D02*
X108935714Y-50316723D01*
X108935714Y-50316723D02*
X108888095Y-50126247D01*
X108888095Y-50126247D02*
X108888095Y-49983390D01*
X108888095Y-49983390D02*
X108935714Y-49792914D01*
X108935714Y-49792914D02*
X108983333Y-49697676D01*
X108983333Y-49697676D02*
X109078571Y-49602438D01*
X109078571Y-49602438D02*
X109221428Y-49554819D01*
X109221428Y-49554819D02*
X109316666Y-49554819D01*
X109316666Y-49554819D02*
X109459523Y-49602438D01*
X109459523Y-49602438D02*
X109507142Y-49650057D01*
X109888095Y-49650057D02*
X109935714Y-49602438D01*
X109935714Y-49602438D02*
X110030952Y-49554819D01*
X110030952Y-49554819D02*
X110269047Y-49554819D01*
X110269047Y-49554819D02*
X110364285Y-49602438D01*
X110364285Y-49602438D02*
X110411904Y-49650057D01*
X110411904Y-49650057D02*
X110459523Y-49745295D01*
X110459523Y-49745295D02*
X110459523Y-49840533D01*
X110459523Y-49840533D02*
X110411904Y-49983390D01*
X110411904Y-49983390D02*
X109840476Y-50554819D01*
X109840476Y-50554819D02*
X110459523Y-50554819D01*
X111078571Y-49554819D02*
X111173809Y-49554819D01*
X111173809Y-49554819D02*
X111269047Y-49602438D01*
X111269047Y-49602438D02*
X111316666Y-49650057D01*
X111316666Y-49650057D02*
X111364285Y-49745295D01*
X111364285Y-49745295D02*
X111411904Y-49935771D01*
X111411904Y-49935771D02*
X111411904Y-50173866D01*
X111411904Y-50173866D02*
X111364285Y-50364342D01*
X111364285Y-50364342D02*
X111316666Y-50459580D01*
X111316666Y-50459580D02*
X111269047Y-50507200D01*
X111269047Y-50507200D02*
X111173809Y-50554819D01*
X111173809Y-50554819D02*
X111078571Y-50554819D01*
X111078571Y-50554819D02*
X110983333Y-50507200D01*
X110983333Y-50507200D02*
X110935714Y-50459580D01*
X110935714Y-50459580D02*
X110888095Y-50364342D01*
X110888095Y-50364342D02*
X110840476Y-50173866D01*
X110840476Y-50173866D02*
X110840476Y-49935771D01*
X110840476Y-49935771D02*
X110888095Y-49745295D01*
X110888095Y-49745295D02*
X110935714Y-49650057D01*
X110935714Y-49650057D02*
X110983333Y-49602438D01*
X110983333Y-49602438D02*
X111078571Y-49554819D01*
X92829558Y-79819818D02*
X92496225Y-79343627D01*
X92258130Y-79819818D02*
X92258130Y-78819818D01*
X92258130Y-78819818D02*
X92639082Y-78819818D01*
X92639082Y-78819818D02*
X92734320Y-78867437D01*
X92734320Y-78867437D02*
X92781939Y-78915056D01*
X92781939Y-78915056D02*
X92829558Y-79010294D01*
X92829558Y-79010294D02*
X92829558Y-79153151D01*
X92829558Y-79153151D02*
X92781939Y-79248389D01*
X92781939Y-79248389D02*
X92734320Y-79296008D01*
X92734320Y-79296008D02*
X92639082Y-79343627D01*
X92639082Y-79343627D02*
X92258130Y-79343627D01*
X93781939Y-79819818D02*
X93210511Y-79819818D01*
X93496225Y-79819818D02*
X93496225Y-78819818D01*
X93496225Y-78819818D02*
X93400987Y-78962675D01*
X93400987Y-78962675D02*
X93305749Y-79057913D01*
X93305749Y-79057913D02*
X93210511Y-79105532D01*
X94115273Y-78819818D02*
X94781939Y-78819818D01*
X94781939Y-78819818D02*
X94353368Y-79819818D01*
X68583333Y-57204819D02*
X68250000Y-56728628D01*
X68011905Y-57204819D02*
X68011905Y-56204819D01*
X68011905Y-56204819D02*
X68392857Y-56204819D01*
X68392857Y-56204819D02*
X68488095Y-56252438D01*
X68488095Y-56252438D02*
X68535714Y-56300057D01*
X68535714Y-56300057D02*
X68583333Y-56395295D01*
X68583333Y-56395295D02*
X68583333Y-56538152D01*
X68583333Y-56538152D02*
X68535714Y-56633390D01*
X68535714Y-56633390D02*
X68488095Y-56681009D01*
X68488095Y-56681009D02*
X68392857Y-56728628D01*
X68392857Y-56728628D02*
X68011905Y-56728628D01*
X69440476Y-56538152D02*
X69440476Y-57204819D01*
X69202381Y-56157200D02*
X68964286Y-56871485D01*
X68964286Y-56871485D02*
X69583333Y-56871485D01*
X57166666Y-70189819D02*
X57166666Y-70904104D01*
X57166666Y-70904104D02*
X57119047Y-71046961D01*
X57119047Y-71046961D02*
X57023809Y-71142200D01*
X57023809Y-71142200D02*
X56880952Y-71189819D01*
X56880952Y-71189819D02*
X56785714Y-71189819D01*
X58071428Y-70523152D02*
X58071428Y-71189819D01*
X57833333Y-70142200D02*
X57595238Y-70856485D01*
X57595238Y-70856485D02*
X58214285Y-70856485D01*
X68583333Y-60204819D02*
X68250000Y-59728628D01*
X68011905Y-60204819D02*
X68011905Y-59204819D01*
X68011905Y-59204819D02*
X68392857Y-59204819D01*
X68392857Y-59204819D02*
X68488095Y-59252438D01*
X68488095Y-59252438D02*
X68535714Y-59300057D01*
X68535714Y-59300057D02*
X68583333Y-59395295D01*
X68583333Y-59395295D02*
X68583333Y-59538152D01*
X68583333Y-59538152D02*
X68535714Y-59633390D01*
X68535714Y-59633390D02*
X68488095Y-59681009D01*
X68488095Y-59681009D02*
X68392857Y-59728628D01*
X68392857Y-59728628D02*
X68011905Y-59728628D01*
X69488095Y-59204819D02*
X69011905Y-59204819D01*
X69011905Y-59204819D02*
X68964286Y-59681009D01*
X68964286Y-59681009D02*
X69011905Y-59633390D01*
X69011905Y-59633390D02*
X69107143Y-59585771D01*
X69107143Y-59585771D02*
X69345238Y-59585771D01*
X69345238Y-59585771D02*
X69440476Y-59633390D01*
X69440476Y-59633390D02*
X69488095Y-59681009D01*
X69488095Y-59681009D02*
X69535714Y-59776247D01*
X69535714Y-59776247D02*
X69535714Y-60014342D01*
X69535714Y-60014342D02*
X69488095Y-60109580D01*
X69488095Y-60109580D02*
X69440476Y-60157200D01*
X69440476Y-60157200D02*
X69345238Y-60204819D01*
X69345238Y-60204819D02*
X69107143Y-60204819D01*
X69107143Y-60204819D02*
X69011905Y-60157200D01*
X69011905Y-60157200D02*
X68964286Y-60109580D01*
X84511905Y-102814157D02*
X84511905Y-101814157D01*
X84511905Y-101814157D02*
X84750000Y-101814157D01*
X84750000Y-101814157D02*
X84892857Y-101861776D01*
X84892857Y-101861776D02*
X84988095Y-101957014D01*
X84988095Y-101957014D02*
X85035714Y-102052252D01*
X85035714Y-102052252D02*
X85083333Y-102242728D01*
X85083333Y-102242728D02*
X85083333Y-102385585D01*
X85083333Y-102385585D02*
X85035714Y-102576061D01*
X85035714Y-102576061D02*
X84988095Y-102671299D01*
X84988095Y-102671299D02*
X84892857Y-102766538D01*
X84892857Y-102766538D02*
X84750000Y-102814157D01*
X84750000Y-102814157D02*
X84511905Y-102814157D01*
X85940476Y-102147490D02*
X85940476Y-102814157D01*
X85702381Y-101766538D02*
X85464286Y-102480823D01*
X85464286Y-102480823D02*
X86083333Y-102480823D01*
X96765377Y-50509580D02*
X96717758Y-50557200D01*
X96717758Y-50557200D02*
X96574901Y-50604819D01*
X96574901Y-50604819D02*
X96479663Y-50604819D01*
X96479663Y-50604819D02*
X96336806Y-50557200D01*
X96336806Y-50557200D02*
X96241568Y-50461961D01*
X96241568Y-50461961D02*
X96193949Y-50366723D01*
X96193949Y-50366723D02*
X96146330Y-50176247D01*
X96146330Y-50176247D02*
X96146330Y-50033390D01*
X96146330Y-50033390D02*
X96193949Y-49842914D01*
X96193949Y-49842914D02*
X96241568Y-49747676D01*
X96241568Y-49747676D02*
X96336806Y-49652438D01*
X96336806Y-49652438D02*
X96479663Y-49604819D01*
X96479663Y-49604819D02*
X96574901Y-49604819D01*
X96574901Y-49604819D02*
X96717758Y-49652438D01*
X96717758Y-49652438D02*
X96765377Y-49700057D01*
X97717758Y-50604819D02*
X97146330Y-50604819D01*
X97432044Y-50604819D02*
X97432044Y-49604819D01*
X97432044Y-49604819D02*
X97336806Y-49747676D01*
X97336806Y-49747676D02*
X97241568Y-49842914D01*
X97241568Y-49842914D02*
X97146330Y-49890533D01*
X98574901Y-49604819D02*
X98384425Y-49604819D01*
X98384425Y-49604819D02*
X98289187Y-49652438D01*
X98289187Y-49652438D02*
X98241568Y-49700057D01*
X98241568Y-49700057D02*
X98146330Y-49842914D01*
X98146330Y-49842914D02*
X98098711Y-50033390D01*
X98098711Y-50033390D02*
X98098711Y-50414342D01*
X98098711Y-50414342D02*
X98146330Y-50509580D01*
X98146330Y-50509580D02*
X98193949Y-50557200D01*
X98193949Y-50557200D02*
X98289187Y-50604819D01*
X98289187Y-50604819D02*
X98479663Y-50604819D01*
X98479663Y-50604819D02*
X98574901Y-50557200D01*
X98574901Y-50557200D02*
X98622520Y-50509580D01*
X98622520Y-50509580D02*
X98670139Y-50414342D01*
X98670139Y-50414342D02*
X98670139Y-50176247D01*
X98670139Y-50176247D02*
X98622520Y-50081009D01*
X98622520Y-50081009D02*
X98574901Y-50033390D01*
X98574901Y-50033390D02*
X98479663Y-49985771D01*
X98479663Y-49985771D02*
X98289187Y-49985771D01*
X98289187Y-49985771D02*
X98193949Y-50033390D01*
X98193949Y-50033390D02*
X98146330Y-50081009D01*
X98146330Y-50081009D02*
X98098711Y-50176247D01*
X108581907Y-41454819D02*
X108581907Y-42264342D01*
X108581907Y-42264342D02*
X108629526Y-42359580D01*
X108629526Y-42359580D02*
X108677145Y-42407200D01*
X108677145Y-42407200D02*
X108772383Y-42454819D01*
X108772383Y-42454819D02*
X108962859Y-42454819D01*
X108962859Y-42454819D02*
X109058097Y-42407200D01*
X109058097Y-42407200D02*
X109105716Y-42359580D01*
X109105716Y-42359580D02*
X109153335Y-42264342D01*
X109153335Y-42264342D02*
X109153335Y-41454819D01*
X110153335Y-42454819D02*
X109581907Y-42454819D01*
X109867621Y-42454819D02*
X109867621Y-41454819D01*
X109867621Y-41454819D02*
X109772383Y-41597676D01*
X109772383Y-41597676D02*
X109677145Y-41692914D01*
X109677145Y-41692914D02*
X109581907Y-41740533D01*
X111105716Y-42454819D02*
X110534288Y-42454819D01*
X110820002Y-42454819D02*
X110820002Y-41454819D01*
X110820002Y-41454819D02*
X110724764Y-41597676D01*
X110724764Y-41597676D02*
X110629526Y-41692914D01*
X110629526Y-41692914D02*
X110534288Y-41740533D01*
X64558097Y-41454819D02*
X64558097Y-42264342D01*
X64558097Y-42264342D02*
X64605716Y-42359580D01*
X64605716Y-42359580D02*
X64653335Y-42407200D01*
X64653335Y-42407200D02*
X64748573Y-42454819D01*
X64748573Y-42454819D02*
X64939049Y-42454819D01*
X64939049Y-42454819D02*
X65034287Y-42407200D01*
X65034287Y-42407200D02*
X65081906Y-42359580D01*
X65081906Y-42359580D02*
X65129525Y-42264342D01*
X65129525Y-42264342D02*
X65129525Y-41454819D01*
X66034287Y-41788152D02*
X66034287Y-42454819D01*
X65796192Y-41407200D02*
X65558097Y-42121485D01*
X65558097Y-42121485D02*
X66177144Y-42121485D01*
X91957142Y-100200574D02*
X91623809Y-99724383D01*
X91385714Y-100200574D02*
X91385714Y-99200574D01*
X91385714Y-99200574D02*
X91766666Y-99200574D01*
X91766666Y-99200574D02*
X91861904Y-99248193D01*
X91861904Y-99248193D02*
X91909523Y-99295812D01*
X91909523Y-99295812D02*
X91957142Y-99391050D01*
X91957142Y-99391050D02*
X91957142Y-99533907D01*
X91957142Y-99533907D02*
X91909523Y-99629145D01*
X91909523Y-99629145D02*
X91861904Y-99676764D01*
X91861904Y-99676764D02*
X91766666Y-99724383D01*
X91766666Y-99724383D02*
X91385714Y-99724383D01*
X92338095Y-99295812D02*
X92385714Y-99248193D01*
X92385714Y-99248193D02*
X92480952Y-99200574D01*
X92480952Y-99200574D02*
X92719047Y-99200574D01*
X92719047Y-99200574D02*
X92814285Y-99248193D01*
X92814285Y-99248193D02*
X92861904Y-99295812D01*
X92861904Y-99295812D02*
X92909523Y-99391050D01*
X92909523Y-99391050D02*
X92909523Y-99486288D01*
X92909523Y-99486288D02*
X92861904Y-99629145D01*
X92861904Y-99629145D02*
X92290476Y-100200574D01*
X92290476Y-100200574D02*
X92909523Y-100200574D01*
X93861904Y-100200574D02*
X93290476Y-100200574D01*
X93576190Y-100200574D02*
X93576190Y-99200574D01*
X93576190Y-99200574D02*
X93480952Y-99343431D01*
X93480952Y-99343431D02*
X93385714Y-99438669D01*
X93385714Y-99438669D02*
X93290476Y-99486288D01*
X94759580Y-48692857D02*
X94807200Y-48740476D01*
X94807200Y-48740476D02*
X94854819Y-48883333D01*
X94854819Y-48883333D02*
X94854819Y-48978571D01*
X94854819Y-48978571D02*
X94807200Y-49121428D01*
X94807200Y-49121428D02*
X94711961Y-49216666D01*
X94711961Y-49216666D02*
X94616723Y-49264285D01*
X94616723Y-49264285D02*
X94426247Y-49311904D01*
X94426247Y-49311904D02*
X94283390Y-49311904D01*
X94283390Y-49311904D02*
X94092914Y-49264285D01*
X94092914Y-49264285D02*
X93997676Y-49216666D01*
X93997676Y-49216666D02*
X93902438Y-49121428D01*
X93902438Y-49121428D02*
X93854819Y-48978571D01*
X93854819Y-48978571D02*
X93854819Y-48883333D01*
X93854819Y-48883333D02*
X93902438Y-48740476D01*
X93902438Y-48740476D02*
X93950057Y-48692857D01*
X94854819Y-47740476D02*
X94854819Y-48311904D01*
X94854819Y-48026190D02*
X93854819Y-48026190D01*
X93854819Y-48026190D02*
X93997676Y-48121428D01*
X93997676Y-48121428D02*
X94092914Y-48216666D01*
X94092914Y-48216666D02*
X94140533Y-48311904D01*
X93854819Y-46835714D02*
X93854819Y-47311904D01*
X93854819Y-47311904D02*
X94331009Y-47359523D01*
X94331009Y-47359523D02*
X94283390Y-47311904D01*
X94283390Y-47311904D02*
X94235771Y-47216666D01*
X94235771Y-47216666D02*
X94235771Y-46978571D01*
X94235771Y-46978571D02*
X94283390Y-46883333D01*
X94283390Y-46883333D02*
X94331009Y-46835714D01*
X94331009Y-46835714D02*
X94426247Y-46788095D01*
X94426247Y-46788095D02*
X94664342Y-46788095D01*
X94664342Y-46788095D02*
X94759580Y-46835714D01*
X94759580Y-46835714D02*
X94807200Y-46883333D01*
X94807200Y-46883333D02*
X94854819Y-46978571D01*
X94854819Y-46978571D02*
X94854819Y-47216666D01*
X94854819Y-47216666D02*
X94807200Y-47311904D01*
X94807200Y-47311904D02*
X94759580Y-47359523D01*
X101784321Y-76069818D02*
X101784321Y-76879341D01*
X101784321Y-76879341D02*
X101831940Y-76974579D01*
X101831940Y-76974579D02*
X101879559Y-77022199D01*
X101879559Y-77022199D02*
X101974797Y-77069818D01*
X101974797Y-77069818D02*
X102165273Y-77069818D01*
X102165273Y-77069818D02*
X102260511Y-77022199D01*
X102260511Y-77022199D02*
X102308130Y-76974579D01*
X102308130Y-76974579D02*
X102355749Y-76879341D01*
X102355749Y-76879341D02*
X102355749Y-76069818D01*
X103355749Y-77069818D02*
X102784321Y-77069818D01*
X103070035Y-77069818D02*
X103070035Y-76069818D01*
X103070035Y-76069818D02*
X102974797Y-76212675D01*
X102974797Y-76212675D02*
X102879559Y-76307913D01*
X102879559Y-76307913D02*
X102784321Y-76355532D01*
X103736702Y-76165056D02*
X103784321Y-76117437D01*
X103784321Y-76117437D02*
X103879559Y-76069818D01*
X103879559Y-76069818D02*
X104117654Y-76069818D01*
X104117654Y-76069818D02*
X104212892Y-76117437D01*
X104212892Y-76117437D02*
X104260511Y-76165056D01*
X104260511Y-76165056D02*
X104308130Y-76260294D01*
X104308130Y-76260294D02*
X104308130Y-76355532D01*
X104308130Y-76355532D02*
X104260511Y-76498389D01*
X104260511Y-76498389D02*
X103689083Y-77069818D01*
X103689083Y-77069818D02*
X104308130Y-77069818D01*
X82259580Y-48692857D02*
X82307200Y-48740476D01*
X82307200Y-48740476D02*
X82354819Y-48883333D01*
X82354819Y-48883333D02*
X82354819Y-48978571D01*
X82354819Y-48978571D02*
X82307200Y-49121428D01*
X82307200Y-49121428D02*
X82211961Y-49216666D01*
X82211961Y-49216666D02*
X82116723Y-49264285D01*
X82116723Y-49264285D02*
X81926247Y-49311904D01*
X81926247Y-49311904D02*
X81783390Y-49311904D01*
X81783390Y-49311904D02*
X81592914Y-49264285D01*
X81592914Y-49264285D02*
X81497676Y-49216666D01*
X81497676Y-49216666D02*
X81402438Y-49121428D01*
X81402438Y-49121428D02*
X81354819Y-48978571D01*
X81354819Y-48978571D02*
X81354819Y-48883333D01*
X81354819Y-48883333D02*
X81402438Y-48740476D01*
X81402438Y-48740476D02*
X81450057Y-48692857D01*
X82354819Y-47740476D02*
X82354819Y-48311904D01*
X82354819Y-48026190D02*
X81354819Y-48026190D01*
X81354819Y-48026190D02*
X81497676Y-48121428D01*
X81497676Y-48121428D02*
X81592914Y-48216666D01*
X81592914Y-48216666D02*
X81640533Y-48311904D01*
X82354819Y-46788095D02*
X82354819Y-47359523D01*
X82354819Y-47073809D02*
X81354819Y-47073809D01*
X81354819Y-47073809D02*
X81497676Y-47169047D01*
X81497676Y-47169047D02*
X81592914Y-47264285D01*
X81592914Y-47264285D02*
X81640533Y-47359523D01*
X73578120Y-79204819D02*
X73578120Y-80014342D01*
X73578120Y-80014342D02*
X73625739Y-80109580D01*
X73625739Y-80109580D02*
X73673358Y-80157200D01*
X73673358Y-80157200D02*
X73768596Y-80204819D01*
X73768596Y-80204819D02*
X73959072Y-80204819D01*
X73959072Y-80204819D02*
X74054310Y-80157200D01*
X74054310Y-80157200D02*
X74101929Y-80109580D01*
X74101929Y-80109580D02*
X74149548Y-80014342D01*
X74149548Y-80014342D02*
X74149548Y-79204819D01*
X75149548Y-80204819D02*
X74578120Y-80204819D01*
X74863834Y-80204819D02*
X74863834Y-79204819D01*
X74863834Y-79204819D02*
X74768596Y-79347676D01*
X74768596Y-79347676D02*
X74673358Y-79442914D01*
X74673358Y-79442914D02*
X74578120Y-79490533D01*
X71543333Y-77859580D02*
X71495714Y-77907200D01*
X71495714Y-77907200D02*
X71352857Y-77954819D01*
X71352857Y-77954819D02*
X71257619Y-77954819D01*
X71257619Y-77954819D02*
X71114762Y-77907200D01*
X71114762Y-77907200D02*
X71019524Y-77811961D01*
X71019524Y-77811961D02*
X70971905Y-77716723D01*
X70971905Y-77716723D02*
X70924286Y-77526247D01*
X70924286Y-77526247D02*
X70924286Y-77383390D01*
X70924286Y-77383390D02*
X70971905Y-77192914D01*
X70971905Y-77192914D02*
X71019524Y-77097676D01*
X71019524Y-77097676D02*
X71114762Y-77002438D01*
X71114762Y-77002438D02*
X71257619Y-76954819D01*
X71257619Y-76954819D02*
X71352857Y-76954819D01*
X71352857Y-76954819D02*
X71495714Y-77002438D01*
X71495714Y-77002438D02*
X71543333Y-77050057D01*
X72400476Y-77288152D02*
X72400476Y-77954819D01*
X72162381Y-76907200D02*
X71924286Y-77621485D01*
X71924286Y-77621485D02*
X72543333Y-77621485D01*
X75907142Y-68204819D02*
X75573809Y-67728628D01*
X75335714Y-68204819D02*
X75335714Y-67204819D01*
X75335714Y-67204819D02*
X75716666Y-67204819D01*
X75716666Y-67204819D02*
X75811904Y-67252438D01*
X75811904Y-67252438D02*
X75859523Y-67300057D01*
X75859523Y-67300057D02*
X75907142Y-67395295D01*
X75907142Y-67395295D02*
X75907142Y-67538152D01*
X75907142Y-67538152D02*
X75859523Y-67633390D01*
X75859523Y-67633390D02*
X75811904Y-67681009D01*
X75811904Y-67681009D02*
X75716666Y-67728628D01*
X75716666Y-67728628D02*
X75335714Y-67728628D01*
X76859523Y-68204819D02*
X76288095Y-68204819D01*
X76573809Y-68204819D02*
X76573809Y-67204819D01*
X76573809Y-67204819D02*
X76478571Y-67347676D01*
X76478571Y-67347676D02*
X76383333Y-67442914D01*
X76383333Y-67442914D02*
X76288095Y-67490533D01*
X77811904Y-68204819D02*
X77240476Y-68204819D01*
X77526190Y-68204819D02*
X77526190Y-67204819D01*
X77526190Y-67204819D02*
X77430952Y-67347676D01*
X77430952Y-67347676D02*
X77335714Y-67442914D01*
X77335714Y-67442914D02*
X77240476Y-67490533D01*
X71543333Y-75859580D02*
X71495714Y-75907200D01*
X71495714Y-75907200D02*
X71352857Y-75954819D01*
X71352857Y-75954819D02*
X71257619Y-75954819D01*
X71257619Y-75954819D02*
X71114762Y-75907200D01*
X71114762Y-75907200D02*
X71019524Y-75811961D01*
X71019524Y-75811961D02*
X70971905Y-75716723D01*
X70971905Y-75716723D02*
X70924286Y-75526247D01*
X70924286Y-75526247D02*
X70924286Y-75383390D01*
X70924286Y-75383390D02*
X70971905Y-75192914D01*
X70971905Y-75192914D02*
X71019524Y-75097676D01*
X71019524Y-75097676D02*
X71114762Y-75002438D01*
X71114762Y-75002438D02*
X71257619Y-74954819D01*
X71257619Y-74954819D02*
X71352857Y-74954819D01*
X71352857Y-74954819D02*
X71495714Y-75002438D01*
X71495714Y-75002438D02*
X71543333Y-75050057D01*
X71876667Y-74954819D02*
X72495714Y-74954819D01*
X72495714Y-74954819D02*
X72162381Y-75335771D01*
X72162381Y-75335771D02*
X72305238Y-75335771D01*
X72305238Y-75335771D02*
X72400476Y-75383390D01*
X72400476Y-75383390D02*
X72448095Y-75431009D01*
X72448095Y-75431009D02*
X72495714Y-75526247D01*
X72495714Y-75526247D02*
X72495714Y-75764342D01*
X72495714Y-75764342D02*
X72448095Y-75859580D01*
X72448095Y-75859580D02*
X72400476Y-75907200D01*
X72400476Y-75907200D02*
X72305238Y-75954819D01*
X72305238Y-75954819D02*
X72019524Y-75954819D01*
X72019524Y-75954819D02*
X71924286Y-75907200D01*
X71924286Y-75907200D02*
X71876667Y-75859580D01*
X103607142Y-71154819D02*
X103273809Y-70678628D01*
X103035714Y-71154819D02*
X103035714Y-70154819D01*
X103035714Y-70154819D02*
X103416666Y-70154819D01*
X103416666Y-70154819D02*
X103511904Y-70202438D01*
X103511904Y-70202438D02*
X103559523Y-70250057D01*
X103559523Y-70250057D02*
X103607142Y-70345295D01*
X103607142Y-70345295D02*
X103607142Y-70488152D01*
X103607142Y-70488152D02*
X103559523Y-70583390D01*
X103559523Y-70583390D02*
X103511904Y-70631009D01*
X103511904Y-70631009D02*
X103416666Y-70678628D01*
X103416666Y-70678628D02*
X103035714Y-70678628D01*
X104559523Y-71154819D02*
X103988095Y-71154819D01*
X104273809Y-71154819D02*
X104273809Y-70154819D01*
X104273809Y-70154819D02*
X104178571Y-70297676D01*
X104178571Y-70297676D02*
X104083333Y-70392914D01*
X104083333Y-70392914D02*
X103988095Y-70440533D01*
X105130952Y-70583390D02*
X105035714Y-70535771D01*
X105035714Y-70535771D02*
X104988095Y-70488152D01*
X104988095Y-70488152D02*
X104940476Y-70392914D01*
X104940476Y-70392914D02*
X104940476Y-70345295D01*
X104940476Y-70345295D02*
X104988095Y-70250057D01*
X104988095Y-70250057D02*
X105035714Y-70202438D01*
X105035714Y-70202438D02*
X105130952Y-70154819D01*
X105130952Y-70154819D02*
X105321428Y-70154819D01*
X105321428Y-70154819D02*
X105416666Y-70202438D01*
X105416666Y-70202438D02*
X105464285Y-70250057D01*
X105464285Y-70250057D02*
X105511904Y-70345295D01*
X105511904Y-70345295D02*
X105511904Y-70392914D01*
X105511904Y-70392914D02*
X105464285Y-70488152D01*
X105464285Y-70488152D02*
X105416666Y-70535771D01*
X105416666Y-70535771D02*
X105321428Y-70583390D01*
X105321428Y-70583390D02*
X105130952Y-70583390D01*
X105130952Y-70583390D02*
X105035714Y-70631009D01*
X105035714Y-70631009D02*
X104988095Y-70678628D01*
X104988095Y-70678628D02*
X104940476Y-70773866D01*
X104940476Y-70773866D02*
X104940476Y-70964342D01*
X104940476Y-70964342D02*
X104988095Y-71059580D01*
X104988095Y-71059580D02*
X105035714Y-71107200D01*
X105035714Y-71107200D02*
X105130952Y-71154819D01*
X105130952Y-71154819D02*
X105321428Y-71154819D01*
X105321428Y-71154819D02*
X105416666Y-71107200D01*
X105416666Y-71107200D02*
X105464285Y-71059580D01*
X105464285Y-71059580D02*
X105511904Y-70964342D01*
X105511904Y-70964342D02*
X105511904Y-70773866D01*
X105511904Y-70773866D02*
X105464285Y-70678628D01*
X105464285Y-70678628D02*
X105416666Y-70631009D01*
X105416666Y-70631009D02*
X105321428Y-70583390D01*
X112057142Y-78859580D02*
X112009523Y-78907200D01*
X112009523Y-78907200D02*
X111866666Y-78954819D01*
X111866666Y-78954819D02*
X111771428Y-78954819D01*
X111771428Y-78954819D02*
X111628571Y-78907200D01*
X111628571Y-78907200D02*
X111533333Y-78811961D01*
X111533333Y-78811961D02*
X111485714Y-78716723D01*
X111485714Y-78716723D02*
X111438095Y-78526247D01*
X111438095Y-78526247D02*
X111438095Y-78383390D01*
X111438095Y-78383390D02*
X111485714Y-78192914D01*
X111485714Y-78192914D02*
X111533333Y-78097676D01*
X111533333Y-78097676D02*
X111628571Y-78002438D01*
X111628571Y-78002438D02*
X111771428Y-77954819D01*
X111771428Y-77954819D02*
X111866666Y-77954819D01*
X111866666Y-77954819D02*
X112009523Y-78002438D01*
X112009523Y-78002438D02*
X112057142Y-78050057D01*
X112438095Y-78050057D02*
X112485714Y-78002438D01*
X112485714Y-78002438D02*
X112580952Y-77954819D01*
X112580952Y-77954819D02*
X112819047Y-77954819D01*
X112819047Y-77954819D02*
X112914285Y-78002438D01*
X112914285Y-78002438D02*
X112961904Y-78050057D01*
X112961904Y-78050057D02*
X113009523Y-78145295D01*
X113009523Y-78145295D02*
X113009523Y-78240533D01*
X113009523Y-78240533D02*
X112961904Y-78383390D01*
X112961904Y-78383390D02*
X112390476Y-78954819D01*
X112390476Y-78954819D02*
X113009523Y-78954819D01*
X113580952Y-78383390D02*
X113485714Y-78335771D01*
X113485714Y-78335771D02*
X113438095Y-78288152D01*
X113438095Y-78288152D02*
X113390476Y-78192914D01*
X113390476Y-78192914D02*
X113390476Y-78145295D01*
X113390476Y-78145295D02*
X113438095Y-78050057D01*
X113438095Y-78050057D02*
X113485714Y-78002438D01*
X113485714Y-78002438D02*
X113580952Y-77954819D01*
X113580952Y-77954819D02*
X113771428Y-77954819D01*
X113771428Y-77954819D02*
X113866666Y-78002438D01*
X113866666Y-78002438D02*
X113914285Y-78050057D01*
X113914285Y-78050057D02*
X113961904Y-78145295D01*
X113961904Y-78145295D02*
X113961904Y-78192914D01*
X113961904Y-78192914D02*
X113914285Y-78288152D01*
X113914285Y-78288152D02*
X113866666Y-78335771D01*
X113866666Y-78335771D02*
X113771428Y-78383390D01*
X113771428Y-78383390D02*
X113580952Y-78383390D01*
X113580952Y-78383390D02*
X113485714Y-78431009D01*
X113485714Y-78431009D02*
X113438095Y-78478628D01*
X113438095Y-78478628D02*
X113390476Y-78573866D01*
X113390476Y-78573866D02*
X113390476Y-78764342D01*
X113390476Y-78764342D02*
X113438095Y-78859580D01*
X113438095Y-78859580D02*
X113485714Y-78907200D01*
X113485714Y-78907200D02*
X113580952Y-78954819D01*
X113580952Y-78954819D02*
X113771428Y-78954819D01*
X113771428Y-78954819D02*
X113866666Y-78907200D01*
X113866666Y-78907200D02*
X113914285Y-78859580D01*
X113914285Y-78859580D02*
X113961904Y-78764342D01*
X113961904Y-78764342D02*
X113961904Y-78573866D01*
X113961904Y-78573866D02*
X113914285Y-78478628D01*
X113914285Y-78478628D02*
X113866666Y-78431009D01*
X113866666Y-78431009D02*
X113771428Y-78383390D01*
X109707142Y-61504819D02*
X109373809Y-61028628D01*
X109135714Y-61504819D02*
X109135714Y-60504819D01*
X109135714Y-60504819D02*
X109516666Y-60504819D01*
X109516666Y-60504819D02*
X109611904Y-60552438D01*
X109611904Y-60552438D02*
X109659523Y-60600057D01*
X109659523Y-60600057D02*
X109707142Y-60695295D01*
X109707142Y-60695295D02*
X109707142Y-60838152D01*
X109707142Y-60838152D02*
X109659523Y-60933390D01*
X109659523Y-60933390D02*
X109611904Y-60981009D01*
X109611904Y-60981009D02*
X109516666Y-61028628D01*
X109516666Y-61028628D02*
X109135714Y-61028628D01*
X110659523Y-61504819D02*
X110088095Y-61504819D01*
X110373809Y-61504819D02*
X110373809Y-60504819D01*
X110373809Y-60504819D02*
X110278571Y-60647676D01*
X110278571Y-60647676D02*
X110183333Y-60742914D01*
X110183333Y-60742914D02*
X110088095Y-60790533D01*
X110992857Y-60504819D02*
X111611904Y-60504819D01*
X111611904Y-60504819D02*
X111278571Y-60885771D01*
X111278571Y-60885771D02*
X111421428Y-60885771D01*
X111421428Y-60885771D02*
X111516666Y-60933390D01*
X111516666Y-60933390D02*
X111564285Y-60981009D01*
X111564285Y-60981009D02*
X111611904Y-61076247D01*
X111611904Y-61076247D02*
X111611904Y-61314342D01*
X111611904Y-61314342D02*
X111564285Y-61409580D01*
X111564285Y-61409580D02*
X111516666Y-61457200D01*
X111516666Y-61457200D02*
X111421428Y-61504819D01*
X111421428Y-61504819D02*
X111135714Y-61504819D01*
X111135714Y-61504819D02*
X111040476Y-61457200D01*
X111040476Y-61457200D02*
X110992857Y-61409580D01*
X96007142Y-106104819D02*
X95673809Y-105628628D01*
X95435714Y-106104819D02*
X95435714Y-105104819D01*
X95435714Y-105104819D02*
X95816666Y-105104819D01*
X95816666Y-105104819D02*
X95911904Y-105152438D01*
X95911904Y-105152438D02*
X95959523Y-105200057D01*
X95959523Y-105200057D02*
X96007142Y-105295295D01*
X96007142Y-105295295D02*
X96007142Y-105438152D01*
X96007142Y-105438152D02*
X95959523Y-105533390D01*
X95959523Y-105533390D02*
X95911904Y-105581009D01*
X95911904Y-105581009D02*
X95816666Y-105628628D01*
X95816666Y-105628628D02*
X95435714Y-105628628D01*
X96388095Y-105200057D02*
X96435714Y-105152438D01*
X96435714Y-105152438D02*
X96530952Y-105104819D01*
X96530952Y-105104819D02*
X96769047Y-105104819D01*
X96769047Y-105104819D02*
X96864285Y-105152438D01*
X96864285Y-105152438D02*
X96911904Y-105200057D01*
X96911904Y-105200057D02*
X96959523Y-105295295D01*
X96959523Y-105295295D02*
X96959523Y-105390533D01*
X96959523Y-105390533D02*
X96911904Y-105533390D01*
X96911904Y-105533390D02*
X96340476Y-106104819D01*
X96340476Y-106104819D02*
X96959523Y-106104819D01*
X97578571Y-105104819D02*
X97673809Y-105104819D01*
X97673809Y-105104819D02*
X97769047Y-105152438D01*
X97769047Y-105152438D02*
X97816666Y-105200057D01*
X97816666Y-105200057D02*
X97864285Y-105295295D01*
X97864285Y-105295295D02*
X97911904Y-105485771D01*
X97911904Y-105485771D02*
X97911904Y-105723866D01*
X97911904Y-105723866D02*
X97864285Y-105914342D01*
X97864285Y-105914342D02*
X97816666Y-106009580D01*
X97816666Y-106009580D02*
X97769047Y-106057200D01*
X97769047Y-106057200D02*
X97673809Y-106104819D01*
X97673809Y-106104819D02*
X97578571Y-106104819D01*
X97578571Y-106104819D02*
X97483333Y-106057200D01*
X97483333Y-106057200D02*
X97435714Y-106009580D01*
X97435714Y-106009580D02*
X97388095Y-105914342D01*
X97388095Y-105914342D02*
X97340476Y-105723866D01*
X97340476Y-105723866D02*
X97340476Y-105485771D01*
X97340476Y-105485771D02*
X97388095Y-105295295D01*
X97388095Y-105295295D02*
X97435714Y-105200057D01*
X97435714Y-105200057D02*
X97483333Y-105152438D01*
X97483333Y-105152438D02*
X97578571Y-105104819D01*
X68583333Y-62954819D02*
X68250000Y-62478628D01*
X68011905Y-62954819D02*
X68011905Y-61954819D01*
X68011905Y-61954819D02*
X68392857Y-61954819D01*
X68392857Y-61954819D02*
X68488095Y-62002438D01*
X68488095Y-62002438D02*
X68535714Y-62050057D01*
X68535714Y-62050057D02*
X68583333Y-62145295D01*
X68583333Y-62145295D02*
X68583333Y-62288152D01*
X68583333Y-62288152D02*
X68535714Y-62383390D01*
X68535714Y-62383390D02*
X68488095Y-62431009D01*
X68488095Y-62431009D02*
X68392857Y-62478628D01*
X68392857Y-62478628D02*
X68011905Y-62478628D01*
X69440476Y-61954819D02*
X69250000Y-61954819D01*
X69250000Y-61954819D02*
X69154762Y-62002438D01*
X69154762Y-62002438D02*
X69107143Y-62050057D01*
X69107143Y-62050057D02*
X69011905Y-62192914D01*
X69011905Y-62192914D02*
X68964286Y-62383390D01*
X68964286Y-62383390D02*
X68964286Y-62764342D01*
X68964286Y-62764342D02*
X69011905Y-62859580D01*
X69011905Y-62859580D02*
X69059524Y-62907200D01*
X69059524Y-62907200D02*
X69154762Y-62954819D01*
X69154762Y-62954819D02*
X69345238Y-62954819D01*
X69345238Y-62954819D02*
X69440476Y-62907200D01*
X69440476Y-62907200D02*
X69488095Y-62859580D01*
X69488095Y-62859580D02*
X69535714Y-62764342D01*
X69535714Y-62764342D02*
X69535714Y-62526247D01*
X69535714Y-62526247D02*
X69488095Y-62431009D01*
X69488095Y-62431009D02*
X69440476Y-62383390D01*
X69440476Y-62383390D02*
X69345238Y-62335771D01*
X69345238Y-62335771D02*
X69154762Y-62335771D01*
X69154762Y-62335771D02*
X69059524Y-62383390D01*
X69059524Y-62383390D02*
X69011905Y-62431009D01*
X69011905Y-62431009D02*
X68964286Y-62526247D01*
X84533333Y-58054819D02*
X84200000Y-57578628D01*
X83961905Y-58054819D02*
X83961905Y-57054819D01*
X83961905Y-57054819D02*
X84342857Y-57054819D01*
X84342857Y-57054819D02*
X84438095Y-57102438D01*
X84438095Y-57102438D02*
X84485714Y-57150057D01*
X84485714Y-57150057D02*
X84533333Y-57245295D01*
X84533333Y-57245295D02*
X84533333Y-57388152D01*
X84533333Y-57388152D02*
X84485714Y-57483390D01*
X84485714Y-57483390D02*
X84438095Y-57531009D01*
X84438095Y-57531009D02*
X84342857Y-57578628D01*
X84342857Y-57578628D02*
X83961905Y-57578628D01*
X85009524Y-58054819D02*
X85200000Y-58054819D01*
X85200000Y-58054819D02*
X85295238Y-58007200D01*
X85295238Y-58007200D02*
X85342857Y-57959580D01*
X85342857Y-57959580D02*
X85438095Y-57816723D01*
X85438095Y-57816723D02*
X85485714Y-57626247D01*
X85485714Y-57626247D02*
X85485714Y-57245295D01*
X85485714Y-57245295D02*
X85438095Y-57150057D01*
X85438095Y-57150057D02*
X85390476Y-57102438D01*
X85390476Y-57102438D02*
X85295238Y-57054819D01*
X85295238Y-57054819D02*
X85104762Y-57054819D01*
X85104762Y-57054819D02*
X85009524Y-57102438D01*
X85009524Y-57102438D02*
X84961905Y-57150057D01*
X84961905Y-57150057D02*
X84914286Y-57245295D01*
X84914286Y-57245295D02*
X84914286Y-57483390D01*
X84914286Y-57483390D02*
X84961905Y-57578628D01*
X84961905Y-57578628D02*
X85009524Y-57626247D01*
X85009524Y-57626247D02*
X85104762Y-57673866D01*
X85104762Y-57673866D02*
X85295238Y-57673866D01*
X85295238Y-57673866D02*
X85390476Y-57626247D01*
X85390476Y-57626247D02*
X85438095Y-57578628D01*
X85438095Y-57578628D02*
X85485714Y-57483390D01*
X68583333Y-65954819D02*
X68250000Y-65478628D01*
X68011905Y-65954819D02*
X68011905Y-64954819D01*
X68011905Y-64954819D02*
X68392857Y-64954819D01*
X68392857Y-64954819D02*
X68488095Y-65002438D01*
X68488095Y-65002438D02*
X68535714Y-65050057D01*
X68535714Y-65050057D02*
X68583333Y-65145295D01*
X68583333Y-65145295D02*
X68583333Y-65288152D01*
X68583333Y-65288152D02*
X68535714Y-65383390D01*
X68535714Y-65383390D02*
X68488095Y-65431009D01*
X68488095Y-65431009D02*
X68392857Y-65478628D01*
X68392857Y-65478628D02*
X68011905Y-65478628D01*
X68916667Y-64954819D02*
X69583333Y-64954819D01*
X69583333Y-64954819D02*
X69154762Y-65954819D01*
X77558097Y-41454819D02*
X77558097Y-42264342D01*
X77558097Y-42264342D02*
X77605716Y-42359580D01*
X77605716Y-42359580D02*
X77653335Y-42407200D01*
X77653335Y-42407200D02*
X77748573Y-42454819D01*
X77748573Y-42454819D02*
X77939049Y-42454819D01*
X77939049Y-42454819D02*
X78034287Y-42407200D01*
X78034287Y-42407200D02*
X78081906Y-42359580D01*
X78081906Y-42359580D02*
X78129525Y-42264342D01*
X78129525Y-42264342D02*
X78129525Y-41454819D01*
X79034287Y-41454819D02*
X78843811Y-41454819D01*
X78843811Y-41454819D02*
X78748573Y-41502438D01*
X78748573Y-41502438D02*
X78700954Y-41550057D01*
X78700954Y-41550057D02*
X78605716Y-41692914D01*
X78605716Y-41692914D02*
X78558097Y-41883390D01*
X78558097Y-41883390D02*
X78558097Y-42264342D01*
X78558097Y-42264342D02*
X78605716Y-42359580D01*
X78605716Y-42359580D02*
X78653335Y-42407200D01*
X78653335Y-42407200D02*
X78748573Y-42454819D01*
X78748573Y-42454819D02*
X78939049Y-42454819D01*
X78939049Y-42454819D02*
X79034287Y-42407200D01*
X79034287Y-42407200D02*
X79081906Y-42359580D01*
X79081906Y-42359580D02*
X79129525Y-42264342D01*
X79129525Y-42264342D02*
X79129525Y-42026247D01*
X79129525Y-42026247D02*
X79081906Y-41931009D01*
X79081906Y-41931009D02*
X79034287Y-41883390D01*
X79034287Y-41883390D02*
X78939049Y-41835771D01*
X78939049Y-41835771D02*
X78748573Y-41835771D01*
X78748573Y-41835771D02*
X78653335Y-41883390D01*
X78653335Y-41883390D02*
X78605716Y-41931009D01*
X78605716Y-41931009D02*
X78558097Y-42026247D01*
X100607142Y-88204819D02*
X100273809Y-87728628D01*
X100035714Y-88204819D02*
X100035714Y-87204819D01*
X100035714Y-87204819D02*
X100416666Y-87204819D01*
X100416666Y-87204819D02*
X100511904Y-87252438D01*
X100511904Y-87252438D02*
X100559523Y-87300057D01*
X100559523Y-87300057D02*
X100607142Y-87395295D01*
X100607142Y-87395295D02*
X100607142Y-87538152D01*
X100607142Y-87538152D02*
X100559523Y-87633390D01*
X100559523Y-87633390D02*
X100511904Y-87681009D01*
X100511904Y-87681009D02*
X100416666Y-87728628D01*
X100416666Y-87728628D02*
X100035714Y-87728628D01*
X101559523Y-88204819D02*
X100988095Y-88204819D01*
X101273809Y-88204819D02*
X101273809Y-87204819D01*
X101273809Y-87204819D02*
X101178571Y-87347676D01*
X101178571Y-87347676D02*
X101083333Y-87442914D01*
X101083333Y-87442914D02*
X100988095Y-87490533D01*
X102464285Y-87204819D02*
X101988095Y-87204819D01*
X101988095Y-87204819D02*
X101940476Y-87681009D01*
X101940476Y-87681009D02*
X101988095Y-87633390D01*
X101988095Y-87633390D02*
X102083333Y-87585771D01*
X102083333Y-87585771D02*
X102321428Y-87585771D01*
X102321428Y-87585771D02*
X102416666Y-87633390D01*
X102416666Y-87633390D02*
X102464285Y-87681009D01*
X102464285Y-87681009D02*
X102511904Y-87776247D01*
X102511904Y-87776247D02*
X102511904Y-88014342D01*
X102511904Y-88014342D02*
X102464285Y-88109580D01*
X102464285Y-88109580D02*
X102416666Y-88157200D01*
X102416666Y-88157200D02*
X102321428Y-88204819D01*
X102321428Y-88204819D02*
X102083333Y-88204819D01*
X102083333Y-88204819D02*
X101988095Y-88157200D01*
X101988095Y-88157200D02*
X101940476Y-88109580D01*
X103607142Y-69109580D02*
X103559523Y-69157200D01*
X103559523Y-69157200D02*
X103416666Y-69204819D01*
X103416666Y-69204819D02*
X103321428Y-69204819D01*
X103321428Y-69204819D02*
X103178571Y-69157200D01*
X103178571Y-69157200D02*
X103083333Y-69061961D01*
X103083333Y-69061961D02*
X103035714Y-68966723D01*
X103035714Y-68966723D02*
X102988095Y-68776247D01*
X102988095Y-68776247D02*
X102988095Y-68633390D01*
X102988095Y-68633390D02*
X103035714Y-68442914D01*
X103035714Y-68442914D02*
X103083333Y-68347676D01*
X103083333Y-68347676D02*
X103178571Y-68252438D01*
X103178571Y-68252438D02*
X103321428Y-68204819D01*
X103321428Y-68204819D02*
X103416666Y-68204819D01*
X103416666Y-68204819D02*
X103559523Y-68252438D01*
X103559523Y-68252438D02*
X103607142Y-68300057D01*
X103988095Y-68300057D02*
X104035714Y-68252438D01*
X104035714Y-68252438D02*
X104130952Y-68204819D01*
X104130952Y-68204819D02*
X104369047Y-68204819D01*
X104369047Y-68204819D02*
X104464285Y-68252438D01*
X104464285Y-68252438D02*
X104511904Y-68300057D01*
X104511904Y-68300057D02*
X104559523Y-68395295D01*
X104559523Y-68395295D02*
X104559523Y-68490533D01*
X104559523Y-68490533D02*
X104511904Y-68633390D01*
X104511904Y-68633390D02*
X103940476Y-69204819D01*
X103940476Y-69204819D02*
X104559523Y-69204819D01*
X104892857Y-68204819D02*
X105559523Y-68204819D01*
X105559523Y-68204819D02*
X105130952Y-69204819D01*
X95807142Y-101959580D02*
X95759523Y-102007200D01*
X95759523Y-102007200D02*
X95616666Y-102054819D01*
X95616666Y-102054819D02*
X95521428Y-102054819D01*
X95521428Y-102054819D02*
X95378571Y-102007200D01*
X95378571Y-102007200D02*
X95283333Y-101911961D01*
X95283333Y-101911961D02*
X95235714Y-101816723D01*
X95235714Y-101816723D02*
X95188095Y-101626247D01*
X95188095Y-101626247D02*
X95188095Y-101483390D01*
X95188095Y-101483390D02*
X95235714Y-101292914D01*
X95235714Y-101292914D02*
X95283333Y-101197676D01*
X95283333Y-101197676D02*
X95378571Y-101102438D01*
X95378571Y-101102438D02*
X95521428Y-101054819D01*
X95521428Y-101054819D02*
X95616666Y-101054819D01*
X95616666Y-101054819D02*
X95759523Y-101102438D01*
X95759523Y-101102438D02*
X95807142Y-101150057D01*
X96188095Y-101150057D02*
X96235714Y-101102438D01*
X96235714Y-101102438D02*
X96330952Y-101054819D01*
X96330952Y-101054819D02*
X96569047Y-101054819D01*
X96569047Y-101054819D02*
X96664285Y-101102438D01*
X96664285Y-101102438D02*
X96711904Y-101150057D01*
X96711904Y-101150057D02*
X96759523Y-101245295D01*
X96759523Y-101245295D02*
X96759523Y-101340533D01*
X96759523Y-101340533D02*
X96711904Y-101483390D01*
X96711904Y-101483390D02*
X96140476Y-102054819D01*
X96140476Y-102054819D02*
X96759523Y-102054819D01*
X97235714Y-102054819D02*
X97426190Y-102054819D01*
X97426190Y-102054819D02*
X97521428Y-102007200D01*
X97521428Y-102007200D02*
X97569047Y-101959580D01*
X97569047Y-101959580D02*
X97664285Y-101816723D01*
X97664285Y-101816723D02*
X97711904Y-101626247D01*
X97711904Y-101626247D02*
X97711904Y-101245295D01*
X97711904Y-101245295D02*
X97664285Y-101150057D01*
X97664285Y-101150057D02*
X97616666Y-101102438D01*
X97616666Y-101102438D02*
X97521428Y-101054819D01*
X97521428Y-101054819D02*
X97330952Y-101054819D01*
X97330952Y-101054819D02*
X97235714Y-101102438D01*
X97235714Y-101102438D02*
X97188095Y-101150057D01*
X97188095Y-101150057D02*
X97140476Y-101245295D01*
X97140476Y-101245295D02*
X97140476Y-101483390D01*
X97140476Y-101483390D02*
X97188095Y-101578628D01*
X97188095Y-101578628D02*
X97235714Y-101626247D01*
X97235714Y-101626247D02*
X97330952Y-101673866D01*
X97330952Y-101673866D02*
X97521428Y-101673866D01*
X97521428Y-101673866D02*
X97616666Y-101626247D01*
X97616666Y-101626247D02*
X97664285Y-101578628D01*
X97664285Y-101578628D02*
X97711904Y-101483390D01*
X103607142Y-73009580D02*
X103559523Y-73057200D01*
X103559523Y-73057200D02*
X103416666Y-73104819D01*
X103416666Y-73104819D02*
X103321428Y-73104819D01*
X103321428Y-73104819D02*
X103178571Y-73057200D01*
X103178571Y-73057200D02*
X103083333Y-72961961D01*
X103083333Y-72961961D02*
X103035714Y-72866723D01*
X103035714Y-72866723D02*
X102988095Y-72676247D01*
X102988095Y-72676247D02*
X102988095Y-72533390D01*
X102988095Y-72533390D02*
X103035714Y-72342914D01*
X103035714Y-72342914D02*
X103083333Y-72247676D01*
X103083333Y-72247676D02*
X103178571Y-72152438D01*
X103178571Y-72152438D02*
X103321428Y-72104819D01*
X103321428Y-72104819D02*
X103416666Y-72104819D01*
X103416666Y-72104819D02*
X103559523Y-72152438D01*
X103559523Y-72152438D02*
X103607142Y-72200057D01*
X103988095Y-72200057D02*
X104035714Y-72152438D01*
X104035714Y-72152438D02*
X104130952Y-72104819D01*
X104130952Y-72104819D02*
X104369047Y-72104819D01*
X104369047Y-72104819D02*
X104464285Y-72152438D01*
X104464285Y-72152438D02*
X104511904Y-72200057D01*
X104511904Y-72200057D02*
X104559523Y-72295295D01*
X104559523Y-72295295D02*
X104559523Y-72390533D01*
X104559523Y-72390533D02*
X104511904Y-72533390D01*
X104511904Y-72533390D02*
X103940476Y-73104819D01*
X103940476Y-73104819D02*
X104559523Y-73104819D01*
X105416666Y-72104819D02*
X105226190Y-72104819D01*
X105226190Y-72104819D02*
X105130952Y-72152438D01*
X105130952Y-72152438D02*
X105083333Y-72200057D01*
X105083333Y-72200057D02*
X104988095Y-72342914D01*
X104988095Y-72342914D02*
X104940476Y-72533390D01*
X104940476Y-72533390D02*
X104940476Y-72914342D01*
X104940476Y-72914342D02*
X104988095Y-73009580D01*
X104988095Y-73009580D02*
X105035714Y-73057200D01*
X105035714Y-73057200D02*
X105130952Y-73104819D01*
X105130952Y-73104819D02*
X105321428Y-73104819D01*
X105321428Y-73104819D02*
X105416666Y-73057200D01*
X105416666Y-73057200D02*
X105464285Y-73009580D01*
X105464285Y-73009580D02*
X105511904Y-72914342D01*
X105511904Y-72914342D02*
X105511904Y-72676247D01*
X105511904Y-72676247D02*
X105464285Y-72581009D01*
X105464285Y-72581009D02*
X105416666Y-72533390D01*
X105416666Y-72533390D02*
X105321428Y-72485771D01*
X105321428Y-72485771D02*
X105130952Y-72485771D01*
X105130952Y-72485771D02*
X105035714Y-72533390D01*
X105035714Y-72533390D02*
X104988095Y-72581009D01*
X104988095Y-72581009D02*
X104940476Y-72676247D01*
X77888095Y-85004819D02*
X77888095Y-85814342D01*
X77888095Y-85814342D02*
X77935714Y-85909580D01*
X77935714Y-85909580D02*
X77983333Y-85957200D01*
X77983333Y-85957200D02*
X78078571Y-86004819D01*
X78078571Y-86004819D02*
X78269047Y-86004819D01*
X78269047Y-86004819D02*
X78364285Y-85957200D01*
X78364285Y-85957200D02*
X78411904Y-85909580D01*
X78411904Y-85909580D02*
X78459523Y-85814342D01*
X78459523Y-85814342D02*
X78459523Y-85004819D01*
X78888095Y-85100057D02*
X78935714Y-85052438D01*
X78935714Y-85052438D02*
X79030952Y-85004819D01*
X79030952Y-85004819D02*
X79269047Y-85004819D01*
X79269047Y-85004819D02*
X79364285Y-85052438D01*
X79364285Y-85052438D02*
X79411904Y-85100057D01*
X79411904Y-85100057D02*
X79459523Y-85195295D01*
X79459523Y-85195295D02*
X79459523Y-85290533D01*
X79459523Y-85290533D02*
X79411904Y-85433390D01*
X79411904Y-85433390D02*
X78840476Y-86004819D01*
X78840476Y-86004819D02*
X79459523Y-86004819D01*
X112638095Y-39754819D02*
X113209523Y-39754819D01*
X112923809Y-40754819D02*
X112923809Y-39754819D01*
X113542857Y-40754819D02*
X113542857Y-39754819D01*
X113542857Y-39754819D02*
X113923809Y-39754819D01*
X113923809Y-39754819D02*
X114019047Y-39802438D01*
X114019047Y-39802438D02*
X114066666Y-39850057D01*
X114066666Y-39850057D02*
X114114285Y-39945295D01*
X114114285Y-39945295D02*
X114114285Y-40088152D01*
X114114285Y-40088152D02*
X114066666Y-40183390D01*
X114066666Y-40183390D02*
X114019047Y-40231009D01*
X114019047Y-40231009D02*
X113923809Y-40278628D01*
X113923809Y-40278628D02*
X113542857Y-40278628D01*
X115066666Y-40754819D02*
X114495238Y-40754819D01*
X114780952Y-40754819D02*
X114780952Y-39754819D01*
X114780952Y-39754819D02*
X114685714Y-39897676D01*
X114685714Y-39897676D02*
X114590476Y-39992914D01*
X114590476Y-39992914D02*
X114495238Y-40040533D01*
X66461319Y-50509580D02*
X66413700Y-50557200D01*
X66413700Y-50557200D02*
X66270843Y-50604819D01*
X66270843Y-50604819D02*
X66175605Y-50604819D01*
X66175605Y-50604819D02*
X66032748Y-50557200D01*
X66032748Y-50557200D02*
X65937510Y-50461961D01*
X65937510Y-50461961D02*
X65889891Y-50366723D01*
X65889891Y-50366723D02*
X65842272Y-50176247D01*
X65842272Y-50176247D02*
X65842272Y-50033390D01*
X65842272Y-50033390D02*
X65889891Y-49842914D01*
X65889891Y-49842914D02*
X65937510Y-49747676D01*
X65937510Y-49747676D02*
X66032748Y-49652438D01*
X66032748Y-49652438D02*
X66175605Y-49604819D01*
X66175605Y-49604819D02*
X66270843Y-49604819D01*
X66270843Y-49604819D02*
X66413700Y-49652438D01*
X66413700Y-49652438D02*
X66461319Y-49700057D01*
X67318462Y-49604819D02*
X67127986Y-49604819D01*
X67127986Y-49604819D02*
X67032748Y-49652438D01*
X67032748Y-49652438D02*
X66985129Y-49700057D01*
X66985129Y-49700057D02*
X66889891Y-49842914D01*
X66889891Y-49842914D02*
X66842272Y-50033390D01*
X66842272Y-50033390D02*
X66842272Y-50414342D01*
X66842272Y-50414342D02*
X66889891Y-50509580D01*
X66889891Y-50509580D02*
X66937510Y-50557200D01*
X66937510Y-50557200D02*
X67032748Y-50604819D01*
X67032748Y-50604819D02*
X67223224Y-50604819D01*
X67223224Y-50604819D02*
X67318462Y-50557200D01*
X67318462Y-50557200D02*
X67366081Y-50509580D01*
X67366081Y-50509580D02*
X67413700Y-50414342D01*
X67413700Y-50414342D02*
X67413700Y-50176247D01*
X67413700Y-50176247D02*
X67366081Y-50081009D01*
X67366081Y-50081009D02*
X67318462Y-50033390D01*
X67318462Y-50033390D02*
X67223224Y-49985771D01*
X67223224Y-49985771D02*
X67032748Y-49985771D01*
X67032748Y-49985771D02*
X66937510Y-50033390D01*
X66937510Y-50033390D02*
X66889891Y-50081009D01*
X66889891Y-50081009D02*
X66842272Y-50176247D01*
X81948095Y-85454819D02*
X81948095Y-86264342D01*
X81948095Y-86264342D02*
X81995714Y-86359580D01*
X81995714Y-86359580D02*
X82043333Y-86407200D01*
X82043333Y-86407200D02*
X82138571Y-86454819D01*
X82138571Y-86454819D02*
X82329047Y-86454819D01*
X82329047Y-86454819D02*
X82424285Y-86407200D01*
X82424285Y-86407200D02*
X82471904Y-86359580D01*
X82471904Y-86359580D02*
X82519523Y-86264342D01*
X82519523Y-86264342D02*
X82519523Y-85454819D01*
X82900476Y-85454819D02*
X83519523Y-85454819D01*
X83519523Y-85454819D02*
X83186190Y-85835771D01*
X83186190Y-85835771D02*
X83329047Y-85835771D01*
X83329047Y-85835771D02*
X83424285Y-85883390D01*
X83424285Y-85883390D02*
X83471904Y-85931009D01*
X83471904Y-85931009D02*
X83519523Y-86026247D01*
X83519523Y-86026247D02*
X83519523Y-86264342D01*
X83519523Y-86264342D02*
X83471904Y-86359580D01*
X83471904Y-86359580D02*
X83424285Y-86407200D01*
X83424285Y-86407200D02*
X83329047Y-86454819D01*
X83329047Y-86454819D02*
X83043333Y-86454819D01*
X83043333Y-86454819D02*
X82948095Y-86407200D01*
X82948095Y-86407200D02*
X82900476Y-86359580D01*
X56966666Y-89054819D02*
X56966666Y-89769104D01*
X56966666Y-89769104D02*
X56919047Y-89911961D01*
X56919047Y-89911961D02*
X56823809Y-90007200D01*
X56823809Y-90007200D02*
X56680952Y-90054819D01*
X56680952Y-90054819D02*
X56585714Y-90054819D01*
X57395238Y-89150057D02*
X57442857Y-89102438D01*
X57442857Y-89102438D02*
X57538095Y-89054819D01*
X57538095Y-89054819D02*
X57776190Y-89054819D01*
X57776190Y-89054819D02*
X57871428Y-89102438D01*
X57871428Y-89102438D02*
X57919047Y-89150057D01*
X57919047Y-89150057D02*
X57966666Y-89245295D01*
X57966666Y-89245295D02*
X57966666Y-89340533D01*
X57966666Y-89340533D02*
X57919047Y-89483390D01*
X57919047Y-89483390D02*
X57347619Y-90054819D01*
X57347619Y-90054819D02*
X57966666Y-90054819D01*
X84707142Y-63354819D02*
X84373809Y-62878628D01*
X84135714Y-63354819D02*
X84135714Y-62354819D01*
X84135714Y-62354819D02*
X84516666Y-62354819D01*
X84516666Y-62354819D02*
X84611904Y-62402438D01*
X84611904Y-62402438D02*
X84659523Y-62450057D01*
X84659523Y-62450057D02*
X84707142Y-62545295D01*
X84707142Y-62545295D02*
X84707142Y-62688152D01*
X84707142Y-62688152D02*
X84659523Y-62783390D01*
X84659523Y-62783390D02*
X84611904Y-62831009D01*
X84611904Y-62831009D02*
X84516666Y-62878628D01*
X84516666Y-62878628D02*
X84135714Y-62878628D01*
X85659523Y-63354819D02*
X85088095Y-63354819D01*
X85373809Y-63354819D02*
X85373809Y-62354819D01*
X85373809Y-62354819D02*
X85278571Y-62497676D01*
X85278571Y-62497676D02*
X85183333Y-62592914D01*
X85183333Y-62592914D02*
X85088095Y-62640533D01*
X86278571Y-62354819D02*
X86373809Y-62354819D01*
X86373809Y-62354819D02*
X86469047Y-62402438D01*
X86469047Y-62402438D02*
X86516666Y-62450057D01*
X86516666Y-62450057D02*
X86564285Y-62545295D01*
X86564285Y-62545295D02*
X86611904Y-62735771D01*
X86611904Y-62735771D02*
X86611904Y-62973866D01*
X86611904Y-62973866D02*
X86564285Y-63164342D01*
X86564285Y-63164342D02*
X86516666Y-63259580D01*
X86516666Y-63259580D02*
X86469047Y-63307200D01*
X86469047Y-63307200D02*
X86373809Y-63354819D01*
X86373809Y-63354819D02*
X86278571Y-63354819D01*
X86278571Y-63354819D02*
X86183333Y-63307200D01*
X86183333Y-63307200D02*
X86135714Y-63259580D01*
X86135714Y-63259580D02*
X86088095Y-63164342D01*
X86088095Y-63164342D02*
X86040476Y-62973866D01*
X86040476Y-62973866D02*
X86040476Y-62735771D01*
X86040476Y-62735771D02*
X86088095Y-62545295D01*
X86088095Y-62545295D02*
X86135714Y-62450057D01*
X86135714Y-62450057D02*
X86183333Y-62402438D01*
X86183333Y-62402438D02*
X86278571Y-62354819D01*
X88509580Y-48692857D02*
X88557200Y-48740476D01*
X88557200Y-48740476D02*
X88604819Y-48883333D01*
X88604819Y-48883333D02*
X88604819Y-48978571D01*
X88604819Y-48978571D02*
X88557200Y-49121428D01*
X88557200Y-49121428D02*
X88461961Y-49216666D01*
X88461961Y-49216666D02*
X88366723Y-49264285D01*
X88366723Y-49264285D02*
X88176247Y-49311904D01*
X88176247Y-49311904D02*
X88033390Y-49311904D01*
X88033390Y-49311904D02*
X87842914Y-49264285D01*
X87842914Y-49264285D02*
X87747676Y-49216666D01*
X87747676Y-49216666D02*
X87652438Y-49121428D01*
X87652438Y-49121428D02*
X87604819Y-48978571D01*
X87604819Y-48978571D02*
X87604819Y-48883333D01*
X87604819Y-48883333D02*
X87652438Y-48740476D01*
X87652438Y-48740476D02*
X87700057Y-48692857D01*
X88604819Y-47740476D02*
X88604819Y-48311904D01*
X88604819Y-48026190D02*
X87604819Y-48026190D01*
X87604819Y-48026190D02*
X87747676Y-48121428D01*
X87747676Y-48121428D02*
X87842914Y-48216666D01*
X87842914Y-48216666D02*
X87890533Y-48311904D01*
X87604819Y-47407142D02*
X87604819Y-46788095D01*
X87604819Y-46788095D02*
X87985771Y-47121428D01*
X87985771Y-47121428D02*
X87985771Y-46978571D01*
X87985771Y-46978571D02*
X88033390Y-46883333D01*
X88033390Y-46883333D02*
X88081009Y-46835714D01*
X88081009Y-46835714D02*
X88176247Y-46788095D01*
X88176247Y-46788095D02*
X88414342Y-46788095D01*
X88414342Y-46788095D02*
X88509580Y-46835714D01*
X88509580Y-46835714D02*
X88557200Y-46883333D01*
X88557200Y-46883333D02*
X88604819Y-46978571D01*
X88604819Y-46978571D02*
X88604819Y-47264285D01*
X88604819Y-47264285D02*
X88557200Y-47359523D01*
X88557200Y-47359523D02*
X88509580Y-47407142D01*
X71058097Y-41454819D02*
X71058097Y-42264342D01*
X71058097Y-42264342D02*
X71105716Y-42359580D01*
X71105716Y-42359580D02*
X71153335Y-42407200D01*
X71153335Y-42407200D02*
X71248573Y-42454819D01*
X71248573Y-42454819D02*
X71439049Y-42454819D01*
X71439049Y-42454819D02*
X71534287Y-42407200D01*
X71534287Y-42407200D02*
X71581906Y-42359580D01*
X71581906Y-42359580D02*
X71629525Y-42264342D01*
X71629525Y-42264342D02*
X71629525Y-41454819D01*
X72581906Y-41454819D02*
X72105716Y-41454819D01*
X72105716Y-41454819D02*
X72058097Y-41931009D01*
X72058097Y-41931009D02*
X72105716Y-41883390D01*
X72105716Y-41883390D02*
X72200954Y-41835771D01*
X72200954Y-41835771D02*
X72439049Y-41835771D01*
X72439049Y-41835771D02*
X72534287Y-41883390D01*
X72534287Y-41883390D02*
X72581906Y-41931009D01*
X72581906Y-41931009D02*
X72629525Y-42026247D01*
X72629525Y-42026247D02*
X72629525Y-42264342D01*
X72629525Y-42264342D02*
X72581906Y-42359580D01*
X72581906Y-42359580D02*
X72534287Y-42407200D01*
X72534287Y-42407200D02*
X72439049Y-42454819D01*
X72439049Y-42454819D02*
X72200954Y-42454819D01*
X72200954Y-42454819D02*
X72105716Y-42407200D01*
X72105716Y-42407200D02*
X72058097Y-42359580D01*
X86957142Y-97800574D02*
X86623809Y-97324383D01*
X86385714Y-97800574D02*
X86385714Y-96800574D01*
X86385714Y-96800574D02*
X86766666Y-96800574D01*
X86766666Y-96800574D02*
X86861904Y-96848193D01*
X86861904Y-96848193D02*
X86909523Y-96895812D01*
X86909523Y-96895812D02*
X86957142Y-96991050D01*
X86957142Y-96991050D02*
X86957142Y-97133907D01*
X86957142Y-97133907D02*
X86909523Y-97229145D01*
X86909523Y-97229145D02*
X86861904Y-97276764D01*
X86861904Y-97276764D02*
X86766666Y-97324383D01*
X86766666Y-97324383D02*
X86385714Y-97324383D01*
X87338095Y-96895812D02*
X87385714Y-96848193D01*
X87385714Y-96848193D02*
X87480952Y-96800574D01*
X87480952Y-96800574D02*
X87719047Y-96800574D01*
X87719047Y-96800574D02*
X87814285Y-96848193D01*
X87814285Y-96848193D02*
X87861904Y-96895812D01*
X87861904Y-96895812D02*
X87909523Y-96991050D01*
X87909523Y-96991050D02*
X87909523Y-97086288D01*
X87909523Y-97086288D02*
X87861904Y-97229145D01*
X87861904Y-97229145D02*
X87290476Y-97800574D01*
X87290476Y-97800574D02*
X87909523Y-97800574D01*
X88242857Y-96800574D02*
X88861904Y-96800574D01*
X88861904Y-96800574D02*
X88528571Y-97181526D01*
X88528571Y-97181526D02*
X88671428Y-97181526D01*
X88671428Y-97181526D02*
X88766666Y-97229145D01*
X88766666Y-97229145D02*
X88814285Y-97276764D01*
X88814285Y-97276764D02*
X88861904Y-97372002D01*
X88861904Y-97372002D02*
X88861904Y-97610097D01*
X88861904Y-97610097D02*
X88814285Y-97705335D01*
X88814285Y-97705335D02*
X88766666Y-97752955D01*
X88766666Y-97752955D02*
X88671428Y-97800574D01*
X88671428Y-97800574D02*
X88385714Y-97800574D01*
X88385714Y-97800574D02*
X88290476Y-97752955D01*
X88290476Y-97752955D02*
X88242857Y-97705335D01*
X56233333Y-43734580D02*
X56185714Y-43782200D01*
X56185714Y-43782200D02*
X56042857Y-43829819D01*
X56042857Y-43829819D02*
X55947619Y-43829819D01*
X55947619Y-43829819D02*
X55804762Y-43782200D01*
X55804762Y-43782200D02*
X55709524Y-43686961D01*
X55709524Y-43686961D02*
X55661905Y-43591723D01*
X55661905Y-43591723D02*
X55614286Y-43401247D01*
X55614286Y-43401247D02*
X55614286Y-43258390D01*
X55614286Y-43258390D02*
X55661905Y-43067914D01*
X55661905Y-43067914D02*
X55709524Y-42972676D01*
X55709524Y-42972676D02*
X55804762Y-42877438D01*
X55804762Y-42877438D02*
X55947619Y-42829819D01*
X55947619Y-42829819D02*
X56042857Y-42829819D01*
X56042857Y-42829819D02*
X56185714Y-42877438D01*
X56185714Y-42877438D02*
X56233333Y-42925057D01*
X57138095Y-42829819D02*
X56661905Y-42829819D01*
X56661905Y-42829819D02*
X56614286Y-43306009D01*
X56614286Y-43306009D02*
X56661905Y-43258390D01*
X56661905Y-43258390D02*
X56757143Y-43210771D01*
X56757143Y-43210771D02*
X56995238Y-43210771D01*
X56995238Y-43210771D02*
X57090476Y-43258390D01*
X57090476Y-43258390D02*
X57138095Y-43306009D01*
X57138095Y-43306009D02*
X57185714Y-43401247D01*
X57185714Y-43401247D02*
X57185714Y-43639342D01*
X57185714Y-43639342D02*
X57138095Y-43734580D01*
X57138095Y-43734580D02*
X57090476Y-43782200D01*
X57090476Y-43782200D02*
X56995238Y-43829819D01*
X56995238Y-43829819D02*
X56757143Y-43829819D01*
X56757143Y-43829819D02*
X56661905Y-43782200D01*
X56661905Y-43782200D02*
X56614286Y-43734580D01*
X96007142Y-104094819D02*
X95673809Y-103618628D01*
X95435714Y-104094819D02*
X95435714Y-103094819D01*
X95435714Y-103094819D02*
X95816666Y-103094819D01*
X95816666Y-103094819D02*
X95911904Y-103142438D01*
X95911904Y-103142438D02*
X95959523Y-103190057D01*
X95959523Y-103190057D02*
X96007142Y-103285295D01*
X96007142Y-103285295D02*
X96007142Y-103428152D01*
X96007142Y-103428152D02*
X95959523Y-103523390D01*
X95959523Y-103523390D02*
X95911904Y-103571009D01*
X95911904Y-103571009D02*
X95816666Y-103618628D01*
X95816666Y-103618628D02*
X95435714Y-103618628D01*
X96959523Y-104094819D02*
X96388095Y-104094819D01*
X96673809Y-104094819D02*
X96673809Y-103094819D01*
X96673809Y-103094819D02*
X96578571Y-103237676D01*
X96578571Y-103237676D02*
X96483333Y-103332914D01*
X96483333Y-103332914D02*
X96388095Y-103380533D01*
X97435714Y-104094819D02*
X97626190Y-104094819D01*
X97626190Y-104094819D02*
X97721428Y-104047200D01*
X97721428Y-104047200D02*
X97769047Y-103999580D01*
X97769047Y-103999580D02*
X97864285Y-103856723D01*
X97864285Y-103856723D02*
X97911904Y-103666247D01*
X97911904Y-103666247D02*
X97911904Y-103285295D01*
X97911904Y-103285295D02*
X97864285Y-103190057D01*
X97864285Y-103190057D02*
X97816666Y-103142438D01*
X97816666Y-103142438D02*
X97721428Y-103094819D01*
X97721428Y-103094819D02*
X97530952Y-103094819D01*
X97530952Y-103094819D02*
X97435714Y-103142438D01*
X97435714Y-103142438D02*
X97388095Y-103190057D01*
X97388095Y-103190057D02*
X97340476Y-103285295D01*
X97340476Y-103285295D02*
X97340476Y-103523390D01*
X97340476Y-103523390D02*
X97388095Y-103618628D01*
X97388095Y-103618628D02*
X97435714Y-103666247D01*
X97435714Y-103666247D02*
X97530952Y-103713866D01*
X97530952Y-103713866D02*
X97721428Y-103713866D01*
X97721428Y-103713866D02*
X97816666Y-103666247D01*
X97816666Y-103666247D02*
X97864285Y-103618628D01*
X97864285Y-103618628D02*
X97911904Y-103523390D01*
X83881849Y-50509580D02*
X83834230Y-50557200D01*
X83834230Y-50557200D02*
X83691373Y-50604819D01*
X83691373Y-50604819D02*
X83596135Y-50604819D01*
X83596135Y-50604819D02*
X83453278Y-50557200D01*
X83453278Y-50557200D02*
X83358040Y-50461961D01*
X83358040Y-50461961D02*
X83310421Y-50366723D01*
X83310421Y-50366723D02*
X83262802Y-50176247D01*
X83262802Y-50176247D02*
X83262802Y-50033390D01*
X83262802Y-50033390D02*
X83310421Y-49842914D01*
X83310421Y-49842914D02*
X83358040Y-49747676D01*
X83358040Y-49747676D02*
X83453278Y-49652438D01*
X83453278Y-49652438D02*
X83596135Y-49604819D01*
X83596135Y-49604819D02*
X83691373Y-49604819D01*
X83691373Y-49604819D02*
X83834230Y-49652438D01*
X83834230Y-49652438D02*
X83881849Y-49700057D01*
X84834230Y-50604819D02*
X84262802Y-50604819D01*
X84548516Y-50604819D02*
X84548516Y-49604819D01*
X84548516Y-49604819D02*
X84453278Y-49747676D01*
X84453278Y-49747676D02*
X84358040Y-49842914D01*
X84358040Y-49842914D02*
X84262802Y-49890533D01*
X85215183Y-49700057D02*
X85262802Y-49652438D01*
X85262802Y-49652438D02*
X85358040Y-49604819D01*
X85358040Y-49604819D02*
X85596135Y-49604819D01*
X85596135Y-49604819D02*
X85691373Y-49652438D01*
X85691373Y-49652438D02*
X85738992Y-49700057D01*
X85738992Y-49700057D02*
X85786611Y-49795295D01*
X85786611Y-49795295D02*
X85786611Y-49890533D01*
X85786611Y-49890533D02*
X85738992Y-50033390D01*
X85738992Y-50033390D02*
X85167564Y-50604819D01*
X85167564Y-50604819D02*
X85786611Y-50604819D01*
X90308097Y-41454819D02*
X90308097Y-42264342D01*
X90308097Y-42264342D02*
X90355716Y-42359580D01*
X90355716Y-42359580D02*
X90403335Y-42407200D01*
X90403335Y-42407200D02*
X90498573Y-42454819D01*
X90498573Y-42454819D02*
X90689049Y-42454819D01*
X90689049Y-42454819D02*
X90784287Y-42407200D01*
X90784287Y-42407200D02*
X90831906Y-42359580D01*
X90831906Y-42359580D02*
X90879525Y-42264342D01*
X90879525Y-42264342D02*
X90879525Y-41454819D01*
X91498573Y-41883390D02*
X91403335Y-41835771D01*
X91403335Y-41835771D02*
X91355716Y-41788152D01*
X91355716Y-41788152D02*
X91308097Y-41692914D01*
X91308097Y-41692914D02*
X91308097Y-41645295D01*
X91308097Y-41645295D02*
X91355716Y-41550057D01*
X91355716Y-41550057D02*
X91403335Y-41502438D01*
X91403335Y-41502438D02*
X91498573Y-41454819D01*
X91498573Y-41454819D02*
X91689049Y-41454819D01*
X91689049Y-41454819D02*
X91784287Y-41502438D01*
X91784287Y-41502438D02*
X91831906Y-41550057D01*
X91831906Y-41550057D02*
X91879525Y-41645295D01*
X91879525Y-41645295D02*
X91879525Y-41692914D01*
X91879525Y-41692914D02*
X91831906Y-41788152D01*
X91831906Y-41788152D02*
X91784287Y-41835771D01*
X91784287Y-41835771D02*
X91689049Y-41883390D01*
X91689049Y-41883390D02*
X91498573Y-41883390D01*
X91498573Y-41883390D02*
X91403335Y-41931009D01*
X91403335Y-41931009D02*
X91355716Y-41978628D01*
X91355716Y-41978628D02*
X91308097Y-42073866D01*
X91308097Y-42073866D02*
X91308097Y-42264342D01*
X91308097Y-42264342D02*
X91355716Y-42359580D01*
X91355716Y-42359580D02*
X91403335Y-42407200D01*
X91403335Y-42407200D02*
X91498573Y-42454819D01*
X91498573Y-42454819D02*
X91689049Y-42454819D01*
X91689049Y-42454819D02*
X91784287Y-42407200D01*
X91784287Y-42407200D02*
X91831906Y-42359580D01*
X91831906Y-42359580D02*
X91879525Y-42264342D01*
X91879525Y-42264342D02*
X91879525Y-42073866D01*
X91879525Y-42073866D02*
X91831906Y-41978628D01*
X91831906Y-41978628D02*
X91784287Y-41931009D01*
X91784287Y-41931009D02*
X91689049Y-41883390D01*
D13*
%TO.C,LED1*%
X90735000Y-94765000D02*
X89265000Y-94765000D01*
X89265000Y-94765000D02*
X89265000Y-97050000D01*
X90735000Y-97050000D02*
X90735000Y-94765000D01*
D14*
%TO.C,D3*%
X109303239Y-82273787D02*
X109303239Y-83726213D01*
X108898793Y-83726213D02*
X110651245Y-83726213D01*
X108898793Y-82273787D02*
X110651245Y-82273787D01*
D15*
X110651245Y-82273787D02*
X110651245Y-82470003D01*
X110651245Y-83726213D02*
X110651245Y-83519990D01*
D16*
X108555029Y-83650013D02*
G75*
G02*
X108495035Y-83650013I-29997J0D01*
G01*
X108495035Y-83650013D02*
G75*
G02*
X108555029Y-83650013I29997J0D01*
G01*
D14*
%TO.C,D2*%
X110196761Y-81476213D02*
X110196761Y-80023787D01*
X110601207Y-80023787D02*
X108848755Y-80023787D01*
X110601207Y-81476213D02*
X108848755Y-81476213D01*
D15*
X108848755Y-81476213D02*
X108848755Y-81279997D01*
X108848755Y-80023787D02*
X108848755Y-80230010D01*
D16*
X111004965Y-80099987D02*
G75*
G02*
X110944971Y-80099987I-29997J0D01*
G01*
X110944971Y-80099987D02*
G75*
G02*
X111004965Y-80099987I29997J0D01*
G01*
D14*
%TO.C,D1*%
X61266763Y-46476213D02*
X61266763Y-45023787D01*
X61671209Y-45023787D02*
X59918757Y-45023787D01*
X61671209Y-46476213D02*
X59918757Y-46476213D01*
D15*
X59918757Y-46476213D02*
X59918757Y-46279997D01*
X59918757Y-45023787D02*
X59918757Y-45230010D01*
D16*
X62074967Y-45099987D02*
G75*
G02*
X62014973Y-45099987I-29997J0D01*
G01*
X62014973Y-45099987D02*
G75*
G02*
X62074967Y-45099987I29997J0D01*
G01*
%TO.C,U14*%
D10*
X124870002Y-44917497D02*
X114870002Y-44917497D01*
X114870002Y-105917497D01*
X124870002Y-105917497D01*
X124870002Y-44917497D01*
X122320002Y-45617497D02*
X117320002Y-45617497D01*
X117320002Y-104117497D01*
X122320002Y-104117497D01*
X122320002Y-45617497D01*
X117320002Y-48617497D02*
X122320002Y-48617497D01*
D13*
%TO.C,C1*%
X71100630Y-83480000D02*
X70819470Y-83480000D01*
X71100630Y-82460000D02*
X70819470Y-82460000D01*
%TO.C,J1*%
X105345000Y-108830000D02*
X105345000Y-106170000D01*
X102745000Y-108830000D02*
X105345000Y-108830000D01*
X102745000Y-108830000D02*
X102745000Y-106170000D01*
X102745000Y-106170000D02*
X105345000Y-106170000D01*
X101475000Y-108830000D02*
X100145000Y-108830000D01*
X100145000Y-108830000D02*
X100145000Y-107500000D01*
D16*
%TO.C,U10*%
X102139979Y-46114847D02*
G75*
G02*
X102080035Y-46114847I-29972J0D01*
G01*
X102080035Y-46114847D02*
G75*
G02*
X102139979Y-46114847I29972J0D01*
G01*
D14*
X105106197Y-45590996D02*
X105106197Y-43838596D01*
X105106197Y-43838596D02*
X104064592Y-43838596D01*
X104025400Y-45590996D02*
X103114604Y-45590996D01*
X102033807Y-45590996D02*
X102033807Y-43838596D01*
X102033807Y-43838596D02*
X103075412Y-43838596D01*
D13*
%TO.C,R22*%
X84222936Y-104935000D02*
X84677064Y-104935000D01*
X84222936Y-103465000D02*
X84677064Y-103465000D01*
%TO.C,R2*%
X74272936Y-85985000D02*
X74727064Y-85985000D01*
X74272936Y-84515000D02*
X74727064Y-84515000D01*
%TO.C,C8*%
X71608750Y-49160000D02*
X73031254Y-49160000D01*
X71608750Y-47340000D02*
X73031254Y-47340000D01*
%TO.C,C18*%
X103108750Y-49160000D02*
X104531254Y-49160000D01*
X103108750Y-47340000D02*
X104531254Y-47340000D01*
D16*
%TO.C,U7*%
X83389979Y-46114847D02*
G75*
G02*
X83330035Y-46114847I-29972J0D01*
G01*
X83330035Y-46114847D02*
G75*
G02*
X83389979Y-46114847I29972J0D01*
G01*
D14*
X86356197Y-45590996D02*
X86356197Y-43838596D01*
X86356197Y-43838596D02*
X85314592Y-43838596D01*
X85275400Y-45590996D02*
X84364604Y-45590996D01*
X83283807Y-45590996D02*
X83283807Y-43838596D01*
X83283807Y-43838596D02*
X84325412Y-43838596D01*
D16*
%TO.C,U9*%
X96139979Y-46114847D02*
G75*
G02*
X96080035Y-46114847I-29972J0D01*
G01*
X96080035Y-46114847D02*
G75*
G02*
X96139979Y-46114847I29972J0D01*
G01*
D14*
X99106197Y-45590996D02*
X99106197Y-43838596D01*
X99106197Y-43838596D02*
X98064592Y-43838596D01*
X98025400Y-45590996D02*
X97114604Y-45590996D01*
X96033807Y-45590996D02*
X96033807Y-43838596D01*
X96033807Y-43838596D02*
X97075412Y-43838596D01*
D13*
%TO.C,C2*%
X78890580Y-82010000D02*
X78609420Y-82010000D01*
X78890580Y-80990000D02*
X78609420Y-80990000D01*
D14*
%TO.C,U15*%
X90253300Y-101925200D02*
X88246700Y-101925200D01*
X88246700Y-105074800D02*
X90253300Y-105074800D01*
D13*
%TO.C,C19*%
X107480002Y-45176175D02*
X107480002Y-43753671D01*
X105660002Y-45176175D02*
X105660002Y-43753671D01*
%TO.C,R16*%
X95507827Y-74365112D02*
X95961955Y-74365112D01*
X95507827Y-72895112D02*
X95961955Y-72895112D01*
%TO.C,C9*%
X75980002Y-43753671D02*
X75980002Y-45176175D01*
X74160002Y-43753671D02*
X74160002Y-45176175D01*
D17*
%TO.C,U13*%
X93419990Y-68850013D02*
G75*
G02*
X93180214Y-68850013I-119888J0D01*
G01*
X93180214Y-68850013D02*
G75*
G02*
X93419990Y-68850013I119888J0D01*
G01*
D10*
X93099949Y-69000127D02*
G75*
G02*
X92999873Y-69000127I-50038J0D01*
G01*
X92999873Y-69000127D02*
G75*
G02*
X93099949Y-69000127I50038J0D01*
G01*
D18*
X96147701Y-69021590D02*
G75*
G02*
X94852299Y-69021590I-647701J0D01*
G01*
X96800000Y-72000000D02*
X96800000Y-69021590D01*
X96800000Y-69021590D02*
X96147701Y-69021590D01*
X94852299Y-69021590D02*
X94200000Y-69021590D01*
X94200000Y-72000000D02*
X96800000Y-72000000D01*
X94200000Y-69021590D02*
X94200000Y-72000000D01*
D13*
%TO.C,C23*%
X113552150Y-57042449D02*
X113552150Y-58464953D01*
X111732150Y-57042449D02*
X111732150Y-58464953D01*
%TO.C,J3*%
X122595000Y-41580000D02*
X122595000Y-38920000D01*
X119995000Y-41580000D02*
X122595000Y-41580000D01*
X119995000Y-41580000D02*
X119995000Y-38920000D01*
X119995000Y-38920000D02*
X122595000Y-38920000D01*
X118725000Y-41580000D02*
X117395000Y-41580000D01*
X117395000Y-41580000D02*
X117395000Y-40250000D01*
%TO.C,C21*%
X85110000Y-60009420D02*
X85110000Y-60290580D01*
X84090000Y-60009420D02*
X84090000Y-60290580D01*
%TO.C,C25*%
X97115580Y-81645001D02*
X96834420Y-81645001D01*
X97115580Y-80625001D02*
X96834420Y-80625001D01*
D10*
%TO.C,L1*%
X84400000Y-76000000D02*
G75*
G02*
X84300000Y-76000000I-50000J0D01*
G01*
X84300000Y-76000000D02*
G75*
G02*
X84400000Y-76000000I50000J0D01*
G01*
X84400000Y-76000000D02*
X84400000Y-76000000D01*
X84300000Y-76000000D02*
X84300000Y-76000000D01*
D19*
X81100000Y-79000000D02*
X79900000Y-79000000D01*
X81100000Y-73000000D02*
X79700000Y-73000000D01*
D13*
%TO.C,C10*%
X77858750Y-49160000D02*
X79281254Y-49160000D01*
X77858750Y-47340000D02*
X79281254Y-47340000D01*
D14*
%TO.C,U16*%
X81954650Y-101000000D02*
G75*
G02*
X69711850Y-101000000I-6121400J0D01*
G01*
X69711850Y-101000000D02*
G75*
G02*
X81954650Y-101000000I6121400J0D01*
G01*
X83351650Y-101000000D02*
X82081650Y-101000000D01*
X82716650Y-101635000D02*
X82716650Y-100365000D01*
D13*
%TO.C,C22*%
X61373665Y-49160000D02*
X59951161Y-49160000D01*
X61373665Y-47340000D02*
X59951161Y-47340000D01*
%TO.C,R3*%
X71472937Y-54592503D02*
X71927065Y-54592503D01*
X71472937Y-53122503D02*
X71927065Y-53122503D01*
%TO.C,R1*%
X71197308Y-81492500D02*
X70722792Y-81492500D01*
X71197308Y-80447500D02*
X70722792Y-80447500D01*
D16*
%TO.C,R8*%
X74026987Y-56446990D02*
G75*
G02*
X73966993Y-56446990I-29997J0D01*
G01*
X73966993Y-56446990D02*
G75*
G02*
X74026987Y-56446990I29997J0D01*
G01*
D12*
X80601003Y-57592532D02*
G75*
G02*
X80601001Y-57589892I-76189J1262D01*
G01*
X78815380Y-60150317D02*
G75*
G02*
X78815356Y-60127598I-1135881J10160D01*
G01*
X81236005Y-63686004D02*
X78187998Y-63686004D01*
X81236005Y-56573990D02*
X81236005Y-63686004D01*
X78695999Y-63686004D02*
X74631991Y-63686004D01*
X78187998Y-56573990D02*
X81236005Y-56573990D01*
X77679997Y-61145999D02*
X77679997Y-59113995D01*
X76663995Y-60129997D02*
X78695999Y-60129997D01*
X74631991Y-63686004D02*
X74123990Y-63686004D01*
X74631991Y-63178003D02*
X74631991Y-62162001D01*
X74631991Y-62162001D02*
X74123990Y-62162001D01*
X74631991Y-60637998D02*
X74631991Y-59621996D01*
X74631991Y-59621996D02*
X74123990Y-59621996D01*
X74631991Y-58097993D02*
X74631991Y-57081991D01*
X74631991Y-57081991D02*
X74123990Y-57081991D01*
X74631991Y-56573990D02*
X78187998Y-56573990D01*
X74123990Y-63686004D02*
X74123990Y-63178003D01*
X74123990Y-63178003D02*
X74631991Y-63178003D01*
X74123990Y-62162001D02*
X74123990Y-60637998D01*
X74123990Y-60637998D02*
X74631991Y-60637998D01*
X74123990Y-59621996D02*
X74123990Y-58097993D01*
X74123990Y-58097993D02*
X74631991Y-58097993D01*
X74123990Y-57081991D02*
X74123990Y-56573990D01*
X74123990Y-56573990D02*
X74631991Y-56573990D01*
D13*
%TO.C,R14*%
X104735000Y-84935436D02*
X104735000Y-85389564D01*
X103265000Y-84935436D02*
X103265000Y-85389564D01*
%TO.C,C14*%
X90608750Y-49160000D02*
X92031254Y-49160000D01*
X90608750Y-47340000D02*
X92031254Y-47340000D01*
%TO.C,R12*%
X113177150Y-53396637D02*
X113177150Y-53850765D01*
X111707150Y-53396637D02*
X111707150Y-53850765D01*
%TO.C,C7*%
X69730002Y-43753671D02*
X69730002Y-45176175D01*
X67910002Y-43753671D02*
X67910002Y-45176175D01*
%TO.C,C24*%
X108760000Y-58714281D02*
X108760000Y-58433121D01*
X107740000Y-58714281D02*
X107740000Y-58433121D01*
%TO.C,C17*%
X101480002Y-43753671D02*
X101480002Y-45176175D01*
X99660002Y-43753671D02*
X99660002Y-45176175D01*
%TO.C,C20*%
X109358750Y-49160000D02*
X110781254Y-49160000D01*
X109358750Y-47340000D02*
X110781254Y-47340000D01*
%TO.C,R17*%
X96572936Y-80085000D02*
X97027064Y-80085000D01*
X96572936Y-78615000D02*
X97027064Y-78615000D01*
%TO.C,R4*%
X71472937Y-57542503D02*
X71927065Y-57542503D01*
X71472937Y-56072503D02*
X71927065Y-56072503D01*
%TO.C,J4*%
X58830000Y-74730000D02*
X58830000Y-77330000D01*
X56170000Y-77330000D02*
X58830000Y-77330000D01*
X56170000Y-74730000D02*
X58830000Y-74730000D01*
X56170000Y-74730000D02*
X56170000Y-77330000D01*
X56170000Y-73460000D02*
X56170000Y-72130000D01*
X56170000Y-72130000D02*
X57500000Y-72130000D01*
%TO.C,R5*%
X71472937Y-60492503D02*
X71927065Y-60492503D01*
X71472937Y-59022503D02*
X71927065Y-59022503D01*
D16*
%TO.C,D4*%
X84629984Y-98475032D02*
G75*
G02*
X84569990Y-98475032I-29997J0D01*
G01*
X84569990Y-98475032D02*
G75*
G02*
X84629984Y-98475032I29997J0D01*
G01*
D15*
X85976213Y-100601245D02*
X85779997Y-100601245D01*
D14*
X85976213Y-99253239D02*
X84523787Y-99253239D01*
X85976213Y-98848793D02*
X85976213Y-100601245D01*
D15*
X84523787Y-100601245D02*
X84730010Y-100601245D01*
D14*
X84523787Y-98848793D02*
X84523787Y-100601245D01*
D13*
%TO.C,C16*%
X96608750Y-49160000D02*
X98031254Y-49160000D01*
X96608750Y-47340000D02*
X98031254Y-47340000D01*
D16*
%TO.C,U11*%
X108389979Y-46114847D02*
G75*
G02*
X108330035Y-46114847I-29972J0D01*
G01*
X108330035Y-46114847D02*
G75*
G02*
X108389979Y-46114847I29972J0D01*
G01*
D14*
X111356197Y-45590996D02*
X111356197Y-43838596D01*
X111356197Y-43838596D02*
X110314592Y-43838596D01*
X110275400Y-45590996D02*
X109364604Y-45590996D01*
X108283807Y-45590996D02*
X108283807Y-43838596D01*
X108283807Y-43838596D02*
X109325412Y-43838596D01*
D16*
%TO.C,U4*%
X63889979Y-46114847D02*
G75*
G02*
X63830035Y-46114847I-29972J0D01*
G01*
X63830035Y-46114847D02*
G75*
G02*
X63889979Y-46114847I29972J0D01*
G01*
D14*
X66856197Y-45590996D02*
X66856197Y-43838596D01*
X66856197Y-43838596D02*
X65814592Y-43838596D01*
X65775400Y-45590996D02*
X64864604Y-45590996D01*
X63783807Y-45590996D02*
X63783807Y-43838596D01*
X63783807Y-43838596D02*
X64825412Y-43838596D01*
D13*
%TO.C,R21*%
X90735000Y-100035319D02*
X90735000Y-99581191D01*
X89265000Y-100035319D02*
X89265000Y-99581191D01*
%TO.C,C15*%
X95230002Y-43753671D02*
X95230002Y-45176175D01*
X93410002Y-43753671D02*
X93410002Y-45176175D01*
D20*
%TO.C,U12*%
X102631000Y-78094996D02*
G75*
G02*
X102330772Y-78094996I-150114J0D01*
G01*
X102330772Y-78094996D02*
G75*
G02*
X102631000Y-78094996I150114J0D01*
G01*
X100627698Y-77348489D02*
G75*
G02*
X100327470Y-77348489I-150114J0D01*
G01*
X100327470Y-77348489D02*
G75*
G02*
X100627698Y-77348489I150114J0D01*
G01*
D16*
X100279998Y-77549936D02*
G75*
G02*
X100220002Y-77549936I-29998J0D01*
G01*
X100220002Y-77549936D02*
G75*
G02*
X100279998Y-77549936I29998J0D01*
G01*
D14*
X104771387Y-82526187D02*
X101728613Y-82526187D01*
X104771387Y-77473711D02*
X104771387Y-82526187D01*
X101728613Y-82526187D02*
X101728613Y-77473711D01*
X101728613Y-77473711D02*
X104771387Y-77473711D01*
D13*
%TO.C,C11*%
X82480002Y-43753671D02*
X82480002Y-45176175D01*
X80660002Y-43753671D02*
X80660002Y-45176175D01*
D16*
%TO.C,U1*%
X75929896Y-83450089D02*
G75*
G02*
X75869952Y-83450089I-29972J0D01*
G01*
X75869952Y-83450089D02*
G75*
G02*
X75929896Y-83450089I29972J0D01*
G01*
D20*
X75937516Y-83668529D02*
G75*
G02*
X75637288Y-83668529I-150114J0D01*
G01*
X75637288Y-83668529D02*
G75*
G02*
X75937516Y-83668529I150114J0D01*
G01*
D14*
X75376073Y-83526213D02*
X73623673Y-83526213D01*
X75376073Y-80473787D02*
X73623673Y-80473787D01*
D13*
%TO.C,C4*%
X74238748Y-78235000D02*
X74761252Y-78235000D01*
X74238748Y-76765000D02*
X74761252Y-76765000D01*
%TO.C,R11*%
X76677065Y-66392503D02*
X76222937Y-66392503D01*
X76677065Y-64922503D02*
X76222937Y-64922503D01*
%TO.C,C3*%
X74238748Y-75985000D02*
X74761252Y-75985000D01*
X74238748Y-74515000D02*
X74761252Y-74515000D01*
%TO.C,R18*%
X100772936Y-71310121D02*
X101227064Y-71310121D01*
X100772936Y-69840121D02*
X101227064Y-69840121D01*
%TO.C,C28*%
X108837004Y-79395001D02*
X109118164Y-79395001D01*
X108837004Y-78375001D02*
X109118164Y-78375001D01*
%TO.C,R13*%
X110927150Y-58600765D02*
X110927150Y-58146637D01*
X109457150Y-58600765D02*
X109457150Y-58146637D01*
%TO.C,R20*%
X93222936Y-106235000D02*
X93677064Y-106235000D01*
X93222936Y-104765000D02*
X93677064Y-104765000D01*
%TO.C,R6*%
X71472937Y-63442503D02*
X71927065Y-63442503D01*
X71472937Y-61972503D02*
X71927065Y-61972503D01*
%TO.C,R9*%
X83385001Y-58122936D02*
X83385001Y-58577064D01*
X81915001Y-58122936D02*
X81915001Y-58577064D01*
%TO.C,R7*%
X71472937Y-66392503D02*
X71927065Y-66392503D01*
X71472937Y-64922503D02*
X71927065Y-64922503D01*
D16*
%TO.C,U6*%
X76889979Y-46114847D02*
G75*
G02*
X76830035Y-46114847I-29972J0D01*
G01*
X76830035Y-46114847D02*
G75*
G02*
X76889979Y-46114847I29972J0D01*
G01*
D14*
X79856197Y-45590996D02*
X79856197Y-43838596D01*
X79856197Y-43838596D02*
X78814592Y-43838596D01*
X78775400Y-45590996D02*
X77864604Y-45590996D01*
X76783807Y-45590996D02*
X76783807Y-43838596D01*
X76783807Y-43838596D02*
X77825412Y-43838596D01*
D13*
%TO.C,R15*%
X102735000Y-85389564D02*
X102735000Y-84935436D01*
X101265000Y-85389564D02*
X101265000Y-84935436D01*
%TO.C,C27*%
X100859420Y-69335121D02*
X101140580Y-69335121D01*
X100859420Y-68315121D02*
X101140580Y-68315121D01*
%TO.C,C29*%
X93109420Y-102010000D02*
X93390580Y-102010000D01*
X93109420Y-100990000D02*
X93390580Y-100990000D01*
%TO.C,C26*%
X101115580Y-72835121D02*
X100834420Y-72835121D01*
X101115580Y-71815121D02*
X100834420Y-71815121D01*
D10*
%TO.C,U2*%
X78539941Y-82719964D02*
G75*
G02*
X78439865Y-82719964I-50038J0D01*
G01*
X78439865Y-82719964D02*
G75*
G02*
X78539941Y-82719964I50038J0D01*
G01*
X77889954Y-82429896D02*
G75*
G02*
X77789878Y-82429896I-50038J0D01*
G01*
X77789878Y-82429896D02*
G75*
G02*
X77889954Y-82429896I50038J0D01*
G01*
D16*
X77729934Y-82500000D02*
G75*
G02*
X77669990Y-82500000I-29972J0D01*
G01*
X77669990Y-82500000D02*
G75*
G02*
X77729934Y-82500000I29972J0D01*
G01*
D10*
X79250025Y-84489942D02*
X79250025Y-82499924D01*
X79250025Y-82499924D02*
X78260008Y-82499924D01*
X79240043Y-84499924D02*
X79250025Y-84489942D01*
X78260008Y-84499924D02*
X79240043Y-84499924D01*
X78260008Y-82499924D02*
X78260008Y-84499924D01*
D13*
%TO.C,TP1*%
X114350000Y-43250000D02*
X112950000Y-43250000D01*
X114350000Y-41850000D02*
X114350000Y-43250000D01*
X112950000Y-43250000D02*
X112950000Y-41850000D01*
X112950000Y-41850000D02*
X114350000Y-41850000D01*
%TO.C,C6*%
X65108750Y-49160000D02*
X66531254Y-49160000D01*
X65108750Y-47340000D02*
X66531254Y-47340000D01*
D16*
%TO.C,U3*%
X81319977Y-84649924D02*
G75*
G02*
X81260033Y-84649924I-29972J0D01*
G01*
X81260033Y-84649924D02*
G75*
G02*
X81319977Y-84649924I29972J0D01*
G01*
D14*
X84286195Y-84126073D02*
X84286195Y-82373673D01*
X84286195Y-82373673D02*
X83244590Y-82373673D01*
X83205398Y-84126073D02*
X82294602Y-84126073D01*
X81213805Y-84126073D02*
X81213805Y-82373673D01*
X81213805Y-82373673D02*
X82255410Y-82373673D01*
D13*
%TO.C,J2*%
X58830000Y-85480000D02*
X58830000Y-88080000D01*
X56170000Y-88080000D02*
X58830000Y-88080000D01*
X56170000Y-85480000D02*
X58830000Y-85480000D01*
X56170000Y-85480000D02*
X56170000Y-88080000D01*
X56170000Y-84210000D02*
X56170000Y-82880000D01*
X56170000Y-82880000D02*
X57500000Y-82880000D01*
%TO.C,R10*%
X83385001Y-61872936D02*
X83385001Y-62327064D01*
X81915001Y-61872936D02*
X81915001Y-62327064D01*
%TO.C,C13*%
X88730002Y-43753671D02*
X88730002Y-45176175D01*
X86910002Y-43753671D02*
X86910002Y-45176175D01*
D16*
%TO.C,U5*%
X70389979Y-46114847D02*
G75*
G02*
X70330035Y-46114847I-29972J0D01*
G01*
X70330035Y-46114847D02*
G75*
G02*
X70389979Y-46114847I29972J0D01*
G01*
D14*
X73356197Y-45590996D02*
X73356197Y-43838596D01*
X73356197Y-43838596D02*
X72314592Y-43838596D01*
X72275400Y-45590996D02*
X71364604Y-45590996D01*
X70283807Y-45590996D02*
X70283807Y-43838596D01*
X70283807Y-43838596D02*
X71325412Y-43838596D01*
D13*
%TO.C,R23*%
X88485000Y-100035319D02*
X88485000Y-99581191D01*
X87015000Y-100035319D02*
X87015000Y-99581191D01*
%TO.C,C5*%
X59951161Y-44224923D02*
X61373665Y-44224923D01*
X59951161Y-42404923D02*
X61373665Y-42404923D01*
%TO.C,R19*%
X93222936Y-104125000D02*
X93677064Y-104125000D01*
X93222936Y-102655000D02*
X93677064Y-102655000D01*
%TO.C,C12*%
X84108750Y-49160000D02*
X85531254Y-49160000D01*
X84108750Y-47340000D02*
X85531254Y-47340000D01*
D16*
%TO.C,U8*%
X89639979Y-46114847D02*
G75*
G02*
X89580035Y-46114847I-29972J0D01*
G01*
X89580035Y-46114847D02*
G75*
G02*
X89639979Y-46114847I29972J0D01*
G01*
D14*
X92606197Y-45590996D02*
X92606197Y-43838596D01*
X92606197Y-43838596D02*
X91564592Y-43838596D01*
X91525400Y-45590996D02*
X90614604Y-45590996D01*
X89533807Y-45590996D02*
X89533807Y-43838596D01*
X89533807Y-43838596D02*
X90575412Y-43838596D01*
%TD*%
%LPC*%
D21*
%TO.C,LED1*%
X90000000Y-95462500D03*
X90000000Y-97037500D03*
%TD*%
D22*
%TO.C,D3*%
X108577407Y-83000000D03*
X110922593Y-83000000D03*
%TD*%
%TO.C,D2*%
X110922593Y-80750000D03*
X108577407Y-80750000D03*
%TD*%
%TO.C,D1*%
X61992595Y-45750000D03*
X59647409Y-45750000D03*
%TD*%
D23*
%TO.C,U14*%
X118530002Y-47117497D03*
D24*
X121070002Y-47117497D03*
%TD*%
D25*
%TO.C,C1*%
X70185050Y-82970000D03*
X71735050Y-82970000D03*
%TD*%
D23*
%TO.C,J1*%
X104015000Y-107500000D03*
D26*
X101475000Y-107500000D03*
%TD*%
D27*
%TO.C,U10*%
X103570002Y-43479846D03*
X104519964Y-45950000D03*
X102620040Y-45950000D03*
%TD*%
D28*
%TO.C,R22*%
X85362500Y-104200000D03*
X83537500Y-104200000D03*
%TD*%
%TO.C,R2*%
X75412500Y-85250000D03*
X73587500Y-85250000D03*
%TD*%
D29*
%TO.C,C8*%
X73795002Y-48250000D03*
X70845002Y-48250000D03*
%TD*%
%TO.C,C18*%
X105295002Y-48250000D03*
X102345002Y-48250000D03*
%TD*%
D27*
%TO.C,U7*%
X84820002Y-43479846D03*
X85769964Y-45950000D03*
X83870040Y-45950000D03*
%TD*%
%TO.C,U9*%
X97570002Y-43479846D03*
X98519964Y-45950000D03*
X96620040Y-45950000D03*
%TD*%
D25*
%TO.C,C2*%
X77975000Y-81500000D03*
X79525000Y-81500000D03*
%TD*%
D30*
%TO.C,U15*%
X90564450Y-102549999D03*
X90564450Y-103500000D03*
X90564450Y-104450001D03*
X87935550Y-104450001D03*
X87935550Y-103500000D03*
X87935550Y-102549999D03*
%TD*%
D31*
%TO.C,C19*%
X106570002Y-42989923D03*
X106570002Y-45939923D03*
%TD*%
D28*
%TO.C,R16*%
X96647391Y-73630112D03*
X94822391Y-73630112D03*
%TD*%
D32*
%TO.C,C9*%
X75070002Y-45939923D03*
X75070002Y-42989923D03*
%TD*%
D33*
%TO.C,U13*%
X97799975Y-69524892D03*
X97799975Y-70174879D03*
X97799975Y-70825121D03*
X97799975Y-71475108D03*
X93200025Y-71475108D03*
X93200025Y-70825121D03*
X93200025Y-70174879D03*
X93200025Y-69524892D03*
%TD*%
D32*
%TO.C,C23*%
X112642150Y-59228701D03*
X112642150Y-56278701D03*
%TD*%
D23*
%TO.C,J3*%
X121265000Y-40250000D03*
D26*
X118725000Y-40250000D03*
%TD*%
D34*
%TO.C,C21*%
X84600000Y-60925000D03*
X84600000Y-59375000D03*
%TD*%
D25*
%TO.C,C25*%
X96200000Y-81135001D03*
X97750000Y-81135001D03*
%TD*%
D35*
%TO.C,L1*%
X78350000Y-76000000D03*
X82650000Y-76000000D03*
%TD*%
D29*
%TO.C,C10*%
X80045002Y-48250000D03*
X77095002Y-48250000D03*
%TD*%
D36*
%TO.C,U16*%
X72033250Y-101000000D03*
D37*
X79633250Y-101000000D03*
%TD*%
D38*
%TO.C,C22*%
X59187413Y-48250000D03*
X62137413Y-48250000D03*
%TD*%
D28*
%TO.C,R3*%
X72612501Y-53857503D03*
X70787501Y-53857503D03*
%TD*%
D39*
%TO.C,R1*%
X70135050Y-80970000D03*
X71785050Y-80970000D03*
%TD*%
D40*
%TO.C,R8*%
X77679997Y-62670002D03*
X80220003Y-60129997D03*
X77679997Y-57589992D03*
%TD*%
D41*
%TO.C,R14*%
X104000000Y-86075000D03*
X104000000Y-84250000D03*
%TD*%
D29*
%TO.C,C14*%
X92795002Y-48250000D03*
X89845002Y-48250000D03*
%TD*%
D41*
%TO.C,R12*%
X112442150Y-54536201D03*
X112442150Y-52711201D03*
%TD*%
D32*
%TO.C,C7*%
X68820002Y-45939923D03*
X68820002Y-42989923D03*
%TD*%
D42*
%TO.C,H3*%
X103250000Y-57250000D03*
%TD*%
D43*
%TO.C,C24*%
X108250000Y-57798701D03*
X108250000Y-59348701D03*
%TD*%
D32*
%TO.C,C17*%
X100570002Y-45939923D03*
X100570002Y-42989923D03*
%TD*%
D29*
%TO.C,C20*%
X111545002Y-48250000D03*
X108595002Y-48250000D03*
%TD*%
D28*
%TO.C,R17*%
X97712500Y-79350000D03*
X95887500Y-79350000D03*
%TD*%
%TO.C,R4*%
X72612501Y-56807503D03*
X70787501Y-56807503D03*
%TD*%
D23*
%TO.C,J4*%
X57500000Y-76000000D03*
D26*
X57500000Y-73460000D03*
%TD*%
D28*
%TO.C,R5*%
X72612501Y-59757503D03*
X70787501Y-59757503D03*
%TD*%
D44*
%TO.C,D4*%
X85250000Y-100872593D03*
X85250000Y-98527407D03*
%TD*%
D29*
%TO.C,C16*%
X98795002Y-48250000D03*
X95845002Y-48250000D03*
%TD*%
D27*
%TO.C,U11*%
X109820002Y-43479846D03*
X110769964Y-45950000D03*
X108870040Y-45950000D03*
%TD*%
%TO.C,U4*%
X65320002Y-43479846D03*
X66269964Y-45950000D03*
X64370040Y-45950000D03*
%TD*%
D45*
%TO.C,R21*%
X90000000Y-98895755D03*
X90000000Y-100720755D03*
%TD*%
D32*
%TO.C,C15*%
X94320002Y-45939923D03*
X94320002Y-42989923D03*
%TD*%
D42*
%TO.C,H1*%
X63500000Y-57250000D03*
%TD*%
D46*
%TO.C,U12*%
X106022416Y-78094996D03*
X106022416Y-79364999D03*
X106022416Y-80635001D03*
X106022416Y-81905004D03*
X100477584Y-81905004D03*
X100477584Y-80635001D03*
X100477584Y-79364999D03*
X100477584Y-78094996D03*
%TD*%
D42*
%TO.C,H4*%
X103250000Y-94250000D03*
%TD*%
D32*
%TO.C,C11*%
X81570002Y-45939923D03*
X81570002Y-42989923D03*
%TD*%
D47*
%TO.C,U1*%
X73299975Y-82949962D03*
X73299975Y-82000000D03*
X73299975Y-81050038D03*
X75700025Y-81050038D03*
X75700025Y-82000000D03*
X75700025Y-82949962D03*
%TD*%
D48*
%TO.C,C4*%
X75450000Y-77500000D03*
X73550000Y-77500000D03*
%TD*%
D49*
%TO.C,R11*%
X75537501Y-65657503D03*
X77362501Y-65657503D03*
%TD*%
D48*
%TO.C,C3*%
X75450000Y-75250000D03*
X73550000Y-75250000D03*
%TD*%
D28*
%TO.C,R18*%
X101912500Y-70575121D03*
X100087500Y-70575121D03*
%TD*%
D50*
%TO.C,C28*%
X109752584Y-78885001D03*
X108202584Y-78885001D03*
%TD*%
D45*
%TO.C,R13*%
X110192150Y-57461201D03*
X110192150Y-59286201D03*
%TD*%
D28*
%TO.C,R20*%
X94362500Y-105500000D03*
X92537500Y-105500000D03*
%TD*%
%TO.C,R6*%
X72612501Y-62707503D03*
X70787501Y-62707503D03*
%TD*%
D41*
%TO.C,R9*%
X82650001Y-59262500D03*
X82650001Y-57437500D03*
%TD*%
D28*
%TO.C,R7*%
X72612501Y-65657503D03*
X70787501Y-65657503D03*
%TD*%
D27*
%TO.C,U6*%
X78320002Y-43479846D03*
X79269964Y-45950000D03*
X77370040Y-45950000D03*
%TD*%
D45*
%TO.C,R15*%
X102000000Y-84250000D03*
X102000000Y-86075000D03*
%TD*%
D50*
%TO.C,C27*%
X101775000Y-68825121D03*
X100225000Y-68825121D03*
%TD*%
%TO.C,C29*%
X94025000Y-101500000D03*
X92475000Y-101500000D03*
%TD*%
D25*
%TO.C,C26*%
X100200000Y-72325121D03*
X101750000Y-72325121D03*
%TD*%
D51*
%TO.C,U2*%
X79850076Y-82850013D03*
X79850076Y-84149987D03*
X77649924Y-84149987D03*
X77649924Y-83500000D03*
X77649924Y-82850013D03*
%TD*%
D52*
%TO.C,TP1*%
X113650000Y-42550000D03*
%TD*%
D29*
%TO.C,C6*%
X67295002Y-48250000D03*
X64345002Y-48250000D03*
%TD*%
D27*
%TO.C,U3*%
X82750000Y-82014923D03*
X83699962Y-84485077D03*
X81800038Y-84485077D03*
%TD*%
D23*
%TO.C,J2*%
X57500000Y-86750000D03*
D26*
X57500000Y-84210000D03*
%TD*%
D41*
%TO.C,R10*%
X82650001Y-63012500D03*
X82650001Y-61187500D03*
%TD*%
D42*
%TO.C,H2*%
X63500000Y-94250000D03*
%TD*%
D32*
%TO.C,C13*%
X87820002Y-45939923D03*
X87820002Y-42989923D03*
%TD*%
D27*
%TO.C,U5*%
X71820002Y-43479846D03*
X72769964Y-45950000D03*
X70870040Y-45950000D03*
%TD*%
D45*
%TO.C,R23*%
X87750000Y-98895755D03*
X87750000Y-100720755D03*
%TD*%
D29*
%TO.C,C5*%
X62137413Y-43314923D03*
X59187413Y-43314923D03*
%TD*%
D28*
%TO.C,R19*%
X94362500Y-103390000D03*
X92537500Y-103390000D03*
%TD*%
D29*
%TO.C,C12*%
X86295002Y-48250000D03*
X83345002Y-48250000D03*
%TD*%
D27*
%TO.C,U8*%
X91070002Y-43479846D03*
X92019964Y-45950000D03*
X90120040Y-45950000D03*
%TD*%
%LPD*%
M02*
