M48
; DRILL file {KiCad 9.0.7-9.0.7~ubuntu22.04.1} date 2026-01-21T12:36:39+0530
; FORMAT={-:-/ absolute / inch / decimal}
; #@! TF.CreationDate,2026-01-21T12:36:39+05:30
; #@! TF.GenerationSoftware,Kicad,Pcbnew,9.0.7-9.0.7~ubuntu22.04.1
; #@! TF.FileFunction,Plated,1,4,PTH
FMAT,2
INCH
; #@! TA.AperFunction,Plated,PTH,ViaDrill
T1C0.0118
; #@! TA.AperFunction,Plated,PTH,ComponentDrill
T2C0.0300
; #@! TA.AperFunction,Plated,PTH,ComponentDrill
T3C0.0394
%
G90
G05
T1
X5.9843Y-4.4488
X6.071Y-4.355
X6.11Y-4.324
X6.145Y-4.34
X6.197Y-4.606
X6.2638Y-4.8622
X6.301Y-4.599
X6.3081Y-3.1191
X6.313Y-3.0915
X6.315Y-4.7283
X6.3441Y-3.1191
X6.3484Y-3.0699
X6.379Y-3.051
X6.3796Y-3.0876
X6.38Y-3.1191
X6.3957Y-4.0492
X6.4049Y-3.0384
X6.4156Y-3.0876
X6.416Y-3.1191
X6.4377Y-3.0197
X6.4409Y-4.315
X6.4453Y-3.0512
X6.4516Y-3.0876
X6.452Y-3.1191
X6.4567Y-4.378
X6.4705Y-3.0039
X6.4724Y-4.9449
X6.473Y-4.985
X6.4812Y-3.0512
X6.4876Y-3.0876
X6.488Y-3.1191
X6.5059Y-2.9882
X6.5138Y-4.8071
X6.5172Y-3.0512
X6.5236Y-3.0876
X6.524Y-3.1191
X6.5413Y-2.9754
X6.5532Y-3.0512
X6.5595Y-3.0876
X6.56Y-3.1191
X6.5728Y-2.9656
X6.5892Y-3.0512
X6.5955Y-3.0876
X6.596Y-3.1191
X6.605Y-4.635
X6.6073Y-2.9537
X6.6252Y-3.0512
X6.6315Y-3.0876
X6.632Y-3.1191
X6.6407Y-2.9449
X6.6612Y-3.0512
X6.6675Y-3.0876
X6.6679Y-3.1191
X6.669Y-4.096
X6.6732Y-4.5472
X6.6742Y-2.9331
X6.685Y-4.815
X6.6972Y-3.0512
X6.7035Y-3.0876
X6.7039Y-3.1191
X6.7047Y-2.9272
X6.7331Y-3.0512
X6.7372Y-2.9203
X6.7395Y-3.0876
X6.7399Y-3.1191
X6.7691Y-3.0512
X6.7717Y-2.9154
X6.7717Y-4.9803
X6.7755Y-3.0876
X6.7759Y-3.1191
X6.8022Y-2.9114
X6.8031Y-4.8701
X6.8051Y-3.0512
X6.8115Y-3.0876
X6.8119Y-3.1191
X6.817Y-4.943
X6.8316Y-2.9104
X6.8411Y-3.0512
X6.8474Y-3.0876
X6.8479Y-3.1191
X6.8645Y-2.9094
X6.8771Y-3.0512
X6.8834Y-3.0876
X6.8839Y-3.1191
X6.8973Y-2.9065
X6.9131Y-3.0512
X6.9194Y-3.0876
X6.9198Y-3.1191
X6.9301Y-2.9094
X6.9491Y-3.0512
X6.9554Y-3.0876
X6.9558Y-3.1191
X6.9629Y-2.9094
X6.9646Y-4.6575
X6.9851Y-3.0512
X6.9914Y-3.0876
X6.9918Y-3.1191
X6.997Y-2.9094
X7.021Y-3.0512
X7.0274Y-3.0876
X7.0278Y-3.1191
X7.0295Y-2.9114
X7.057Y-3.0512
X7.061Y-2.9154
X7.0634Y-3.0876
X7.0638Y-3.1191
X7.073Y-4.795
X7.093Y-3.0512
X7.0993Y-3.0876
X7.0998Y-3.1191
X7.1004Y-2.9203
X7.104Y-4.62
X7.129Y-3.0512
X7.1299Y-2.9252
X7.1339Y-4.9213
X7.1353Y-3.0876
X7.1358Y-3.1191
X7.1585Y-2.9341
X7.165Y-3.0512
X7.1713Y-3.0876
X7.1718Y-3.1191
X7.186Y-2.94
X7.201Y-3.0512
X7.2015Y-4.9115
X7.2073Y-3.0876
X7.2077Y-3.1191
X7.2146Y-2.9459
X7.22Y-4.095
X7.237Y-3.0512
X7.2433Y-3.0876
X7.2437Y-3.1191
X7.2441Y-2.9557
X7.2657Y-4.7323
X7.267Y-4.557
X7.269Y-4.776
X7.2729Y-3.0512
X7.2756Y-2.9656
X7.2793Y-3.0876
X7.2797Y-3.1191
X7.3031Y-2.9764
X7.3089Y-3.0512
X7.3153Y-3.0876
X7.3157Y-3.1191
X7.3317Y-2.9862
X7.3449Y-3.0512
X7.3513Y-3.0876
X7.3517Y-3.1191
X7.355Y-4.168
X7.3612Y-2.998
X7.3809Y-3.0512
X7.3872Y-3.0876
X7.3877Y-3.1191
X7.3898Y-3.0128
X7.4193Y-3.0551
X7.4213Y-3.0266
X7.4232Y-3.0876
X7.4237Y-3.1191
X7.4281Y-4.3041
X7.4587Y-3.0531
X7.4592Y-3.0876
X7.4596Y-3.1191
X7.4902Y-3.0837
X7.4941Y-3.1191
X7.515Y-4.682
X7.5167Y-3.1441
X7.5246Y-3.0817
X7.5315Y-3.1132
X7.5423Y-3.1841
X7.5433Y-4.7815
X7.5491Y-3.1441
X7.5522Y-3.2126
X7.5679Y-3.1132
X7.5768Y-3.2461
X7.5787Y-3.1811
X7.5815Y-3.1441
X7.5869Y-3.2126
X7.5955Y-3.2756
X7.6102Y-3.3081
X7.6125Y-3.2461
X7.6138Y-3.1441
X7.6152Y-3.1801
X7.6216Y-3.2126
X7.624Y-4.842
X7.627Y-3.3376
X7.6326Y-3.2756
X7.6476Y-3.3642
X7.6481Y-3.2461
X7.6506Y-3.3081
X7.6516Y-3.1781
X7.6562Y-3.2126
X7.6678Y-3.3376
X7.6693Y-3.3986
X7.6698Y-3.2756
X7.6838Y-3.2461
X7.689Y-3.3642
X7.6909Y-3.2126
X7.6909Y-3.3081
X7.7018Y-3.435
X7.7033Y-3.3986
X7.7069Y-3.2756
X7.7087Y-3.3376
X7.7126Y-3.4685
X7.7195Y-3.2461
X7.7303Y-3.3642
X7.7313Y-3.3081
X7.7362Y-4.6752
X7.7374Y-3.3986
X7.7424Y-3.4341
X7.7441Y-3.2756
X7.7455Y-3.4675
X7.7495Y-3.3376
X7.7715Y-3.3986
X7.7717Y-3.3081
X7.7717Y-3.3642
X7.7717Y-3.9055
X7.7756Y-3.9882
X7.7783Y-3.4675
X7.783Y-3.4341
X7.7904Y-3.3376
X7.8055Y-3.3986
X7.8112Y-3.4675
X7.813Y-3.3642
X7.8236Y-3.4341
X7.8396Y-3.3986
X7.8441Y-3.4675
X7.8642Y-3.436
X7.877Y-3.4675
X7.9213Y-4.0079
T2
X6.9299Y-4.4303
X7.0299Y-4.5303
X7.1299Y-4.4303
T3
X5.9661Y-4.228
X5.9661Y-4.328
X6.0827Y-4.4768
X6.0827Y-4.5768
X7.0659Y-5.0157
X7.1659Y-5.0157
X7.31Y-4.4134
X7.41Y-4.4134
X7.7569Y-3.5378
X7.8569Y-3.5378
M30
