%TF.GenerationSoftware,KiCad,Pcbnew,9.0.7-9.0.7~ubuntu22.04.1*%
%TF.CreationDate,2026-01-21T12:36:38+05:30*%
%TF.ProjectId,HV_POWER_SUPPLY_NEWSHAPE,48565f50-4f57-4455-925f-535550504c59,V1.0*%
%TF.SameCoordinates,Original*%
%TF.FileFunction,Copper,L2,Inr*%
%TF.FilePolarity,Positive*%
%FSLAX46Y46*%
G04 Gerber Fmt 4.6, Leading zero omitted, Abs format (unit mm)*
G04 Created by KiCad (PCBNEW 9.0.7-9.0.7~ubuntu22.04.1) date 2026-01-21 12:36:38*
%MOMM*%
%LPD*%
G01*
G04 APERTURE LIST*
%TA.AperFunction,ComponentPad*%
%ADD10R,1.700000X1.700000*%
%TD*%
%TA.AperFunction,ComponentPad*%
%ADD11C,1.700000*%
%TD*%
%TA.AperFunction,ComponentPad*%
%ADD12C,1.524003*%
%TD*%
%TA.AperFunction,ViaPad*%
%ADD13C,0.600000*%
%TD*%
G04 APERTURE END LIST*
D10*
%TO.N,IO_VREF*%
%TO.C,J1*%
X154500000Y-116250000D03*
D11*
%TO.N,GND*%
X154500000Y-113710000D03*
%TD*%
D10*
%TO.N,Net-(J5-Pin_1)*%
%TO.C,J5*%
X199565000Y-89860000D03*
D11*
%TO.N,GND*%
X197025000Y-89860000D03*
%TD*%
D10*
%TO.N,/Page 2/HV_PG*%
%TO.C,J4*%
X179475000Y-127400000D03*
D11*
%TO.N,GND*%
X182015000Y-127400000D03*
%TD*%
D12*
%TO.N,Net-(R11-Pad2)*%
%TO.C,R9*%
X181100000Y-112529997D03*
%TO.N,POT_METER*%
X178559995Y-115070003D03*
%TO.N,Net-(R10-Pad1)*%
X176019990Y-112529997D03*
%TD*%
D10*
%TO.N,SYS_5V*%
%TO.C,J2*%
X151540000Y-107390000D03*
D11*
%TO.N,GND*%
X151540000Y-109930000D03*
%TD*%
D10*
%TO.N,/Page 2/DETECT_OUTPUT*%
%TO.C,J3*%
X185675000Y-112100000D03*
D11*
%TO.N,GND*%
X188215000Y-112100000D03*
%TD*%
D13*
%TO.N,GND*%
X166623438Y-79225000D03*
X195350000Y-81600000D03*
X164351471Y-76300000D03*
X198405000Y-88075000D03*
X170300000Y-74350000D03*
X167526562Y-78425000D03*
X160225000Y-79225000D03*
X199750000Y-87275000D03*
X193425000Y-80775000D03*
X168675000Y-74800000D03*
X177581250Y-78425000D03*
X196837500Y-84775000D03*
X199125000Y-86325000D03*
X184800000Y-75325000D03*
X184000000Y-75075000D03*
X195800000Y-84775000D03*
X164414200Y-126619000D03*
X162053125Y-79225000D03*
X186817000Y-105867200D03*
X156083000Y-110236000D03*
X178495312Y-78425000D03*
X186732813Y-79225000D03*
X165537500Y-77500000D03*
X161139063Y-79225000D03*
X184581800Y-115747800D03*
X193356250Y-82450000D03*
X162956250Y-78425000D03*
X200075000Y-88075000D03*
X185818750Y-79225000D03*
X180350000Y-74175000D03*
X165450000Y-122100000D03*
X185500000Y-75600000D03*
X175592187Y-77500000D03*
X160045400Y-116814600D03*
X168451563Y-79225000D03*
X182918100Y-124752100D03*
X192706250Y-81600000D03*
X180162500Y-77500000D03*
X163881250Y-79225000D03*
X164623437Y-77500000D03*
X186975000Y-76150000D03*
X189475000Y-79225000D03*
X177592188Y-79225000D03*
X180334375Y-79225000D03*
X189450000Y-77550000D03*
X193300000Y-84025000D03*
X165709375Y-79225000D03*
X187475000Y-77500000D03*
X162967188Y-79225000D03*
X194262500Y-82450000D03*
X175191176Y-73825000D03*
X195350000Y-84025000D03*
X183076563Y-79225000D03*
X184632600Y-121310400D03*
X176667187Y-78425000D03*
X163709375Y-77500000D03*
X176858824Y-73900000D03*
X166950000Y-75325000D03*
X176025000Y-73900000D03*
X182151562Y-78425000D03*
X173151800Y-125552200D03*
X194800000Y-86325000D03*
X198450000Y-85450000D03*
X167537500Y-79225000D03*
X181825000Y-74525000D03*
X173010937Y-78425000D03*
X168440625Y-78425000D03*
X179420313Y-79225000D03*
X190250000Y-78325000D03*
X192925000Y-83200000D03*
X192569261Y-79860741D03*
X166612500Y-78425000D03*
X183818750Y-77500000D03*
X162450000Y-102850000D03*
X196530000Y-86325000D03*
X172850000Y-77500000D03*
X173764062Y-77500000D03*
X188500000Y-76875000D03*
X174357353Y-73900000D03*
X155194000Y-109829600D03*
X189464062Y-78425000D03*
X175753125Y-78425000D03*
X193868750Y-83200000D03*
X190881000Y-118922800D03*
X172107813Y-79225000D03*
X186225000Y-75850000D03*
X193391391Y-79860741D03*
X181100000Y-74300000D03*
X169365625Y-79225000D03*
X194350000Y-80725000D03*
X183990625Y-79225000D03*
X195625000Y-87250000D03*
X199240000Y-88075000D03*
X192450000Y-82450000D03*
X170107812Y-77500000D03*
X183388000Y-104013000D03*
X194468750Y-81600000D03*
X164795313Y-79225000D03*
X171125000Y-74175000D03*
X188560938Y-79225000D03*
X173925000Y-78425000D03*
X164784375Y-78425000D03*
X167825000Y-75025000D03*
X196700000Y-83200000D03*
X196735000Y-88075000D03*
X191825000Y-81600000D03*
X163870312Y-78425000D03*
X196075000Y-82450000D03*
X174678125Y-77500000D03*
X178334375Y-77500000D03*
X172096875Y-78425000D03*
X198260000Y-86325000D03*
X169392600Y-104038400D03*
X171021875Y-77500000D03*
X169525000Y-74500000D03*
X157403800Y-116992400D03*
X179654200Y-121793000D03*
X166150000Y-75575000D03*
X190350000Y-79225000D03*
X170268750Y-78425000D03*
X165698437Y-78425000D03*
X165250000Y-75900000D03*
X162026600Y-77495400D03*
X196350000Y-85450000D03*
X174839062Y-78425000D03*
X197875000Y-84775000D03*
X171182812Y-78425000D03*
X191747130Y-79860741D03*
X171193750Y-79225000D03*
X169354687Y-78425000D03*
X175764063Y-79225000D03*
X181990625Y-77500000D03*
X161250000Y-77975000D03*
X193725000Y-84775000D03*
X173523529Y-73925000D03*
X188675000Y-109325000D03*
X183065625Y-78425000D03*
X198718750Y-87225000D03*
X170279688Y-79225000D03*
X178506250Y-79225000D03*
X184904688Y-79225000D03*
X176678125Y-79225000D03*
X172000000Y-74050000D03*
X187635937Y-78425000D03*
X160350000Y-78525000D03*
X168279687Y-77500000D03*
X191300000Y-79075000D03*
X197687500Y-87225000D03*
X184893750Y-78425000D03*
X195168750Y-82450000D03*
X183979687Y-78425000D03*
X167365625Y-77500000D03*
X191575000Y-80875000D03*
X192500000Y-80800000D03*
X186721875Y-78425000D03*
X196375000Y-84025000D03*
X177420312Y-77500000D03*
X188450000Y-77600000D03*
X180323437Y-78425000D03*
X179350000Y-74050000D03*
X152000000Y-113000000D03*
X187646875Y-79225000D03*
X187700000Y-76525000D03*
X179409375Y-78425000D03*
X166451562Y-77500000D03*
X197395000Y-86325000D03*
X173935938Y-79225000D03*
X193587500Y-81600000D03*
X171935937Y-77500000D03*
X191125000Y-78275000D03*
X154203400Y-110617000D03*
X183250000Y-74825000D03*
X182904687Y-77500000D03*
X169193750Y-77500000D03*
X197400000Y-85450000D03*
X163600000Y-109600000D03*
X185807812Y-78425000D03*
X195756250Y-83200000D03*
X174850000Y-79225000D03*
X162683824Y-77175000D03*
X193649600Y-122986800D03*
X178550000Y-73950000D03*
X194325000Y-84025000D03*
X173021875Y-79225000D03*
X186560937Y-77500000D03*
X192225000Y-79075000D03*
X194762500Y-84775000D03*
X167767000Y-117729000D03*
X177725000Y-73900000D03*
X190925000Y-79860741D03*
X181248438Y-79225000D03*
X182162500Y-79225000D03*
X194812500Y-83200000D03*
X195665000Y-86325000D03*
X188550000Y-78425000D03*
X185646875Y-77500000D03*
X181076562Y-77500000D03*
X160400000Y-120100000D03*
X194250000Y-85450000D03*
X180441600Y-117348000D03*
X196656250Y-87225000D03*
X182525000Y-74675000D03*
X184732812Y-77500000D03*
X197400000Y-84025000D03*
X181237500Y-78425000D03*
X179248437Y-77500000D03*
X162042187Y-78425000D03*
X176506250Y-77500000D03*
X172775000Y-73950000D03*
X197570000Y-88075000D03*
X163517647Y-76700000D03*
X195900000Y-88100000D03*
X195300000Y-85450000D03*
%TO.N,SYS_5V*%
X164000000Y-111200000D03*
%TO.N,GEIGER_DETECTB*%
X201200000Y-101800000D03*
X169800000Y-122300000D03*
%TO.N,IO_VREF*%
X191600000Y-121450000D03*
X197400000Y-99200000D03*
X197500000Y-101300000D03*
X159100000Y-123500000D03*
X196500000Y-118750000D03*
X164400000Y-125600000D03*
%TO.N,POT_METER*%
X172800000Y-123700000D03*
X176900000Y-118300000D03*
%TO.N,/Page 2/DETECT_OUTPUT*%
X172000000Y-126500000D03*
X184550000Y-120200000D03*
%TO.N,Net-(U5A-IN-)*%
X169500000Y-115500000D03*
X181200000Y-125000000D03*
%TD*%
%TA.AperFunction,Conductor*%
%TO.N,GND*%
G36*
X176489112Y-73442876D02*
G01*
X177537314Y-73482096D01*
X177541925Y-73482355D01*
X178587979Y-73560746D01*
X178592519Y-73561172D01*
X179634930Y-73678624D01*
X179639451Y-73679219D01*
X180660518Y-73833120D01*
X180676719Y-73835562D01*
X180681292Y-73836339D01*
X181711953Y-74031350D01*
X181716445Y-74032287D01*
X182739123Y-74265707D01*
X182743590Y-74266814D01*
X183756833Y-74538312D01*
X183761250Y-74539585D01*
X184763607Y-74848771D01*
X184767971Y-74850206D01*
X185758138Y-75196680D01*
X185762412Y-75198267D01*
X186738849Y-75581490D01*
X186743096Y-75583249D01*
X187704575Y-76002738D01*
X187708758Y-76004658D01*
X188653848Y-76459789D01*
X188657963Y-76461867D01*
X189585350Y-76952005D01*
X189589396Y-76954241D01*
X190497801Y-77478709D01*
X190501771Y-77481101D01*
X191389952Y-78039182D01*
X191393792Y-78041696D01*
X192051522Y-78490128D01*
X192260500Y-78632607D01*
X192264282Y-78635291D01*
X193108272Y-79258184D01*
X193111895Y-79260965D01*
X193917562Y-79903462D01*
X193932019Y-79914991D01*
X193935548Y-79917914D01*
X194730710Y-80602206D01*
X194734094Y-80605232D01*
X195488037Y-81304788D01*
X195503026Y-81318696D01*
X195506366Y-81321913D01*
X196248086Y-82063633D01*
X196251303Y-82066973D01*
X196964764Y-82835902D01*
X196967795Y-82839292D01*
X197652080Y-83634445D01*
X197655003Y-83637974D01*
X198309028Y-84458096D01*
X198311821Y-84461735D01*
X198372615Y-84544108D01*
X198934708Y-85305717D01*
X198937392Y-85309499D01*
X199528290Y-86176187D01*
X199530830Y-86180067D01*
X200088897Y-87068226D01*
X200091290Y-87072198D01*
X200615758Y-87980603D01*
X200618001Y-87984662D01*
X200842920Y-88410230D01*
X200856842Y-88478698D01*
X200831537Y-88543825D01*
X200775039Y-88584931D01*
X200705286Y-88588968D01*
X200665185Y-88570322D01*
X200665114Y-88570454D01*
X200663085Y-88569346D01*
X200658977Y-88567436D01*
X200657332Y-88566204D01*
X200657328Y-88566202D01*
X200522482Y-88515908D01*
X200522483Y-88515908D01*
X200462883Y-88509501D01*
X200462881Y-88509500D01*
X200462873Y-88509500D01*
X200462864Y-88509500D01*
X198667129Y-88509500D01*
X198667123Y-88509501D01*
X198607516Y-88515908D01*
X198472671Y-88566202D01*
X198472664Y-88566206D01*
X198357455Y-88652452D01*
X198357452Y-88652455D01*
X198271206Y-88767664D01*
X198271202Y-88767671D01*
X198220908Y-88902517D01*
X198214501Y-88962116D01*
X198214500Y-88962135D01*
X198214500Y-88972690D01*
X198194815Y-89039729D01*
X198178181Y-89060371D01*
X197507962Y-89730590D01*
X197490925Y-89667007D01*
X197425099Y-89552993D01*
X197332007Y-89459901D01*
X197217993Y-89394075D01*
X197154409Y-89377037D01*
X197786716Y-88744728D01*
X197732550Y-88705375D01*
X197543217Y-88608904D01*
X197341129Y-88543242D01*
X197131246Y-88510000D01*
X196918754Y-88510000D01*
X196708872Y-88543242D01*
X196708869Y-88543242D01*
X196506782Y-88608904D01*
X196317439Y-88705380D01*
X196263282Y-88744727D01*
X196263282Y-88744728D01*
X196895591Y-89377037D01*
X196832007Y-89394075D01*
X196717993Y-89459901D01*
X196624901Y-89552993D01*
X196559075Y-89667007D01*
X196542037Y-89730591D01*
X195909728Y-89098282D01*
X195909727Y-89098282D01*
X195870380Y-89152439D01*
X195773904Y-89341782D01*
X195708242Y-89543869D01*
X195708242Y-89543872D01*
X195675000Y-89753753D01*
X195675000Y-89966246D01*
X195708242Y-90176127D01*
X195708242Y-90176130D01*
X195773904Y-90378217D01*
X195870375Y-90567550D01*
X195909728Y-90621716D01*
X196542037Y-89989408D01*
X196559075Y-90052993D01*
X196624901Y-90167007D01*
X196717993Y-90260099D01*
X196832007Y-90325925D01*
X196895590Y-90342962D01*
X196263282Y-90975269D01*
X196263282Y-90975270D01*
X196317449Y-91014624D01*
X196506782Y-91111095D01*
X196708870Y-91176757D01*
X196918754Y-91210000D01*
X197131246Y-91210000D01*
X197341127Y-91176757D01*
X197341130Y-91176757D01*
X197543217Y-91111095D01*
X197732554Y-91014622D01*
X197786716Y-90975270D01*
X197786717Y-90975270D01*
X197154408Y-90342962D01*
X197217993Y-90325925D01*
X197332007Y-90260099D01*
X197425099Y-90167007D01*
X197490925Y-90052993D01*
X197507962Y-89989409D01*
X198178181Y-90659628D01*
X198211666Y-90720951D01*
X198214500Y-90747300D01*
X198214500Y-90757865D01*
X198214501Y-90757876D01*
X198220908Y-90817483D01*
X198271202Y-90952328D01*
X198271206Y-90952335D01*
X198357452Y-91067544D01*
X198357455Y-91067547D01*
X198472664Y-91153793D01*
X198472671Y-91153797D01*
X198607517Y-91204091D01*
X198607516Y-91204091D01*
X198614444Y-91204835D01*
X198667127Y-91210500D01*
X200462872Y-91210499D01*
X200522483Y-91204091D01*
X200657331Y-91153796D01*
X200772546Y-91067546D01*
X200858796Y-90952331D01*
X200909091Y-90817483D01*
X200915500Y-90757873D01*
X200915499Y-89055107D01*
X200935184Y-88988069D01*
X200987987Y-88942314D01*
X201057146Y-88932370D01*
X201120702Y-88961395D01*
X201151218Y-89001305D01*
X201177129Y-89055108D01*
X201565334Y-89861225D01*
X201567268Y-89865440D01*
X201986742Y-90826884D01*
X201988516Y-90831169D01*
X202371718Y-91807550D01*
X202373332Y-91811897D01*
X202719786Y-92802008D01*
X202721235Y-92806413D01*
X203030408Y-93808729D01*
X203031692Y-93813185D01*
X203303180Y-94826392D01*
X203304296Y-94830893D01*
X203537707Y-95853530D01*
X203538654Y-95858070D01*
X203733660Y-96888708D01*
X203734437Y-96893280D01*
X203890775Y-97930510D01*
X203891380Y-97935107D01*
X204008823Y-98977442D01*
X204009256Y-98982059D01*
X204087643Y-100028064D01*
X204087903Y-100032694D01*
X204127124Y-101080886D01*
X204127211Y-101085523D01*
X204127211Y-102134476D01*
X204127124Y-102139113D01*
X204087903Y-103187305D01*
X204087643Y-103191935D01*
X204009256Y-104237940D01*
X204008823Y-104242557D01*
X203891380Y-105284892D01*
X203890775Y-105289489D01*
X203734437Y-106326719D01*
X203733660Y-106331291D01*
X203538654Y-107361929D01*
X203537707Y-107366469D01*
X203304296Y-108389106D01*
X203303180Y-108393607D01*
X203031692Y-109406814D01*
X203030408Y-109411270D01*
X202721235Y-110413586D01*
X202719786Y-110417991D01*
X202373332Y-111408102D01*
X202371718Y-111412449D01*
X201988516Y-112388830D01*
X201986742Y-112393115D01*
X201567268Y-113354559D01*
X201565334Y-113358774D01*
X201110216Y-114303836D01*
X201108126Y-114307975D01*
X200618001Y-115235337D01*
X200615758Y-115239396D01*
X200091290Y-116147801D01*
X200088897Y-116151773D01*
X199530830Y-117039932D01*
X199528290Y-117043812D01*
X198937392Y-117910500D01*
X198934708Y-117914282D01*
X198311836Y-118758244D01*
X198309013Y-118761923D01*
X197655008Y-119582019D01*
X197652058Y-119585579D01*
X196967818Y-120380680D01*
X196964747Y-120384116D01*
X196251303Y-121153026D01*
X196248086Y-121156366D01*
X195506366Y-121898086D01*
X195503026Y-121901303D01*
X194734116Y-122614747D01*
X194730680Y-122617818D01*
X193976888Y-123266510D01*
X193935590Y-123302050D01*
X193932019Y-123305008D01*
X193111923Y-123959013D01*
X193108244Y-123961836D01*
X192264282Y-124584708D01*
X192260500Y-124587392D01*
X191393812Y-125178290D01*
X191389932Y-125180830D01*
X190501773Y-125738897D01*
X190497801Y-125741290D01*
X189589396Y-126265758D01*
X189585337Y-126268001D01*
X188657975Y-126758126D01*
X188653836Y-126760216D01*
X187708774Y-127215334D01*
X187704559Y-127217268D01*
X186743115Y-127636742D01*
X186738830Y-127638516D01*
X185762449Y-128021718D01*
X185758102Y-128023332D01*
X184767991Y-128369786D01*
X184763586Y-128371235D01*
X183761270Y-128680408D01*
X183756814Y-128681692D01*
X182743607Y-128953180D01*
X182739106Y-128954296D01*
X181716469Y-129187707D01*
X181711929Y-129188654D01*
X180681291Y-129383660D01*
X180676719Y-129384437D01*
X179639489Y-129540775D01*
X179634892Y-129541380D01*
X178592557Y-129658823D01*
X178587940Y-129659256D01*
X177541935Y-129737643D01*
X177537305Y-129737903D01*
X176530856Y-129775562D01*
X176489111Y-129777124D01*
X176484476Y-129777211D01*
X175435524Y-129777211D01*
X175430888Y-129777124D01*
X175387100Y-129775485D01*
X174382694Y-129737903D01*
X174378064Y-129737643D01*
X173332059Y-129659256D01*
X173327442Y-129658823D01*
X172285107Y-129541380D01*
X172280510Y-129540775D01*
X171243280Y-129384437D01*
X171238708Y-129383660D01*
X170208070Y-129188654D01*
X170203530Y-129187707D01*
X169180893Y-128954296D01*
X169176392Y-128953180D01*
X168163185Y-128681692D01*
X168158729Y-128680408D01*
X167156413Y-128371235D01*
X167152008Y-128369786D01*
X166161897Y-128023332D01*
X166157550Y-128021718D01*
X165181169Y-127638516D01*
X165176884Y-127636742D01*
X164215440Y-127217268D01*
X164211225Y-127215334D01*
X163266163Y-126760216D01*
X163262024Y-126758126D01*
X162624440Y-126421153D01*
X171199500Y-126421153D01*
X171199500Y-126578846D01*
X171230261Y-126733489D01*
X171230264Y-126733501D01*
X171290602Y-126879172D01*
X171290609Y-126879185D01*
X171378210Y-127010288D01*
X171378213Y-127010292D01*
X171489707Y-127121786D01*
X171489711Y-127121789D01*
X171620814Y-127209390D01*
X171620827Y-127209397D01*
X171766498Y-127269735D01*
X171766503Y-127269737D01*
X171887239Y-127293753D01*
X171921153Y-127300499D01*
X171921156Y-127300500D01*
X171921158Y-127300500D01*
X172078844Y-127300500D01*
X172078845Y-127300499D01*
X172233497Y-127269737D01*
X172362398Y-127216345D01*
X172379172Y-127209397D01*
X172379172Y-127209396D01*
X172379179Y-127209394D01*
X172510289Y-127121789D01*
X172621789Y-127010289D01*
X172709394Y-126879179D01*
X172769737Y-126733497D01*
X172800500Y-126578842D01*
X172800500Y-126502135D01*
X178124500Y-126502135D01*
X178124500Y-128297870D01*
X178124501Y-128297876D01*
X178130908Y-128357483D01*
X178181202Y-128492328D01*
X178181206Y-128492335D01*
X178267452Y-128607544D01*
X178267455Y-128607547D01*
X178382664Y-128693793D01*
X178382671Y-128693797D01*
X178517517Y-128744091D01*
X178517516Y-128744091D01*
X178524444Y-128744835D01*
X178577127Y-128750500D01*
X180372872Y-128750499D01*
X180432483Y-128744091D01*
X180567331Y-128693796D01*
X180682546Y-128607546D01*
X180768796Y-128492331D01*
X180819091Y-128357483D01*
X180825500Y-128297873D01*
X180825499Y-128273979D01*
X180828330Y-128260963D01*
X180838940Y-128241525D01*
X180845179Y-128220275D01*
X180861803Y-128199643D01*
X180861808Y-128199636D01*
X180861811Y-128199634D01*
X180861818Y-128199626D01*
X181532037Y-127529408D01*
X181549075Y-127592993D01*
X181614901Y-127707007D01*
X181707993Y-127800099D01*
X181822007Y-127865925D01*
X181885590Y-127882962D01*
X181253282Y-128515269D01*
X181253282Y-128515270D01*
X181307449Y-128554624D01*
X181496782Y-128651095D01*
X181698870Y-128716757D01*
X181908754Y-128750000D01*
X182121246Y-128750000D01*
X182331127Y-128716757D01*
X182331130Y-128716757D01*
X182533217Y-128651095D01*
X182722554Y-128554622D01*
X182776716Y-128515270D01*
X182776717Y-128515270D01*
X182144408Y-127882962D01*
X182207993Y-127865925D01*
X182322007Y-127800099D01*
X182415099Y-127707007D01*
X182480925Y-127592993D01*
X182497962Y-127529408D01*
X183130270Y-128161717D01*
X183130270Y-128161716D01*
X183169622Y-128107554D01*
X183266095Y-127918217D01*
X183331757Y-127716130D01*
X183331757Y-127716127D01*
X183365000Y-127506246D01*
X183365000Y-127293753D01*
X183331757Y-127083872D01*
X183331757Y-127083869D01*
X183266095Y-126881782D01*
X183169624Y-126692449D01*
X183130270Y-126638282D01*
X183130269Y-126638282D01*
X182497962Y-127270590D01*
X182480925Y-127207007D01*
X182415099Y-127092993D01*
X182322007Y-126999901D01*
X182207993Y-126934075D01*
X182144409Y-126917037D01*
X182776716Y-126284728D01*
X182722550Y-126245375D01*
X182533217Y-126148904D01*
X182331129Y-126083242D01*
X182121246Y-126050000D01*
X181908754Y-126050000D01*
X181698872Y-126083242D01*
X181698869Y-126083242D01*
X181496782Y-126148904D01*
X181307439Y-126245380D01*
X181253282Y-126284727D01*
X181253282Y-126284728D01*
X181885591Y-126917037D01*
X181822007Y-126934075D01*
X181707993Y-126999901D01*
X181614901Y-127092993D01*
X181549075Y-127207007D01*
X181532037Y-127270591D01*
X180861818Y-126600372D01*
X180828333Y-126539049D01*
X180828330Y-126539036D01*
X180825499Y-126526015D01*
X180825499Y-126502128D01*
X180819091Y-126442517D01*
X180769441Y-126309397D01*
X180768798Y-126307673D01*
X180768793Y-126307664D01*
X180682547Y-126192455D01*
X180682544Y-126192452D01*
X180567335Y-126106206D01*
X180567328Y-126106202D01*
X180432482Y-126055908D01*
X180432483Y-126055908D01*
X180372883Y-126049501D01*
X180372881Y-126049500D01*
X180372873Y-126049500D01*
X180372864Y-126049500D01*
X178577129Y-126049500D01*
X178577123Y-126049501D01*
X178517516Y-126055908D01*
X178382671Y-126106202D01*
X178382664Y-126106206D01*
X178267455Y-126192452D01*
X178267452Y-126192455D01*
X178181206Y-126307664D01*
X178181202Y-126307671D01*
X178130908Y-126442517D01*
X178124501Y-126502116D01*
X178124500Y-126502135D01*
X172800500Y-126502135D01*
X172800500Y-126421158D01*
X172800500Y-126421155D01*
X172800499Y-126421153D01*
X172790271Y-126369735D01*
X172769737Y-126266503D01*
X172739065Y-126192454D01*
X172709397Y-126120827D01*
X172709390Y-126120814D01*
X172621789Y-125989711D01*
X172621786Y-125989707D01*
X172510292Y-125878213D01*
X172510288Y-125878210D01*
X172379185Y-125790609D01*
X172379172Y-125790602D01*
X172233501Y-125730264D01*
X172233489Y-125730261D01*
X172078845Y-125699500D01*
X172078842Y-125699500D01*
X171921158Y-125699500D01*
X171921155Y-125699500D01*
X171766510Y-125730261D01*
X171766498Y-125730264D01*
X171620827Y-125790602D01*
X171620814Y-125790609D01*
X171489711Y-125878210D01*
X171489707Y-125878213D01*
X171378213Y-125989707D01*
X171378210Y-125989711D01*
X171290609Y-126120814D01*
X171290602Y-126120827D01*
X171230264Y-126266498D01*
X171230261Y-126266510D01*
X171199500Y-126421153D01*
X162624440Y-126421153D01*
X162334662Y-126268001D01*
X162330603Y-126265758D01*
X161422198Y-125741290D01*
X161418226Y-125738897D01*
X161229098Y-125620060D01*
X161071688Y-125521153D01*
X163599500Y-125521153D01*
X163599500Y-125678846D01*
X163630261Y-125833489D01*
X163630264Y-125833501D01*
X163690602Y-125979172D01*
X163690609Y-125979185D01*
X163778210Y-126110288D01*
X163778213Y-126110292D01*
X163889707Y-126221786D01*
X163889711Y-126221789D01*
X164020814Y-126309390D01*
X164020827Y-126309397D01*
X164159900Y-126367002D01*
X164166503Y-126369737D01*
X164321153Y-126400499D01*
X164321156Y-126400500D01*
X164321158Y-126400500D01*
X164478844Y-126400500D01*
X164478845Y-126400499D01*
X164633497Y-126369737D01*
X164779179Y-126309394D01*
X164910289Y-126221789D01*
X165021789Y-126110289D01*
X165109394Y-125979179D01*
X165169737Y-125833497D01*
X165200500Y-125678842D01*
X165200500Y-125521158D01*
X165200500Y-125521155D01*
X165200499Y-125521153D01*
X165198338Y-125510288D01*
X165169737Y-125366503D01*
X165169735Y-125366498D01*
X165109397Y-125220827D01*
X165109390Y-125220814D01*
X165021789Y-125089711D01*
X165021786Y-125089707D01*
X164910292Y-124978213D01*
X164910288Y-124978210D01*
X164824897Y-124921153D01*
X180399500Y-124921153D01*
X180399500Y-125078846D01*
X180430261Y-125233489D01*
X180430264Y-125233501D01*
X180490602Y-125379172D01*
X180490609Y-125379185D01*
X180578210Y-125510288D01*
X180578213Y-125510292D01*
X180689707Y-125621786D01*
X180689711Y-125621789D01*
X180820814Y-125709390D01*
X180820827Y-125709397D01*
X180897825Y-125741290D01*
X180966503Y-125769737D01*
X181121153Y-125800499D01*
X181121156Y-125800500D01*
X181121158Y-125800500D01*
X181278844Y-125800500D01*
X181278845Y-125800499D01*
X181433497Y-125769737D01*
X181579179Y-125709394D01*
X181710289Y-125621789D01*
X181821789Y-125510289D01*
X181909394Y-125379179D01*
X181969737Y-125233497D01*
X182000500Y-125078842D01*
X182000500Y-124921158D01*
X182000500Y-124921155D01*
X182000499Y-124921153D01*
X181982419Y-124830261D01*
X181969737Y-124766503D01*
X181969735Y-124766498D01*
X181909397Y-124620827D01*
X181909390Y-124620814D01*
X181821789Y-124489711D01*
X181821786Y-124489707D01*
X181710292Y-124378213D01*
X181710288Y-124378210D01*
X181579185Y-124290609D01*
X181579172Y-124290602D01*
X181433501Y-124230264D01*
X181433489Y-124230261D01*
X181278845Y-124199500D01*
X181278842Y-124199500D01*
X181121158Y-124199500D01*
X181121155Y-124199500D01*
X180966510Y-124230261D01*
X180966498Y-124230264D01*
X180820827Y-124290602D01*
X180820814Y-124290609D01*
X180689711Y-124378210D01*
X180689707Y-124378213D01*
X180578213Y-124489707D01*
X180578210Y-124489711D01*
X180490609Y-124620814D01*
X180490602Y-124620827D01*
X180430264Y-124766498D01*
X180430261Y-124766510D01*
X180399500Y-124921153D01*
X164824897Y-124921153D01*
X164779185Y-124890609D01*
X164779172Y-124890602D01*
X164633501Y-124830264D01*
X164633489Y-124830261D01*
X164478845Y-124799500D01*
X164478842Y-124799500D01*
X164321158Y-124799500D01*
X164321155Y-124799500D01*
X164166510Y-124830261D01*
X164166498Y-124830264D01*
X164020827Y-124890602D01*
X164020814Y-124890609D01*
X163889711Y-124978210D01*
X163889707Y-124978213D01*
X163778213Y-125089707D01*
X163778210Y-125089711D01*
X163690609Y-125220814D01*
X163690602Y-125220827D01*
X163630264Y-125366498D01*
X163630261Y-125366510D01*
X163599500Y-125521153D01*
X161071688Y-125521153D01*
X160682166Y-125276400D01*
X160530060Y-125180825D01*
X160526187Y-125178290D01*
X160396265Y-125089711D01*
X160149036Y-124921153D01*
X159659499Y-124587392D01*
X159655717Y-124584708D01*
X159443130Y-124427812D01*
X159400880Y-124372165D01*
X159395421Y-124302509D01*
X159428488Y-124240959D01*
X159469312Y-124213481D01*
X159479179Y-124209394D01*
X159610289Y-124121789D01*
X159721789Y-124010289D01*
X159809394Y-123879179D01*
X159869737Y-123733497D01*
X159892083Y-123621158D01*
X159892084Y-123621153D01*
X171999500Y-123621153D01*
X171999500Y-123778846D01*
X172030261Y-123933489D01*
X172030264Y-123933501D01*
X172090602Y-124079172D01*
X172090609Y-124079185D01*
X172178210Y-124210288D01*
X172178213Y-124210292D01*
X172289707Y-124321786D01*
X172289711Y-124321789D01*
X172420814Y-124409390D01*
X172420827Y-124409397D01*
X172566498Y-124469735D01*
X172566503Y-124469737D01*
X172721153Y-124500499D01*
X172721156Y-124500500D01*
X172721158Y-124500500D01*
X172878844Y-124500500D01*
X172878845Y-124500499D01*
X173033497Y-124469737D01*
X173179179Y-124409394D01*
X173310289Y-124321789D01*
X173421789Y-124210289D01*
X173509394Y-124079179D01*
X173569737Y-123933497D01*
X173600500Y-123778842D01*
X173600500Y-123621158D01*
X173600500Y-123621155D01*
X173600499Y-123621153D01*
X173569738Y-123466510D01*
X173569737Y-123466503D01*
X173553935Y-123428354D01*
X173509397Y-123320827D01*
X173509390Y-123320814D01*
X173421789Y-123189711D01*
X173421786Y-123189707D01*
X173310292Y-123078213D01*
X173310288Y-123078210D01*
X173179185Y-122990609D01*
X173179172Y-122990602D01*
X173033501Y-122930264D01*
X173033489Y-122930261D01*
X172878845Y-122899500D01*
X172878842Y-122899500D01*
X172721158Y-122899500D01*
X172721155Y-122899500D01*
X172566510Y-122930261D01*
X172566498Y-122930264D01*
X172420827Y-122990602D01*
X172420814Y-122990609D01*
X172289711Y-123078210D01*
X172289707Y-123078213D01*
X172178213Y-123189707D01*
X172178210Y-123189711D01*
X172090609Y-123320814D01*
X172090602Y-123320827D01*
X172030264Y-123466498D01*
X172030261Y-123466510D01*
X171999500Y-123621153D01*
X159892084Y-123621153D01*
X159898107Y-123590875D01*
X159898107Y-123590874D01*
X159900500Y-123578844D01*
X159900500Y-123421155D01*
X159900499Y-123421153D01*
X159880543Y-123320827D01*
X159869737Y-123266503D01*
X159837929Y-123189711D01*
X159809397Y-123120827D01*
X159809390Y-123120814D01*
X159721789Y-122989711D01*
X159721786Y-122989707D01*
X159610292Y-122878213D01*
X159610288Y-122878210D01*
X159479185Y-122790609D01*
X159479172Y-122790602D01*
X159333501Y-122730264D01*
X159333489Y-122730261D01*
X159178845Y-122699500D01*
X159178842Y-122699500D01*
X159021158Y-122699500D01*
X159021155Y-122699500D01*
X158866510Y-122730261D01*
X158866498Y-122730264D01*
X158720827Y-122790602D01*
X158720814Y-122790609D01*
X158589711Y-122878210D01*
X158589707Y-122878213D01*
X158478213Y-122989707D01*
X158478210Y-122989711D01*
X158390609Y-123120814D01*
X158390602Y-123120827D01*
X158330264Y-123266498D01*
X158330261Y-123266508D01*
X158316516Y-123335610D01*
X158315075Y-123338364D01*
X158315202Y-123341471D01*
X158298989Y-123369114D01*
X158284131Y-123397521D01*
X158281428Y-123399060D01*
X158279856Y-123401741D01*
X158251277Y-123416229D01*
X158223415Y-123432095D01*
X158220309Y-123431928D01*
X158217537Y-123433334D01*
X158185654Y-123430070D01*
X158153645Y-123428354D01*
X158150192Y-123426440D01*
X158148031Y-123426219D01*
X158117586Y-123408365D01*
X157987980Y-123305007D01*
X157984409Y-123302049D01*
X157773825Y-123120827D01*
X157189292Y-122617795D01*
X157185902Y-122614764D01*
X156761690Y-122221153D01*
X168999500Y-122221153D01*
X168999500Y-122378846D01*
X169030261Y-122533489D01*
X169030264Y-122533501D01*
X169090602Y-122679172D01*
X169090609Y-122679185D01*
X169178210Y-122810288D01*
X169178213Y-122810292D01*
X169289707Y-122921786D01*
X169289711Y-122921789D01*
X169420814Y-123009390D01*
X169420827Y-123009397D01*
X169566498Y-123069735D01*
X169566503Y-123069737D01*
X169721153Y-123100499D01*
X169721156Y-123100500D01*
X169721158Y-123100500D01*
X169878844Y-123100500D01*
X169878845Y-123100499D01*
X170033497Y-123069737D01*
X170179179Y-123009394D01*
X170310289Y-122921789D01*
X170421789Y-122810289D01*
X170509394Y-122679179D01*
X170569737Y-122533497D01*
X170600500Y-122378842D01*
X170600500Y-122221158D01*
X170600500Y-122221155D01*
X170600499Y-122221153D01*
X170570788Y-122071789D01*
X170569737Y-122066503D01*
X170569735Y-122066498D01*
X170509397Y-121920827D01*
X170509390Y-121920814D01*
X170421789Y-121789711D01*
X170421786Y-121789707D01*
X170310292Y-121678213D01*
X170310288Y-121678210D01*
X170179185Y-121590609D01*
X170179172Y-121590602D01*
X170033501Y-121530264D01*
X170033489Y-121530261D01*
X169878845Y-121499500D01*
X169878842Y-121499500D01*
X169721158Y-121499500D01*
X169721155Y-121499500D01*
X169566510Y-121530261D01*
X169566498Y-121530264D01*
X169420827Y-121590602D01*
X169420814Y-121590609D01*
X169289711Y-121678210D01*
X169289707Y-121678213D01*
X169178213Y-121789707D01*
X169178210Y-121789711D01*
X169090609Y-121920814D01*
X169090602Y-121920827D01*
X169030264Y-122066498D01*
X169030261Y-122066510D01*
X168999500Y-122221153D01*
X156761690Y-122221153D01*
X156416973Y-121901303D01*
X156413633Y-121898086D01*
X155886700Y-121371153D01*
X190799500Y-121371153D01*
X190799500Y-121528846D01*
X190830261Y-121683489D01*
X190830264Y-121683501D01*
X190890602Y-121829172D01*
X190890609Y-121829185D01*
X190978210Y-121960288D01*
X190978213Y-121960292D01*
X191089707Y-122071786D01*
X191089711Y-122071789D01*
X191220814Y-122159390D01*
X191220827Y-122159397D01*
X191366498Y-122219735D01*
X191366503Y-122219737D01*
X191521153Y-122250499D01*
X191521156Y-122250500D01*
X191521158Y-122250500D01*
X191678844Y-122250500D01*
X191678845Y-122250499D01*
X191833497Y-122219737D01*
X191979179Y-122159394D01*
X192110289Y-122071789D01*
X192221789Y-121960289D01*
X192309394Y-121829179D01*
X192369737Y-121683497D01*
X192400500Y-121528842D01*
X192400500Y-121371158D01*
X192400500Y-121371155D01*
X192400499Y-121371153D01*
X192369738Y-121216510D01*
X192369737Y-121216503D01*
X192324766Y-121107932D01*
X192309397Y-121070827D01*
X192309390Y-121070814D01*
X192221789Y-120939711D01*
X192221786Y-120939707D01*
X192110292Y-120828213D01*
X192110288Y-120828210D01*
X191979185Y-120740609D01*
X191979172Y-120740602D01*
X191833501Y-120680264D01*
X191833489Y-120680261D01*
X191678845Y-120649500D01*
X191678842Y-120649500D01*
X191521158Y-120649500D01*
X191521155Y-120649500D01*
X191366510Y-120680261D01*
X191366498Y-120680264D01*
X191220827Y-120740602D01*
X191220814Y-120740609D01*
X191089711Y-120828210D01*
X191089707Y-120828213D01*
X190978213Y-120939707D01*
X190978210Y-120939711D01*
X190890609Y-121070814D01*
X190890602Y-121070827D01*
X190830264Y-121216498D01*
X190830261Y-121216510D01*
X190799500Y-121371153D01*
X155886700Y-121371153D01*
X155671913Y-121156366D01*
X155668696Y-121153026D01*
X155626855Y-121107932D01*
X154955233Y-120384094D01*
X154952181Y-120380680D01*
X154728840Y-120121153D01*
X183749500Y-120121153D01*
X183749500Y-120278846D01*
X183780261Y-120433489D01*
X183780264Y-120433501D01*
X183840602Y-120579172D01*
X183840609Y-120579185D01*
X183928210Y-120710288D01*
X183928213Y-120710292D01*
X184039707Y-120821786D01*
X184039711Y-120821789D01*
X184170814Y-120909390D01*
X184170827Y-120909397D01*
X184244013Y-120939711D01*
X184316503Y-120969737D01*
X184471153Y-121000499D01*
X184471156Y-121000500D01*
X184471158Y-121000500D01*
X184628844Y-121000500D01*
X184628845Y-121000499D01*
X184783497Y-120969737D01*
X184929179Y-120909394D01*
X185060289Y-120821789D01*
X185171789Y-120710289D01*
X185259394Y-120579179D01*
X185319737Y-120433497D01*
X185350500Y-120278842D01*
X185350500Y-120121158D01*
X185350500Y-120121155D01*
X185350499Y-120121153D01*
X185319738Y-119966510D01*
X185319737Y-119966503D01*
X185319735Y-119966498D01*
X185259397Y-119820827D01*
X185259390Y-119820814D01*
X185171789Y-119689711D01*
X185171786Y-119689707D01*
X185060292Y-119578213D01*
X185060288Y-119578210D01*
X184929185Y-119490609D01*
X184929172Y-119490602D01*
X184783501Y-119430264D01*
X184783489Y-119430261D01*
X184628845Y-119399500D01*
X184628842Y-119399500D01*
X184471158Y-119399500D01*
X184471155Y-119399500D01*
X184316510Y-119430261D01*
X184316498Y-119430264D01*
X184170827Y-119490602D01*
X184170814Y-119490609D01*
X184039711Y-119578210D01*
X184039707Y-119578213D01*
X183928213Y-119689707D01*
X183928210Y-119689711D01*
X183840609Y-119820814D01*
X183840602Y-119820827D01*
X183780264Y-119966498D01*
X183780261Y-119966510D01*
X183749500Y-120121153D01*
X154728840Y-120121153D01*
X154267914Y-119585548D01*
X154264991Y-119582019D01*
X154261956Y-119578213D01*
X153610965Y-118761895D01*
X153608184Y-118758272D01*
X153211772Y-118221153D01*
X176099500Y-118221153D01*
X176099500Y-118378846D01*
X176130261Y-118533489D01*
X176130264Y-118533501D01*
X176190602Y-118679172D01*
X176190609Y-118679185D01*
X176278210Y-118810288D01*
X176278213Y-118810292D01*
X176389707Y-118921786D01*
X176389711Y-118921789D01*
X176520814Y-119009390D01*
X176520827Y-119009397D01*
X176666498Y-119069735D01*
X176666503Y-119069737D01*
X176821153Y-119100499D01*
X176821156Y-119100500D01*
X176821158Y-119100500D01*
X176978844Y-119100500D01*
X176978845Y-119100499D01*
X177133497Y-119069737D01*
X177279179Y-119009394D01*
X177410289Y-118921789D01*
X177521789Y-118810289D01*
X177609394Y-118679179D01*
X177609395Y-118679176D01*
X177609397Y-118679173D01*
X177612719Y-118671153D01*
X195699500Y-118671153D01*
X195699500Y-118828846D01*
X195730261Y-118983489D01*
X195730264Y-118983501D01*
X195790602Y-119129172D01*
X195790609Y-119129185D01*
X195878210Y-119260288D01*
X195878213Y-119260292D01*
X195989707Y-119371786D01*
X195989711Y-119371789D01*
X196120814Y-119459390D01*
X196120827Y-119459397D01*
X196266498Y-119519735D01*
X196266503Y-119519737D01*
X196421153Y-119550499D01*
X196421156Y-119550500D01*
X196421158Y-119550500D01*
X196578844Y-119550500D01*
X196578845Y-119550499D01*
X196733497Y-119519737D01*
X196879179Y-119459394D01*
X197010289Y-119371789D01*
X197121789Y-119260289D01*
X197209394Y-119129179D01*
X197269737Y-118983497D01*
X197300500Y-118828842D01*
X197300500Y-118671158D01*
X197300500Y-118671155D01*
X197300499Y-118671153D01*
X197273117Y-118533497D01*
X197269737Y-118516503D01*
X197269735Y-118516498D01*
X197209397Y-118370827D01*
X197209390Y-118370814D01*
X197121789Y-118239711D01*
X197121786Y-118239707D01*
X197010292Y-118128213D01*
X197010288Y-118128210D01*
X196879185Y-118040609D01*
X196879172Y-118040602D01*
X196733501Y-117980264D01*
X196733489Y-117980261D01*
X196578845Y-117949500D01*
X196578842Y-117949500D01*
X196421158Y-117949500D01*
X196421155Y-117949500D01*
X196266510Y-117980261D01*
X196266498Y-117980264D01*
X196120827Y-118040602D01*
X196120814Y-118040609D01*
X195989711Y-118128210D01*
X195989707Y-118128213D01*
X195878213Y-118239707D01*
X195878210Y-118239711D01*
X195790609Y-118370814D01*
X195790602Y-118370827D01*
X195730264Y-118516498D01*
X195730261Y-118516510D01*
X195699500Y-118671153D01*
X177612719Y-118671153D01*
X177634895Y-118617614D01*
X177634895Y-118617613D01*
X177669737Y-118533497D01*
X177700500Y-118378842D01*
X177700500Y-118221158D01*
X177700500Y-118221155D01*
X177700499Y-118221153D01*
X177682012Y-118128213D01*
X177669737Y-118066503D01*
X177669735Y-118066498D01*
X177609397Y-117920827D01*
X177609390Y-117920814D01*
X177521789Y-117789711D01*
X177521786Y-117789707D01*
X177410292Y-117678213D01*
X177410288Y-117678210D01*
X177279185Y-117590609D01*
X177279172Y-117590602D01*
X177133501Y-117530264D01*
X177133489Y-117530261D01*
X176978845Y-117499500D01*
X176978842Y-117499500D01*
X176821158Y-117499500D01*
X176821155Y-117499500D01*
X176666510Y-117530261D01*
X176666498Y-117530264D01*
X176520827Y-117590602D01*
X176520814Y-117590609D01*
X176389711Y-117678210D01*
X176389707Y-117678213D01*
X176278213Y-117789707D01*
X176278210Y-117789711D01*
X176190609Y-117920814D01*
X176190602Y-117920827D01*
X176130264Y-118066498D01*
X176130261Y-118066510D01*
X176099500Y-118221153D01*
X153211772Y-118221153D01*
X153097631Y-118066498D01*
X152985291Y-117914282D01*
X152982607Y-117910500D01*
X152732593Y-117543797D01*
X152391696Y-117043792D01*
X152389182Y-117039952D01*
X151831101Y-116151771D01*
X151828709Y-116147801D01*
X151403205Y-115410806D01*
X151369331Y-115352135D01*
X153149500Y-115352135D01*
X153149500Y-117147870D01*
X153149501Y-117147876D01*
X153155908Y-117207483D01*
X153206202Y-117342328D01*
X153206206Y-117342335D01*
X153292452Y-117457544D01*
X153292455Y-117457547D01*
X153407664Y-117543793D01*
X153407671Y-117543797D01*
X153542517Y-117594091D01*
X153542516Y-117594091D01*
X153549444Y-117594835D01*
X153602127Y-117600500D01*
X155397872Y-117600499D01*
X155457483Y-117594091D01*
X155592331Y-117543796D01*
X155707546Y-117457546D01*
X155793796Y-117342331D01*
X155844091Y-117207483D01*
X155850500Y-117147873D01*
X155850499Y-115421153D01*
X168699500Y-115421153D01*
X168699500Y-115578846D01*
X168730261Y-115733489D01*
X168730264Y-115733501D01*
X168790602Y-115879172D01*
X168790609Y-115879185D01*
X168878210Y-116010288D01*
X168878213Y-116010292D01*
X168989707Y-116121786D01*
X168989711Y-116121789D01*
X169120814Y-116209390D01*
X169120827Y-116209397D01*
X169266498Y-116269735D01*
X169266503Y-116269737D01*
X169421153Y-116300499D01*
X169421156Y-116300500D01*
X169421158Y-116300500D01*
X169578844Y-116300500D01*
X169578845Y-116300499D01*
X169733497Y-116269737D01*
X169879179Y-116209394D01*
X170010289Y-116121789D01*
X170121789Y-116010289D01*
X170209394Y-115879179D01*
X170269737Y-115733497D01*
X170300500Y-115578842D01*
X170300500Y-115421158D01*
X170300500Y-115421155D01*
X170300499Y-115421153D01*
X170289457Y-115365640D01*
X170269737Y-115266503D01*
X170214897Y-115134106D01*
X170209397Y-115120827D01*
X170209390Y-115120814D01*
X170151824Y-115034661D01*
X170121789Y-114989711D01*
X170121786Y-114989707D01*
X170102721Y-114970642D01*
X177297494Y-114970642D01*
X177297494Y-115169363D01*
X177328581Y-115365640D01*
X177389987Y-115554632D01*
X177389988Y-115554635D01*
X177480207Y-115731698D01*
X177597013Y-115892467D01*
X177737531Y-116032985D01*
X177898300Y-116149791D01*
X177985144Y-116194040D01*
X178075362Y-116240009D01*
X178075365Y-116240010D01*
X178166851Y-116269735D01*
X178264359Y-116301417D01*
X178460634Y-116332504D01*
X178460635Y-116332504D01*
X178659355Y-116332504D01*
X178659356Y-116332504D01*
X178855631Y-116301417D01*
X179044627Y-116240009D01*
X179221690Y-116149791D01*
X179382459Y-116032985D01*
X179522977Y-115892467D01*
X179639783Y-115731698D01*
X179730001Y-115554635D01*
X179791409Y-115365639D01*
X179822496Y-115169364D01*
X179822496Y-114970642D01*
X179791409Y-114774367D01*
X179730001Y-114585371D01*
X179730001Y-114585370D01*
X179639782Y-114408307D01*
X179522977Y-114247539D01*
X179382459Y-114107021D01*
X179221690Y-113990215D01*
X179044627Y-113899996D01*
X179044624Y-113899995D01*
X178855632Y-113838589D01*
X178714563Y-113816246D01*
X178659356Y-113807502D01*
X178460634Y-113807502D01*
X178405427Y-113816246D01*
X178264357Y-113838589D01*
X178075365Y-113899995D01*
X178075362Y-113899996D01*
X177898299Y-113990215D01*
X177848867Y-114026130D01*
X177737531Y-114107021D01*
X177737529Y-114107023D01*
X177737528Y-114107023D01*
X177597015Y-114247536D01*
X177597015Y-114247537D01*
X177597013Y-114247539D01*
X177546849Y-114316582D01*
X177480207Y-114408307D01*
X177389988Y-114585370D01*
X177389987Y-114585373D01*
X177328581Y-114774365D01*
X177297494Y-114970642D01*
X170102721Y-114970642D01*
X170010292Y-114878213D01*
X170010288Y-114878210D01*
X169879185Y-114790609D01*
X169879172Y-114790602D01*
X169733501Y-114730264D01*
X169733489Y-114730261D01*
X169578845Y-114699500D01*
X169578842Y-114699500D01*
X169421158Y-114699500D01*
X169421155Y-114699500D01*
X169266510Y-114730261D01*
X169266498Y-114730264D01*
X169120827Y-114790602D01*
X169120814Y-114790609D01*
X168989711Y-114878210D01*
X168989707Y-114878213D01*
X168878213Y-114989707D01*
X168878210Y-114989711D01*
X168790609Y-115120814D01*
X168790602Y-115120827D01*
X168730264Y-115266498D01*
X168730261Y-115266510D01*
X168699500Y-115421153D01*
X155850499Y-115421153D01*
X155850499Y-115352128D01*
X155844091Y-115292517D01*
X155834388Y-115266503D01*
X155793797Y-115157671D01*
X155793793Y-115157664D01*
X155707547Y-115042455D01*
X155707544Y-115042452D01*
X155592335Y-114956206D01*
X155592328Y-114956202D01*
X155457482Y-114905908D01*
X155457483Y-114905908D01*
X155397883Y-114899501D01*
X155397881Y-114899500D01*
X155397873Y-114899500D01*
X155397865Y-114899500D01*
X155387309Y-114899500D01*
X155320270Y-114879815D01*
X155299628Y-114863181D01*
X154629408Y-114192962D01*
X154692993Y-114175925D01*
X154807007Y-114110099D01*
X154900099Y-114017007D01*
X154965925Y-113902993D01*
X154982962Y-113839408D01*
X155615270Y-114471717D01*
X155615270Y-114471716D01*
X155654622Y-114417554D01*
X155751095Y-114228217D01*
X155816757Y-114026130D01*
X155816757Y-114026127D01*
X155850000Y-113816246D01*
X155850000Y-113603753D01*
X155816757Y-113393872D01*
X155816757Y-113393869D01*
X155751095Y-113191782D01*
X155654624Y-113002449D01*
X155615270Y-112948282D01*
X155615269Y-112948282D01*
X154982962Y-113580590D01*
X154965925Y-113517007D01*
X154900099Y-113402993D01*
X154807007Y-113309901D01*
X154692993Y-113244075D01*
X154629409Y-113227037D01*
X155261716Y-112594728D01*
X155207550Y-112555375D01*
X155170013Y-112536249D01*
X155018217Y-112458904D01*
X154931217Y-112430636D01*
X174757489Y-112430636D01*
X174757489Y-112629357D01*
X174788576Y-112825634D01*
X174849982Y-113014626D01*
X174849983Y-113014629D01*
X174910293Y-113132992D01*
X174940202Y-113191692D01*
X175057008Y-113352461D01*
X175197526Y-113492979D01*
X175358295Y-113609785D01*
X175442487Y-113652683D01*
X175535357Y-113700003D01*
X175535360Y-113700004D01*
X175629856Y-113730707D01*
X175724354Y-113761411D01*
X175920629Y-113792498D01*
X175920630Y-113792498D01*
X176119350Y-113792498D01*
X176119351Y-113792498D01*
X176315626Y-113761411D01*
X176504622Y-113700003D01*
X176681685Y-113609785D01*
X176842454Y-113492979D01*
X176982972Y-113352461D01*
X177099778Y-113191692D01*
X177189996Y-113014629D01*
X177251404Y-112825633D01*
X177282491Y-112629358D01*
X177282491Y-112430636D01*
X179837499Y-112430636D01*
X179837499Y-112629357D01*
X179868586Y-112825634D01*
X179929992Y-113014626D01*
X179929993Y-113014629D01*
X179990303Y-113132992D01*
X180020212Y-113191692D01*
X180137018Y-113352461D01*
X180277536Y-113492979D01*
X180438305Y-113609785D01*
X180522497Y-113652683D01*
X180615367Y-113700003D01*
X180615370Y-113700004D01*
X180709866Y-113730707D01*
X180804364Y-113761411D01*
X181000639Y-113792498D01*
X181000640Y-113792498D01*
X181199360Y-113792498D01*
X181199361Y-113792498D01*
X181395636Y-113761411D01*
X181584632Y-113700003D01*
X181761695Y-113609785D01*
X181922464Y-113492979D01*
X182062982Y-113352461D01*
X182179788Y-113191692D01*
X182270006Y-113014629D01*
X182331414Y-112825633D01*
X182362501Y-112629358D01*
X182362501Y-112430636D01*
X182331414Y-112234361D01*
X182270006Y-112045365D01*
X182270006Y-112045364D01*
X182179787Y-111868301D01*
X182145994Y-111821789D01*
X182062982Y-111707533D01*
X181922464Y-111567015D01*
X181761695Y-111450209D01*
X181728880Y-111433489D01*
X181584632Y-111359990D01*
X181584629Y-111359989D01*
X181451510Y-111316737D01*
X181395637Y-111298583D01*
X181271009Y-111278844D01*
X181199361Y-111267496D01*
X181000639Y-111267496D01*
X180935214Y-111277858D01*
X180804362Y-111298583D01*
X180615370Y-111359989D01*
X180615367Y-111359990D01*
X180438304Y-111450209D01*
X180346579Y-111516851D01*
X180277536Y-111567015D01*
X180277534Y-111567017D01*
X180277533Y-111567017D01*
X180137020Y-111707530D01*
X180137020Y-111707531D01*
X180137018Y-111707533D01*
X180108746Y-111746446D01*
X180020212Y-111868301D01*
X179929993Y-112045364D01*
X179929992Y-112045367D01*
X179868586Y-112234359D01*
X179837499Y-112430636D01*
X177282491Y-112430636D01*
X177251404Y-112234361D01*
X177189996Y-112045365D01*
X177189996Y-112045364D01*
X177099777Y-111868301D01*
X177065984Y-111821789D01*
X176982972Y-111707533D01*
X176842454Y-111567015D01*
X176681685Y-111450209D01*
X176648870Y-111433489D01*
X176504622Y-111359990D01*
X176504619Y-111359989D01*
X176315627Y-111298583D01*
X176190999Y-111278844D01*
X176119351Y-111267496D01*
X175920629Y-111267496D01*
X175855204Y-111277858D01*
X175724352Y-111298583D01*
X175535360Y-111359989D01*
X175535357Y-111359990D01*
X175358294Y-111450209D01*
X175266569Y-111516851D01*
X175197526Y-111567015D01*
X175197524Y-111567017D01*
X175197523Y-111567017D01*
X175057010Y-111707530D01*
X175057010Y-111707531D01*
X175057008Y-111707533D01*
X175028736Y-111746446D01*
X174940202Y-111868301D01*
X174849983Y-112045364D01*
X174849982Y-112045367D01*
X174788576Y-112234359D01*
X174757489Y-112430636D01*
X154931217Y-112430636D01*
X154816129Y-112393242D01*
X154606246Y-112360000D01*
X154393754Y-112360000D01*
X154183872Y-112393242D01*
X154183869Y-112393242D01*
X153981782Y-112458904D01*
X153792439Y-112555380D01*
X153738282Y-112594727D01*
X153738282Y-112594728D01*
X154370591Y-113227037D01*
X154307007Y-113244075D01*
X154192993Y-113309901D01*
X154099901Y-113402993D01*
X154034075Y-113517007D01*
X154017037Y-113580591D01*
X153384728Y-112948282D01*
X153384727Y-112948282D01*
X153345380Y-113002439D01*
X153248904Y-113191782D01*
X153183242Y-113393869D01*
X153183242Y-113393872D01*
X153150000Y-113603753D01*
X153150000Y-113816246D01*
X153183242Y-114026127D01*
X153183242Y-114026130D01*
X153248904Y-114228217D01*
X153345375Y-114417550D01*
X153384728Y-114471716D01*
X154017037Y-113839408D01*
X154034075Y-113902993D01*
X154099901Y-114017007D01*
X154192993Y-114110099D01*
X154307007Y-114175925D01*
X154370590Y-114192962D01*
X153700370Y-114863181D01*
X153639047Y-114896666D01*
X153612698Y-114899500D01*
X153602134Y-114899500D01*
X153602123Y-114899501D01*
X153542516Y-114905908D01*
X153407671Y-114956202D01*
X153407664Y-114956206D01*
X153292455Y-115042452D01*
X153292452Y-115042455D01*
X153206206Y-115157664D01*
X153206202Y-115157671D01*
X153155908Y-115292517D01*
X153149501Y-115352116D01*
X153149501Y-115352123D01*
X153149500Y-115352135D01*
X151369331Y-115352135D01*
X151334910Y-115292516D01*
X151304234Y-115239384D01*
X151301998Y-115235337D01*
X151267130Y-115169364D01*
X150811867Y-114307963D01*
X150809783Y-114303836D01*
X150782671Y-114247537D01*
X150354658Y-113358758D01*
X150352731Y-113354559D01*
X150332220Y-113307547D01*
X149933249Y-112393096D01*
X149931483Y-112388830D01*
X149893843Y-112292925D01*
X149548267Y-111412412D01*
X149546680Y-111408138D01*
X149200206Y-110417971D01*
X149198764Y-110413586D01*
X149194419Y-110399500D01*
X148889585Y-109411250D01*
X148888307Y-109406814D01*
X148709768Y-108740499D01*
X148616814Y-108393590D01*
X148615703Y-108389106D01*
X148606203Y-108347482D01*
X148382287Y-107366445D01*
X148381345Y-107361929D01*
X148377562Y-107341936D01*
X148216772Y-106492135D01*
X150189500Y-106492135D01*
X150189500Y-108287870D01*
X150189501Y-108287876D01*
X150195908Y-108347483D01*
X150246202Y-108482328D01*
X150246206Y-108482335D01*
X150332452Y-108597544D01*
X150332455Y-108597547D01*
X150447664Y-108683793D01*
X150447671Y-108683797D01*
X150492618Y-108700561D01*
X150582517Y-108734091D01*
X150642127Y-108740500D01*
X150652685Y-108740499D01*
X150719723Y-108760179D01*
X150740372Y-108776818D01*
X151410591Y-109447037D01*
X151347007Y-109464075D01*
X151232993Y-109529901D01*
X151139901Y-109622993D01*
X151074075Y-109737007D01*
X151057037Y-109800591D01*
X150424728Y-109168282D01*
X150424727Y-109168282D01*
X150385380Y-109222439D01*
X150288904Y-109411782D01*
X150223242Y-109613869D01*
X150223242Y-109613872D01*
X150190000Y-109823753D01*
X150190000Y-110036246D01*
X150223242Y-110246127D01*
X150223242Y-110246130D01*
X150288904Y-110448217D01*
X150385375Y-110637550D01*
X150424728Y-110691716D01*
X151057037Y-110059408D01*
X151074075Y-110122993D01*
X151139901Y-110237007D01*
X151232993Y-110330099D01*
X151347007Y-110395925D01*
X151410590Y-110412962D01*
X150778282Y-111045269D01*
X150778282Y-111045270D01*
X150832449Y-111084624D01*
X151021782Y-111181095D01*
X151223870Y-111246757D01*
X151433754Y-111280000D01*
X151646246Y-111280000D01*
X151856127Y-111246757D01*
X151856130Y-111246757D01*
X152058217Y-111181095D01*
X152175859Y-111121153D01*
X163199500Y-111121153D01*
X163199500Y-111278846D01*
X163230261Y-111433489D01*
X163230264Y-111433501D01*
X163290602Y-111579172D01*
X163290609Y-111579185D01*
X163378210Y-111710288D01*
X163378213Y-111710292D01*
X163489707Y-111821786D01*
X163489711Y-111821789D01*
X163620814Y-111909390D01*
X163620827Y-111909397D01*
X163766498Y-111969735D01*
X163766503Y-111969737D01*
X163887239Y-111993753D01*
X163921153Y-112000499D01*
X163921156Y-112000500D01*
X163921158Y-112000500D01*
X164078844Y-112000500D01*
X164078845Y-112000499D01*
X164233497Y-111969737D01*
X164379179Y-111909394D01*
X164510289Y-111821789D01*
X164621789Y-111710289D01*
X164709394Y-111579179D01*
X164714433Y-111567015D01*
X164723067Y-111546166D01*
X164769737Y-111433497D01*
X164800500Y-111278842D01*
X164800500Y-111202135D01*
X184324500Y-111202135D01*
X184324500Y-112997870D01*
X184324501Y-112997876D01*
X184330908Y-113057483D01*
X184381202Y-113192328D01*
X184381206Y-113192335D01*
X184467452Y-113307544D01*
X184467455Y-113307547D01*
X184582664Y-113393793D01*
X184582671Y-113393797D01*
X184717517Y-113444091D01*
X184717516Y-113444091D01*
X184724444Y-113444835D01*
X184777127Y-113450500D01*
X186572872Y-113450499D01*
X186632483Y-113444091D01*
X186767331Y-113393796D01*
X186882546Y-113307546D01*
X186968796Y-113192331D01*
X187019091Y-113057483D01*
X187025500Y-112997873D01*
X187025499Y-112973979D01*
X187028330Y-112960963D01*
X187038940Y-112941525D01*
X187045179Y-112920275D01*
X187061803Y-112899643D01*
X187061808Y-112899636D01*
X187061811Y-112899634D01*
X187061818Y-112899626D01*
X187732037Y-112229408D01*
X187749075Y-112292993D01*
X187814901Y-112407007D01*
X187907993Y-112500099D01*
X188022007Y-112565925D01*
X188085590Y-112582962D01*
X187453282Y-113215269D01*
X187453282Y-113215270D01*
X187507449Y-113254624D01*
X187696782Y-113351095D01*
X187898870Y-113416757D01*
X188108754Y-113450000D01*
X188321246Y-113450000D01*
X188531127Y-113416757D01*
X188531130Y-113416757D01*
X188733217Y-113351095D01*
X188922554Y-113254622D01*
X188976716Y-113215270D01*
X188976717Y-113215270D01*
X188344408Y-112582962D01*
X188407993Y-112565925D01*
X188522007Y-112500099D01*
X188615099Y-112407007D01*
X188680925Y-112292993D01*
X188697962Y-112229408D01*
X189330270Y-112861717D01*
X189330270Y-112861716D01*
X189369622Y-112807554D01*
X189466095Y-112618217D01*
X189531757Y-112416130D01*
X189531757Y-112416127D01*
X189565000Y-112206246D01*
X189565000Y-111993753D01*
X189531757Y-111783872D01*
X189531757Y-111783869D01*
X189466095Y-111581782D01*
X189369624Y-111392449D01*
X189330270Y-111338282D01*
X189330269Y-111338282D01*
X188697962Y-111970590D01*
X188680925Y-111907007D01*
X188615099Y-111792993D01*
X188522007Y-111699901D01*
X188407993Y-111634075D01*
X188344409Y-111617037D01*
X188976716Y-110984728D01*
X188922550Y-110945375D01*
X188733217Y-110848904D01*
X188531129Y-110783242D01*
X188321246Y-110750000D01*
X188108754Y-110750000D01*
X187898872Y-110783242D01*
X187898869Y-110783242D01*
X187696782Y-110848904D01*
X187507439Y-110945380D01*
X187453282Y-110984727D01*
X187453282Y-110984728D01*
X188085591Y-111617037D01*
X188022007Y-111634075D01*
X187907993Y-111699901D01*
X187814901Y-111792993D01*
X187749075Y-111907007D01*
X187732037Y-111970590D01*
X187061818Y-111300371D01*
X187028333Y-111239048D01*
X187028330Y-111239035D01*
X187025499Y-111226014D01*
X187025499Y-111202128D01*
X187019091Y-111142517D01*
X186982821Y-111045271D01*
X186968798Y-111007673D01*
X186968793Y-111007664D01*
X186882547Y-110892455D01*
X186882544Y-110892452D01*
X186767335Y-110806206D01*
X186767328Y-110806202D01*
X186632482Y-110755908D01*
X186632483Y-110755908D01*
X186572883Y-110749501D01*
X186572881Y-110749500D01*
X186572873Y-110749500D01*
X186572864Y-110749500D01*
X184777129Y-110749500D01*
X184777123Y-110749501D01*
X184717516Y-110755908D01*
X184582671Y-110806202D01*
X184582664Y-110806206D01*
X184467455Y-110892452D01*
X184467452Y-110892455D01*
X184381206Y-111007664D01*
X184381202Y-111007671D01*
X184330908Y-111142517D01*
X184324501Y-111202116D01*
X184324500Y-111202135D01*
X164800500Y-111202135D01*
X164800500Y-111121158D01*
X164800500Y-111121155D01*
X164800499Y-111121153D01*
X164793232Y-111084622D01*
X164769737Y-110966503D01*
X164739065Y-110892454D01*
X164709397Y-110820827D01*
X164709390Y-110820814D01*
X164621789Y-110689711D01*
X164621786Y-110689707D01*
X164510292Y-110578213D01*
X164510288Y-110578210D01*
X164379185Y-110490609D01*
X164379172Y-110490602D01*
X164233501Y-110430264D01*
X164233489Y-110430261D01*
X164078845Y-110399500D01*
X164078842Y-110399500D01*
X163921158Y-110399500D01*
X163921155Y-110399500D01*
X163766510Y-110430261D01*
X163766498Y-110430264D01*
X163620827Y-110490602D01*
X163620814Y-110490609D01*
X163489711Y-110578210D01*
X163489707Y-110578213D01*
X163378213Y-110689707D01*
X163378210Y-110689711D01*
X163290609Y-110820814D01*
X163290602Y-110820827D01*
X163230264Y-110966498D01*
X163230261Y-110966510D01*
X163199500Y-111121153D01*
X152175859Y-111121153D01*
X152247554Y-111084622D01*
X152301716Y-111045271D01*
X152301717Y-111045270D01*
X151669408Y-110412962D01*
X151732993Y-110395925D01*
X151847007Y-110330099D01*
X151940099Y-110237007D01*
X152005925Y-110122993D01*
X152022962Y-110059408D01*
X152655270Y-110691717D01*
X152655270Y-110691716D01*
X152694622Y-110637554D01*
X152791095Y-110448217D01*
X152856757Y-110246130D01*
X152856757Y-110246127D01*
X152890000Y-110036246D01*
X152890000Y-109823753D01*
X152856757Y-109613872D01*
X152856757Y-109613869D01*
X152791095Y-109411782D01*
X152694624Y-109222449D01*
X152655270Y-109168282D01*
X152655269Y-109168282D01*
X152022962Y-109800590D01*
X152005925Y-109737007D01*
X151940099Y-109622993D01*
X151847007Y-109529901D01*
X151732993Y-109464075D01*
X151669409Y-109447037D01*
X152339627Y-108776818D01*
X152400950Y-108743333D01*
X152427307Y-108740499D01*
X152437872Y-108740499D01*
X152497483Y-108734091D01*
X152632331Y-108683796D01*
X152747546Y-108597546D01*
X152833796Y-108482331D01*
X152884091Y-108347483D01*
X152890500Y-108287873D01*
X152890499Y-106492128D01*
X152884091Y-106432517D01*
X152870508Y-106396100D01*
X152833797Y-106297671D01*
X152833793Y-106297664D01*
X152747547Y-106182455D01*
X152747544Y-106182452D01*
X152632335Y-106096206D01*
X152632328Y-106096202D01*
X152497482Y-106045908D01*
X152497483Y-106045908D01*
X152437883Y-106039501D01*
X152437881Y-106039500D01*
X152437873Y-106039500D01*
X152437864Y-106039500D01*
X150642129Y-106039500D01*
X150642123Y-106039501D01*
X150582516Y-106045908D01*
X150447671Y-106096202D01*
X150447664Y-106096206D01*
X150332455Y-106182452D01*
X150332452Y-106182455D01*
X150246206Y-106297664D01*
X150246202Y-106297671D01*
X150195908Y-106432517D01*
X150189501Y-106492116D01*
X150189501Y-106492123D01*
X150189500Y-106492135D01*
X148216772Y-106492135D01*
X148186339Y-106331291D01*
X148185562Y-106326719D01*
X148163818Y-106182455D01*
X148087891Y-105678711D01*
X199239500Y-105678711D01*
X199239500Y-105921288D01*
X199262527Y-106096204D01*
X199271162Y-106161789D01*
X199302104Y-106277264D01*
X199333947Y-106396104D01*
X199426773Y-106620205D01*
X199426776Y-106620212D01*
X199548064Y-106830289D01*
X199548066Y-106830292D01*
X199548067Y-106830293D01*
X199695733Y-107022736D01*
X199695739Y-107022743D01*
X199867256Y-107194260D01*
X199867262Y-107194265D01*
X200059711Y-107341936D01*
X200269788Y-107463224D01*
X200493900Y-107556054D01*
X200728211Y-107618838D01*
X200908586Y-107642584D01*
X200968711Y-107650500D01*
X200968712Y-107650500D01*
X201211289Y-107650500D01*
X201259388Y-107644167D01*
X201451789Y-107618838D01*
X201686100Y-107556054D01*
X201910212Y-107463224D01*
X202120289Y-107341936D01*
X202312738Y-107194265D01*
X202484265Y-107022738D01*
X202631936Y-106830289D01*
X202753224Y-106620212D01*
X202846054Y-106396100D01*
X202908838Y-106161789D01*
X202940500Y-105921288D01*
X202940500Y-105678712D01*
X202908838Y-105438211D01*
X202846054Y-105203900D01*
X202753224Y-104979788D01*
X202631936Y-104769711D01*
X202484265Y-104577262D01*
X202484260Y-104577256D01*
X202312743Y-104405739D01*
X202312736Y-104405733D01*
X202120293Y-104258067D01*
X202120292Y-104258066D01*
X202120289Y-104258064D01*
X201910212Y-104136776D01*
X201910205Y-104136773D01*
X201686104Y-104043947D01*
X201451785Y-103981161D01*
X201211289Y-103949500D01*
X201211288Y-103949500D01*
X200968712Y-103949500D01*
X200968711Y-103949500D01*
X200728214Y-103981161D01*
X200493895Y-104043947D01*
X200269794Y-104136773D01*
X200269785Y-104136777D01*
X200059706Y-104258067D01*
X199867263Y-104405733D01*
X199867256Y-104405739D01*
X199695739Y-104577256D01*
X199695733Y-104577263D01*
X199548067Y-104769706D01*
X199426777Y-104979785D01*
X199426773Y-104979794D01*
X199333947Y-105203895D01*
X199271161Y-105438214D01*
X199239500Y-105678711D01*
X148087891Y-105678711D01*
X148029219Y-105289451D01*
X148028624Y-105284930D01*
X147911172Y-104242519D01*
X147910746Y-104237979D01*
X147832355Y-103191925D01*
X147832096Y-103187304D01*
X147792876Y-102139112D01*
X147792789Y-102134476D01*
X147792789Y-101221153D01*
X196699500Y-101221153D01*
X196699500Y-101378846D01*
X196730261Y-101533489D01*
X196730264Y-101533501D01*
X196790602Y-101679172D01*
X196790609Y-101679185D01*
X196878210Y-101810288D01*
X196878213Y-101810292D01*
X196989707Y-101921786D01*
X196989711Y-101921789D01*
X197120814Y-102009390D01*
X197120827Y-102009397D01*
X197266498Y-102069735D01*
X197266503Y-102069737D01*
X197421153Y-102100499D01*
X197421156Y-102100500D01*
X197421158Y-102100500D01*
X197578844Y-102100500D01*
X197578845Y-102100499D01*
X197733497Y-102069737D01*
X197879179Y-102009394D01*
X198010289Y-101921789D01*
X198121789Y-101810289D01*
X198181348Y-101721153D01*
X200399500Y-101721153D01*
X200399500Y-101878846D01*
X200430261Y-102033489D01*
X200430264Y-102033501D01*
X200490602Y-102179172D01*
X200490609Y-102179185D01*
X200578210Y-102310288D01*
X200578213Y-102310292D01*
X200689707Y-102421786D01*
X200689711Y-102421789D01*
X200820814Y-102509390D01*
X200820827Y-102509397D01*
X200966498Y-102569735D01*
X200966503Y-102569737D01*
X201121153Y-102600499D01*
X201121156Y-102600500D01*
X201121158Y-102600500D01*
X201278844Y-102600500D01*
X201278845Y-102600499D01*
X201433497Y-102569737D01*
X201579179Y-102509394D01*
X201710289Y-102421789D01*
X201821789Y-102310289D01*
X201909394Y-102179179D01*
X201969737Y-102033497D01*
X202000500Y-101878842D01*
X202000500Y-101721158D01*
X202000500Y-101721155D01*
X202000499Y-101721153D01*
X201969738Y-101566510D01*
X201969737Y-101566503D01*
X201956062Y-101533489D01*
X201909397Y-101420827D01*
X201909390Y-101420814D01*
X201821789Y-101289711D01*
X201821786Y-101289707D01*
X201710292Y-101178213D01*
X201710288Y-101178210D01*
X201579185Y-101090609D01*
X201579172Y-101090602D01*
X201433501Y-101030264D01*
X201433489Y-101030261D01*
X201278845Y-100999500D01*
X201278842Y-100999500D01*
X201121158Y-100999500D01*
X201121155Y-100999500D01*
X200966510Y-101030261D01*
X200966498Y-101030264D01*
X200820827Y-101090602D01*
X200820814Y-101090609D01*
X200689711Y-101178210D01*
X200689707Y-101178213D01*
X200578213Y-101289707D01*
X200578210Y-101289711D01*
X200490609Y-101420814D01*
X200490602Y-101420827D01*
X200430264Y-101566498D01*
X200430261Y-101566510D01*
X200399500Y-101721153D01*
X198181348Y-101721153D01*
X198209394Y-101679179D01*
X198269737Y-101533497D01*
X198300500Y-101378842D01*
X198300500Y-101221158D01*
X198300500Y-101221155D01*
X198300499Y-101221153D01*
X198291957Y-101178210D01*
X198269737Y-101066503D01*
X198269735Y-101066498D01*
X198209397Y-100920827D01*
X198209390Y-100920814D01*
X198121789Y-100789711D01*
X198121786Y-100789707D01*
X198010292Y-100678213D01*
X198010288Y-100678210D01*
X197879185Y-100590609D01*
X197879172Y-100590602D01*
X197733501Y-100530264D01*
X197733489Y-100530261D01*
X197578845Y-100499500D01*
X197578842Y-100499500D01*
X197421158Y-100499500D01*
X197421155Y-100499500D01*
X197266510Y-100530261D01*
X197266498Y-100530264D01*
X197120827Y-100590602D01*
X197120814Y-100590609D01*
X196989711Y-100678210D01*
X196989707Y-100678213D01*
X196878213Y-100789707D01*
X196878210Y-100789711D01*
X196790609Y-100920814D01*
X196790602Y-100920827D01*
X196730264Y-101066498D01*
X196730261Y-101066510D01*
X196699500Y-101221153D01*
X147792789Y-101221153D01*
X147792789Y-101085523D01*
X147792876Y-101080887D01*
X147802939Y-100811936D01*
X147832096Y-100032682D01*
X147832356Y-100028064D01*
X147841249Y-99909394D01*
X147898254Y-99148711D01*
X169599500Y-99148711D01*
X169599500Y-99391288D01*
X169631161Y-99631785D01*
X169693947Y-99866104D01*
X169769407Y-100048280D01*
X169786776Y-100090212D01*
X169908064Y-100300289D01*
X169908066Y-100300292D01*
X169908067Y-100300293D01*
X170055733Y-100492736D01*
X170055739Y-100492743D01*
X170227256Y-100664260D01*
X170227263Y-100664266D01*
X170245437Y-100678211D01*
X170419711Y-100811936D01*
X170629788Y-100933224D01*
X170853900Y-101026054D01*
X171088211Y-101088838D01*
X171268586Y-101112584D01*
X171328711Y-101120500D01*
X171328712Y-101120500D01*
X171571289Y-101120500D01*
X171672709Y-101107147D01*
X171811789Y-101088838D01*
X172046100Y-101026054D01*
X172270212Y-100933224D01*
X172480289Y-100811936D01*
X172672738Y-100664265D01*
X172844265Y-100492738D01*
X172991936Y-100300289D01*
X173113224Y-100090212D01*
X173206054Y-99866100D01*
X173268838Y-99631789D01*
X173300500Y-99391288D01*
X173300500Y-99148712D01*
X173296872Y-99121153D01*
X196599500Y-99121153D01*
X196599500Y-99278846D01*
X196630261Y-99433489D01*
X196630264Y-99433501D01*
X196690602Y-99579172D01*
X196690609Y-99579185D01*
X196778210Y-99710288D01*
X196778213Y-99710292D01*
X196889707Y-99821786D01*
X196889711Y-99821789D01*
X197020814Y-99909390D01*
X197020827Y-99909397D01*
X197166498Y-99969735D01*
X197166503Y-99969737D01*
X197321153Y-100000499D01*
X197321156Y-100000500D01*
X197321158Y-100000500D01*
X197478844Y-100000500D01*
X197478845Y-100000499D01*
X197633497Y-99969737D01*
X197779179Y-99909394D01*
X197910289Y-99821789D01*
X198021789Y-99710289D01*
X198109394Y-99579179D01*
X198169737Y-99433497D01*
X198200500Y-99278842D01*
X198200500Y-99121158D01*
X198200500Y-99121155D01*
X198200499Y-99121153D01*
X198178259Y-99009345D01*
X198169737Y-98966503D01*
X198145592Y-98908211D01*
X198109397Y-98820827D01*
X198109390Y-98820814D01*
X198021789Y-98689711D01*
X198021786Y-98689707D01*
X197910292Y-98578213D01*
X197910288Y-98578210D01*
X197779185Y-98490609D01*
X197779172Y-98490602D01*
X197633501Y-98430264D01*
X197633489Y-98430261D01*
X197478845Y-98399500D01*
X197478842Y-98399500D01*
X197321158Y-98399500D01*
X197321155Y-98399500D01*
X197166510Y-98430261D01*
X197166498Y-98430264D01*
X197020827Y-98490602D01*
X197020814Y-98490609D01*
X196889711Y-98578210D01*
X196889707Y-98578213D01*
X196778213Y-98689707D01*
X196778210Y-98689711D01*
X196690609Y-98820814D01*
X196690602Y-98820827D01*
X196630264Y-98966498D01*
X196630261Y-98966510D01*
X196599500Y-99121153D01*
X173296872Y-99121153D01*
X173268838Y-98908211D01*
X173206054Y-98673900D01*
X173113224Y-98449788D01*
X172991936Y-98239711D01*
X172844265Y-98047262D01*
X172844260Y-98047256D01*
X172672743Y-97875739D01*
X172672736Y-97875733D01*
X172480293Y-97728067D01*
X172480292Y-97728066D01*
X172480289Y-97728064D01*
X172270212Y-97606776D01*
X172270205Y-97606773D01*
X172046104Y-97513947D01*
X171811785Y-97451161D01*
X171571289Y-97419500D01*
X171571288Y-97419500D01*
X171328712Y-97419500D01*
X171328711Y-97419500D01*
X171088214Y-97451161D01*
X170853895Y-97513947D01*
X170629794Y-97606773D01*
X170629785Y-97606777D01*
X170419706Y-97728067D01*
X170227263Y-97875733D01*
X170227256Y-97875739D01*
X170055739Y-98047256D01*
X170055733Y-98047263D01*
X169908067Y-98239706D01*
X169786777Y-98449785D01*
X169786773Y-98449794D01*
X169693947Y-98673895D01*
X169631161Y-98908214D01*
X169599500Y-99148711D01*
X147898254Y-99148711D01*
X147910746Y-98982020D01*
X147911171Y-98977485D01*
X148028624Y-97935062D01*
X148029218Y-97930555D01*
X148185563Y-96893272D01*
X148186339Y-96888708D01*
X148381352Y-95858036D01*
X148382284Y-95853565D01*
X148615710Y-94830864D01*
X148616811Y-94826421D01*
X148888316Y-93813151D01*
X148889581Y-93808763D01*
X149198776Y-92806376D01*
X149200201Y-92802044D01*
X149546686Y-91811843D01*
X149548260Y-91807604D01*
X149931498Y-90831131D01*
X149933241Y-90826921D01*
X150352747Y-89865404D01*
X150354648Y-89861261D01*
X150809799Y-88916130D01*
X150811855Y-88912057D01*
X151302017Y-87984626D01*
X151304221Y-87980637D01*
X151828724Y-87072172D01*
X151831086Y-87068251D01*
X152389198Y-86180022D01*
X152391679Y-86176231D01*
X152982620Y-85309480D01*
X152985277Y-85305736D01*
X153608204Y-84461701D01*
X153610944Y-84458129D01*
X154265022Y-83637942D01*
X154267892Y-83634476D01*
X154952229Y-82839262D01*
X154955208Y-82835931D01*
X155668723Y-82066944D01*
X155671886Y-82063660D01*
X156231835Y-81503711D01*
X162124500Y-81503711D01*
X162124500Y-81746288D01*
X162156161Y-81986785D01*
X162218947Y-82221104D01*
X162229379Y-82246288D01*
X162311776Y-82445212D01*
X162433064Y-82655289D01*
X162433066Y-82655292D01*
X162433067Y-82655293D01*
X162580733Y-82847736D01*
X162580739Y-82847743D01*
X162752256Y-83019260D01*
X162752262Y-83019265D01*
X162944711Y-83166936D01*
X163154788Y-83288224D01*
X163378900Y-83381054D01*
X163613211Y-83443838D01*
X163793586Y-83467584D01*
X163853711Y-83475500D01*
X163853712Y-83475500D01*
X164096289Y-83475500D01*
X164144388Y-83469167D01*
X164336789Y-83443838D01*
X164571100Y-83381054D01*
X164795212Y-83288224D01*
X165005289Y-83166936D01*
X165197738Y-83019265D01*
X165369265Y-82847738D01*
X165516936Y-82655289D01*
X165638224Y-82445212D01*
X165731054Y-82221100D01*
X165789304Y-82003711D01*
X180724500Y-82003711D01*
X180724500Y-82246288D01*
X180756161Y-82486785D01*
X180818947Y-82721104D01*
X180911773Y-82945205D01*
X180911776Y-82945212D01*
X181033064Y-83155289D01*
X181033066Y-83155292D01*
X181033067Y-83155293D01*
X181180733Y-83347736D01*
X181180739Y-83347743D01*
X181352256Y-83519260D01*
X181352262Y-83519265D01*
X181544711Y-83666936D01*
X181754788Y-83788224D01*
X181978900Y-83881054D01*
X182213211Y-83943838D01*
X182393586Y-83967584D01*
X182453711Y-83975500D01*
X182453712Y-83975500D01*
X182696289Y-83975500D01*
X182744388Y-83969167D01*
X182936789Y-83943838D01*
X183171100Y-83881054D01*
X183395212Y-83788224D01*
X183605289Y-83666936D01*
X183797738Y-83519265D01*
X183969265Y-83347738D01*
X184116936Y-83155289D01*
X184238224Y-82945212D01*
X184331054Y-82721100D01*
X184393838Y-82486789D01*
X184425500Y-82246288D01*
X184425500Y-82003712D01*
X184393838Y-81763211D01*
X184331054Y-81528900D01*
X184238224Y-81304788D01*
X184116936Y-81094711D01*
X183969265Y-80902262D01*
X183969260Y-80902256D01*
X183797743Y-80730739D01*
X183797736Y-80730733D01*
X183605293Y-80583067D01*
X183605292Y-80583066D01*
X183605289Y-80583064D01*
X183395212Y-80461776D01*
X183395205Y-80461773D01*
X183171104Y-80368947D01*
X182936785Y-80306161D01*
X182696289Y-80274500D01*
X182696288Y-80274500D01*
X182453712Y-80274500D01*
X182453711Y-80274500D01*
X182213214Y-80306161D01*
X181978895Y-80368947D01*
X181754794Y-80461773D01*
X181754785Y-80461777D01*
X181544706Y-80583067D01*
X181352263Y-80730733D01*
X181352256Y-80730739D01*
X181180739Y-80902256D01*
X181180733Y-80902263D01*
X181033067Y-81094706D01*
X180911777Y-81304785D01*
X180911773Y-81304794D01*
X180818947Y-81528895D01*
X180756161Y-81763214D01*
X180724500Y-82003711D01*
X165789304Y-82003711D01*
X165793838Y-81986789D01*
X165825500Y-81746288D01*
X165825500Y-81503712D01*
X165793838Y-81263211D01*
X165731054Y-81028900D01*
X165638224Y-80804788D01*
X165516936Y-80594711D01*
X165369265Y-80402262D01*
X165369260Y-80402256D01*
X165197743Y-80230739D01*
X165197736Y-80230733D01*
X165005293Y-80083067D01*
X165005292Y-80083066D01*
X165005289Y-80083064D01*
X164795212Y-79961776D01*
X164795205Y-79961773D01*
X164571104Y-79868947D01*
X164336785Y-79806161D01*
X164096289Y-79774500D01*
X164096288Y-79774500D01*
X163853712Y-79774500D01*
X163853711Y-79774500D01*
X163613214Y-79806161D01*
X163378895Y-79868947D01*
X163154794Y-79961773D01*
X163154785Y-79961777D01*
X162944706Y-80083067D01*
X162752263Y-80230733D01*
X162752256Y-80230739D01*
X162580739Y-80402256D01*
X162580733Y-80402263D01*
X162433067Y-80594706D01*
X162311777Y-80804785D01*
X162311773Y-80804794D01*
X162218947Y-81028895D01*
X162156161Y-81263214D01*
X162124500Y-81503711D01*
X156231835Y-81503711D01*
X156413660Y-81321886D01*
X156416944Y-81318723D01*
X157185931Y-80605208D01*
X157189262Y-80602229D01*
X157984476Y-79917892D01*
X157987942Y-79915022D01*
X158808129Y-79260944D01*
X158811701Y-79258204D01*
X159655736Y-78635277D01*
X159659480Y-78632620D01*
X160526231Y-78041679D01*
X160530022Y-78039198D01*
X161418251Y-77481086D01*
X161422172Y-77478724D01*
X162330637Y-76954221D01*
X162334626Y-76952017D01*
X163262057Y-76461855D01*
X163266130Y-76459799D01*
X164211261Y-76004648D01*
X164215404Y-76002747D01*
X165176921Y-75583241D01*
X165181131Y-75581498D01*
X166157604Y-75198260D01*
X166161843Y-75196686D01*
X167152044Y-74850201D01*
X167156376Y-74848776D01*
X168158763Y-74539581D01*
X168163151Y-74538316D01*
X169176421Y-74266811D01*
X169180864Y-74265710D01*
X170203565Y-74032284D01*
X170208036Y-74031352D01*
X171238716Y-73836337D01*
X171243272Y-73835563D01*
X172280555Y-73679218D01*
X172285062Y-73678624D01*
X173327485Y-73561171D01*
X173332015Y-73560747D01*
X174378077Y-73482355D01*
X174382682Y-73482096D01*
X175430888Y-73442876D01*
X175435524Y-73442789D01*
X176484476Y-73442789D01*
X176489112Y-73442876D01*
G37*
%TD.AperFunction*%
%TD*%
M02*
