%TF.GenerationSoftware,KiCad,Pcbnew,9.0.7-9.0.7~ubuntu22.04.1*%
%TF.CreationDate,2026-01-21T12:36:38+05:30*%
%TF.ProjectId,HV_POWER_SUPPLY_NEWSHAPE,48565f50-4f57-4455-925f-535550504c59,V1.0*%
%TF.SameCoordinates,Original*%
%TF.FileFunction,Legend,Bot*%
%TF.FilePolarity,Positive*%
%FSLAX46Y46*%
G04 Gerber Fmt 4.6, Leading zero omitted, Abs format (unit mm)*
G04 Created by KiCad (PCBNEW 9.0.7-9.0.7~ubuntu22.04.1) date 2026-01-21 12:36:38*
%MOMM*%
%LPD*%
G01*
G04 APERTURE LIST*
%ADD10C,0.000000*%
%ADD11C,0.120000*%
%ADD12R,1.700000X1.700000*%
%ADD13C,1.700000*%
%ADD14C,3.200000*%
%ADD15C,1.524003*%
G04 APERTURE END LIST*
D10*
G36*
X181716244Y-86107510D02*
G01*
X181803738Y-86110421D01*
X181870932Y-86112772D01*
X181943520Y-86115594D01*
X182120394Y-86121653D01*
X182995371Y-86614704D01*
X183870348Y-87106749D01*
X183882387Y-87229000D01*
X183887106Y-87276267D01*
X183890374Y-87315386D01*
X183891383Y-87330647D01*
X183891931Y-87342381D01*
X183891986Y-87350089D01*
X183891819Y-87352278D01*
X183891516Y-87353274D01*
X183805337Y-87306340D01*
X183573271Y-87177095D01*
X182812412Y-86750091D01*
X181701029Y-86125701D01*
X181665709Y-86106505D01*
X181716244Y-86107510D01*
G37*
G36*
X163226014Y-87287211D02*
G01*
X163281775Y-87289205D01*
X163322675Y-87292632D01*
X163362989Y-87298535D01*
X163407069Y-87306155D01*
X163453281Y-87315126D01*
X163499991Y-87325080D01*
X163545563Y-87335651D01*
X163588365Y-87346471D01*
X163626762Y-87357173D01*
X163659120Y-87367390D01*
X163754954Y-87404795D01*
X163801007Y-87425407D01*
X163845817Y-87447294D01*
X163889385Y-87470457D01*
X163931710Y-87494894D01*
X163972793Y-87520608D01*
X164012635Y-87547599D01*
X164051234Y-87575867D01*
X164088592Y-87605412D01*
X164124708Y-87636236D01*
X164159584Y-87668339D01*
X164193218Y-87701721D01*
X164225611Y-87736383D01*
X164256764Y-87772326D01*
X164286676Y-87809550D01*
X164315348Y-87848056D01*
X164342780Y-87887844D01*
X164368972Y-87928914D01*
X164393925Y-87971268D01*
X164417638Y-88014906D01*
X164440111Y-88059828D01*
X164481341Y-88153528D01*
X164517615Y-88252372D01*
X164548936Y-88356366D01*
X164575305Y-88465512D01*
X164596723Y-88579816D01*
X164600985Y-88609638D01*
X164604680Y-88644160D01*
X164610363Y-88724986D01*
X164613773Y-88817653D01*
X164614910Y-88917519D01*
X164613773Y-89019943D01*
X164610363Y-89120284D01*
X164604680Y-89213900D01*
X164596723Y-89296150D01*
X164575064Y-89448018D01*
X164547149Y-89590747D01*
X164512878Y-89724458D01*
X164472153Y-89849268D01*
X164424875Y-89965300D01*
X164370943Y-90072672D01*
X164341452Y-90123148D01*
X164310260Y-90171504D01*
X164277355Y-90217755D01*
X164242726Y-90261917D01*
X164206358Y-90304003D01*
X164168241Y-90344030D01*
X164128362Y-90382011D01*
X164086708Y-90417963D01*
X164043266Y-90451899D01*
X163998026Y-90483836D01*
X163950973Y-90513787D01*
X163902096Y-90541769D01*
X163851383Y-90567795D01*
X163798820Y-90591881D01*
X163688098Y-90634294D01*
X163569832Y-90669126D01*
X163443921Y-90696497D01*
X163412010Y-90701446D01*
X163375428Y-90705687D01*
X163290773Y-90712061D01*
X163195013Y-90715641D01*
X163093202Y-90716451D01*
X162990397Y-90714515D01*
X162891653Y-90709856D01*
X162802025Y-90702497D01*
X162762210Y-90697812D01*
X162726569Y-90692462D01*
X162606103Y-90668888D01*
X162487259Y-90640661D01*
X162373554Y-90609001D01*
X162268503Y-90575127D01*
X162175623Y-90540259D01*
X162134847Y-90522834D01*
X162098432Y-90505617D01*
X162066819Y-90488762D01*
X162040447Y-90472420D01*
X162019754Y-90456745D01*
X162005182Y-90441888D01*
X162001947Y-90437595D01*
X161999050Y-90433365D01*
X161997724Y-90431241D01*
X161996476Y-90429094D01*
X161995305Y-90426910D01*
X161994209Y-90424677D01*
X161993185Y-90422382D01*
X161992232Y-90420012D01*
X161991347Y-90417554D01*
X161990528Y-90414995D01*
X161989774Y-90412322D01*
X161989082Y-90409522D01*
X161988451Y-90406583D01*
X161987877Y-90403490D01*
X161987360Y-90400232D01*
X161986898Y-90396795D01*
X161986127Y-90389334D01*
X161985548Y-90381002D01*
X161985145Y-90371697D01*
X161984902Y-90361314D01*
X161984803Y-90349751D01*
X161984831Y-90336903D01*
X161984969Y-90322667D01*
X161985415Y-90291186D01*
X161986164Y-90263721D01*
X161987472Y-90240142D01*
X161989595Y-90220321D01*
X161991043Y-90211779D01*
X161992790Y-90204129D01*
X161994870Y-90197353D01*
X161997313Y-90191437D01*
X162000152Y-90186363D01*
X162003419Y-90182116D01*
X162007146Y-90178680D01*
X162011364Y-90176038D01*
X162016107Y-90174175D01*
X162021406Y-90173074D01*
X162027292Y-90172719D01*
X162033799Y-90173095D01*
X162040957Y-90174185D01*
X162048800Y-90175973D01*
X162057358Y-90178442D01*
X162066664Y-90181578D01*
X162087649Y-90189782D01*
X162112010Y-90200456D01*
X162171884Y-90228700D01*
X162253574Y-90266477D01*
X162332818Y-90301027D01*
X162409798Y-90332388D01*
X162484695Y-90360601D01*
X162557692Y-90385706D01*
X162628971Y-90407743D01*
X162698714Y-90426752D01*
X162767103Y-90442773D01*
X162834320Y-90455845D01*
X162900547Y-90466009D01*
X162965966Y-90473305D01*
X163030759Y-90477773D01*
X163095109Y-90479453D01*
X163159196Y-90478384D01*
X163223204Y-90474607D01*
X163287314Y-90468161D01*
X163342321Y-90460345D01*
X163395945Y-90450545D01*
X163448178Y-90438769D01*
X163499011Y-90425029D01*
X163548433Y-90409335D01*
X163596437Y-90391696D01*
X163643014Y-90372123D01*
X163688153Y-90350627D01*
X163731846Y-90327217D01*
X163774085Y-90301904D01*
X163814859Y-90274697D01*
X163854160Y-90245607D01*
X163891979Y-90214644D01*
X163928307Y-90181818D01*
X163963134Y-90147140D01*
X163996452Y-90110620D01*
X164028251Y-90072267D01*
X164058523Y-90032092D01*
X164087259Y-89990106D01*
X164114448Y-89946317D01*
X164140083Y-89900737D01*
X164164154Y-89853376D01*
X164186653Y-89804244D01*
X164207569Y-89753351D01*
X164226894Y-89700707D01*
X164244619Y-89646322D01*
X164260735Y-89590207D01*
X164275233Y-89532372D01*
X164288104Y-89472826D01*
X164299338Y-89411581D01*
X164316861Y-89284031D01*
X164319078Y-89262274D01*
X164321154Y-89238434D01*
X164324689Y-89187536D01*
X164326055Y-89161994D01*
X164327089Y-89137401D01*
X164327744Y-89114512D01*
X164327973Y-89094087D01*
X164327973Y-89003150D01*
X163951114Y-89003150D01*
X163677214Y-89001730D01*
X163373951Y-88996332D01*
X162971043Y-88985252D01*
X162398208Y-88966783D01*
X161908186Y-88950617D01*
X161878884Y-88924344D01*
X161850600Y-88897066D01*
X161856659Y-88745512D01*
X161860878Y-88679362D01*
X162139971Y-88679362D01*
X162140147Y-88684505D01*
X162140627Y-88688716D01*
X162140991Y-88690501D01*
X162141443Y-88692088D01*
X162141987Y-88693488D01*
X162142627Y-88694714D01*
X162143366Y-88695777D01*
X162144208Y-88696687D01*
X162145158Y-88697459D01*
X162146219Y-88698101D01*
X162147395Y-88698628D01*
X162148690Y-88699049D01*
X162151653Y-88699624D01*
X162155138Y-88699919D01*
X162163800Y-88700044D01*
X162194824Y-88701276D01*
X162258902Y-88704593D01*
X162448716Y-88715204D01*
X162759433Y-88730105D01*
X163112016Y-88741219D01*
X163489604Y-88748166D01*
X163875338Y-88750566D01*
X164327973Y-88750566D01*
X164327973Y-88714185D01*
X164327358Y-88690712D01*
X164325558Y-88664821D01*
X164322645Y-88636819D01*
X164318690Y-88607013D01*
X164307939Y-88543214D01*
X164293873Y-88475873D01*
X164277061Y-88407444D01*
X164258070Y-88340376D01*
X164237470Y-88277120D01*
X164226744Y-88247689D01*
X164215829Y-88220129D01*
X164201124Y-88186426D01*
X164185255Y-88153340D01*
X164168245Y-88120889D01*
X164150121Y-88089091D01*
X164130907Y-88057965D01*
X164110627Y-88027530D01*
X164089308Y-87997803D01*
X164066974Y-87968804D01*
X164019360Y-87913062D01*
X163967985Y-87860452D01*
X163913049Y-87811122D01*
X163854752Y-87765219D01*
X163793294Y-87722893D01*
X163728875Y-87684290D01*
X163661693Y-87649558D01*
X163591950Y-87618847D01*
X163519844Y-87592303D01*
X163445575Y-87570075D01*
X163369344Y-87552311D01*
X163291349Y-87539158D01*
X163270868Y-87536762D01*
X163247602Y-87534874D01*
X163194453Y-87532569D01*
X163135384Y-87532135D01*
X163073875Y-87533466D01*
X163013408Y-87536455D01*
X162957464Y-87540996D01*
X162909524Y-87546981D01*
X162889643Y-87550483D01*
X162873069Y-87554305D01*
X162847778Y-87561284D01*
X162822348Y-87569310D01*
X162796853Y-87578339D01*
X162771368Y-87588328D01*
X162745965Y-87599235D01*
X162720719Y-87611017D01*
X162695705Y-87623630D01*
X162670995Y-87637032D01*
X162646664Y-87651180D01*
X162622787Y-87666031D01*
X162599436Y-87681541D01*
X162576687Y-87697669D01*
X162554613Y-87714371D01*
X162533288Y-87731604D01*
X162512785Y-87749326D01*
X162493180Y-87767493D01*
X162457739Y-87803769D01*
X162423826Y-87843160D01*
X162391499Y-87885514D01*
X162360819Y-87930679D01*
X162331843Y-87978502D01*
X162304632Y-88028831D01*
X162279245Y-88081514D01*
X162255740Y-88136397D01*
X162234177Y-88193328D01*
X162214615Y-88252156D01*
X162197114Y-88312727D01*
X162181732Y-88374889D01*
X162168528Y-88438489D01*
X162157562Y-88503376D01*
X162148894Y-88569396D01*
X162142581Y-88636398D01*
X162140964Y-88657406D01*
X162140411Y-88665906D01*
X162140070Y-88673193D01*
X162139971Y-88679362D01*
X161860878Y-88679362D01*
X161866438Y-88592189D01*
X161883599Y-88446764D01*
X161908066Y-88309346D01*
X161939760Y-88180044D01*
X161978606Y-88058964D01*
X162024527Y-87946216D01*
X162077444Y-87841906D01*
X162137283Y-87746144D01*
X162203965Y-87659038D01*
X162239848Y-87618764D01*
X162277414Y-87580694D01*
X162316651Y-87544843D01*
X162357552Y-87511222D01*
X162400106Y-87479847D01*
X162444303Y-87450730D01*
X162490135Y-87423884D01*
X162537591Y-87399325D01*
X162586661Y-87377064D01*
X162637337Y-87357115D01*
X162689608Y-87339492D01*
X162743465Y-87324209D01*
X162855898Y-87300715D01*
X162897128Y-87295847D01*
X162953124Y-87291916D01*
X163018948Y-87289004D01*
X163089663Y-87287193D01*
X163160331Y-87286568D01*
X163226014Y-87287211D01*
G37*
G36*
X166517483Y-87297572D02*
G01*
X166577017Y-87301856D01*
X166635841Y-87308746D01*
X166693852Y-87318231D01*
X166750945Y-87330303D01*
X166807018Y-87344954D01*
X166861967Y-87362173D01*
X166915689Y-87381953D01*
X166968080Y-87404284D01*
X167019036Y-87429157D01*
X167056254Y-87449529D01*
X167093173Y-87471555D01*
X167129687Y-87495138D01*
X167165690Y-87520180D01*
X167201076Y-87546584D01*
X167235740Y-87574253D01*
X167269573Y-87603087D01*
X167302471Y-87632990D01*
X167334328Y-87663865D01*
X167365036Y-87695612D01*
X167394490Y-87728135D01*
X167422584Y-87761336D01*
X167449211Y-87795117D01*
X167474265Y-87829381D01*
X167497641Y-87864029D01*
X167519231Y-87898964D01*
X167523046Y-87905507D01*
X167526930Y-87911853D01*
X167530853Y-87917970D01*
X167534786Y-87923829D01*
X167538697Y-87929398D01*
X167542558Y-87934646D01*
X167546337Y-87939542D01*
X167550006Y-87944055D01*
X167553533Y-87948153D01*
X167556889Y-87951805D01*
X167560045Y-87954981D01*
X167562968Y-87957649D01*
X167565631Y-87959779D01*
X167568003Y-87961338D01*
X167570053Y-87962297D01*
X167570948Y-87962541D01*
X167571752Y-87962623D01*
X167572639Y-87962547D01*
X167573589Y-87962319D01*
X167574598Y-87961943D01*
X167575664Y-87961421D01*
X167576786Y-87960757D01*
X167577959Y-87959952D01*
X167579184Y-87959010D01*
X167580456Y-87957934D01*
X167581773Y-87956726D01*
X167583134Y-87955389D01*
X167585976Y-87952339D01*
X167588962Y-87948806D01*
X167592074Y-87944814D01*
X167595294Y-87940383D01*
X167598601Y-87935536D01*
X167601978Y-87930295D01*
X167605405Y-87924683D01*
X167608864Y-87918722D01*
X167612336Y-87912434D01*
X167615802Y-87905840D01*
X167619244Y-87898964D01*
X167645213Y-87850375D01*
X167674869Y-87802833D01*
X167708016Y-87756487D01*
X167744460Y-87711485D01*
X167784005Y-87667974D01*
X167826457Y-87626102D01*
X167871620Y-87586019D01*
X167919298Y-87547871D01*
X167969297Y-87511806D01*
X168021422Y-87477974D01*
X168075478Y-87446521D01*
X168131268Y-87417597D01*
X168188599Y-87391348D01*
X168247275Y-87367923D01*
X168307101Y-87347470D01*
X168367882Y-87330137D01*
X168392349Y-87324183D01*
X168418603Y-87318829D01*
X168446393Y-87314081D01*
X168475470Y-87309948D01*
X168505584Y-87306436D01*
X168536483Y-87303553D01*
X168599641Y-87299703D01*
X168662940Y-87298458D01*
X168694018Y-87298830D01*
X168724381Y-87299876D01*
X168753779Y-87301603D01*
X168781962Y-87304018D01*
X168808679Y-87307128D01*
X168833681Y-87310941D01*
X168888703Y-87322200D01*
X168943439Y-87336217D01*
X168997742Y-87352905D01*
X169051465Y-87372183D01*
X169104461Y-87393964D01*
X169156585Y-87418165D01*
X169207689Y-87444701D01*
X169257627Y-87473488D01*
X169306251Y-87504442D01*
X169353416Y-87537478D01*
X169398974Y-87572513D01*
X169442779Y-87609461D01*
X169484685Y-87648238D01*
X169524543Y-87688761D01*
X169562209Y-87730944D01*
X169597534Y-87774703D01*
X169609246Y-87789944D01*
X169620757Y-87804379D01*
X169631757Y-87817677D01*
X169641934Y-87829508D01*
X169650976Y-87839539D01*
X169658572Y-87847439D01*
X169664409Y-87852876D01*
X169666571Y-87854568D01*
X169668177Y-87855520D01*
X169669661Y-87855902D01*
X169671088Y-87855893D01*
X169672462Y-87855471D01*
X169673783Y-87854611D01*
X169675056Y-87853292D01*
X169676281Y-87851488D01*
X169677462Y-87849178D01*
X169678601Y-87846338D01*
X169679700Y-87842943D01*
X169680762Y-87838972D01*
X169681789Y-87834401D01*
X169682783Y-87829207D01*
X169683747Y-87823365D01*
X169684683Y-87816853D01*
X169686482Y-87801727D01*
X169688199Y-87783640D01*
X169689854Y-87762406D01*
X169691464Y-87737840D01*
X169693049Y-87709754D01*
X169694630Y-87677962D01*
X169696224Y-87642278D01*
X169697851Y-87602514D01*
X169699530Y-87558486D01*
X169705616Y-87391771D01*
X169736969Y-87358434D01*
X169742199Y-87353077D01*
X169747003Y-87348343D01*
X169751498Y-87344196D01*
X169753665Y-87342330D01*
X169755800Y-87340596D01*
X169757915Y-87338989D01*
X169760026Y-87337505D01*
X169762147Y-87336139D01*
X169764293Y-87334885D01*
X169766478Y-87333739D01*
X169768717Y-87332697D01*
X169771024Y-87331753D01*
X169773415Y-87330902D01*
X169775903Y-87330141D01*
X169778504Y-87329463D01*
X169781231Y-87328865D01*
X169784100Y-87328341D01*
X169787125Y-87327886D01*
X169790320Y-87327496D01*
X169793701Y-87327166D01*
X169797281Y-87326892D01*
X169805099Y-87326488D01*
X169813891Y-87326248D01*
X169823774Y-87326132D01*
X169834864Y-87326102D01*
X169855882Y-87326250D01*
X169864697Y-87326495D01*
X169872540Y-87326907D01*
X169879530Y-87327527D01*
X169885784Y-87328394D01*
X169891422Y-87329547D01*
X169896562Y-87331028D01*
X169901322Y-87332876D01*
X169905820Y-87335130D01*
X169910176Y-87337832D01*
X169914507Y-87341020D01*
X169918931Y-87344735D01*
X169923568Y-87349017D01*
X169928536Y-87353905D01*
X169933952Y-87359439D01*
X169966230Y-87392790D01*
X169966230Y-90623882D01*
X169938978Y-90652179D01*
X169934432Y-90656824D01*
X169930177Y-90660934D01*
X169928116Y-90662798D01*
X169926077Y-90664540D01*
X169924043Y-90666165D01*
X169921996Y-90667677D01*
X169919919Y-90669079D01*
X169917796Y-90670375D01*
X169915610Y-90671570D01*
X169913343Y-90672668D01*
X169910978Y-90673673D01*
X169908499Y-90674588D01*
X169905888Y-90675419D01*
X169903127Y-90676168D01*
X169900202Y-90676841D01*
X169897093Y-90677441D01*
X169893784Y-90677972D01*
X169890258Y-90678438D01*
X169886498Y-90678843D01*
X169882487Y-90679192D01*
X169878208Y-90679488D01*
X169873643Y-90679736D01*
X169863590Y-90680103D01*
X169852192Y-90680325D01*
X169839311Y-90680434D01*
X169824812Y-90680463D01*
X169796629Y-90680357D01*
X169785009Y-90680157D01*
X169774821Y-90679801D01*
X169765905Y-90679243D01*
X169758099Y-90678440D01*
X169751241Y-90677346D01*
X169745171Y-90675919D01*
X169739728Y-90674112D01*
X169734749Y-90671882D01*
X169730074Y-90669184D01*
X169725542Y-90665974D01*
X169720992Y-90662208D01*
X169716261Y-90657841D01*
X169705616Y-90647125D01*
X169673203Y-90613788D01*
X169673203Y-89487245D01*
X169672773Y-88856372D01*
X169670459Y-88510230D01*
X169668114Y-88413682D01*
X169664721Y-88352016D01*
X169660088Y-88313131D01*
X169654022Y-88284926D01*
X169646099Y-88256095D01*
X169637113Y-88227573D01*
X169627066Y-88199358D01*
X169615959Y-88171451D01*
X169603793Y-88143852D01*
X169590570Y-88116561D01*
X169576290Y-88089578D01*
X169560954Y-88062902D01*
X169544565Y-88036534D01*
X169527122Y-88010474D01*
X169508628Y-87984721D01*
X169489083Y-87959276D01*
X169468488Y-87934139D01*
X169446845Y-87909310D01*
X169424155Y-87884788D01*
X169400419Y-87860573D01*
X169354378Y-87817652D01*
X169306159Y-87777582D01*
X169255927Y-87740422D01*
X169203848Y-87706229D01*
X169150088Y-87675062D01*
X169094812Y-87646977D01*
X169038186Y-87622033D01*
X168980376Y-87600286D01*
X168921548Y-87581796D01*
X168861867Y-87566620D01*
X168801498Y-87554814D01*
X168740608Y-87546438D01*
X168679363Y-87541549D01*
X168617927Y-87540204D01*
X168556467Y-87542461D01*
X168495148Y-87548378D01*
X168436966Y-87557190D01*
X168381372Y-87568857D01*
X168328350Y-87583392D01*
X168277883Y-87600809D01*
X168229956Y-87621120D01*
X168184552Y-87644339D01*
X168141655Y-87670480D01*
X168101249Y-87699555D01*
X168063317Y-87731578D01*
X168027843Y-87766563D01*
X167994810Y-87804522D01*
X167964203Y-87845469D01*
X167936005Y-87889418D01*
X167910200Y-87936381D01*
X167886772Y-87986373D01*
X167865704Y-88039405D01*
X167842861Y-88100836D01*
X167833739Y-88128114D01*
X167829701Y-88141951D01*
X167825991Y-88156323D01*
X167822595Y-88171534D01*
X167819499Y-88187884D01*
X167816686Y-88205676D01*
X167814143Y-88225213D01*
X167811855Y-88246797D01*
X167809807Y-88270730D01*
X167807983Y-88297314D01*
X167806370Y-88326852D01*
X167803715Y-88395998D01*
X167801722Y-88480587D01*
X167800274Y-88583036D01*
X167799251Y-88705765D01*
X167798008Y-89021732D01*
X167797044Y-89447836D01*
X167792942Y-90624900D01*
X167766749Y-90652179D01*
X167762201Y-90656824D01*
X167757942Y-90660934D01*
X167755879Y-90662798D01*
X167753836Y-90664540D01*
X167751798Y-90666165D01*
X167749747Y-90667677D01*
X167747667Y-90669079D01*
X167745540Y-90670375D01*
X167743349Y-90671570D01*
X167741078Y-90672668D01*
X167738709Y-90673673D01*
X167736226Y-90674588D01*
X167733611Y-90675419D01*
X167730848Y-90676168D01*
X167727919Y-90676841D01*
X167724808Y-90677441D01*
X167721497Y-90677972D01*
X167717970Y-90678438D01*
X167714209Y-90678843D01*
X167710198Y-90679192D01*
X167705920Y-90679488D01*
X167701357Y-90679736D01*
X167691311Y-90680103D01*
X167679923Y-90680325D01*
X167667059Y-90680434D01*
X167652581Y-90680463D01*
X167625201Y-90680325D01*
X167613802Y-90680103D01*
X167603749Y-90679736D01*
X167594905Y-90679192D01*
X167587134Y-90678438D01*
X167580299Y-90677441D01*
X167574265Y-90676168D01*
X167568893Y-90674588D01*
X167564049Y-90672668D01*
X167559596Y-90670375D01*
X167555397Y-90667677D01*
X167551315Y-90664540D01*
X167547216Y-90660934D01*
X167538414Y-90652179D01*
X167512088Y-90624900D01*
X167509045Y-89483197D01*
X167506447Y-88764145D01*
X167503959Y-88547884D01*
X167499371Y-88402379D01*
X167491701Y-88309065D01*
X167479967Y-88249376D01*
X167463189Y-88204748D01*
X167440385Y-88156616D01*
X167426657Y-88128961D01*
X167410970Y-88100668D01*
X167393470Y-88071904D01*
X167374304Y-88042837D01*
X167353618Y-88013634D01*
X167331558Y-87984463D01*
X167308270Y-87955489D01*
X167283901Y-87926881D01*
X167258598Y-87898807D01*
X167232506Y-87871432D01*
X167205771Y-87844925D01*
X167178541Y-87819453D01*
X167150961Y-87795183D01*
X167123178Y-87772282D01*
X167095339Y-87750919D01*
X167067588Y-87731258D01*
X167037853Y-87711785D01*
X167007059Y-87693175D01*
X166975306Y-87675463D01*
X166942698Y-87658681D01*
X166909338Y-87642864D01*
X166875328Y-87628047D01*
X166840769Y-87614263D01*
X166805766Y-87601546D01*
X166770420Y-87589931D01*
X166734834Y-87579451D01*
X166699111Y-87570141D01*
X166663352Y-87562033D01*
X166627661Y-87555164D01*
X166592140Y-87549565D01*
X166556891Y-87545273D01*
X166522018Y-87542319D01*
X166487077Y-87540689D01*
X166451354Y-87540322D01*
X166415062Y-87541177D01*
X166378415Y-87543215D01*
X166341625Y-87546396D01*
X166304905Y-87550679D01*
X166268469Y-87556026D01*
X166232530Y-87562395D01*
X166197301Y-87569747D01*
X166162995Y-87578041D01*
X166129825Y-87587239D01*
X166098005Y-87597300D01*
X166067748Y-87608184D01*
X166039267Y-87619851D01*
X166012775Y-87632261D01*
X165988484Y-87645374D01*
X165973279Y-87654635D01*
X165958349Y-87664419D01*
X165943695Y-87674721D01*
X165929322Y-87685538D01*
X165915231Y-87696866D01*
X165901425Y-87708700D01*
X165874678Y-87733872D01*
X165849103Y-87761022D01*
X165824720Y-87790116D01*
X165801550Y-87821123D01*
X165779612Y-87854009D01*
X165758930Y-87888742D01*
X165739522Y-87925289D01*
X165721409Y-87963619D01*
X165704614Y-88003697D01*
X165689155Y-88045492D01*
X165675054Y-88088971D01*
X165662332Y-88134102D01*
X165651009Y-88180852D01*
X165646933Y-88198745D01*
X165643361Y-88216157D01*
X165641752Y-88225265D01*
X165640255Y-88234952D01*
X165638865Y-88245450D01*
X165637577Y-88256992D01*
X165636386Y-88269811D01*
X165635287Y-88284141D01*
X165633349Y-88318263D01*
X165631723Y-88361220D01*
X165630371Y-88414876D01*
X165629254Y-88481094D01*
X165628335Y-88561738D01*
X165627575Y-88658672D01*
X165626935Y-88773757D01*
X165625864Y-89065838D01*
X165624814Y-89452889D01*
X165620713Y-90624900D01*
X165594521Y-90652179D01*
X165589973Y-90656824D01*
X165585713Y-90660934D01*
X165583650Y-90662798D01*
X165581607Y-90664540D01*
X165579569Y-90666165D01*
X165577519Y-90667677D01*
X165575438Y-90669079D01*
X165573311Y-90670375D01*
X165571121Y-90671570D01*
X165568849Y-90672668D01*
X165566481Y-90673673D01*
X165563997Y-90674588D01*
X165561383Y-90675419D01*
X165558619Y-90676168D01*
X165555690Y-90676841D01*
X165552579Y-90677441D01*
X165549268Y-90677972D01*
X165545741Y-90678438D01*
X165541981Y-90678843D01*
X165537970Y-90679192D01*
X165533691Y-90679488D01*
X165529129Y-90679736D01*
X165519082Y-90680103D01*
X165507695Y-90680325D01*
X165494830Y-90680434D01*
X165480352Y-90680463D01*
X165452970Y-90680325D01*
X165441568Y-90680103D01*
X165431512Y-90679736D01*
X165422664Y-90679192D01*
X165414889Y-90678438D01*
X165408050Y-90677441D01*
X165402011Y-90676168D01*
X165396635Y-90674588D01*
X165391787Y-90672668D01*
X165387330Y-90670375D01*
X165383128Y-90667677D01*
X165379045Y-90664540D01*
X165374944Y-90660934D01*
X165366144Y-90652179D01*
X165338853Y-90623882D01*
X165338853Y-89490275D01*
X165341507Y-88546608D01*
X165346103Y-88344536D01*
X165354013Y-88242486D01*
X165368090Y-88155088D01*
X165386758Y-88071404D01*
X165409944Y-87991527D01*
X165437576Y-87915547D01*
X165469582Y-87843558D01*
X165505888Y-87775650D01*
X165546423Y-87711916D01*
X165591113Y-87652447D01*
X165639888Y-87597335D01*
X165692673Y-87546673D01*
X165749396Y-87500550D01*
X165809986Y-87459061D01*
X165874369Y-87422295D01*
X165942473Y-87390346D01*
X166014226Y-87363305D01*
X166089555Y-87341263D01*
X166151162Y-87327064D01*
X166212783Y-87315533D01*
X166274315Y-87306660D01*
X166335655Y-87300436D01*
X166396698Y-87296853D01*
X166457342Y-87295901D01*
X166517483Y-87297572D01*
G37*
G36*
X183201481Y-87455431D02*
G01*
X183556424Y-87655796D01*
X183773081Y-87780765D01*
X183839016Y-87820540D01*
X183881738Y-87848143D01*
X183905031Y-87865799D01*
X183910575Y-87871593D01*
X183912682Y-87875734D01*
X183913336Y-87885150D01*
X183913394Y-87901185D01*
X183911907Y-87950315D01*
X183908587Y-88017536D01*
X183903802Y-88097260D01*
X183891306Y-88271863D01*
X183884331Y-88355564D01*
X183877359Y-88429414D01*
X183860019Y-88580256D01*
X183839051Y-88728920D01*
X183814453Y-88875405D01*
X183786223Y-89019711D01*
X183754357Y-89161839D01*
X183718853Y-89301788D01*
X183679708Y-89439559D01*
X183636919Y-89575151D01*
X183590484Y-89708565D01*
X183540400Y-89839800D01*
X183486665Y-89968856D01*
X183429275Y-90095733D01*
X183368228Y-90220432D01*
X183303521Y-90342952D01*
X183235151Y-90463293D01*
X183163117Y-90581456D01*
X183108346Y-90665950D01*
X183051404Y-90749569D01*
X182992457Y-90832122D01*
X182931674Y-90913420D01*
X182869224Y-90993273D01*
X182805276Y-91071493D01*
X182739996Y-91147890D01*
X182673555Y-91222273D01*
X182606119Y-91294455D01*
X182537859Y-91364244D01*
X182468941Y-91431452D01*
X182399535Y-91495889D01*
X182329809Y-91557366D01*
X182259931Y-91615693D01*
X182190070Y-91670681D01*
X182120394Y-91722140D01*
X182034414Y-91781823D01*
X181947638Y-91838144D01*
X181859932Y-91891153D01*
X181771163Y-91940898D01*
X181681198Y-91987429D01*
X181589903Y-92030794D01*
X181497147Y-92071042D01*
X181402795Y-92108222D01*
X181306714Y-92142383D01*
X181208772Y-92173574D01*
X181108835Y-92201843D01*
X181006770Y-92227239D01*
X180902443Y-92249812D01*
X180795723Y-92269610D01*
X180686475Y-92286682D01*
X180574566Y-92301076D01*
X180504863Y-92306710D01*
X180412205Y-92310735D01*
X180304134Y-92313149D01*
X180188192Y-92313954D01*
X180071921Y-92313149D01*
X179962864Y-92310735D01*
X179868563Y-92306710D01*
X179796560Y-92301076D01*
X179647579Y-92282008D01*
X179501714Y-92258078D01*
X179358737Y-92229184D01*
X179218422Y-92195224D01*
X179080542Y-92156096D01*
X178944869Y-92111698D01*
X178811178Y-92061927D01*
X178679240Y-92006682D01*
X178548830Y-91945860D01*
X178419719Y-91879360D01*
X178291682Y-91807079D01*
X178164491Y-91728915D01*
X178037920Y-91644766D01*
X177911741Y-91554530D01*
X177785728Y-91458105D01*
X177659653Y-91355389D01*
X177606304Y-91308556D01*
X177540668Y-91248023D01*
X177466840Y-91177805D01*
X177388917Y-91101916D01*
X177310993Y-91024369D01*
X177237166Y-90949179D01*
X177171531Y-90880359D01*
X177118183Y-90821922D01*
X177046772Y-90739436D01*
X176976564Y-90655293D01*
X176907575Y-90569515D01*
X176839823Y-90482127D01*
X176773322Y-90393153D01*
X176708089Y-90302616D01*
X176644140Y-90210540D01*
X176581492Y-90116948D01*
X176520159Y-90021865D01*
X176460159Y-89925313D01*
X176401507Y-89827317D01*
X176344220Y-89727900D01*
X176233802Y-89524898D01*
X176129036Y-89316496D01*
X176064445Y-89178646D01*
X176004121Y-89045722D01*
X175959523Y-88943109D01*
X175946702Y-88911102D01*
X175942110Y-88896193D01*
X175942268Y-88895460D01*
X175942760Y-88894575D01*
X175943611Y-88893523D01*
X175944848Y-88892287D01*
X175946496Y-88890854D01*
X175948581Y-88889207D01*
X175954167Y-88885208D01*
X175961812Y-88880167D01*
X175971724Y-88873960D01*
X175984110Y-88866461D01*
X175999177Y-88857548D01*
X176017132Y-88847096D01*
X176038182Y-88834980D01*
X176090397Y-88805260D01*
X176157480Y-88767395D01*
X176241087Y-88720390D01*
X176292681Y-88692106D01*
X176380524Y-88845670D01*
X176475215Y-89004507D01*
X176575211Y-89160431D01*
X176679579Y-89312234D01*
X176787386Y-89458708D01*
X176897698Y-89598645D01*
X177009582Y-89730838D01*
X177122105Y-89854079D01*
X177178314Y-89911965D01*
X177234333Y-89967159D01*
X177339765Y-90064771D01*
X177446925Y-90156803D01*
X177555838Y-90243264D01*
X177666531Y-90324164D01*
X177779027Y-90399510D01*
X177893354Y-90469313D01*
X178009537Y-90533580D01*
X178127600Y-90592320D01*
X178247571Y-90645544D01*
X178369474Y-90693258D01*
X178493335Y-90735473D01*
X178619179Y-90772197D01*
X178747033Y-90803439D01*
X178876921Y-90829208D01*
X179008870Y-90849512D01*
X179142904Y-90864361D01*
X179215885Y-90869305D01*
X179302685Y-90872081D01*
X179398271Y-90872797D01*
X179497613Y-90871560D01*
X179595677Y-90868475D01*
X179687431Y-90863649D01*
X179767843Y-90857189D01*
X179831881Y-90849201D01*
X179915448Y-90834886D01*
X179997921Y-90818086D01*
X180079294Y-90798803D01*
X180159561Y-90777037D01*
X180238715Y-90752792D01*
X180316751Y-90726068D01*
X180393663Y-90696866D01*
X180469444Y-90665188D01*
X180544089Y-90631036D01*
X180617591Y-90594411D01*
X180689945Y-90555314D01*
X180761145Y-90513748D01*
X180831184Y-90469713D01*
X180900057Y-90423211D01*
X180967757Y-90374244D01*
X181034279Y-90322812D01*
X181057793Y-90303342D01*
X181083417Y-90281149D01*
X181139674Y-90229920D01*
X181200408Y-90171777D01*
X181262978Y-90109373D01*
X181324741Y-90045359D01*
X181383057Y-89982387D01*
X181435284Y-89923109D01*
X181458288Y-89895683D01*
X181478779Y-89870176D01*
X181580152Y-89735554D01*
X181676618Y-89595862D01*
X181768126Y-89451238D01*
X181854620Y-89301822D01*
X181936048Y-89147753D01*
X182012357Y-88989170D01*
X182083491Y-88826212D01*
X182149399Y-88659018D01*
X182210027Y-88487727D01*
X182265321Y-88312479D01*
X182315227Y-88133413D01*
X182359693Y-87950667D01*
X182398665Y-87764382D01*
X182432088Y-87574695D01*
X182459911Y-87381746D01*
X182482079Y-87185674D01*
X182494251Y-87057351D01*
X183201481Y-87455431D01*
G37*
G36*
X175380913Y-85305451D02*
G01*
X175392740Y-85305646D01*
X175403057Y-85305993D01*
X175412023Y-85306536D01*
X175419799Y-85307317D01*
X175426545Y-85308379D01*
X175432421Y-85309765D01*
X175437587Y-85311519D01*
X175442203Y-85313682D01*
X175446429Y-85316299D01*
X175450425Y-85319411D01*
X175454352Y-85323062D01*
X175458369Y-85327295D01*
X175467314Y-85337679D01*
X175493641Y-85368992D01*
X175489538Y-87314923D01*
X175486145Y-88480148D01*
X175479949Y-89137856D01*
X175467699Y-89475405D01*
X175446146Y-89680153D01*
X175433074Y-89761311D01*
X175416828Y-89841403D01*
X175397629Y-89919742D01*
X175375702Y-89995640D01*
X175351269Y-90068413D01*
X175338183Y-90103412D01*
X175324555Y-90137373D01*
X175310412Y-90170209D01*
X175295782Y-90201835D01*
X175280693Y-90232164D01*
X175265173Y-90261111D01*
X175249799Y-90287394D01*
X175233250Y-90313518D01*
X175215613Y-90339397D01*
X175196970Y-90364942D01*
X175177407Y-90390068D01*
X175157009Y-90414685D01*
X175135861Y-90438707D01*
X175114046Y-90462047D01*
X175091650Y-90484618D01*
X175068757Y-90506331D01*
X175045452Y-90527100D01*
X175021820Y-90546837D01*
X174997946Y-90565455D01*
X174973913Y-90582867D01*
X174949807Y-90598985D01*
X174925713Y-90613721D01*
X174878434Y-90638111D01*
X174827097Y-90659366D01*
X174772244Y-90677482D01*
X174714414Y-90692449D01*
X174654149Y-90704262D01*
X174591989Y-90712911D01*
X174528475Y-90718391D01*
X174464147Y-90720693D01*
X174399546Y-90719810D01*
X174335214Y-90715734D01*
X174271689Y-90708459D01*
X174209514Y-90697977D01*
X174149229Y-90684280D01*
X174091374Y-90667362D01*
X174036491Y-90647214D01*
X173985119Y-90623829D01*
X173969532Y-90615735D01*
X173955647Y-90608012D01*
X173943368Y-90600485D01*
X173937801Y-90596740D01*
X173932600Y-90592979D01*
X173927751Y-90589179D01*
X173923245Y-90585318D01*
X173919067Y-90581376D01*
X173915207Y-90577330D01*
X173911653Y-90573158D01*
X173908392Y-90568838D01*
X173905412Y-90564349D01*
X173902702Y-90559669D01*
X173900249Y-90554776D01*
X173898041Y-90549647D01*
X173896067Y-90544262D01*
X173894314Y-90538598D01*
X173892770Y-90532634D01*
X173891424Y-90526347D01*
X173890262Y-90519716D01*
X173889274Y-90512719D01*
X173887770Y-90497540D01*
X173886815Y-90480635D01*
X173886312Y-90461830D01*
X173886166Y-90440949D01*
X173886320Y-90423932D01*
X173886788Y-90408101D01*
X173887574Y-90393433D01*
X173888685Y-90379906D01*
X173890128Y-90367497D01*
X173891907Y-90356185D01*
X173894029Y-90345948D01*
X173896500Y-90336762D01*
X173899327Y-90328607D01*
X173902514Y-90321459D01*
X173906068Y-90315297D01*
X173909996Y-90310099D01*
X173914302Y-90305842D01*
X173918994Y-90302504D01*
X173924076Y-90300063D01*
X173929556Y-90298497D01*
X173930491Y-90298372D01*
X173931580Y-90298374D01*
X173932819Y-90298500D01*
X173934201Y-90298748D01*
X173937378Y-90299596D01*
X173941070Y-90300894D01*
X173945234Y-90302618D01*
X173949830Y-90304744D01*
X173954815Y-90307250D01*
X173960149Y-90310111D01*
X173965790Y-90313303D01*
X173971696Y-90316803D01*
X173977826Y-90320588D01*
X173984139Y-90324633D01*
X173990593Y-90328915D01*
X173997146Y-90333411D01*
X174003758Y-90338096D01*
X174010386Y-90342947D01*
X174036189Y-90361839D01*
X174061793Y-90379135D01*
X174087329Y-90394874D01*
X174112925Y-90409095D01*
X174138712Y-90421836D01*
X174164819Y-90433135D01*
X174191377Y-90443031D01*
X174218515Y-90451562D01*
X174246363Y-90458767D01*
X174275050Y-90464685D01*
X174304708Y-90469353D01*
X174335465Y-90472811D01*
X174367451Y-90475097D01*
X174400796Y-90476248D01*
X174435631Y-90476305D01*
X174472084Y-90475305D01*
X174518827Y-90472576D01*
X174562934Y-90468109D01*
X174604591Y-90461802D01*
X174643979Y-90453550D01*
X174681283Y-90443250D01*
X174716686Y-90430798D01*
X174750371Y-90416090D01*
X174782523Y-90399024D01*
X174813325Y-90379495D01*
X174842959Y-90357400D01*
X174871611Y-90332634D01*
X174899462Y-90305096D01*
X174926698Y-90274680D01*
X174953501Y-90241284D01*
X174980054Y-90204803D01*
X175006542Y-90165134D01*
X175020829Y-90141517D01*
X175034847Y-90115821D01*
X175048563Y-90088149D01*
X175061948Y-90058600D01*
X175074970Y-90027275D01*
X175087599Y-89994275D01*
X175099802Y-89959700D01*
X175111550Y-89923652D01*
X175122811Y-89886230D01*
X175133554Y-89847536D01*
X175143748Y-89807669D01*
X175153362Y-89766732D01*
X175162366Y-89724824D01*
X175170728Y-89682045D01*
X175178417Y-89638498D01*
X175185402Y-89594282D01*
X175188442Y-89572182D01*
X175191130Y-89546641D01*
X175193493Y-89515138D01*
X175195558Y-89475154D01*
X175197350Y-89424171D01*
X175198896Y-89359670D01*
X175201359Y-89180037D01*
X175203159Y-88916103D01*
X175204507Y-88547716D01*
X175206699Y-87416973D01*
X175210669Y-85360909D01*
X175236994Y-85333631D01*
X175241541Y-85328983D01*
X175245797Y-85324872D01*
X175247860Y-85323007D01*
X175249902Y-85321264D01*
X175251940Y-85319639D01*
X175253992Y-85318127D01*
X175256074Y-85316725D01*
X175258205Y-85315429D01*
X175260401Y-85314234D01*
X175262679Y-85313136D01*
X175265057Y-85312131D01*
X175267552Y-85311216D01*
X175270181Y-85310386D01*
X175272961Y-85309636D01*
X175275910Y-85308964D01*
X175279045Y-85308365D01*
X175282383Y-85307834D01*
X175285941Y-85307369D01*
X175289736Y-85306964D01*
X175293787Y-85306615D01*
X175298109Y-85306319D01*
X175302720Y-85306072D01*
X175312879Y-85305706D01*
X175324402Y-85305485D01*
X175337425Y-85305376D01*
X175352087Y-85305347D01*
X175380913Y-85305451D01*
G37*
G36*
X177445539Y-84223235D02*
G01*
X177481253Y-84242398D01*
X177608389Y-84312159D01*
X177793866Y-84415072D01*
X178018559Y-84540622D01*
X178597466Y-84867977D01*
X178597602Y-84868314D01*
X178597617Y-84868939D01*
X178597291Y-84871027D01*
X178596511Y-84874183D01*
X178595298Y-84878351D01*
X178591665Y-84889486D01*
X178586569Y-84903972D01*
X178580190Y-84921348D01*
X178572706Y-84941151D01*
X178564294Y-84962920D01*
X178555134Y-84986193D01*
X178528321Y-85056497D01*
X178504560Y-85124860D01*
X178483592Y-85192277D01*
X178465160Y-85259741D01*
X178449003Y-85328248D01*
X178434862Y-85398791D01*
X178422480Y-85472366D01*
X178411596Y-85549967D01*
X178404445Y-85613254D01*
X178399649Y-85670561D01*
X178397198Y-85721973D01*
X178397079Y-85767572D01*
X178397889Y-85788218D01*
X178399278Y-85807441D01*
X178401244Y-85825252D01*
X178403785Y-85841661D01*
X178406899Y-85856679D01*
X178410586Y-85870317D01*
X178414842Y-85882583D01*
X178419668Y-85893489D01*
X178424651Y-85902615D01*
X178430114Y-85911421D01*
X178436041Y-85919896D01*
X178442416Y-85928028D01*
X178449223Y-85935804D01*
X178456445Y-85943213D01*
X178464067Y-85950244D01*
X178472072Y-85956883D01*
X178480445Y-85963121D01*
X178489169Y-85968944D01*
X178498229Y-85974341D01*
X178507607Y-85979300D01*
X178517289Y-85983809D01*
X178527257Y-85987857D01*
X178537497Y-85991431D01*
X178547991Y-85994520D01*
X179586398Y-86037589D01*
X180726305Y-86075351D01*
X180731112Y-86076900D01*
X180741179Y-86081446D01*
X180775966Y-86098919D01*
X180828417Y-86126550D01*
X180896283Y-86163121D01*
X181069261Y-86258203D01*
X181276903Y-86374409D01*
X181807392Y-86673481D01*
X181691240Y-86668427D01*
X179049110Y-86579514D01*
X177262561Y-86518513D01*
X176514137Y-86488577D01*
X176513788Y-86488063D01*
X176513485Y-86487285D01*
X176513016Y-86484962D01*
X176512724Y-86481664D01*
X176512605Y-86477450D01*
X176512657Y-86472378D01*
X176512874Y-86466504D01*
X176513253Y-86459888D01*
X176513790Y-86452587D01*
X176515319Y-86436159D01*
X176517430Y-86417682D01*
X176520090Y-86397620D01*
X176523266Y-86376433D01*
X176551038Y-86218609D01*
X176581703Y-86065210D01*
X176615315Y-85916115D01*
X176651927Y-85771202D01*
X176691592Y-85630350D01*
X176734363Y-85493438D01*
X176780295Y-85360344D01*
X176829439Y-85230947D01*
X176881850Y-85105126D01*
X176937581Y-84982759D01*
X176996685Y-84863726D01*
X177059215Y-84747904D01*
X177125225Y-84635172D01*
X177194767Y-84525410D01*
X177267896Y-84418495D01*
X177344664Y-84314306D01*
X177359994Y-84294721D01*
X177374709Y-84276402D01*
X177388479Y-84259765D01*
X177400972Y-84245223D01*
X177411859Y-84233192D01*
X177420810Y-84224085D01*
X177424456Y-84220758D01*
X177427494Y-84218317D01*
X177429883Y-84216814D01*
X177431582Y-84216302D01*
X177445539Y-84223235D01*
G37*
G36*
X172087581Y-87289704D02*
G01*
X172163656Y-87293914D01*
X172196252Y-87297033D01*
X172224318Y-87300848D01*
X172326539Y-87320630D01*
X172425113Y-87346186D01*
X172519918Y-87377420D01*
X172610836Y-87414233D01*
X172697746Y-87456527D01*
X172780529Y-87504206D01*
X172859066Y-87557171D01*
X172933235Y-87615325D01*
X173002918Y-87678570D01*
X173067994Y-87746808D01*
X173128345Y-87819942D01*
X173183849Y-87897875D01*
X173234388Y-87980508D01*
X173279841Y-88067745D01*
X173320090Y-88159486D01*
X173355013Y-88255636D01*
X173368474Y-88298698D01*
X173380840Y-88341593D01*
X173392128Y-88384461D01*
X173402357Y-88427442D01*
X173411544Y-88470679D01*
X173419707Y-88514311D01*
X173426864Y-88558478D01*
X173433032Y-88603322D01*
X173438230Y-88648983D01*
X173442476Y-88695601D01*
X173445786Y-88743318D01*
X173448180Y-88792273D01*
X173449674Y-88842608D01*
X173450287Y-88894463D01*
X173448940Y-89003296D01*
X173444234Y-89117408D01*
X173436553Y-89227149D01*
X173425881Y-89332578D01*
X173412201Y-89433752D01*
X173395496Y-89530728D01*
X173375750Y-89623565D01*
X173352946Y-89712320D01*
X173327068Y-89797050D01*
X173298098Y-89877815D01*
X173266020Y-89954670D01*
X173230817Y-90027675D01*
X173192473Y-90096887D01*
X173150971Y-90162363D01*
X173106295Y-90224161D01*
X173058427Y-90282339D01*
X173007351Y-90336955D01*
X172967176Y-90375519D01*
X172925420Y-90412027D01*
X172882070Y-90446484D01*
X172837110Y-90478894D01*
X172790527Y-90509262D01*
X172742304Y-90537592D01*
X172692429Y-90563889D01*
X172640887Y-90588156D01*
X172587662Y-90610399D01*
X172532740Y-90630622D01*
X172476108Y-90648828D01*
X172417750Y-90665024D01*
X172357651Y-90679212D01*
X172295798Y-90691398D01*
X172232175Y-90701585D01*
X172166769Y-90709779D01*
X172115752Y-90714419D01*
X172058117Y-90717734D01*
X171996055Y-90719722D01*
X171931754Y-90720385D01*
X171867404Y-90719722D01*
X171805192Y-90717734D01*
X171747309Y-90714419D01*
X171695944Y-90709779D01*
X171629790Y-90701531D01*
X171561759Y-90690966D01*
X171492606Y-90678327D01*
X171423086Y-90663854D01*
X171285966Y-90630371D01*
X171156442Y-90592449D01*
X171096415Y-90572426D01*
X171040553Y-90552017D01*
X170989611Y-90531462D01*
X170944343Y-90511004D01*
X170905505Y-90490883D01*
X170873852Y-90471340D01*
X170850139Y-90452618D01*
X170835121Y-90434956D01*
X170831948Y-90429257D01*
X170829050Y-90422805D01*
X170824062Y-90407876D01*
X170820128Y-90390635D01*
X170817217Y-90371547D01*
X170815300Y-90351081D01*
X170814346Y-90329701D01*
X170814327Y-90307873D01*
X170815212Y-90286065D01*
X170816971Y-90264742D01*
X170819575Y-90244371D01*
X170822993Y-90225417D01*
X170827196Y-90208347D01*
X170832155Y-90193627D01*
X170837838Y-90181723D01*
X170840942Y-90176973D01*
X170844217Y-90173102D01*
X170847658Y-90170168D01*
X170851261Y-90168230D01*
X170852275Y-90168028D01*
X170853600Y-90167988D01*
X170857146Y-90168380D01*
X170861831Y-90169375D01*
X170867586Y-90170945D01*
X170874341Y-90173059D01*
X170882026Y-90175688D01*
X170890572Y-90178803D01*
X170899911Y-90182373D01*
X170920685Y-90190763D01*
X170943795Y-90200620D01*
X170968684Y-90211709D01*
X170994799Y-90223792D01*
X171092123Y-90268854D01*
X171188329Y-90309961D01*
X171282953Y-90346947D01*
X171375533Y-90379645D01*
X171465609Y-90407891D01*
X171552717Y-90431519D01*
X171636396Y-90450364D01*
X171676806Y-90457940D01*
X171716185Y-90464259D01*
X171744817Y-90467907D01*
X171775230Y-90470900D01*
X171840363Y-90474947D01*
X171909524Y-90476460D01*
X171980652Y-90475499D01*
X172051687Y-90472122D01*
X172120569Y-90466389D01*
X172185237Y-90458359D01*
X172215347Y-90453502D01*
X172243631Y-90448093D01*
X172316039Y-90430496D01*
X172385881Y-90408808D01*
X172453099Y-90383079D01*
X172517632Y-90353361D01*
X172579422Y-90319706D01*
X172638407Y-90282166D01*
X172694529Y-90240792D01*
X172747729Y-90195637D01*
X172797945Y-90146752D01*
X172845119Y-90094190D01*
X172889191Y-90038001D01*
X172930101Y-89978238D01*
X172967789Y-89914953D01*
X173002196Y-89848197D01*
X173033263Y-89778022D01*
X173060928Y-89704481D01*
X173081298Y-89641460D01*
X173099318Y-89576937D01*
X173107479Y-89543879D01*
X173115092Y-89510166D01*
X173128728Y-89440399D01*
X173140329Y-89366891D01*
X173150002Y-89288895D01*
X173157852Y-89205666D01*
X173163984Y-89116458D01*
X173171129Y-89003296D01*
X172793169Y-89003296D01*
X172514670Y-89001732D01*
X172205449Y-88996096D01*
X171800357Y-88984968D01*
X171234245Y-88966929D01*
X170749264Y-88951768D01*
X170714869Y-88919436D01*
X170681532Y-88887104D01*
X170687616Y-88755765D01*
X170691877Y-88697159D01*
X170695256Y-88650685D01*
X170976542Y-88650685D01*
X170976542Y-88697159D01*
X171084755Y-88704237D01*
X171308227Y-88717164D01*
X171495273Y-88726588D01*
X171679863Y-88733928D01*
X171895968Y-88740604D01*
X172070959Y-88744315D01*
X172282475Y-88747553D01*
X172503838Y-88749842D01*
X172708372Y-88750711D01*
X173162001Y-88750711D01*
X173155914Y-88656745D01*
X173145736Y-88556667D01*
X173128584Y-88459682D01*
X173104659Y-88366043D01*
X173074166Y-88276000D01*
X173037308Y-88189805D01*
X172994287Y-88107709D01*
X172945306Y-88029965D01*
X172890570Y-87956824D01*
X172830280Y-87888537D01*
X172764641Y-87825356D01*
X172693854Y-87767533D01*
X172618124Y-87715319D01*
X172537652Y-87668966D01*
X172452644Y-87628725D01*
X172363300Y-87594848D01*
X172269825Y-87567587D01*
X172239667Y-87560543D01*
X172208764Y-87554194D01*
X172177247Y-87548551D01*
X172145249Y-87543621D01*
X172112902Y-87539413D01*
X172080336Y-87535937D01*
X172047685Y-87533201D01*
X172015081Y-87531214D01*
X171982654Y-87529984D01*
X171950538Y-87529521D01*
X171918865Y-87529834D01*
X171887765Y-87530931D01*
X171857372Y-87532821D01*
X171827816Y-87535513D01*
X171799231Y-87539016D01*
X171771748Y-87543338D01*
X171737324Y-87549858D01*
X171704094Y-87557320D01*
X171671969Y-87565767D01*
X171640862Y-87575243D01*
X171610685Y-87585791D01*
X171581350Y-87597453D01*
X171552771Y-87610273D01*
X171524859Y-87624292D01*
X171497526Y-87639555D01*
X171470686Y-87656104D01*
X171444251Y-87673982D01*
X171418132Y-87693232D01*
X171392243Y-87713897D01*
X171366496Y-87736020D01*
X171340803Y-87759643D01*
X171315077Y-87784810D01*
X171290077Y-87811034D01*
X171266205Y-87837838D01*
X171243427Y-87865281D01*
X171221711Y-87893423D01*
X171201025Y-87922324D01*
X171181335Y-87952041D01*
X171162610Y-87982634D01*
X171144817Y-88014163D01*
X171127922Y-88046686D01*
X171111895Y-88080263D01*
X171096701Y-88114952D01*
X171082309Y-88150814D01*
X171068686Y-88187907D01*
X171055799Y-88226290D01*
X171043616Y-88266023D01*
X171032105Y-88307164D01*
X171021627Y-88350104D01*
X171011535Y-88396643D01*
X171002141Y-88444982D01*
X170993756Y-88493321D01*
X170986692Y-88539861D01*
X170981261Y-88582801D01*
X170977773Y-88620342D01*
X170976542Y-88650685D01*
X170695256Y-88650685D01*
X170698540Y-88605517D01*
X170715774Y-88463199D01*
X170739303Y-88328832D01*
X170769112Y-88202437D01*
X170805186Y-88084033D01*
X170847509Y-87973643D01*
X170896066Y-87871286D01*
X170950844Y-87776983D01*
X171011825Y-87690756D01*
X171078996Y-87612624D01*
X171152340Y-87542608D01*
X171231844Y-87480730D01*
X171317491Y-87427009D01*
X171409267Y-87381468D01*
X171507157Y-87344125D01*
X171611145Y-87315003D01*
X171636001Y-87309936D01*
X171665816Y-87305358D01*
X171737611Y-87297728D01*
X171821108Y-87292229D01*
X171910884Y-87288979D01*
X172001516Y-87288098D01*
X172087581Y-87289704D01*
G37*
G36*
X157069362Y-86376543D02*
G01*
X157076962Y-86376833D01*
X157083823Y-86377300D01*
X157090039Y-86377981D01*
X157095703Y-86378910D01*
X157100908Y-86380124D01*
X157105748Y-86381657D01*
X157110315Y-86383545D01*
X157114704Y-86385824D01*
X157119007Y-86388529D01*
X157123317Y-86391696D01*
X157127728Y-86395360D01*
X157132333Y-86399557D01*
X157137226Y-86404322D01*
X157142499Y-86409691D01*
X157174830Y-86442023D01*
X157184938Y-86896683D01*
X157189170Y-87076797D01*
X157193780Y-87230482D01*
X157198010Y-87341542D01*
X157201104Y-87393783D01*
X157207162Y-87437227D01*
X157686072Y-87437227D01*
X157718404Y-87470564D01*
X157723596Y-87476005D01*
X157728206Y-87481036D01*
X157732269Y-87485768D01*
X157734105Y-87488057D01*
X157735818Y-87490312D01*
X157737410Y-87492548D01*
X157738887Y-87494779D01*
X157740253Y-87497019D01*
X157741511Y-87499281D01*
X157742666Y-87501579D01*
X157743723Y-87503927D01*
X157744686Y-87506340D01*
X157745558Y-87508830D01*
X157746345Y-87511412D01*
X157747050Y-87514099D01*
X157747678Y-87516907D01*
X157748232Y-87519847D01*
X157748718Y-87522935D01*
X157749139Y-87526184D01*
X157749805Y-87533221D01*
X157750263Y-87541069D01*
X157750549Y-87549839D01*
X157750695Y-87559643D01*
X157750736Y-87570590D01*
X157750621Y-87592412D01*
X157750403Y-87601423D01*
X157750009Y-87609345D01*
X157749390Y-87616315D01*
X157748496Y-87622466D01*
X157747276Y-87627933D01*
X157745681Y-87632852D01*
X157744726Y-87635147D01*
X157743659Y-87637355D01*
X157741161Y-87641580D01*
X157738136Y-87645659D01*
X157734534Y-87649728D01*
X157730305Y-87653921D01*
X157725398Y-87658372D01*
X157713350Y-87668592D01*
X157674959Y-87699918D01*
X157195045Y-87699918D01*
X157195045Y-88753714D01*
X157193845Y-89416533D01*
X157191635Y-89635356D01*
X157187719Y-89796897D01*
X157181625Y-89914487D01*
X157172877Y-90001459D01*
X157161003Y-90071145D01*
X157145528Y-90136876D01*
X157127859Y-90198746D01*
X157107423Y-90257060D01*
X157084199Y-90311839D01*
X157058165Y-90363105D01*
X157044089Y-90387427D01*
X157029302Y-90410878D01*
X157013803Y-90433461D01*
X156997588Y-90455179D01*
X156980656Y-90476033D01*
X156963004Y-90496027D01*
X156944628Y-90515164D01*
X156925527Y-90533445D01*
X156905697Y-90550874D01*
X156885137Y-90567453D01*
X156863844Y-90583185D01*
X156841814Y-90598072D01*
X156819046Y-90612116D01*
X156795537Y-90625321D01*
X156771284Y-90637689D01*
X156746285Y-90649223D01*
X156694038Y-90669797D01*
X156638774Y-90687065D01*
X156580473Y-90701046D01*
X156519114Y-90711763D01*
X156496097Y-90714500D01*
X156470808Y-90716653D01*
X156414558Y-90719247D01*
X156352648Y-90719615D01*
X156287365Y-90717829D01*
X156220993Y-90713959D01*
X156155817Y-90708076D01*
X156094122Y-90700252D01*
X156065294Y-90695633D01*
X156038194Y-90690557D01*
X155999340Y-90682296D01*
X155960622Y-90673117D01*
X155922291Y-90663122D01*
X155884601Y-90652411D01*
X155847805Y-90641085D01*
X155812157Y-90629243D01*
X155777908Y-90616988D01*
X155745313Y-90604418D01*
X155714624Y-90591636D01*
X155686095Y-90578741D01*
X155659977Y-90565835D01*
X155636525Y-90553017D01*
X155615992Y-90540389D01*
X155598630Y-90528051D01*
X155584692Y-90516103D01*
X155574432Y-90504647D01*
X155570623Y-90499012D01*
X155567146Y-90492570D01*
X155563997Y-90485385D01*
X155561172Y-90477520D01*
X155556474Y-90460000D01*
X155553014Y-90440518D01*
X155550755Y-90419581D01*
X155549661Y-90397693D01*
X155549695Y-90375361D01*
X155550820Y-90353092D01*
X155552998Y-90331392D01*
X155556193Y-90310765D01*
X155560368Y-90291720D01*
X155565486Y-90274762D01*
X155571509Y-90260397D01*
X155574849Y-90254344D01*
X155578402Y-90249131D01*
X155582163Y-90244818D01*
X155586127Y-90241470D01*
X155590289Y-90239150D01*
X155594646Y-90237921D01*
X155595887Y-90237834D01*
X155597520Y-90237949D01*
X155601911Y-90238768D01*
X155607730Y-90240339D01*
X155614883Y-90242623D01*
X155623280Y-90245582D01*
X155632828Y-90249177D01*
X155655011Y-90258123D01*
X155680699Y-90269154D01*
X155709158Y-90281961D01*
X155739655Y-90296237D01*
X155771454Y-90311673D01*
X155834235Y-90341484D01*
X155895773Y-90368691D01*
X155955677Y-90393151D01*
X156013558Y-90414723D01*
X156069024Y-90433265D01*
X156121684Y-90448634D01*
X156171148Y-90460688D01*
X156194560Y-90465428D01*
X156217026Y-90469286D01*
X156236455Y-90472011D01*
X156257089Y-90474136D01*
X156278711Y-90475675D01*
X156301106Y-90476642D01*
X156324057Y-90477053D01*
X156347348Y-90476921D01*
X156394088Y-90475093D01*
X156417104Y-90473426D01*
X156439596Y-90471276D01*
X156461348Y-90468658D01*
X156482144Y-90465587D01*
X156501768Y-90462078D01*
X156520004Y-90458146D01*
X156536635Y-90453806D01*
X156551446Y-90449071D01*
X156578184Y-90438663D01*
X156604192Y-90426412D01*
X156629424Y-90412374D01*
X156653837Y-90396600D01*
X156677385Y-90379145D01*
X156700025Y-90360062D01*
X156721712Y-90339404D01*
X156742401Y-90317225D01*
X156762048Y-90293577D01*
X156780609Y-90268514D01*
X156798038Y-90242089D01*
X156814293Y-90214357D01*
X156829328Y-90185369D01*
X156843099Y-90155179D01*
X156855561Y-90123841D01*
X156866671Y-90091408D01*
X156876120Y-90060988D01*
X156884434Y-90031459D01*
X156891685Y-90001087D01*
X156897947Y-89968135D01*
X156903290Y-89930867D01*
X156907789Y-89887547D01*
X156911515Y-89836438D01*
X156914540Y-89775806D01*
X156916939Y-89703914D01*
X156918782Y-89619025D01*
X156920143Y-89519404D01*
X156921093Y-89403316D01*
X156922055Y-89114790D01*
X156922247Y-88739559D01*
X156922247Y-87699918D01*
X155723975Y-87699918D01*
X155691643Y-87666568D01*
X155686283Y-87661127D01*
X155681548Y-87656094D01*
X155677399Y-87651357D01*
X155675533Y-87649065D01*
X155673799Y-87646804D01*
X155672192Y-87644561D01*
X155670708Y-87642322D01*
X155669341Y-87640072D01*
X155668088Y-87637798D01*
X155666942Y-87635486D01*
X155665900Y-87633121D01*
X155664956Y-87630689D01*
X155664106Y-87628177D01*
X155663345Y-87625569D01*
X155662667Y-87622854D01*
X155662069Y-87620015D01*
X155661546Y-87617039D01*
X155661091Y-87613913D01*
X155660702Y-87610621D01*
X155660098Y-87603487D01*
X155659696Y-87595524D01*
X155659456Y-87586619D01*
X155659340Y-87576661D01*
X155659310Y-87565537D01*
X155659456Y-87544212D01*
X155659696Y-87535282D01*
X155660098Y-87527351D01*
X155660702Y-87520301D01*
X155661546Y-87514017D01*
X155662667Y-87508380D01*
X155664106Y-87503275D01*
X155665900Y-87498584D01*
X155668088Y-87494191D01*
X155670708Y-87489979D01*
X155673799Y-87485830D01*
X155677399Y-87481628D01*
X155681548Y-87477256D01*
X155686283Y-87472597D01*
X155691643Y-87467535D01*
X155724980Y-87438233D01*
X156323110Y-87437227D01*
X156922247Y-87437227D01*
X156922247Y-86438994D01*
X156957608Y-86407680D01*
X156963270Y-86402833D01*
X156968567Y-86398502D01*
X156973583Y-86394660D01*
X156978401Y-86391277D01*
X156983107Y-86388327D01*
X156985444Y-86387005D01*
X156987785Y-86385781D01*
X156990139Y-86384650D01*
X156992518Y-86383610D01*
X156994933Y-86382657D01*
X156997393Y-86381787D01*
X156999909Y-86380998D01*
X157002492Y-86380284D01*
X157005152Y-86379644D01*
X157007901Y-86379073D01*
X157013703Y-86378125D01*
X157019984Y-86377412D01*
X157026827Y-86376907D01*
X157034317Y-86376581D01*
X157042538Y-86376406D01*
X157051575Y-86376354D01*
X157069362Y-86376543D01*
G37*
G36*
X178255360Y-83950619D02*
G01*
X178792862Y-84253725D01*
X178962593Y-84348697D01*
X178894857Y-84426494D01*
X178847332Y-84482064D01*
X178832276Y-84499808D01*
X178827966Y-84505010D01*
X178826199Y-84507324D01*
X178348147Y-84241350D01*
X177772364Y-83916267D01*
X177727913Y-83891009D01*
X177752256Y-83865750D01*
X177754792Y-83862879D01*
X177757853Y-83859597D01*
X177765374Y-83851952D01*
X177774464Y-83843123D01*
X177784767Y-83833418D01*
X177795925Y-83823145D01*
X177807583Y-83812611D01*
X177819383Y-83802125D01*
X177830969Y-83791994D01*
X177887590Y-83743497D01*
X178255360Y-83950619D01*
G37*
G36*
X154748787Y-87352375D02*
G01*
X154754133Y-87356884D01*
X154758834Y-87361030D01*
X154760955Y-87363010D01*
X154762931Y-87364949D01*
X154764766Y-87366865D01*
X154766466Y-87368774D01*
X154768035Y-87370694D01*
X154769479Y-87372641D01*
X154770804Y-87374632D01*
X154772014Y-87376684D01*
X154773114Y-87378813D01*
X154774110Y-87381037D01*
X154775006Y-87383373D01*
X154775809Y-87385837D01*
X154776523Y-87388445D01*
X154777153Y-87391216D01*
X154777705Y-87394166D01*
X154778184Y-87397311D01*
X154778594Y-87400668D01*
X154778942Y-87404255D01*
X154779232Y-87408088D01*
X154779470Y-87412183D01*
X154779808Y-87421231D01*
X154779998Y-87431533D01*
X154780081Y-87443223D01*
X154780100Y-87456436D01*
X154779931Y-87479671D01*
X154779687Y-87489532D01*
X154779311Y-87498348D01*
X154778781Y-87506210D01*
X154778076Y-87513213D01*
X154777176Y-87519449D01*
X154776060Y-87525012D01*
X154774708Y-87529995D01*
X154773097Y-87534491D01*
X154771209Y-87538593D01*
X154769022Y-87542395D01*
X154766515Y-87545990D01*
X154763668Y-87549470D01*
X154760460Y-87552930D01*
X154756870Y-87556461D01*
X154733626Y-87578686D01*
X153665688Y-87578686D01*
X153098156Y-87579208D01*
X152775570Y-87581340D01*
X152631058Y-87585936D01*
X152604682Y-87589424D01*
X152599308Y-87591512D01*
X152597748Y-87593847D01*
X152621030Y-87626709D01*
X152687764Y-87714486D01*
X152932932Y-88030820D01*
X153295931Y-88494919D01*
X153739441Y-89058858D01*
X154881145Y-90507690D01*
X154881145Y-90562260D01*
X154881092Y-90570738D01*
X154880913Y-90578422D01*
X154880578Y-90585392D01*
X154880054Y-90591730D01*
X154879311Y-90597518D01*
X154878318Y-90602837D01*
X154877044Y-90607769D01*
X154875458Y-90612394D01*
X154873528Y-90616794D01*
X154871223Y-90621050D01*
X154868513Y-90625244D01*
X154865367Y-90629458D01*
X154861753Y-90633772D01*
X154857640Y-90638268D01*
X154852997Y-90643027D01*
X154847794Y-90648131D01*
X154814456Y-90680463D01*
X152217856Y-90680463D01*
X152190577Y-90652179D01*
X152186274Y-90647592D01*
X152182443Y-90643249D01*
X152179055Y-90639059D01*
X152177519Y-90636994D01*
X152176085Y-90634935D01*
X152174748Y-90632870D01*
X152173505Y-90630787D01*
X152172353Y-90628677D01*
X152171289Y-90626527D01*
X152170310Y-90624327D01*
X152169411Y-90622066D01*
X152168590Y-90619733D01*
X152167844Y-90617315D01*
X152167168Y-90614803D01*
X152166561Y-90612185D01*
X152166017Y-90609451D01*
X152165535Y-90606588D01*
X152165111Y-90603586D01*
X152164740Y-90600434D01*
X152164150Y-90593636D01*
X152163737Y-90586103D01*
X152163475Y-90577747D01*
X152163337Y-90568480D01*
X152163297Y-90558212D01*
X152163445Y-90537841D01*
X152163690Y-90529256D01*
X152164102Y-90521589D01*
X152164722Y-90514727D01*
X152165588Y-90508557D01*
X152166742Y-90502967D01*
X152168223Y-90497846D01*
X152170071Y-90493079D01*
X152172325Y-90488555D01*
X152175027Y-90484161D01*
X152178216Y-90479785D01*
X152181931Y-90475315D01*
X152186214Y-90470637D01*
X152191103Y-90465640D01*
X152196639Y-90460210D01*
X152229980Y-90427878D01*
X153348438Y-90427878D01*
X154240707Y-90425100D01*
X154417029Y-90421058D01*
X154455267Y-90418208D01*
X154466900Y-90414742D01*
X154443804Y-90383106D01*
X154377610Y-90296723D01*
X154134494Y-89983579D01*
X153335305Y-88962867D01*
X152204722Y-87523124D01*
X152203711Y-87450377D01*
X152203855Y-87427432D01*
X152204091Y-87417895D01*
X152204485Y-87409486D01*
X152205074Y-87402083D01*
X152205896Y-87395566D01*
X152206987Y-87389813D01*
X152208384Y-87384702D01*
X152210125Y-87380112D01*
X152212246Y-87375922D01*
X152214785Y-87372010D01*
X152217777Y-87368255D01*
X152221262Y-87364536D01*
X152225274Y-87360730D01*
X152235032Y-87352375D01*
X152266353Y-87326102D01*
X154717460Y-87326102D01*
X154748787Y-87352375D01*
G37*
G36*
X179907852Y-83086920D02*
G01*
X179970382Y-83088674D01*
X180018942Y-83091766D01*
X180138649Y-83103058D01*
X180245609Y-83114467D01*
X180342426Y-83126398D01*
X180431708Y-83139253D01*
X180516059Y-83153433D01*
X180598087Y-83169342D01*
X180680398Y-83187382D01*
X180765596Y-83207956D01*
X180851064Y-83230276D01*
X180935433Y-83254426D01*
X181018722Y-83280415D01*
X181100949Y-83308249D01*
X181182132Y-83337936D01*
X181262288Y-83369484D01*
X181341437Y-83402899D01*
X181419596Y-83438190D01*
X181496782Y-83475363D01*
X181573015Y-83514426D01*
X181648312Y-83555386D01*
X181722690Y-83598251D01*
X181796169Y-83643029D01*
X181868765Y-83689725D01*
X181940498Y-83738349D01*
X182011385Y-83788907D01*
X182162118Y-83904791D01*
X182308401Y-84029016D01*
X182449970Y-84161186D01*
X182586563Y-84300904D01*
X182717919Y-84447773D01*
X182843775Y-84601397D01*
X182963869Y-84761379D01*
X183077938Y-84927322D01*
X183185721Y-85098830D01*
X183286956Y-85275506D01*
X183381379Y-85456953D01*
X183468729Y-85642775D01*
X183548745Y-85832575D01*
X183621163Y-86025956D01*
X183685721Y-86222522D01*
X183742157Y-86421875D01*
X183754636Y-86472288D01*
X183764201Y-86514456D01*
X183767568Y-86531058D01*
X183769822Y-86543929D01*
X183770832Y-86552515D01*
X183770830Y-86555026D01*
X183770470Y-86556257D01*
X183766439Y-86554868D01*
X183755720Y-86549692D01*
X183715603Y-86528741D01*
X183570360Y-86449794D01*
X183356930Y-86331633D01*
X183097500Y-86186476D01*
X182430752Y-85812646D01*
X182423607Y-85765153D01*
X182421477Y-85753109D01*
X182418177Y-85736423D01*
X182408741Y-85692156D01*
X182396650Y-85638417D01*
X182383257Y-85581268D01*
X182358006Y-85486134D01*
X182329682Y-85392158D01*
X182298363Y-85299482D01*
X182264124Y-85208246D01*
X182227044Y-85118591D01*
X182187199Y-85030657D01*
X182144667Y-84944584D01*
X182099525Y-84860514D01*
X182051849Y-84778587D01*
X182001717Y-84698943D01*
X181949207Y-84621724D01*
X181894394Y-84547069D01*
X181837357Y-84475119D01*
X181778173Y-84406015D01*
X181716918Y-84339898D01*
X181653669Y-84276908D01*
X181605984Y-84232615D01*
X181557246Y-84190293D01*
X181507476Y-84149949D01*
X181456691Y-84111589D01*
X181404908Y-84075217D01*
X181352147Y-84040840D01*
X181298426Y-84008465D01*
X181243763Y-83978096D01*
X181188175Y-83949740D01*
X181131682Y-83923403D01*
X181074302Y-83899090D01*
X181016052Y-83876808D01*
X180956951Y-83856563D01*
X180897017Y-83838360D01*
X180836268Y-83822205D01*
X180774723Y-83808104D01*
X180707840Y-83795328D01*
X180640616Y-83784657D01*
X180573161Y-83776088D01*
X180505588Y-83769616D01*
X180438007Y-83765241D01*
X180370529Y-83762959D01*
X180303266Y-83762766D01*
X180236329Y-83764660D01*
X180169829Y-83768638D01*
X180103878Y-83774696D01*
X180038586Y-83782833D01*
X179974065Y-83793044D01*
X179910426Y-83805328D01*
X179847780Y-83819681D01*
X179786239Y-83836099D01*
X179725914Y-83854581D01*
X179684680Y-83868921D01*
X179636891Y-83887654D01*
X179585096Y-83909584D01*
X179531844Y-83933515D01*
X179479682Y-83958250D01*
X179431161Y-83982595D01*
X179388829Y-84005354D01*
X179355234Y-84025330D01*
X179307741Y-84056651D01*
X178799477Y-83770721D01*
X178437923Y-83567515D01*
X178326203Y-83504036D01*
X178283142Y-83478730D01*
X178282306Y-83476618D01*
X178283508Y-83473720D01*
X178286653Y-83470081D01*
X178291648Y-83465743D01*
X178306818Y-83455147D01*
X178328272Y-83442278D01*
X178355264Y-83427486D01*
X178387049Y-83411117D01*
X178462016Y-83375043D01*
X178547209Y-83336837D01*
X178636664Y-83299283D01*
X178681126Y-83281619D01*
X178724416Y-83265161D01*
X178765791Y-83250258D01*
X178804503Y-83237256D01*
X178887470Y-83211295D01*
X178967685Y-83188507D01*
X179046758Y-83168561D01*
X179126303Y-83151124D01*
X179207931Y-83135866D01*
X179293255Y-83122456D01*
X179383887Y-83110560D01*
X179481440Y-83099849D01*
X179536989Y-83095316D01*
X179604511Y-83091624D01*
X179679682Y-83088855D01*
X179758178Y-83087093D01*
X179835676Y-83086420D01*
X179907852Y-83086920D01*
G37*
G36*
X159762203Y-87299236D02*
G01*
X159824227Y-87301420D01*
X159850381Y-87303363D01*
X159872602Y-87305901D01*
X159931047Y-87315072D01*
X159988515Y-87326274D01*
X160044953Y-87339476D01*
X160100308Y-87354649D01*
X160154526Y-87371765D01*
X160207555Y-87390792D01*
X160259340Y-87411702D01*
X160309828Y-87434465D01*
X160358967Y-87459052D01*
X160406704Y-87485433D01*
X160452983Y-87513577D01*
X160497754Y-87543457D01*
X160540962Y-87575042D01*
X160582553Y-87608302D01*
X160622476Y-87643208D01*
X160660676Y-87679731D01*
X160678821Y-87698244D01*
X160697298Y-87717789D01*
X160715586Y-87737784D01*
X160733164Y-87757649D01*
X160749511Y-87776804D01*
X160764106Y-87794669D01*
X160776428Y-87810663D01*
X160781574Y-87817777D01*
X160785956Y-87824206D01*
X160794698Y-87836509D01*
X160802746Y-87847276D01*
X160810120Y-87856509D01*
X160816837Y-87864211D01*
X160819954Y-87867489D01*
X160822914Y-87870386D01*
X160825718Y-87872901D01*
X160828370Y-87875036D01*
X160830870Y-87876791D01*
X160833222Y-87878165D01*
X160835427Y-87879160D01*
X160837488Y-87879776D01*
X160839406Y-87880012D01*
X160841185Y-87879870D01*
X160842826Y-87879350D01*
X160844332Y-87878453D01*
X160845704Y-87877177D01*
X160846946Y-87875525D01*
X160848059Y-87873496D01*
X160849045Y-87871091D01*
X160849907Y-87868310D01*
X160850647Y-87865153D01*
X160851266Y-87861622D01*
X160851769Y-87857715D01*
X160852429Y-87848779D01*
X160852645Y-87838348D01*
X160853513Y-87805984D01*
X160855802Y-87749184D01*
X160862739Y-87594852D01*
X160872846Y-87392790D01*
X160905178Y-87359439D01*
X160910607Y-87353905D01*
X160915602Y-87349017D01*
X160920275Y-87344735D01*
X160922525Y-87342809D01*
X160924737Y-87341020D01*
X160926923Y-87339363D01*
X160929098Y-87337832D01*
X160931275Y-87336423D01*
X160933469Y-87335130D01*
X160935693Y-87333950D01*
X160937962Y-87332876D01*
X160940288Y-87331904D01*
X160942687Y-87331028D01*
X160945172Y-87330244D01*
X160947756Y-87329547D01*
X160950454Y-87328932D01*
X160953279Y-87328394D01*
X160956245Y-87327927D01*
X160959367Y-87327527D01*
X160966132Y-87326907D01*
X160973684Y-87326495D01*
X160982135Y-87326250D01*
X160991594Y-87326132D01*
X161002174Y-87326102D01*
X161022218Y-87326252D01*
X161030677Y-87326502D01*
X161038247Y-87326923D01*
X161045042Y-87327558D01*
X161051175Y-87328447D01*
X161056760Y-87329633D01*
X161061912Y-87331156D01*
X161066744Y-87333057D01*
X161071370Y-87335379D01*
X161075904Y-87338163D01*
X161080459Y-87341450D01*
X161085151Y-87345282D01*
X161090093Y-87349699D01*
X161095398Y-87354744D01*
X161101181Y-87360458D01*
X161135536Y-87394801D01*
X161135536Y-90615799D01*
X161102200Y-90648131D01*
X161096443Y-90653657D01*
X161091192Y-90658514D01*
X161086290Y-90662747D01*
X161083921Y-90664643D01*
X161081580Y-90666399D01*
X161079249Y-90668019D01*
X161076907Y-90669511D01*
X161074534Y-90670879D01*
X161072111Y-90672127D01*
X161069619Y-90673263D01*
X161067038Y-90674291D01*
X161064348Y-90675216D01*
X161061529Y-90676044D01*
X161058563Y-90676781D01*
X161055429Y-90677431D01*
X161052108Y-90678000D01*
X161048580Y-90678493D01*
X161044826Y-90678916D01*
X161040825Y-90679274D01*
X161032008Y-90679816D01*
X161021972Y-90680164D01*
X161010559Y-90680359D01*
X160997613Y-90680444D01*
X160982978Y-90680463D01*
X160955944Y-90680325D01*
X160944684Y-90680103D01*
X160934748Y-90679736D01*
X160926002Y-90679192D01*
X160918311Y-90678438D01*
X160911541Y-90677441D01*
X160905556Y-90676168D01*
X160900223Y-90674588D01*
X160895407Y-90672668D01*
X160890973Y-90670375D01*
X160886785Y-90667677D01*
X160882711Y-90664540D01*
X160878614Y-90660934D01*
X160869816Y-90652179D01*
X160842537Y-90623882D01*
X160842537Y-89480167D01*
X160840012Y-88594091D01*
X160836571Y-88373362D01*
X160831425Y-88283920D01*
X160824690Y-88256404D01*
X160816078Y-88228822D01*
X160805639Y-88201215D01*
X160793425Y-88173625D01*
X160779489Y-88146091D01*
X160763882Y-88118656D01*
X160746656Y-88091360D01*
X160727863Y-88064243D01*
X160707554Y-88037347D01*
X160685781Y-88010712D01*
X160662597Y-87984380D01*
X160638052Y-87958390D01*
X160585089Y-87907605D01*
X160527308Y-87858683D01*
X160465122Y-87811952D01*
X160398946Y-87767738D01*
X160329194Y-87726369D01*
X160256281Y-87688170D01*
X160180620Y-87653471D01*
X160102627Y-87622597D01*
X160022716Y-87595875D01*
X159941300Y-87573633D01*
X159890405Y-87562313D01*
X159865337Y-87557537D01*
X159840443Y-87553349D01*
X159815661Y-87549747D01*
X159790930Y-87546729D01*
X159766190Y-87544295D01*
X159741381Y-87542442D01*
X159716442Y-87541169D01*
X159691312Y-87540475D01*
X159665930Y-87540357D01*
X159640236Y-87540816D01*
X159614170Y-87541849D01*
X159587670Y-87543455D01*
X159533128Y-87548378D01*
X159479477Y-87554566D01*
X159427962Y-87562167D01*
X159378492Y-87571221D01*
X159330977Y-87581768D01*
X159285327Y-87593848D01*
X159241451Y-87607502D01*
X159199260Y-87622768D01*
X159158663Y-87639688D01*
X159119570Y-87658301D01*
X159081890Y-87678646D01*
X159045534Y-87700765D01*
X159010410Y-87724697D01*
X158976429Y-87750482D01*
X158943501Y-87778160D01*
X158911535Y-87807770D01*
X158880440Y-87839354D01*
X158860654Y-87861133D01*
X158841833Y-87883287D01*
X158823971Y-87905837D01*
X158807062Y-87928805D01*
X158791100Y-87952211D01*
X158776080Y-87976075D01*
X158761994Y-88000419D01*
X158748838Y-88025264D01*
X158736606Y-88050629D01*
X158725291Y-88076535D01*
X158714888Y-88103004D01*
X158705390Y-88130056D01*
X158696793Y-88157712D01*
X158689089Y-88185993D01*
X158682274Y-88214918D01*
X158676341Y-88244510D01*
X158673829Y-88259473D01*
X158671586Y-88277448D01*
X158669597Y-88299556D01*
X158667848Y-88326915D01*
X158666325Y-88360644D01*
X158665011Y-88401862D01*
X158662954Y-88511240D01*
X158661561Y-88664000D01*
X158660712Y-88869094D01*
X158660174Y-89472085D01*
X158660174Y-90615799D01*
X158626837Y-90648131D01*
X158621081Y-90653657D01*
X158615830Y-90658514D01*
X158610929Y-90662747D01*
X158608560Y-90664643D01*
X158606220Y-90666399D01*
X158603889Y-90668019D01*
X158601547Y-90669511D01*
X158599175Y-90670879D01*
X158596753Y-90672127D01*
X158594261Y-90673263D01*
X158591680Y-90674291D01*
X158588991Y-90675216D01*
X158586173Y-90676044D01*
X158583206Y-90676781D01*
X158580073Y-90677431D01*
X158576752Y-90678000D01*
X158573224Y-90678493D01*
X158569470Y-90678916D01*
X158565469Y-90679274D01*
X158556652Y-90679816D01*
X158546615Y-90680164D01*
X158535201Y-90680359D01*
X158522254Y-90680444D01*
X158507616Y-90680463D01*
X158480583Y-90680325D01*
X158469323Y-90680103D01*
X158459388Y-90679736D01*
X158450642Y-90679192D01*
X158442952Y-90678438D01*
X158436183Y-90677441D01*
X158430199Y-90676168D01*
X158424867Y-90674588D01*
X158420051Y-90672668D01*
X158415616Y-90670375D01*
X158411429Y-90667677D01*
X158407353Y-90664540D01*
X158403256Y-90660934D01*
X158394454Y-90652179D01*
X158367175Y-90623882D01*
X158367175Y-89516548D01*
X158369957Y-88675426D01*
X158373147Y-88425364D01*
X158377283Y-88307150D01*
X158382346Y-88264859D01*
X158388800Y-88222899D01*
X158396616Y-88181341D01*
X158405763Y-88140256D01*
X158416212Y-88099716D01*
X158427934Y-88059792D01*
X158440899Y-88020554D01*
X158455078Y-87982074D01*
X158470440Y-87944422D01*
X158486957Y-87907671D01*
X158504599Y-87871890D01*
X158523336Y-87837151D01*
X158543139Y-87803526D01*
X158563978Y-87771085D01*
X158585824Y-87739898D01*
X158608647Y-87710039D01*
X158639106Y-87674024D01*
X158671732Y-87639499D01*
X158706489Y-87606487D01*
X158743342Y-87575010D01*
X158782255Y-87545091D01*
X158823193Y-87516751D01*
X158866119Y-87490012D01*
X158911000Y-87464897D01*
X158957798Y-87441429D01*
X159006479Y-87419628D01*
X159057007Y-87399517D01*
X159109346Y-87381119D01*
X159163461Y-87364456D01*
X159219316Y-87349550D01*
X159276876Y-87336423D01*
X159336106Y-87325097D01*
X159392767Y-87316977D01*
X159460710Y-87310159D01*
X159535781Y-87304811D01*
X159613824Y-87301097D01*
X159690683Y-87299183D01*
X159762203Y-87299236D01*
G37*
D11*
X173215757Y-92352779D02*
X173215757Y-91352779D01*
X173215757Y-91828969D02*
X172644329Y-91828969D01*
X172644329Y-92352779D02*
X172644329Y-91352779D01*
X172310995Y-91352779D02*
X171977662Y-92352779D01*
X171977662Y-92352779D02*
X171644329Y-91352779D01*
X170549090Y-92352779D02*
X170549090Y-91352779D01*
X170549090Y-91352779D02*
X170168138Y-91352779D01*
X170168138Y-91352779D02*
X170072900Y-91400398D01*
X170072900Y-91400398D02*
X170025281Y-91448017D01*
X170025281Y-91448017D02*
X169977662Y-91543255D01*
X169977662Y-91543255D02*
X169977662Y-91686112D01*
X169977662Y-91686112D02*
X170025281Y-91781350D01*
X170025281Y-91781350D02*
X170072900Y-91828969D01*
X170072900Y-91828969D02*
X170168138Y-91876588D01*
X170168138Y-91876588D02*
X170549090Y-91876588D01*
X169358614Y-91352779D02*
X169168138Y-91352779D01*
X169168138Y-91352779D02*
X169072900Y-91400398D01*
X169072900Y-91400398D02*
X168977662Y-91495636D01*
X168977662Y-91495636D02*
X168930043Y-91686112D01*
X168930043Y-91686112D02*
X168930043Y-92019445D01*
X168930043Y-92019445D02*
X168977662Y-92209921D01*
X168977662Y-92209921D02*
X169072900Y-92305160D01*
X169072900Y-92305160D02*
X169168138Y-92352779D01*
X169168138Y-92352779D02*
X169358614Y-92352779D01*
X169358614Y-92352779D02*
X169453852Y-92305160D01*
X169453852Y-92305160D02*
X169549090Y-92209921D01*
X169549090Y-92209921D02*
X169596709Y-92019445D01*
X169596709Y-92019445D02*
X169596709Y-91686112D01*
X169596709Y-91686112D02*
X169549090Y-91495636D01*
X169549090Y-91495636D02*
X169453852Y-91400398D01*
X169453852Y-91400398D02*
X169358614Y-91352779D01*
X168596709Y-91352779D02*
X168358614Y-92352779D01*
X168358614Y-92352779D02*
X168168138Y-91638493D01*
X168168138Y-91638493D02*
X167977662Y-92352779D01*
X167977662Y-92352779D02*
X167739567Y-91352779D01*
X167358614Y-91828969D02*
X167025281Y-91828969D01*
X166882424Y-92352779D02*
X167358614Y-92352779D01*
X167358614Y-92352779D02*
X167358614Y-91352779D01*
X167358614Y-91352779D02*
X166882424Y-91352779D01*
X165882424Y-92352779D02*
X166215757Y-91876588D01*
X166453852Y-92352779D02*
X166453852Y-91352779D01*
X166453852Y-91352779D02*
X166072900Y-91352779D01*
X166072900Y-91352779D02*
X165977662Y-91400398D01*
X165977662Y-91400398D02*
X165930043Y-91448017D01*
X165930043Y-91448017D02*
X165882424Y-91543255D01*
X165882424Y-91543255D02*
X165882424Y-91686112D01*
X165882424Y-91686112D02*
X165930043Y-91781350D01*
X165930043Y-91781350D02*
X165977662Y-91828969D01*
X165977662Y-91828969D02*
X166072900Y-91876588D01*
X166072900Y-91876588D02*
X166453852Y-91876588D01*
X164739566Y-92305160D02*
X164596709Y-92352779D01*
X164596709Y-92352779D02*
X164358614Y-92352779D01*
X164358614Y-92352779D02*
X164263376Y-92305160D01*
X164263376Y-92305160D02*
X164215757Y-92257540D01*
X164215757Y-92257540D02*
X164168138Y-92162302D01*
X164168138Y-92162302D02*
X164168138Y-92067064D01*
X164168138Y-92067064D02*
X164215757Y-91971826D01*
X164215757Y-91971826D02*
X164263376Y-91924207D01*
X164263376Y-91924207D02*
X164358614Y-91876588D01*
X164358614Y-91876588D02*
X164549090Y-91828969D01*
X164549090Y-91828969D02*
X164644328Y-91781350D01*
X164644328Y-91781350D02*
X164691947Y-91733731D01*
X164691947Y-91733731D02*
X164739566Y-91638493D01*
X164739566Y-91638493D02*
X164739566Y-91543255D01*
X164739566Y-91543255D02*
X164691947Y-91448017D01*
X164691947Y-91448017D02*
X164644328Y-91400398D01*
X164644328Y-91400398D02*
X164549090Y-91352779D01*
X164549090Y-91352779D02*
X164310995Y-91352779D01*
X164310995Y-91352779D02*
X164168138Y-91400398D01*
X163739566Y-91352779D02*
X163739566Y-92162302D01*
X163739566Y-92162302D02*
X163691947Y-92257540D01*
X163691947Y-92257540D02*
X163644328Y-92305160D01*
X163644328Y-92305160D02*
X163549090Y-92352779D01*
X163549090Y-92352779D02*
X163358614Y-92352779D01*
X163358614Y-92352779D02*
X163263376Y-92305160D01*
X163263376Y-92305160D02*
X163215757Y-92257540D01*
X163215757Y-92257540D02*
X163168138Y-92162302D01*
X163168138Y-92162302D02*
X163168138Y-91352779D01*
X162691947Y-92352779D02*
X162691947Y-91352779D01*
X162691947Y-91352779D02*
X162310995Y-91352779D01*
X162310995Y-91352779D02*
X162215757Y-91400398D01*
X162215757Y-91400398D02*
X162168138Y-91448017D01*
X162168138Y-91448017D02*
X162120519Y-91543255D01*
X162120519Y-91543255D02*
X162120519Y-91686112D01*
X162120519Y-91686112D02*
X162168138Y-91781350D01*
X162168138Y-91781350D02*
X162215757Y-91828969D01*
X162215757Y-91828969D02*
X162310995Y-91876588D01*
X162310995Y-91876588D02*
X162691947Y-91876588D01*
X161691947Y-92352779D02*
X161691947Y-91352779D01*
X161691947Y-91352779D02*
X161310995Y-91352779D01*
X161310995Y-91352779D02*
X161215757Y-91400398D01*
X161215757Y-91400398D02*
X161168138Y-91448017D01*
X161168138Y-91448017D02*
X161120519Y-91543255D01*
X161120519Y-91543255D02*
X161120519Y-91686112D01*
X161120519Y-91686112D02*
X161168138Y-91781350D01*
X161168138Y-91781350D02*
X161215757Y-91828969D01*
X161215757Y-91828969D02*
X161310995Y-91876588D01*
X161310995Y-91876588D02*
X161691947Y-91876588D01*
X160215757Y-92352779D02*
X160691947Y-92352779D01*
X160691947Y-92352779D02*
X160691947Y-91352779D01*
X159691947Y-91876588D02*
X159691947Y-92352779D01*
X160025280Y-91352779D02*
X159691947Y-91876588D01*
X159691947Y-91876588D02*
X159358614Y-91352779D01*
G36*
X168662085Y-94191000D02*
G01*
X169051470Y-93171041D01*
X168907305Y-93171041D01*
X168584233Y-94029799D01*
X168260428Y-93171041D01*
X168116935Y-93171041D01*
X168505648Y-94191000D01*
X168662085Y-94191000D01*
G37*
G36*
X167931433Y-94073763D02*
G01*
X167705997Y-94073763D01*
X167705997Y-93296094D01*
X167951278Y-93346896D01*
X167951278Y-93221844D01*
X167707401Y-93171041D01*
X167569404Y-93171041D01*
X167569404Y-94073763D01*
X167343968Y-94073763D01*
X167343968Y-94191000D01*
X167931433Y-94191000D01*
X167931433Y-94073763D01*
G37*
G36*
X167065348Y-94019053D02*
G01*
X166921184Y-94019053D01*
X166921184Y-94191000D01*
X167065348Y-94191000D01*
X167065348Y-94019053D01*
G37*
G36*
X166596890Y-94073763D02*
G01*
X166371454Y-94073763D01*
X166371454Y-93296094D01*
X166616735Y-93346896D01*
X166616735Y-93221844D01*
X166372858Y-93171041D01*
X166234861Y-93171041D01*
X166234861Y-94073763D01*
X166009425Y-94073763D01*
X166009425Y-94191000D01*
X166596890Y-94191000D01*
X166596890Y-94073763D01*
G37*
%LPC*%
D12*
%TO.C,J1*%
X154500000Y-116250000D03*
D13*
X154500000Y-113710000D03*
%TD*%
D12*
%TO.C,J5*%
X199565000Y-89860000D03*
D13*
X197025000Y-89860000D03*
%TD*%
D12*
%TO.C,J4*%
X179475000Y-127400000D03*
D13*
X182015000Y-127400000D03*
%TD*%
D14*
%TO.C,H3*%
X182575000Y-82125000D03*
%TD*%
%TO.C,H1*%
X163975000Y-81625000D03*
%TD*%
%TO.C,H4*%
X201090000Y-105800000D03*
%TD*%
D15*
%TO.C,R9*%
X181100000Y-112529997D03*
X178559995Y-115070003D03*
X176019990Y-112529997D03*
%TD*%
D12*
%TO.C,J2*%
X151540000Y-107390000D03*
D13*
X151540000Y-109930000D03*
%TD*%
D14*
%TO.C,H2*%
X171450000Y-99270000D03*
%TD*%
D12*
%TO.C,J3*%
X185675000Y-112100000D03*
D13*
X188215000Y-112100000D03*
%TD*%
%LPD*%
M02*
